<?xml version="1.0" encoding="utf-8" standalone="no"?>
<!DOCTYPE svg PUBLIC "-//W3C//DTD SVG 1.1//EN"
  "http://www.w3.org/Graphics/SVG/1.1/DTD/svg11.dtd">
<svg xmlns:xlink="http://www.w3.org/1999/xlink" width="100.8pt" height="100.8pt" viewBox="0 0 100.8 100.8" xmlns="http://www.w3.org/2000/svg" version="1.1">
 <metadata>
  <rdf:RDF xmlns:dc="http://purl.org/dc/elements/1.1/" xmlns:cc="http://creativecommons.org/ns#" xmlns:rdf="http://www.w3.org/1999/02/22-rdf-syntax-ns#">
   <cc:Work>
    <dc:type rdf:resource="http://purl.org/dc/dcmitype/StillImage"/>
    <dc:date>2025-09-10T17:09:17.297719</dc:date>
    <dc:format>image/svg+xml</dc:format>
    <dc:creator>
     <cc:Agent>
      <dc:title>Matplotlib v3.10.5, https://matplotlib.org/</dc:title>
     </cc:Agent>
    </dc:creator>
   </cc:Work>
  </rdf:RDF>
 </metadata>
 <defs>
  <style type="text/css">*{stroke-linejoin: round; stroke-linecap: butt}</style>
 </defs>
 <g id="figure_1">
  <g id="patch_1">
   <path d="M 0 100.8 
L 100.8 100.8 
L 100.8 0 
L 0 0 
z
" style="fill: #ffffff"/>
  </g>
  <g id="axes_1">
   <g id="Quiver_1">
    <path d="M 19.583487 73.440085 
L 21.328061 73.440085 
L 21.511343 73.073521 
L 22.977599 73.623367 
L 21.511343 74.173214 
L 21.328061 73.806649 
L 19.583487 73.806649 
L 19.583487 73.440085 
" clip-path="url(#pa60fbc7b56)"/>
    <path d="M 63.100484 85.124196 
L 64.845058 85.124196 
L 65.02834 84.757632 
L 66.494596 85.307478 
L 65.02834 85.857325 
L 64.845058 85.49076 
L 63.100484 85.49076 
L 63.100484 85.124196 
" clip-path="url(#pa60fbc7b56)"/>
    <path d="M 39.458331 66.469425 
L 41.202905 66.469425 
L 41.386187 66.102861 
L 42.852444 66.652707 
L 41.386187 67.202553 
L 41.202905 66.835989 
L 39.458331 66.835989 
L 39.458331 66.469425 
" clip-path="url(#pa60fbc7b56)"/>
    <path d="M 24.191537 62.219364 
L 25.936111 62.219364 
L 26.119393 61.8528 
L 27.58565 62.402646 
L 26.119393 62.952492 
L 25.936111 62.585928 
L 24.191537 62.585928 
L 24.191537 62.219364 
" clip-path="url(#pa60fbc7b56)"/>
    <path d="M 56.32641 24.44628 
L 58.070984 24.44628 
L 58.254266 24.079716 
L 59.720522 24.629562 
L 58.254266 25.179409 
L 58.070984 24.812844 
L 56.32641 24.812844 
L 56.32641 24.44628 
" clip-path="url(#pa60fbc7b56)"/>
    <path d="M 62.275548 64.564299 
L 64.020122 64.564299 
L 64.203404 64.197735 
L 65.66966 64.747581 
L 64.203404 65.297428 
L 64.020122 64.930864 
L 62.275548 64.930864 
L 62.275548 64.564299 
" clip-path="url(#pa60fbc7b56)"/>
    <path d="M 25.033914 51.873758 
L 26.778488 51.873758 
L 26.96177 51.507194 
L 28.428027 52.05704 
L 26.96177 52.606887 
L 26.778488 52.240322 
L 25.033914 52.240322 
L 25.033914 51.873758 
" clip-path="url(#pa60fbc7b56)"/>
    <path d="M 51.212659 29.14571 
L 52.957233 29.14571 
L 53.140515 28.779145 
L 54.606771 29.328992 
L 53.140515 29.878838 
L 52.957233 29.512274 
L 51.212659 29.512274 
L 51.212659 29.14571 
" clip-path="url(#pa60fbc7b56)"/>
    <path d="M 70.132777 61.268607 
L 71.877348 61.268607 
L 72.06063 60.902043 
L 73.526887 61.451889 
L 72.06063 62.001735 
L 71.877348 61.635171 
L 70.132777 61.635171 
L 70.132777 61.268607 
" clip-path="url(#pa60fbc7b56)"/>
    <path d="M 52.939984 58.304523 
L 54.684558 58.304523 
L 54.86784 57.937959 
L 56.334097 58.487805 
L 54.86784 59.037651 
L 54.684558 58.671087 
L 52.939984 58.671087 
L 52.939984 58.304523 
" clip-path="url(#pa60fbc7b56)"/>
    <path d="M 7.46499 50.188428 
L 9.209564 50.188428 
L 9.392846 49.821864 
L 10.859103 50.37171 
L 9.392846 50.921556 
L 9.209564 50.554992 
L 7.46499 50.554992 
L 7.46499 50.188428 
" clip-path="url(#pa60fbc7b56)"/>
    <path d="M 78.206053 46.539264 
L 79.95063 46.539264 
L 80.133912 46.1727 
L 81.600169 46.722546 
L 80.133912 47.272393 
L 79.95063 46.905828 
L 78.206053 46.905828 
L 78.206053 46.539264 
" clip-path="url(#pa60fbc7b56)"/>
    <path d="M 35.728624 85.49563 
L 37.473198 85.49563 
L 37.65648 85.129066 
L 39.122736 85.678912 
L 37.65648 86.228759 
L 37.473198 85.862194 
L 35.728624 85.862194 
L 35.728624 85.49563 
" clip-path="url(#pa60fbc7b56)"/>
    <path d="M 15.944279 51.899686 
L 17.688853 51.899686 
L 17.872135 51.533122 
L 19.338392 52.082968 
L 17.872135 52.632814 
L 17.688853 52.26625 
L 15.944279 52.26625 
L 15.944279 51.899686 
" clip-path="url(#pa60fbc7b56)"/>
    <path d="M 50.035735 54.54117 
L 51.780308 54.54117 
L 51.96359 54.174606 
L 53.429847 54.724452 
L 51.96359 55.274298 
L 51.780308 54.907734 
L 50.035735 54.907734 
L 50.035735 54.54117 
" clip-path="url(#pa60fbc7b56)"/>
    <path d="M 31.891141 50.473468 
L 33.635715 50.473468 
L 33.818997 50.106904 
L 35.285253 50.65675 
L 33.818997 51.206597 
L 33.635715 50.840033 
L 31.891141 50.840033 
L 31.891141 50.473468 
" clip-path="url(#pa60fbc7b56)"/>
    <path d="M 61.927666 71.806116 
L 63.67224 71.806116 
L 63.855522 71.439552 
L 65.321778 71.989398 
L 63.855522 72.539244 
L 63.67224 72.17268 
L 61.927666 72.17268 
L 61.927666 71.806116 
" clip-path="url(#pa60fbc7b56)"/>
    <path d="M 42.966843 58.143779 
L 44.711416 58.143779 
L 44.894699 57.777215 
L 46.360955 58.327061 
L 44.894699 58.876908 
L 44.711416 58.510344 
L 42.966843 58.510344 
L 42.966843 58.143779 
" clip-path="url(#pa60fbc7b56)"/>
    <path d="M 65.260052 42.856455 
L 67.004626 42.856455 
L 67.187908 42.489891 
L 68.654165 43.039737 
L 67.187908 43.589583 
L 67.004626 43.223019 
L 65.260052 43.223019 
L 65.260052 42.856455 
" clip-path="url(#pa60fbc7b56)"/>
    <path d="M 59.378508 33.493906 
L 61.123082 33.493906 
L 61.306364 33.127342 
L 62.772621 33.677188 
L 61.306364 34.227034 
L 61.123082 33.86047 
L 59.378508 33.86047 
L 59.378508 33.493906 
" clip-path="url(#pa60fbc7b56)"/>
    <path d="M 22.341646 14.254264 
L 24.08622 14.254264 
L 24.269502 13.8877 
L 25.735758 14.437546 
L 24.269502 14.987392 
L 24.08622 14.620828 
L 22.341646 14.620828 
L 22.341646 14.254264 
" clip-path="url(#pa60fbc7b56)"/>
    <path d="M 67.181685 34.907874 
L 68.926255 34.907874 
L 69.109538 34.54131 
L 70.575794 35.091156 
L 69.109538 35.641002 
L 68.926255 35.274438 
L 67.181685 35.274438 
L 67.181685 34.907874 
" clip-path="url(#pa60fbc7b56)"/>
    <path d="M 16.520595 66.048758 
L 18.265169 66.048758 
L 18.448451 65.682194 
L 19.914707 66.23204 
L 18.448451 66.781887 
L 18.265169 66.415322 
L 16.520595 66.415322 
L 16.520595 66.048758 
" clip-path="url(#pa60fbc7b56)"/>
    <path d="M 27.154413 27.135019 
L 28.898987 27.135019 
L 29.082269 26.768455 
L 30.548525 27.318301 
L 29.082269 27.868148 
L 28.898987 27.501583 
L 27.154413 27.501583 
L 27.154413 27.135019 
" clip-path="url(#pa60fbc7b56)"/>
    <path d="M 30.213597 38.029667 
L 31.958171 38.029667 
L 32.141453 37.663102 
L 33.60771 38.212949 
L 32.141453 38.762795 
L 31.958171 38.396231 
L 30.213597 38.396231 
L 30.213597 38.029667 
" clip-path="url(#pa60fbc7b56)"/>
    <path d="M 59.645544 26.35109 
L 61.390118 26.35109 
L 61.5734 25.984526 
L 63.039657 26.534372 
L 61.5734 27.084218 
L 61.390118 26.717654 
L 59.645544 26.717654 
L 59.645544 26.35109 
" clip-path="url(#pa60fbc7b56)"/>
    <path d="M 28.414462 50.506633 
L 30.159036 50.506633 
L 30.342318 50.140069 
L 31.808575 50.689915 
L 30.342318 51.239762 
L 30.159036 50.873198 
L 28.414462 50.873198 
L 28.414462 50.506633 
" clip-path="url(#pa60fbc7b56)"/>
    <path d="M 36.11261 44.773761 
L 37.857184 44.773761 
L 38.040466 44.407197 
L 39.506722 44.957043 
L 38.040466 45.50689 
L 37.857184 45.140326 
L 36.11261 45.140326 
L 36.11261 44.773761 
" clip-path="url(#pa60fbc7b56)"/>
    <path d="M 12.043611 17.82916 
L 13.788185 17.82916 
L 13.971467 17.462596 
L 15.437724 18.012442 
L 13.971467 18.562288 
L 13.788185 18.195724 
L 12.043611 18.195724 
L 12.043611 17.82916 
" clip-path="url(#pa60fbc7b56)"/>
    <path d="M 18.04389 48.246018 
L 19.788464 48.246018 
L 19.971746 47.879454 
L 21.438003 48.4293 
L 19.971746 48.979146 
L 19.788464 48.612582 
L 18.04389 48.612582 
L 18.04389 48.246018 
" clip-path="url(#pa60fbc7b56)"/>
    <path d="M 70.014565 61.719788 
L 71.759135 61.719788 
L 71.942417 61.353224 
L 73.408674 61.90307 
L 71.942417 62.452916 
L 71.759135 62.086352 
L 70.014565 62.086352 
L 70.014565 61.719788 
" clip-path="url(#pa60fbc7b56)"/>
    <path d="M 11.706592 58.366733 
L 13.451166 58.366733 
L 13.634448 58.000169 
L 15.100704 58.550015 
L 13.634448 59.099861 
L 13.451166 58.733297 
L 11.706592 58.733297 
L 11.706592 58.366733 
" clip-path="url(#pa60fbc7b56)"/>
    <path d="M 38.349138 38.607767 
L 40.093712 38.607767 
L 40.276994 38.241203 
L 41.74325 38.791049 
L 40.276994 39.340895 
L 40.093712 38.974331 
L 38.349138 38.974331 
L 38.349138 38.607767 
" clip-path="url(#pa60fbc7b56)"/>
    <path d="M 67.236644 26.940122 
L 68.981221 26.940122 
L 69.164503 26.573558 
L 70.63076 27.123404 
L 69.164503 27.67325 
L 68.981221 27.306686 
L 67.236644 27.306686 
L 67.236644 26.940122 
" clip-path="url(#pa60fbc7b56)"/>
    <path d="M 17.687206 55.780112 
L 19.431779 55.780112 
L 19.615061 55.413548 
L 21.081318 55.963394 
L 19.615061 56.51324 
L 19.431779 56.146676 
L 17.687206 56.146676 
L 17.687206 55.780112 
" clip-path="url(#pa60fbc7b56)"/>
    <path d="M 54.607846 63.803537 
L 56.35242 63.803537 
L 56.535702 63.436973 
L 58.001959 63.986819 
L 56.535702 64.536666 
L 56.35242 64.170102 
L 54.607846 64.170102 
L 54.607846 63.803537 
" clip-path="url(#pa60fbc7b56)"/>
    <path d="M 76.632056 21.1297 
L 78.376629 21.1297 
L 78.559912 20.763136 
L 80.026168 21.312982 
L 78.559912 21.862828 
L 78.376629 21.496264 
L 76.632056 21.496264 
L 76.632056 21.1297 
" clip-path="url(#pa60fbc7b56)"/>
    <path d="M 41.826009 53.016433 
L 43.570582 53.016433 
L 43.753865 52.649868 
L 45.220121 53.199715 
L 43.753865 53.749561 
L 43.570582 53.382997 
L 41.826009 53.382997 
L 41.826009 53.016433 
" clip-path="url(#pa60fbc7b56)"/>
    <path d="M 48.231546 44.755606 
L 49.97612 44.755606 
L 50.159402 44.389042 
L 51.625659 44.938889 
L 50.159402 45.488735 
L 49.97612 45.122171 
L 48.231546 45.122171 
L 48.231546 44.755606 
" clip-path="url(#pa60fbc7b56)"/>
    <path d="M 13.74185 14.972907 
L 15.486424 14.972907 
L 15.669706 14.606343 
L 17.135963 15.156189 
L 15.669706 15.706035 
L 15.486424 15.339471 
L 13.74185 15.339471 
L 13.74185 14.972907 
" clip-path="url(#pa60fbc7b56)"/>
    <path d="M 61.490932 45.535306 
L 63.235506 45.535306 
L 63.418788 45.168742 
L 64.885044 45.718588 
L 63.418788 46.268434 
L 63.235506 45.90187 
L 61.490932 45.90187 
L 61.490932 45.535306 
" clip-path="url(#pa60fbc7b56)"/>
    <path d="M 58.702094 77.304155 
L 60.446667 77.304155 
L 60.629949 76.937591 
L 62.096206 77.487437 
L 60.629949 78.037284 
L 60.446667 77.67072 
L 58.702094 77.67072 
L 58.702094 77.304155 
" clip-path="url(#pa60fbc7b56)"/>
    <path d="M 14.447021 71.325766 
L 16.191595 71.325766 
L 16.374877 70.959202 
L 17.841134 71.509048 
L 16.374877 72.058895 
L 16.191595 71.692331 
L 14.447021 71.692331 
L 14.447021 71.325766 
" clip-path="url(#pa60fbc7b56)"/>
    <path d="M 25.332523 78.755779 
L 27.077096 78.755779 
L 27.260378 78.389215 
L 28.726635 78.939061 
L 27.260378 79.488907 
L 27.077096 79.122343 
L 25.332523 79.122343 
L 25.332523 78.755779 
" clip-path="url(#pa60fbc7b56)"/>
    <path d="M 26.97973 55.844959 
L 28.724304 55.844959 
L 28.907586 55.478395 
L 30.373843 56.028241 
L 28.907586 56.578087 
L 28.724304 56.211523 
L 26.97973 56.211523 
L 26.97973 55.844959 
" clip-path="url(#pa60fbc7b56)"/>
    <path d="M 52.185292 57.439103 
L 53.929866 57.439103 
L 54.113148 57.072538 
L 55.579405 57.622385 
L 54.113148 58.172231 
L 53.929866 57.805667 
L 52.185292 57.805667 
L 52.185292 57.439103 
" clip-path="url(#pa60fbc7b56)"/>
    <path d="M 39.669324 83.394632 
L 41.413898 83.394632 
L 41.59718 83.028068 
L 43.063436 83.577914 
L 41.59718 84.127761 
L 41.413898 83.761197 
L 39.669324 83.761197 
L 39.669324 83.394632 
" clip-path="url(#pa60fbc7b56)"/>
    <path d="M 19.720665 18.461753 
L 21.465239 18.461753 
L 21.648521 18.095189 
L 23.114778 18.645035 
L 21.648521 19.194881 
L 21.465239 18.828317 
L 19.720665 18.828317 
L 19.720665 18.461753 
" clip-path="url(#pa60fbc7b56)"/>
    <path d="M 50.465492 21.247693 
L 52.210066 21.247693 
L 52.393348 20.881129 
L 53.859605 21.430975 
L 52.393348 21.980822 
L 52.210066 21.614257 
L 50.465492 21.614257 
L 50.465492 21.247693 
" clip-path="url(#pa60fbc7b56)"/>
    <path d="M 30.063304 70.082457 
L 31.807878 70.082457 
L 31.99116 69.715893 
L 33.457417 70.265739 
L 31.99116 70.815586 
L 31.807878 70.449022 
L 30.063304 70.449022 
L 30.063304 70.082457 
" clip-path="url(#pa60fbc7b56)"/>
    <path d="M 51.364284 47.404383 
L 53.108858 47.404383 
L 53.29214 47.037819 
L 54.758396 47.587665 
L 53.29214 48.137511 
L 53.108858 47.770947 
L 51.364284 47.770947 
L 51.364284 47.404383 
" clip-path="url(#pa60fbc7b56)"/>
    <path d="M 71.805006 47.100611 
L 73.549577 47.100611 
L 73.732859 46.734047 
L 75.199116 47.283893 
L 73.732859 47.833739 
L 73.549577 47.467175 
L 71.805006 47.467175 
L 71.805006 47.100611 
" clip-path="url(#pa60fbc7b56)"/>
    <path d="M 52.163264 61.091851 
L 53.907838 61.091851 
L 54.09112 60.725287 
L 55.557377 61.275133 
L 54.09112 61.824979 
L 53.907838 61.458415 
L 52.163264 61.458415 
L 52.163264 61.091851 
" clip-path="url(#pa60fbc7b56)"/>
    <path d="M 66.559914 69.802375 
L 68.304484 69.802375 
L 68.487766 69.435811 
L 69.954023 69.985657 
L 68.487766 70.535503 
L 68.304484 70.168939 
L 66.559914 70.168939 
L 66.559914 69.802375 
" clip-path="url(#pa60fbc7b56)"/>
    <path d="M 76.926366 27.362738 
L 78.670943 27.362738 
L 78.854225 26.996174 
L 80.320481 27.546021 
L 78.854225 28.095867 
L 78.670943 27.729303 
L 76.926366 27.729303 
L 76.926366 27.362738 
" clip-path="url(#pa60fbc7b56)"/>
    <path d="M 53.973056 14.898392 
L 55.71763 14.898392 
L 55.900912 14.531828 
L 57.367169 15.081674 
L 55.900912 15.63152 
L 55.71763 15.264956 
L 53.973056 15.264956 
L 53.973056 14.898392 
" clip-path="url(#pa60fbc7b56)"/>
    <path d="M 62.230751 63.980857 
L 63.975325 63.980857 
L 64.158607 63.614293 
L 65.624864 64.164139 
L 64.158607 64.713985 
L 63.975325 64.347421 
L 62.230751 64.347421 
L 62.230751 63.980857 
" clip-path="url(#pa60fbc7b56)"/>
    <path d="M 22.228487 35.705536 
L 23.97306 35.705536 
L 24.156343 35.338972 
L 25.622599 35.888818 
L 24.156343 36.438665 
L 23.97306 36.0721 
L 22.228487 36.0721 
L 22.228487 35.705536 
" clip-path="url(#pa60fbc7b56)"/>
    <path d="M 64.448616 66.197774 
L 66.19319 66.197774 
L 66.376472 65.83121 
L 67.842729 66.381056 
L 66.376472 66.930902 
L 66.19319 66.564338 
L 64.448616 66.564338 
L 64.448616 66.197774 
" clip-path="url(#pa60fbc7b56)"/>
    <path d="M 34.813023 73.110097 
L 36.557597 73.110097 
L 36.740879 72.743533 
L 38.207136 73.293379 
L 36.740879 73.843225 
L 36.557597 73.476661 
L 34.813023 73.476661 
L 34.813023 73.110097 
" clip-path="url(#pa60fbc7b56)"/>
    <path d="M 64.668755 39.71236 
L 66.413328 39.71236 
L 66.59661 39.345796 
L 68.062867 39.895642 
L 66.59661 40.445488 
L 66.413328 40.078924 
L 64.668755 40.078924 
L 64.668755 39.71236 
" clip-path="url(#pa60fbc7b56)"/>
    <path d="M 33.905099 46.120713 
L 35.649673 46.120713 
L 35.832955 45.754149 
L 37.299212 46.303995 
L 35.832955 46.853841 
L 35.649673 46.487277 
L 33.905099 46.487277 
L 33.905099 46.120713 
" clip-path="url(#pa60fbc7b56)"/>
    <path d="M 34.694165 74.364571 
L 36.438739 74.364571 
L 36.622021 73.998007 
L 38.088278 74.547853 
L 36.622021 75.097699 
L 36.438739 74.731135 
L 34.694165 74.731135 
L 34.694165 74.364571 
" clip-path="url(#pa60fbc7b56)"/>
    <path d="M 23.603481 60.615964 
L 25.348054 60.615964 
L 25.531336 60.2494 
L 26.997593 60.799246 
L 25.531336 61.349092 
L 25.348054 60.982528 
L 23.603481 60.982528 
L 23.603481 60.615964 
" clip-path="url(#pa60fbc7b56)"/>
    <path d="M 31.280383 41.053873 
L 33.024957 41.053873 
L 33.208239 40.687309 
L 34.674496 41.237155 
L 33.208239 41.787001 
L 33.024957 41.420437 
L 31.280383 41.420437 
L 31.280383 41.053873 
" clip-path="url(#pa60fbc7b56)"/>
    <path d="M 46.125371 18.49386 
L 47.869945 18.49386 
L 48.053227 18.127296 
L 49.519483 18.677142 
L 48.053227 19.226989 
L 47.869945 18.860424 
L 46.125371 18.860424 
L 46.125371 18.49386 
" clip-path="url(#pa60fbc7b56)"/>
    <path d="M 61.252336 58.646651 
L 62.99691 58.646651 
L 63.180192 58.280087 
L 64.646449 58.829933 
L 63.180192 59.379779 
L 62.99691 59.013215 
L 61.252336 59.013215 
L 61.252336 58.646651 
" clip-path="url(#pa60fbc7b56)"/>
    <path d="M 67.785027 50.885236 
L 69.529604 50.885236 
L 69.712886 50.518672 
L 71.179142 51.068518 
L 69.712886 51.618364 
L 69.529604 51.2518 
L 67.785027 51.2518 
L 67.785027 50.885236 
" clip-path="url(#pa60fbc7b56)"/>
    <path d="M 33.955486 32.786853 
L 35.700059 32.786853 
L 35.883341 32.420289 
L 37.349598 32.970135 
L 35.883341 33.519982 
L 35.700059 33.153418 
L 33.955486 33.153418 
L 33.955486 32.786853 
" clip-path="url(#pa60fbc7b56)"/>
    <path d="M 36.203508 55.283242 
L 37.948082 55.283242 
L 38.131364 54.916678 
L 39.597621 55.466524 
L 38.131364 56.01637 
L 37.948082 55.649806 
L 36.203508 55.649806 
L 36.203508 55.283242 
" clip-path="url(#pa60fbc7b56)"/>
    <path d="M 26.113225 23.207764 
L 27.857799 23.207764 
L 28.041081 22.8412 
L 29.507337 23.391046 
L 28.041081 23.940892 
L 27.857799 23.574328 
L 26.113225 23.574328 
L 26.113225 23.207764 
" clip-path="url(#pa60fbc7b56)"/>
    <path d="M 17.930731 14.308042 
L 19.675305 14.308042 
L 19.858587 13.941478 
L 21.324844 14.491324 
L 19.858587 15.04117 
L 19.675305 14.674606 
L 17.930731 14.674606 
L 17.930731 14.308042 
" clip-path="url(#pa60fbc7b56)"/>
    <path d="M 55.290001 23.50824 
L 57.034575 23.50824 
L 57.217857 23.141676 
L 58.684113 23.691522 
L 57.217857 24.241368 
L 57.034575 23.874804 
L 55.290001 23.874804 
L 55.290001 23.50824 
" clip-path="url(#pa60fbc7b56)"/>
    <path d="M 13.28795 67.63116 
L 15.032524 67.63116 
L 15.215806 67.264596 
L 16.682063 67.814442 
L 15.215806 68.364289 
L 15.032524 67.997725 
L 13.28795 67.997725 
L 13.28795 67.63116 
" clip-path="url(#pa60fbc7b56)"/>
    <path d="M 25.749907 48.914866 
L 27.494481 48.914866 
L 27.677763 48.548301 
L 29.144019 49.098148 
L 27.677763 49.647994 
L 27.494481 49.28143 
L 25.749907 49.28143 
L 25.749907 48.914866 
" clip-path="url(#pa60fbc7b56)"/>
    <path d="M 48.683936 66.013121 
L 50.428509 66.013121 
L 50.611791 65.646557 
L 52.078048 66.196404 
L 50.611791 66.74625 
L 50.428509 66.379686 
L 48.683936 66.379686 
L 48.683936 66.013121 
" clip-path="url(#pa60fbc7b56)"/>
    <path d="M 28.396129 25.371631 
L 30.140703 25.371631 
L 30.323985 25.005067 
L 31.790241 25.554913 
L 30.323985 26.10476 
L 30.140703 25.738195 
L 28.396129 25.738195 
L 28.396129 25.371631 
" clip-path="url(#pa60fbc7b56)"/>
    <path d="M 34.511668 80.301006 
L 36.256242 80.301006 
L 36.439524 79.934442 
L 37.905781 80.484288 
L 36.439524 81.034134 
L 36.256242 80.66757 
L 34.511668 80.66757 
L 34.511668 80.301006 
" clip-path="url(#pa60fbc7b56)"/>
    <path d="M 15.181128 25.64585 
L 16.925702 25.64585 
L 17.108984 25.279286 
L 18.57524 25.829132 
L 17.108984 26.378978 
L 16.925702 26.012414 
L 15.181128 26.012414 
L 15.181128 25.64585 
" clip-path="url(#pa60fbc7b56)"/>
    <path d="M 53.978151 35.599875 
L 55.722725 35.599875 
L 55.906007 35.233311 
L 57.372263 35.783157 
L 55.906007 36.333004 
L 55.722725 35.966439 
L 53.978151 35.966439 
L 53.978151 35.599875 
" clip-path="url(#pa60fbc7b56)"/>
    <path d="M 56.9786 50.468346 
L 58.723173 50.468346 
L 58.906455 50.101782 
L 60.372712 50.651628 
L 58.906455 51.201474 
L 58.723173 50.83491 
L 56.9786 50.83491 
L 56.9786 50.468346 
" clip-path="url(#pa60fbc7b56)"/>
    <path d="M 41.848132 64.784465 
L 43.592706 64.784465 
L 43.775988 64.417901 
L 45.242245 64.967747 
L 43.775988 65.517594 
L 43.592706 65.15103 
L 41.848132 65.15103 
L 41.848132 64.784465 
" clip-path="url(#pa60fbc7b56)"/>
    <path d="M 66.130444 25.486713 
L 67.875018 25.486713 
L 68.0583 25.120149 
L 69.524557 25.669995 
L 68.0583 26.219841 
L 67.875018 25.853277 
L 66.130444 25.853277 
L 66.130444 25.486713 
" clip-path="url(#pa60fbc7b56)"/>
    <path d="M 56.742023 51.724317 
L 58.486597 51.724317 
L 58.669879 51.357753 
L 60.136135 51.907599 
L 58.669879 52.457445 
L 58.486597 52.090881 
L 56.742023 52.090881 
L 56.742023 51.724317 
" clip-path="url(#pa60fbc7b56)"/>
    <path d="M 78.050308 34.307663 
L 79.794882 34.307663 
L 79.978164 33.941099 
L 81.444421 34.490945 
L 79.978164 35.040792 
L 79.794882 34.674228 
L 78.050308 34.674228 
L 78.050308 34.307663 
" clip-path="url(#pa60fbc7b56)"/>
    <path d="M 58.673337 40.134455 
L 60.417911 40.134455 
L 60.601193 39.767891 
L 62.067449 40.317737 
L 60.601193 40.867583 
L 60.417911 40.501019 
L 58.673337 40.501019 
L 58.673337 40.134455 
" clip-path="url(#pa60fbc7b56)"/>
    <path d="M 40.148341 52.513286 
L 41.892915 52.513286 
L 42.076197 52.146722 
L 43.542454 52.696568 
L 42.076197 53.246415 
L 41.892915 52.87985 
L 40.148341 52.87985 
L 40.148341 52.513286 
" clip-path="url(#pa60fbc7b56)"/>
    <path d="M 37.110306 23.461603 
L 38.85488 23.461603 
L 39.038162 23.095039 
L 40.504418 23.644885 
L 39.038162 24.194731 
L 38.85488 23.828167 
L 37.110306 23.828167 
L 37.110306 23.461603 
" clip-path="url(#pa60fbc7b56)"/>
    <path d="M 67.801932 30.054801 
L 69.546506 30.054801 
L 69.729788 29.688237 
L 71.196044 30.238083 
L 69.729788 30.787929 
L 69.546506 30.421365 
L 67.801932 30.421365 
L 67.801932 30.054801 
" clip-path="url(#pa60fbc7b56)"/>
    <path d="M 73.340359 44.838608 
L 75.084933 44.838608 
L 75.268215 44.472044 
L 76.734472 45.02189 
L 75.268215 45.571736 
L 75.084933 45.205172 
L 73.340359 45.205172 
L 73.340359 44.838608 
" clip-path="url(#pa60fbc7b56)"/>
    <path d="M 63.597588 54.973661 
L 65.342161 54.973661 
L 65.525443 54.607097 
L 66.9917 55.156943 
L 65.525443 55.706789 
L 65.342161 55.340225 
L 63.597588 55.340225 
L 63.597588 54.973661 
" clip-path="url(#pa60fbc7b56)"/>
    <path d="M 38.48324 71.81496 
L 40.227814 71.81496 
L 40.411096 71.448396 
L 41.877352 71.998242 
L 40.411096 72.548088 
L 40.227814 72.181524 
L 38.48324 72.181524 
L 38.48324 71.81496 
" clip-path="url(#pa60fbc7b56)"/>
    <path d="M 32.584447 33.010096 
L 34.329021 33.010096 
L 34.512303 32.643531 
L 35.978559 33.193378 
L 34.512303 33.743224 
L 34.329021 33.37666 
L 32.584447 33.37666 
L 32.584447 33.010096 
" clip-path="url(#pa60fbc7b56)"/>
    <path d="M 41.716736 71.410622 
L 43.46131 71.410622 
L 43.644592 71.044058 
L 45.110848 71.593904 
L 43.644592 72.14375 
L 43.46131 71.777186 
L 41.716736 71.777186 
L 41.716736 71.410622 
" clip-path="url(#pa60fbc7b56)"/>
    <path d="M 51.351375 81.011396 
L 53.095949 81.011396 
L 53.279231 80.644832 
L 54.745487 81.194678 
L 53.279231 81.744524 
L 53.095949 81.37796 
L 51.351375 81.37796 
L 51.351375 81.011396 
" clip-path="url(#pa60fbc7b56)"/>
    <path d="M 32.965288 38.777781 
L 34.709862 38.777781 
L 34.893144 38.411216 
L 36.3594 38.961063 
L 34.893144 39.510909 
L 34.709862 39.144345 
L 32.965288 39.144345 
L 32.965288 38.777781 
" clip-path="url(#pa60fbc7b56)"/>
    <path d="M 47.306895 50.621111 
L 49.051469 50.621111 
L 49.234751 50.254547 
L 50.701008 50.804393 
L 49.234751 51.354239 
L 49.051469 50.987675 
L 47.306895 50.987675 
L 47.306895 50.621111 
" clip-path="url(#pa60fbc7b56)"/>
    <path d="M 52.609708 40.142118 
L 54.354281 40.142118 
L 54.537564 39.775554 
L 56.00382 40.3254 
L 54.537564 40.875246 
L 54.354281 40.508682 
L 52.609708 40.508682 
L 52.609708 40.142118 
" clip-path="url(#pa60fbc7b56)"/>
    <path d="M 46.265309 54.078522 
L 48.009883 54.078522 
L 48.193165 53.711958 
L 49.659422 54.261804 
L 48.193165 54.81165 
L 48.009883 54.445086 
L 46.265309 54.445086 
L 46.265309 54.078522 
" clip-path="url(#pa60fbc7b56)"/>
    <path d="M 43.744936 85.311005 
L 45.489509 85.311005 
L 45.672792 84.944441 
L 47.139048 85.494287 
L 45.672792 86.044133 
L 45.489509 85.677569 
L 43.744936 85.677569 
L 43.744936 85.311005 
" clip-path="url(#pa60fbc7b56)"/>
    <path d="M 28.185535 43.15932 
L 29.930109 43.15932 
L 30.113391 42.792756 
L 31.579647 43.342603 
L 30.113391 43.892449 
L 29.930109 43.525885 
L 28.185535 43.525885 
L 28.185535 43.15932 
" clip-path="url(#pa60fbc7b56)"/>
    <path d="M 25.298424 62.888019 
L 27.042998 62.888019 
L 27.22628 62.521455 
L 28.692536 63.071301 
L 27.22628 63.621148 
L 27.042998 63.254583 
L 25.298424 63.254583 
L 25.298424 62.888019 
" clip-path="url(#pa60fbc7b56)"/>
    <path d="M 24.460812 68.327337 
L 26.205386 68.327337 
L 26.388668 67.960772 
L 27.854925 68.510619 
L 26.388668 69.060465 
L 26.205386 68.693901 
L 24.460812 68.693901 
L 24.460812 68.327337 
" clip-path="url(#pa60fbc7b56)"/>
    <path d="M 36.364293 32.109903 
L 38.108867 32.109903 
L 38.292149 31.743339 
L 39.758405 32.293185 
L 38.292149 32.843032 
L 38.108867 32.476468 
L 36.364293 32.476468 
L 36.364293 32.109903 
" clip-path="url(#pa60fbc7b56)"/>
    <path d="M 47.577049 77.120519 
L 49.321623 77.120519 
L 49.504905 76.753955 
L 50.971162 77.303801 
L 49.504905 77.853647 
L 49.321623 77.487083 
L 47.577049 77.487083 
L 47.577049 77.120519 
" clip-path="url(#pa60fbc7b56)"/>
    <path d="M 31.522673 15.130368 
L 33.267247 15.130368 
L 33.450529 14.763804 
L 34.916786 15.313651 
L 33.450529 15.863497 
L 33.267247 15.496933 
L 31.522673 15.496933 
L 31.522673 15.130368 
" clip-path="url(#pa60fbc7b56)"/>
    <path d="M 67.621495 62.113758 
L 69.366072 62.113758 
L 69.549354 61.747194 
L 71.015611 62.29704 
L 69.549354 62.846886 
L 69.366072 62.480322 
L 67.621495 62.480322 
L 67.621495 62.113758 
" clip-path="url(#pa60fbc7b56)"/>
    <path d="M 31.601514 15.885431 
L 33.346088 15.885431 
L 33.52937 15.518867 
L 34.995626 16.068713 
L 33.52937 16.61856 
L 33.346088 16.251995 
L 31.601514 16.251995 
L 31.601514 15.885431 
" clip-path="url(#pa60fbc7b56)"/>
    <path d="M 11.336517 45.810871 
L 13.081091 45.810871 
L 13.264373 45.444307 
L 14.73063 45.994153 
L 13.264373 46.543999 
L 13.081091 46.177435 
L 11.336517 46.177435 
L 11.336517 45.810871 
" clip-path="url(#pa60fbc7b56)"/>
    <path d="M 54.714441 33.434085 
L 56.459015 33.434085 
L 56.642297 33.067521 
L 58.108553 33.617368 
L 56.642297 34.167214 
L 56.459015 33.80065 
L 54.714441 33.80065 
L 54.714441 33.434085 
" clip-path="url(#pa60fbc7b56)"/>
    <path d="M 43.324791 32.910834 
L 45.069365 32.910834 
L 45.252647 32.54427 
L 46.718903 33.094116 
L 45.252647 33.643962 
L 45.069365 33.277398 
L 43.324791 33.277398 
L 43.324791 32.910834 
" clip-path="url(#pa60fbc7b56)"/>
    <path d="M 20.550256 49.677262 
L 22.29483 49.677262 
L 22.478112 49.310698 
L 23.944369 49.860544 
L 22.478112 50.41039 
L 22.29483 50.043826 
L 20.550256 50.043826 
L 20.550256 49.677262 
" clip-path="url(#pa60fbc7b56)"/>
    <path d="M 44.759454 63.724436 
L 46.504028 63.724436 
L 46.68731 63.357872 
L 48.153567 63.907718 
L 46.68731 64.457564 
L 46.504028 64.091 
L 44.759454 64.091 
L 44.759454 63.724436 
" clip-path="url(#pa60fbc7b56)"/>
    <path d="M 37.171486 21.160791 
L 38.91606 21.160791 
L 39.099342 20.794227 
L 40.565598 21.344073 
L 39.099342 21.89392 
L 38.91606 21.527356 
L 37.171486 21.527356 
L 37.171486 21.160791 
" clip-path="url(#pa60fbc7b56)"/>
    <path d="M 9.026202 16.007929 
L 10.770776 16.007929 
L 10.954058 15.641365 
L 12.420315 16.191211 
L 10.954058 16.741057 
L 10.770776 16.374493 
L 9.026202 16.374493 
L 9.026202 16.007929 
" clip-path="url(#pa60fbc7b56)"/>
    <path d="M 12.696185 20.112064 
L 14.440759 20.112064 
L 14.624041 19.7455 
L 16.090298 20.295346 
L 14.624041 20.845192 
L 14.440759 20.478628 
L 12.696185 20.478628 
L 12.696185 20.112064 
" clip-path="url(#pa60fbc7b56)"/>
    <path d="M 47.24426 19.473511 
L 48.988833 19.473511 
L 49.172116 19.106947 
L 50.638372 19.656793 
L 49.172116 20.206639 
L 48.988833 19.840075 
L 47.24426 19.840075 
L 47.24426 19.473511 
" clip-path="url(#pa60fbc7b56)"/>
    <path d="M 25.476237 65.935311 
L 27.220811 65.935311 
L 27.404093 65.568747 
L 28.87035 66.118593 
L 27.404093 66.668439 
L 27.220811 66.301875 
L 25.476237 66.301875 
L 25.476237 65.935311 
" clip-path="url(#pa60fbc7b56)"/>
    <path d="M 78.094226 26.806089 
L 79.8388 26.806089 
L 80.022082 26.439524 
L 81.488339 26.989371 
L 80.022082 27.539217 
L 79.8388 27.172653 
L 78.094226 27.172653 
L 78.094226 26.806089 
" clip-path="url(#pa60fbc7b56)"/>
    <path d="M 23.446005 29.506144 
L 25.190579 29.506144 
L 25.373861 29.139579 
L 26.840118 29.689426 
L 25.373861 30.239272 
L 25.190579 29.872708 
L 23.446005 29.872708 
L 23.446005 29.506144 
" clip-path="url(#pa60fbc7b56)"/>
    <path d="M 61.12988 31.296558 
L 62.874454 31.296558 
L 63.057736 30.929994 
L 64.523992 31.47984 
L 63.057736 32.029686 
L 62.874454 31.663122 
L 61.12988 31.663122 
L 61.12988 31.296558 
" clip-path="url(#pa60fbc7b56)"/>
    <path d="M 60.025616 65.027002 
L 61.77019 65.027002 
L 61.953472 64.660438 
L 63.419729 65.210284 
L 61.953472 65.760131 
L 61.77019 65.393567 
L 60.025616 65.393567 
L 60.025616 65.027002 
" clip-path="url(#pa60fbc7b56)"/>
    <path d="M 26.588603 65.044059 
L 28.333177 65.044059 
L 28.516459 64.677494 
L 29.982716 65.227341 
L 28.516459 65.777187 
L 28.333177 65.410623 
L 26.588603 65.410623 
L 26.588603 65.044059 
" clip-path="url(#pa60fbc7b56)"/>
    <path d="M 70.657635 38.104319 
L 72.402209 38.104319 
L 72.585491 37.737754 
L 74.051748 38.287601 
L 72.585491 38.837447 
L 72.402209 38.470883 
L 70.657635 38.470883 
L 70.657635 38.104319 
" clip-path="url(#pa60fbc7b56)"/>
    <path d="M 71.370607 61.691539 
L 73.115178 61.691539 
L 73.29846 61.324975 
L 74.764716 61.874821 
L 73.29846 62.424668 
L 73.115178 62.058104 
L 71.370607 62.058104 
L 71.370607 61.691539 
" clip-path="url(#pa60fbc7b56)"/>
    <path d="M 37.852899 18.506083 
L 39.597473 18.506083 
L 39.780755 18.139518 
L 41.247012 18.689365 
L 39.780755 19.239211 
L 39.597473 18.872647 
L 37.852899 18.872647 
L 37.852899 18.506083 
" clip-path="url(#pa60fbc7b56)"/>
    <path d="M 47.250261 54.359937 
L 48.994835 54.359937 
L 49.178117 53.993373 
L 50.644373 54.543219 
L 49.178117 55.093065 
L 48.994835 54.726501 
L 47.250261 54.726501 
L 47.250261 54.359937 
" clip-path="url(#pa60fbc7b56)"/>
    <path d="M 69.711658 49.770014 
L 71.456232 49.770014 
L 71.639514 49.40345 
L 73.10577 49.953296 
L 71.639514 50.503142 
L 71.456232 50.136578 
L 69.711658 50.136578 
L 69.711658 49.770014 
" clip-path="url(#pa60fbc7b56)"/>
    <path d="M 67.796288 16.251496 
L 69.540865 16.251496 
L 69.724147 15.884932 
L 71.190403 16.434778 
L 69.724147 16.984624 
L 69.540865 16.61806 
L 67.796288 16.61806 
L 67.796288 16.251496 
" clip-path="url(#pa60fbc7b56)"/>
    <path d="M 74.323032 17.793784 
L 76.067605 17.793784 
L 76.250888 17.42722 
L 77.717144 17.977066 
L 76.250888 18.526912 
L 76.067605 18.160348 
L 74.323032 18.160348 
L 74.323032 17.793784 
" clip-path="url(#pa60fbc7b56)"/>
    <path d="M 42.964288 16.703116 
L 44.708862 16.703116 
L 44.892144 16.336552 
L 46.358401 16.886398 
L 44.892144 17.436245 
L 44.708862 17.06968 
L 42.964288 17.06968 
L 42.964288 16.703116 
" clip-path="url(#pa60fbc7b56)"/>
    <path d="M 7.868092 36.41572 
L 9.612666 36.41572 
L 9.795948 36.049156 
L 11.262205 36.599002 
L 9.795948 37.148848 
L 9.612666 36.782284 
L 7.868092 36.782284 
L 7.868092 36.41572 
" clip-path="url(#pa60fbc7b56)"/>
    <path d="M 17.065503 66.387343 
L 18.810077 66.387343 
L 18.993359 66.020779 
L 20.459615 66.570625 
L 18.993359 67.120472 
L 18.810077 66.753907 
L 17.065503 66.753907 
L 17.065503 66.387343 
" clip-path="url(#pa60fbc7b56)"/>
    <path d="M 72.089456 74.088004 
L 73.83403 74.088004 
L 74.017312 73.72144 
L 75.483569 74.271286 
L 74.017312 74.821132 
L 73.83403 74.454568 
L 72.089456 74.454568 
L 72.089456 74.088004 
" clip-path="url(#pa60fbc7b56)"/>
    <path d="M 19.971538 73.498381 
L 21.716112 73.498381 
L 21.899394 73.131817 
L 23.36565 73.681664 
L 21.899394 74.23151 
L 21.716112 73.864946 
L 19.971538 73.864946 
L 19.971538 73.498381 
" clip-path="url(#pa60fbc7b56)"/>
    <path d="M 65.597168 56.251838 
L 67.341742 56.251838 
L 67.525024 55.885273 
L 68.991281 56.43512 
L 67.525024 56.984966 
L 67.341742 56.618402 
L 65.597168 56.618402 
L 65.597168 56.251838 
" clip-path="url(#pa60fbc7b56)"/>
    <path d="M 28.898328 37.19542 
L 30.642901 37.19542 
L 30.826184 36.828856 
L 32.29244 37.378702 
L 30.826184 37.928548 
L 30.642901 37.561984 
L 28.898328 37.561984 
L 28.898328 37.19542 
" clip-path="url(#pa60fbc7b56)"/>
    <path d="M 56.054567 65.89506 
L 57.799141 65.89506 
L 57.982423 65.528495 
L 59.448679 66.078342 
L 57.982423 66.628188 
L 57.799141 66.261624 
L 56.054567 66.261624 
L 56.054567 65.89506 
" clip-path="url(#pa60fbc7b56)"/>
    <path d="M 67.22482 53.336286 
L 68.969394 53.336286 
L 69.152676 52.969722 
L 70.618932 53.519568 
L 69.152676 54.069414 
L 68.969394 53.70285 
L 67.22482 53.70285 
L 67.22482 53.336286 
" clip-path="url(#pa60fbc7b56)"/>
    <path d="M 16.981567 40.253464 
L 18.726141 40.253464 
L 18.909423 39.8869 
L 20.37568 40.436746 
L 18.909423 40.986592 
L 18.726141 40.620028 
L 16.981567 40.620028 
L 16.981567 40.253464 
" clip-path="url(#pa60fbc7b56)"/>
    <path d="M 32.906909 25.924134 
L 34.651483 25.924134 
L 34.834765 25.55757 
L 36.301022 26.107416 
L 34.834765 26.657262 
L 34.651483 26.290698 
L 32.906909 26.290698 
L 32.906909 25.924134 
" clip-path="url(#pa60fbc7b56)"/>
    <path d="M 34.198654 55.042641 
L 35.943228 55.042641 
L 36.12651 54.676077 
L 37.592767 55.225923 
L 36.12651 55.775769 
L 35.943228 55.409205 
L 34.198654 55.409205 
L 34.198654 55.042641 
" clip-path="url(#pa60fbc7b56)"/>
    <path d="M 59.310475 35.067093 
L 61.055049 35.067093 
L 61.238331 34.700529 
L 62.704588 35.250375 
L 61.238331 35.800222 
L 61.055049 35.433657 
L 59.310475 35.433657 
L 59.310475 35.067093 
" clip-path="url(#pa60fbc7b56)"/>
    <path d="M 72.694363 52.186773 
L 74.438937 52.186773 
L 74.622219 51.820208 
L 76.088476 52.370055 
L 74.622219 52.919901 
L 74.438937 52.553337 
L 72.694363 52.553337 
L 72.694363 52.186773 
" clip-path="url(#pa60fbc7b56)"/>
    <path d="M 14.347733 14.517743 
L 16.092306 14.517743 
L 16.275588 14.151179 
L 17.741845 14.701025 
L 16.275588 15.250872 
L 16.092306 14.884307 
L 14.347733 14.884307 
L 14.347733 14.517743 
" clip-path="url(#pa60fbc7b56)"/>
    <path d="M 65.750331 17.248121 
L 67.494902 17.248121 
L 67.678184 16.881556 
L 69.14444 17.431403 
L 67.678184 17.981249 
L 67.494902 17.614685 
L 65.750331 17.614685 
L 65.750331 17.248121 
" clip-path="url(#pa60fbc7b56)"/>
    <path d="M 20.812857 46.078223 
L 22.557431 46.078223 
L 22.740713 45.711659 
L 24.20697 46.261505 
L 22.740713 46.811351 
L 22.557431 46.444787 
L 20.812857 46.444787 
L 20.812857 46.078223 
" clip-path="url(#pa60fbc7b56)"/>
    <path d="M 43.956807 15.929871 
L 45.701381 15.929871 
L 45.884663 15.563307 
L 47.350919 16.113153 
L 45.884663 16.662999 
L 45.701381 16.296435 
L 43.956807 16.296435 
L 43.956807 15.929871 
" clip-path="url(#pa60fbc7b56)"/>
    <path d="M 50.950484 33.598661 
L 52.695058 33.598661 
L 52.87834 33.232097 
L 54.344596 33.781943 
L 52.87834 34.331789 
L 52.695058 33.965225 
L 50.950484 33.965225 
L 50.950484 33.598661 
" clip-path="url(#pa60fbc7b56)"/>
    <path d="M 69.837753 21.492276 
L 71.582327 21.492276 
L 71.765609 21.125712 
L 73.231866 21.675558 
L 71.765609 22.225405 
L 71.582327 21.858841 
L 69.837753 21.858841 
L 69.837753 21.492276 
" clip-path="url(#pa60fbc7b56)"/>
    <path d="M 69.698927 27.360953 
L 71.443498 27.360953 
L 71.62678 26.994389 
L 73.093037 27.544235 
L 71.62678 28.094081 
L 71.443498 27.727517 
L 69.698927 27.727517 
L 69.698927 27.360953 
" clip-path="url(#pa60fbc7b56)"/>
    <path d="M 51.205092 78.656902 
L 52.949666 78.656902 
L 53.132948 78.290338 
L 54.599204 78.840184 
L 53.132948 79.39003 
L 52.949666 79.023466 
L 51.205092 79.023466 
L 51.205092 78.656902 
" clip-path="url(#pa60fbc7b56)"/>
    <path d="M 58.336798 23.471408 
L 60.081372 23.471408 
L 60.264654 23.104844 
L 61.730911 23.654691 
L 60.264654 24.204537 
L 60.081372 23.837973 
L 58.336798 23.837973 
L 58.336798 23.471408 
" clip-path="url(#pa60fbc7b56)"/>
    <path d="M 76.234282 26.110434 
L 77.978859 26.110434 
L 78.162141 25.74387 
L 79.628398 26.293716 
L 78.162141 26.843563 
L 77.978859 26.476999 
L 76.234282 26.476999 
L 76.234282 26.110434 
" clip-path="url(#pa60fbc7b56)"/>
    <path d="M 66.329132 27.365375 
L 68.073706 27.365375 
L 68.256988 26.998811 
L 69.723245 27.548657 
L 68.256988 28.098503 
L 68.073706 27.731939 
L 66.329132 27.731939 
L 66.329132 27.365375 
" clip-path="url(#pa60fbc7b56)"/>
    <path d="M 18.165839 57.284882 
L 19.910412 57.284882 
L 20.093695 56.918318 
L 21.559951 57.468164 
L 20.093695 58.01801 
L 19.910412 57.651446 
L 18.165839 57.651446 
L 18.165839 57.284882 
" clip-path="url(#pa60fbc7b56)"/>
    <path d="M 78.68297 17.672687 
L 80.427547 17.672687 
L 80.610829 17.306123 
L 82.077085 17.855969 
L 80.610829 18.405815 
L 80.427547 18.039251 
L 78.68297 18.039251 
L 78.68297 17.672687 
" clip-path="url(#pa60fbc7b56)"/>
    <path d="M 47.106889 44.872968 
L 48.851463 44.872968 
L 49.034745 44.506404 
L 50.501002 45.05625 
L 49.034745 45.606096 
L 48.851463 45.239532 
L 47.106889 45.239532 
L 47.106889 44.872968 
" clip-path="url(#pa60fbc7b56)"/>
    <path d="M 43.142899 19.769208 
L 44.887472 19.769208 
L 45.070754 19.402644 
L 46.537011 19.95249 
L 45.070754 20.502336 
L 44.887472 20.135772 
L 43.142899 20.135772 
L 43.142899 19.769208 
" clip-path="url(#pa60fbc7b56)"/>
    <path d="M 54.454628 17.114472 
L 56.199202 17.114472 
L 56.382484 16.747908 
L 57.848741 17.297754 
L 56.382484 17.8476 
L 56.199202 17.481036 
L 54.454628 17.481036 
L 54.454628 17.114472 
" clip-path="url(#pa60fbc7b56)"/>
    <path d="M 48.403757 50.703096 
L 50.148331 50.703096 
L 50.331613 50.336532 
L 51.797869 50.886378 
L 50.331613 51.436225 
L 50.148331 51.069661 
L 48.403757 51.069661 
L 48.403757 50.703096 
" clip-path="url(#pa60fbc7b56)"/>
    <path d="M 28.479707 59.037545 
L 30.224281 59.037545 
L 30.407563 58.67098 
L 31.87382 59.220827 
L 30.407563 59.770673 
L 30.224281 59.404109 
L 28.479707 59.404109 
L 28.479707 59.037545 
" clip-path="url(#pa60fbc7b56)"/>
    <path d="M 35.300761 43.215818 
L 37.045335 43.215818 
L 37.228617 42.849253 
L 38.694874 43.3991 
L 37.228617 43.948946 
L 37.045335 43.582382 
L 35.300761 43.582382 
L 35.300761 43.215818 
" clip-path="url(#pa60fbc7b56)"/>
    <path d="M 26.036266 42.884909 
L 27.780839 42.884909 
L 27.964121 42.518345 
L 29.430378 43.068192 
L 27.964121 43.618038 
L 27.780839 43.251474 
L 26.036266 43.251474 
L 26.036266 42.884909 
" clip-path="url(#pa60fbc7b56)"/>
    <path d="M 69.888977 81.976311 
L 71.633551 81.976311 
L 71.816833 81.609747 
L 73.28309 82.159593 
L 71.816833 82.709439 
L 71.633551 82.342875 
L 69.888977 82.342875 
L 69.888977 81.976311 
" clip-path="url(#pa60fbc7b56)"/>
    <path d="M 10.405179 23.877079 
L 12.149753 23.877079 
L 12.333035 23.510514 
L 13.799291 24.060361 
L 12.333035 24.610207 
L 12.149753 24.243643 
L 10.405179 24.243643 
L 10.405179 23.877079 
" clip-path="url(#pa60fbc7b56)"/>
    <path d="M 58.906082 19.33577 
L 60.650656 19.33577 
L 60.833938 18.969206 
L 62.300195 19.519052 
L 60.833938 20.068898 
L 60.650656 19.702334 
L 58.906082 19.702334 
L 58.906082 19.33577 
" clip-path="url(#pa60fbc7b56)"/>
    <path d="M 36.800327 59.101128 
L 38.5449 59.101128 
L 38.728182 58.734564 
L 40.194439 59.28441 
L 38.728182 59.834256 
L 38.5449 59.467692 
L 36.800327 59.467692 
L 36.800327 59.101128 
" clip-path="url(#pa60fbc7b56)"/>
    <path d="M 7.876291 80.364782 
L 9.620865 80.364782 
L 9.804147 79.998217 
L 11.270403 80.548064 
L 9.804147 81.09791 
L 9.620865 80.731346 
L 7.876291 80.731346 
L 7.876291 80.364782 
" clip-path="url(#pa60fbc7b56)"/>
    <path d="M 65.045105 52.164017 
L 66.789679 52.164017 
L 66.972961 51.797453 
L 68.439218 52.347299 
L 66.972961 52.897145 
L 66.789679 52.530581 
L 65.045105 52.530581 
L 65.045105 52.164017 
" clip-path="url(#pa60fbc7b56)"/>
    <path d="M 36.536668 55.919968 
L 38.281242 55.919968 
L 38.464524 55.553404 
L 39.930781 56.10325 
L 38.464524 56.653096 
L 38.281242 56.286532 
L 36.536668 56.286532 
L 36.536668 55.919968 
" clip-path="url(#pa60fbc7b56)"/>
    <path d="M 42.376492 44.01554 
L 44.121066 44.01554 
L 44.304348 43.648976 
L 45.770605 44.198822 
L 44.304348 44.748668 
L 44.121066 44.382104 
L 42.376492 44.382104 
L 42.376492 44.01554 
" clip-path="url(#pa60fbc7b56)"/>
    <path d="M 17.189511 54.777871 
L 18.934085 54.777871 
L 19.117367 54.411306 
L 20.583624 54.961153 
L 19.117367 55.510999 
L 18.934085 55.144435 
L 17.189511 55.144435 
L 17.189511 54.777871 
" clip-path="url(#pa60fbc7b56)"/>
    <path d="M 77.026067 68.677471 
L 78.770644 68.677471 
L 78.953926 68.310907 
L 80.420182 68.860753 
L 78.953926 69.410599 
L 78.770644 69.044035 
L 77.026067 69.044035 
L 77.026067 68.677471 
" clip-path="url(#pa60fbc7b56)"/>
    <path d="M 75.788663 28.443821 
L 77.533237 28.443821 
L 77.716519 28.077256 
L 79.182775 28.627103 
L 77.716519 29.176949 
L 77.533237 28.810385 
L 75.788663 28.810385 
L 75.788663 28.443821 
" clip-path="url(#pa60fbc7b56)"/>
    <path d="M 47.848604 63.195897 
L 49.593178 63.195897 
L 49.77646 62.829333 
L 51.242716 63.379179 
L 49.77646 63.929026 
L 49.593178 63.562461 
L 47.848604 63.562461 
L 47.848604 63.195897 
" clip-path="url(#pa60fbc7b56)"/>
    <path d="M 11.787259 15.27797 
L 13.531833 15.27797 
L 13.715115 14.911406 
L 15.181371 15.461252 
L 13.715115 16.011098 
L 13.531833 15.644534 
L 11.787259 15.644534 
L 11.787259 15.27797 
" clip-path="url(#pa60fbc7b56)"/>
    <path d="M 62.064514 81.971601 
L 63.809088 81.971601 
L 63.99237 81.605037 
L 65.458627 82.154883 
L 63.99237 82.704729 
L 63.809088 82.338165 
L 62.064514 82.338165 
L 62.064514 81.971601 
" clip-path="url(#pa60fbc7b56)"/>
    <path d="M 19.950554 47.845429 
L 21.695128 47.845429 
L 21.87841 47.478865 
L 23.344666 48.028711 
L 21.87841 48.578557 
L 21.695128 48.211993 
L 19.950554 48.211993 
L 19.950554 47.845429 
" clip-path="url(#pa60fbc7b56)"/>
    <path d="M 48.773117 50.291562 
L 50.517691 50.291562 
L 50.700973 49.924998 
L 52.16723 50.474844 
L 50.700973 51.024691 
L 50.517691 50.658126 
L 48.773117 50.658126 
L 48.773117 50.291562 
" clip-path="url(#pa60fbc7b56)"/>
    <path d="M 31.357205 39.388181 
L 33.101779 39.388181 
L 33.285061 39.021617 
L 34.751318 39.571463 
L 33.285061 40.121309 
L 33.101779 39.754745 
L 31.357205 39.754745 
L 31.357205 39.388181 
" clip-path="url(#pa60fbc7b56)"/>
    <path d="M 7.659572 34.897409 
L 9.404146 34.897409 
L 9.587428 34.530845 
L 11.053684 35.080692 
L 9.587428 35.630538 
L 9.404146 35.263974 
L 7.659572 35.263974 
L 7.659572 34.897409 
" clip-path="url(#pa60fbc7b56)"/>
    <path d="M 40.268175 43.010044 
L 42.012749 43.010044 
L 42.196031 42.64348 
L 43.662287 43.193326 
L 42.196031 43.743172 
L 42.012749 43.376608 
L 40.268175 43.376608 
L 40.268175 43.010044 
" clip-path="url(#pa60fbc7b56)"/>
    <path d="M 8.2274 17.517835 
L 9.971974 17.517835 
L 10.155256 17.151271 
L 11.621513 17.701117 
L 10.155256 18.250963 
L 9.971974 17.884399 
L 8.2274 17.884399 
L 8.2274 17.517835 
" clip-path="url(#pa60fbc7b56)"/>
    <path d="M 62.204865 80.946782 
L 63.949438 80.946782 
L 64.13272 80.580218 
L 65.598977 81.130064 
L 64.13272 81.679911 
L 63.949438 81.313346 
L 62.204865 81.313346 
L 62.204865 80.946782 
" clip-path="url(#pa60fbc7b56)"/>
    <path d="M 66.403812 83.680703 
L 68.148385 83.680703 
L 68.331668 83.314138 
L 69.797924 83.863985 
L 68.331668 84.413831 
L 68.148385 84.047267 
L 66.403812 84.047267 
L 66.403812 83.680703 
" clip-path="url(#pa60fbc7b56)"/>
    <path d="M 52.051259 79.336516 
L 53.795833 79.336516 
L 53.979115 78.969952 
L 55.445371 79.519798 
L 53.979115 80.069645 
L 53.795833 79.70308 
L 52.051259 79.70308 
L 52.051259 79.336516 
" clip-path="url(#pa60fbc7b56)"/>
    <path d="M 8.230559 52.289467 
L 9.975133 52.289467 
L 10.158415 51.922903 
L 11.624671 52.472749 
L 10.158415 53.022596 
L 9.975133 52.656031 
L 8.230559 52.656031 
L 8.230559 52.289467 
" clip-path="url(#pa60fbc7b56)"/>
    <path d="M 79.119443 62.706745 
L 80.864017 62.706745 
L 81.047299 62.340181 
L 82.513555 62.890027 
L 81.047299 63.439873 
L 80.864017 63.073309 
L 79.119443 63.073309 
L 79.119443 62.706745 
" clip-path="url(#pa60fbc7b56)"/>
    <path d="M 43.898099 55.850232 
L 45.642673 55.850232 
L 45.825955 55.483668 
L 47.292211 56.033514 
L 45.825955 56.583361 
L 45.642673 56.216796 
L 43.898099 56.216796 
L 43.898099 55.850232 
" clip-path="url(#pa60fbc7b56)"/>
    <path d="M 33.941986 62.909772 
L 35.68656 62.909772 
L 35.869842 62.543208 
L 37.336099 63.093054 
L 35.869842 63.6429 
L 35.68656 63.276336 
L 33.941986 63.276336 
L 33.941986 62.909772 
" clip-path="url(#pa60fbc7b56)"/>
    <path d="M 76.04198 32.273655 
L 77.786554 32.273655 
L 77.969836 31.90709 
L 79.436093 32.456937 
L 77.969836 33.006783 
L 77.786554 32.640219 
L 76.04198 32.640219 
L 76.04198 32.273655 
" clip-path="url(#pa60fbc7b56)"/>
    <path d="M 15.098415 75.049074 
L 16.842988 75.049074 
L 17.026271 74.68251 
L 18.492527 75.232356 
L 17.026271 75.782202 
L 16.842988 75.415638 
L 15.098415 75.415638 
L 15.098415 75.049074 
" clip-path="url(#pa60fbc7b56)"/>
    <path d="M 62.025664 21.322867 
L 63.770238 21.322867 
L 63.95352 20.956303 
L 65.419776 21.506149 
L 63.95352 22.055996 
L 63.770238 21.689431 
L 62.025664 21.689431 
L 62.025664 21.322867 
" clip-path="url(#pa60fbc7b56)"/>
    <path d="M 25.576543 82.128019 
L 27.321116 82.128019 
L 27.504399 81.761454 
L 28.970655 82.311301 
L 27.504399 82.861147 
L 27.321116 82.494583 
L 25.576543 82.494583 
L 25.576543 82.128019 
" clip-path="url(#pa60fbc7b56)"/>
    <path d="M 51.982265 19.088935 
L 53.726839 19.088935 
L 53.910121 18.722371 
L 55.376377 19.272217 
L 53.910121 19.822063 
L 53.726839 19.455499 
L 51.982265 19.455499 
L 51.982265 19.088935 
" clip-path="url(#pa60fbc7b56)"/>
    <path d="M 40.201309 81.303495 
L 41.945883 81.303495 
L 42.129165 80.936931 
L 43.595422 81.486777 
L 42.129165 82.036623 
L 41.945883 81.670059 
L 40.201309 81.670059 
L 40.201309 81.303495 
" clip-path="url(#pa60fbc7b56)"/>
    <path d="M 39.066119 18.646845 
L 40.810693 18.646845 
L 40.993975 18.280281 
L 42.460232 18.830127 
L 40.993975 19.379973 
L 40.810693 19.013409 
L 39.066119 19.013409 
L 39.066119 18.646845 
" clip-path="url(#pa60fbc7b56)"/>
    <path d="M 19.287268 69.230632 
L 21.031842 69.230632 
L 21.215124 68.864068 
L 22.681381 69.413914 
L 21.215124 69.963761 
L 21.031842 69.597197 
L 19.287268 69.597197 
L 19.287268 69.230632 
" clip-path="url(#pa60fbc7b56)"/>
    <path d="M 93.6 50.583282 
L 91.855426 50.583282 
L 91.672144 50.949846 
L 90.205887 50.4 
L 91.672144 49.850154 
L 91.855426 50.216718 
L 93.6 50.216718 
L 93.6 50.583282 
" clip-path="url(#pa60fbc7b56)"/>
   </g>
  </g>
 </g>
 <defs>
  <clipPath id="pa60fbc7b56">
   <rect x="7.2" y="7.2" width="86.4" height="86.4"/>
  </clipPath>
 </defs>
</svg>
