<?xml version="1.0" encoding="utf-8" standalone="no"?>
<!DOCTYPE svg PUBLIC "-//W3C//DTD SVG 1.1//EN"
  "http://www.w3.org/Graphics/SVG/1.1/DTD/svg11.dtd">
<svg xmlns:xlink="http://www.w3.org/1999/xlink" width="100.8pt" height="100.8pt" viewBox="0 0 100.8 100.8" xmlns="http://www.w3.org/2000/svg" version="1.1">
 <metadata>
  <rdf:RDF xmlns:dc="http://purl.org/dc/elements/1.1/" xmlns:cc="http://creativecommons.org/ns#" xmlns:rdf="http://www.w3.org/1999/02/22-rdf-syntax-ns#">
   <cc:Work>
    <dc:type rdf:resource="http://purl.org/dc/dcmitype/StillImage"/>
    <dc:date>2025-09-10T17:09:17.977590</dc:date>
    <dc:format>image/svg+xml</dc:format>
    <dc:creator>
     <cc:Agent>
      <dc:title>Matplotlib v3.10.5, https://matplotlib.org/</dc:title>
     </cc:Agent>
    </dc:creator>
   </cc:Work>
  </rdf:RDF>
 </metadata>
 <defs>
  <style type="text/css">*{stroke-linejoin: round; stroke-linecap: butt}</style>
 </defs>
 <g id="figure_1">
  <g id="patch_1">
   <path d="M 0 100.8 
L 100.8 100.8 
L 100.8 0 
L 0 0 
z
" style="fill: #ffffff"/>
  </g>
  <g id="axes_1">
   <g id="Quiver_1">
    <path d="M 49.970845 83.113347 
L 48.718155 84.327557 
L 48.841675 84.718331 
L 47.406142 85.344018 
L 48.076298 83.928698 
L 48.463029 84.064346 
L 49.715719 82.850136 
L 49.970845 83.113347 
" clip-path="url(#p6988cd3618)"/>
    <path d="M 105.053062 92.065002 
L 106.736061 92.524412 
L 107.009404 92.219051 
L 108.279113 93.135608 
L 106.719815 93.279929 
L 106.639532 92.878038 
L 104.956533 92.418628 
L 105.053062 92.065002 
" clip-path="url(#p6988cd3618)"/>
    <path d="M 67.898164 67.555238 
L 69.637317 67.417778 
L 69.791147 67.037913 
L 71.296169 67.470519 
L 69.877795 68.134186 
L 69.6662 67.783203 
L 67.927047 67.920662 
L 67.898164 67.555238 
" clip-path="url(#p6988cd3618)"/>
    <path d="M 52.950969 60.782367 
L 51.227876 61.055291 
L 51.104197 61.446014 
L 49.569975 61.132322 
L 50.932159 60.359862 
L 51.17053 60.69324 
L 52.893623 60.420316 
L 52.950969 60.782367 
" clip-path="url(#p6988cd3618)"/>
    <path d="M 57.463356 26.950352 
L 55.780665 26.489818 
L 55.507118 26.794997 
L 54.238022 25.877591 
L 55.797416 25.734313 
L 55.877431 26.136257 
L 57.560122 26.596791 
L 57.463356 26.950352 
" clip-path="url(#p6988cd3618)"/>
    <path d="M 76.345109 68.949221 
L 74.608131 69.111853 
L 74.459819 69.493907 
L 72.94869 69.083142 
L 74.357304 68.399003 
L 74.573959 68.746886 
L 76.310937 68.584253 
L 76.345109 68.949221 
" clip-path="url(#p6988cd3618)"/>
    <path d="M 53.707718 50.070905 
L 55.439715 50.280006 
L 55.665612 49.938052 
L 57.055395 50.659676 
L 55.533805 51.029817 
L 55.39578 50.643927 
L 53.663782 50.434826 
L 53.707718 50.070905 
" clip-path="url(#p6988cd3618)"/>
    <path d="M 51.299453 30.258465 
L 49.554881 30.255876 
L 49.371055 30.622168 
L 47.905616 30.070147 
L 49.372687 29.522477 
L 49.555425 29.889312 
L 51.299997 29.891901 
L 51.299453 30.258465 
" clip-path="url(#p6988cd3618)"/>
    <path d="M 112.325736 63.898963 
L 113.871012 64.708691 
L 114.203494 64.469071 
L 115.247041 65.636653 
L 113.693082 65.443136 
L 113.700875 65.033379 
L 112.155599 64.223651 
L 112.325736 63.898963 
" clip-path="url(#p6988cd3618)"/>
    <path d="M 66.824672 64.030078 
L 68.568831 63.991923 
L 68.744052 63.621438 
L 70.221984 64.139085 
L 68.768103 64.720868 
L 68.576848 64.3584 
L 66.832689 64.396555 
L 66.824672 64.030078 
" clip-path="url(#p6988cd3618)"/>
    <path d="M 29.297276 61.298205 
L 27.618862 61.774082 
L 27.54252 62.17674 
L 25.981883 62.047705 
L 27.242551 61.118751 
L 27.518872 61.421419 
L 29.197286 60.945542 
L 29.297276 61.298205 
" clip-path="url(#p6988cd3618)"/>
    <path d="M 75.306114 39.405332 
L 76.521946 38.154223 
L 76.3868 37.767316 
L 77.802989 37.098998 
L 77.175439 38.533718 
L 76.784826 38.40969 
L 75.568993 39.660799 
L 75.306114 39.405332 
" clip-path="url(#p6988cd3618)"/>
    <path d="M 59.801099 93.153584 
L 60.380311 94.799199 
L 60.786933 94.850382 
L 60.755084 96.416021 
L 59.749619 95.215489 
L 60.034539 94.920901 
L 59.455328 93.275286 
L 59.801099 93.153584 
" clip-path="url(#p6988cd3618)"/>
    <path d="M 15.493763 60.092796 
L 13.761 60.295459 
L 13.621542 60.680833 
L 12.101338 60.305042 
L 13.493792 59.588586 
L 13.718417 59.931377 
L 15.45118 59.728713 
L 15.493763 60.092796 
" clip-path="url(#p6988cd3618)"/>
    <path d="M 64.601641 55.0673 
L 66.319469 54.762983 
L 66.435999 54.370067 
L 67.975689 54.655715 
L 66.627825 55.4529 
L 66.383411 55.123927 
L 64.665583 55.428244 
L 64.601641 55.0673 
" clip-path="url(#p6988cd3618)"/>
    <path d="M 60.020654 47.291161 
L 61.636935 46.634527 
L 61.668769 46.225934 
L 63.234156 46.183466 
L 62.082679 47.244758 
L 61.774905 46.974135 
L 60.158624 47.630769 
L 60.020654 47.291161 
" clip-path="url(#p6988cd3618)"/>
    <path d="M 90.321522 75.007164 
L 91.953131 75.624737 
L 92.254307 75.34679 
L 93.430976 76.380081 
L 91.86502 76.375274 
L 91.823369 75.967565 
L 90.191759 75.349992 
L 90.321522 75.007164 
" clip-path="url(#p6988cd3618)"/>
    <path d="M 56.578892 61.476716 
L 58.323464 61.474519 
L 58.506285 61.107725 
L 59.973232 61.655725 
L 58.507669 62.207416 
L 58.323926 61.841083 
L 56.579354 61.843279 
L 56.578892 61.476716 
" clip-path="url(#p6988cd3618)"/>
    <path d="M 74.257484 35.406783 
L 74.707252 33.721182 
L 74.400331 33.449591 
L 75.309605 32.174656 
L 75.462849 33.733103 
L 75.061425 33.815685 
L 74.611657 35.501286 
L 74.257484 35.406783 
" clip-path="url(#p6988cd3618)"/>
    <path d="M 76.203072 22.286509 
L 76.04986 20.548678 
L 75.668616 20.398296 
L 76.087568 18.889416 
L 76.76406 20.301719 
L 76.415008 20.516485 
L 76.56822 22.254317 
L 76.203072 22.286509 
" clip-path="url(#p6988cd3618)"/>
    <path d="M 62.716274 11.541375 
L 63.957394 10.31534 
L 63.830174 9.925755 
L 65.259709 9.286484 
L 64.603005 10.708095 
L 64.215004 10.57612 
L 62.973884 11.802155 
L 62.716274 11.541375 
" clip-path="url(#p6988cd3618)"/>
    <path d="M 80.614467 35.289724 
L 78.883086 35.503879 
L 78.746187 35.89017 
L 77.223524 35.524472 
L 78.611195 34.798794 
L 78.838088 35.140087 
L 80.569469 34.925932 
L 80.614467 35.289724 
" clip-path="url(#p6988cd3618)"/>
    <path d="M 31.130732 67.690092 
L 29.493622 68.292924 
L 29.448295 68.700241 
L 27.88236 68.690924 
L 29.0683 67.668288 
L 29.366957 67.948939 
L 31.004067 67.346108 
L 31.130732 67.690092 
" clip-path="url(#p6988cd3618)"/>
    <path d="M 55.573782 29.777464 
L 57.278758 30.147043 
L 57.535535 29.827626 
L 58.85203 30.675613 
L 57.30257 30.902359 
L 57.201103 30.505288 
L 55.496127 30.135708 
L 55.573782 29.777464 
" clip-path="url(#p6988cd3618)"/>
    <path d="M 44.307275 40.987603 
L 42.56271 40.982285 
L 42.378311 41.348289 
L 40.913737 40.793976 
L 42.381663 40.248602 
L 42.563827 40.615723 
L 44.308392 40.62104 
L 44.307275 40.987603 
" clip-path="url(#p6988cd3618)"/>
    <path d="M 60.390614 20.545033 
L 58.770034 19.899073 
L 58.464052 20.17172 
L 57.3056 19.118046 
L 58.871233 19.150188 
L 58.905761 19.558562 
L 60.526341 20.204522 
L 60.390614 20.545033 
" clip-path="url(#p6988cd3618)"/>
    <path d="M 56.643415 50.823728 
L 58.307972 51.346019 
L 58.59259 51.051139 
L 59.826982 52.014734 
L 58.263364 52.100393 
L 58.19823 51.695771 
L 56.533673 51.173479 
L 56.643415 50.823728 
" clip-path="url(#p6988cd3618)"/>
    <path d="M 75.639116 41.75017 
L 76.732355 40.390622 
L 76.561545 40.018082 
L 77.908871 39.219989 
L 77.418536 40.707205 
L 77.018018 40.620329 
L 75.924779 41.979878 
L 75.639116 41.75017 
" clip-path="url(#p6988cd3618)"/>
    <path d="M 40.234527 21.691674 
L 38.508346 21.944328 
L 38.380084 22.333572 
L 36.849654 22.00187 
L 38.220823 21.245473 
L 38.455259 21.581629 
L 40.18144 21.328974 
L 40.234527 21.691674 
" clip-path="url(#p6988cd3618)"/>
    <path d="M 18.675288 52.519461 
L 16.999436 53.004286 
L 16.925243 53.407346 
L 15.36394 53.286638 
L 16.619634 52.350972 
L 16.897566 52.652162 
L 18.573418 52.167337 
L 18.675288 52.519461 
" clip-path="url(#p6988cd3618)"/>
    <path d="M 98.170052 63.037091 
L 99.835531 63.556434 
L 100.119626 63.26105 
L 101.355722 64.222458 
L 99.792258 64.310885 
L 99.726408 63.906379 
L 98.060929 63.387036 
L 98.170052 63.037091 
" clip-path="url(#p6988cd3618)"/>
    <path d="M 39.41025 59.01269 
L 37.665709 59.023383 
L 37.484678 59.391064 
L 36.015078 58.850215 
L 37.477937 58.291392 
L 37.663463 58.656826 
L 39.408003 58.646133 
L 39.41025 59.01269 
" clip-path="url(#p6988cd3618)"/>
    <path d="M 70.947073 25.629395 
L 70.408312 23.970095 
L 70.003064 23.908974 
L 70.073224 22.344584 
L 71.049004 23.569366 
L 70.756959 23.856892 
L 71.295719 25.516192 
L 70.947073 25.629395 
" clip-path="url(#p6988cd3618)"/>
    <path d="M 71.782662 20.718288 
L 71.150812 19.092158 
L 70.742754 19.054081 
L 70.724221 17.488228 
L 71.767786 18.655795 
L 71.49249 18.959396 
L 72.124339 20.585526 
L 71.782662 20.718288 
" clip-path="url(#p6988cd3618)"/>
    <path d="M 17.865148 57.420822 
L 16.161951 57.798516 
L 16.062376 58.196067 
L 14.511854 57.9767 
L 15.824296 57.122455 
L 16.082591 57.440646 
L 17.785789 57.062952 
L 17.865148 57.420822 
" clip-path="url(#p6988cd3618)"/>
    <path d="M 69.001512 64.828988 
L 70.693791 64.40504 
L 70.7825 64.004925 
L 72.338422 64.181975 
L 71.049736 65.071653 
L 70.782869 64.760616 
L 69.09059 65.184564 
L 69.001512 64.828988 
" clip-path="url(#p6988cd3618)"/>
    <path d="M 118.819214 18.541921 
L 120.386315 17.775286 
L 120.389869 17.36547 
L 121.948591 17.21505 
L 120.873118 18.353293 
L 120.547398 18.104561 
L 118.980297 18.871195 
L 118.819214 18.541921 
" clip-path="url(#p6988cd3618)"/>
    <path d="M 56.897801 46.624468 
L 58.619321 46.341783 
L 58.740784 45.950365 
L 60.276759 46.255357 
L 58.918974 47.035524 
L 58.678718 46.703503 
L 56.957198 46.986188 
L 56.897801 46.624468 
" clip-path="url(#p6988cd3618)"/>
    <path d="M 61.611403 47.191182 
L 63.198959 46.467851 
L 63.213761 46.058287 
L 64.776024 45.95071 
L 63.669712 47.059003 
L 63.350942 46.801423 
L 61.763387 47.524754 
L 61.611403 47.191182 
" clip-path="url(#p6988cd3618)"/>
    <path d="M 42.307506 14.686389 
L 40.601883 14.319804 
L 40.345667 14.639671 
L 39.027685 13.793998 
L 40.576744 13.564531 
L 40.678908 13.961424 
L 42.384532 14.328009 
L 42.307506 14.686389 
" clip-path="url(#p6988cd3618)"/>
    <path d="M 81.418026 28.647415 
L 82.49421 27.274327 
L 82.318763 26.903949 
L 83.656022 26.089101 
L 83.184289 27.582321 
L 82.782718 27.500451 
L 81.706535 28.873539 
L 81.418026 28.647415 
" clip-path="url(#p6988cd3618)"/>
    <path d="M 86.596386 82.380021 
L 88.09858 83.267119 
L 88.442793 83.04468 
L 89.425747 84.263713 
L 87.883609 83.99159 
L 87.912186 83.582756 
L 86.409992 82.695657 
L 86.596386 82.380021 
" clip-path="url(#p6988cd3618)"/>
    <path d="M 46.642769 78.701967 
L 48.359432 79.012786 
L 48.605091 78.684741 
L 49.949926 79.487024 
L 48.409165 79.766839 
L 48.294124 79.373486 
L 46.577461 79.062666 
L 46.642769 78.701967 
" clip-path="url(#p6988cd3618)"/>
    <path d="M 58.594157 92.477002 
L 58.118371 94.155444 
L 58.421054 94.431748 
L 57.492169 95.692467 
L 57.363048 94.131837 
L 57.765702 94.055473 
L 58.241488 92.377032 
L 58.594157 92.477002 
" clip-path="url(#p6988cd3618)"/>
    <path d="M 55.409757 53.937547 
L 57.08368 53.446097 
L 57.156277 53.042747 
L 58.718046 53.157278 
L 57.466063 54.097904 
L 57.186942 53.797816 
L 55.513019 54.289266 
L 55.409757 53.937547 
" clip-path="url(#p6988cd3618)"/>
    <path d="M 66.515512 59.703344 
L 68.227278 59.366589 
L 68.336355 58.97154 
L 69.881173 59.228015 
L 68.548628 60.050551 
L 68.298036 59.72626 
L 66.58627 60.063014 
L 66.515512 59.703344 
" clip-path="url(#p6988cd3618)"/>
    <path d="M 57.98797 93.366148 
L 57.199696 94.922478 
L 57.443892 95.251613 
L 56.290857 96.311212 
L 56.462859 94.754724 
L 56.872685 94.756848 
L 57.660959 93.200518 
L 57.98797 93.366148 
" clip-path="url(#p6988cd3618)"/>
    <path d="M 47.979998 17.403404 
L 49.655895 17.888076 
L 49.9338 17.586861 
L 51.189579 18.522412 
L 49.628287 18.643263 
L 49.554058 18.24021 
L 47.87816 17.755538 
L 47.979998 17.403404 
" clip-path="url(#p6988cd3618)"/>
    <path d="M 64.862762 22.373029 
L 63.142498 22.663244 
L 63.022749 23.05519 
L 61.485454 22.756922 
L 62.839811 21.970821 
L 63.081519 22.301788 
L 64.801783 22.011572 
L 64.862762 22.373029 
" clip-path="url(#p6988cd3618)"/>
    <path d="M 35.195976 84.99457 
L 33.872763 86.131518 
L 33.97264 86.528993 
L 32.502186 87.067515 
L 33.255965 85.694906 
L 33.633871 85.853489 
L 34.957085 84.716541 
L 35.195976 84.99457 
" clip-path="url(#p6988cd3618)"/>
    <path d="M 79.675827 49.414865 
L 81.296625 48.769469 
L 81.331295 48.361106 
L 82.896939 48.329507 
L 81.738122 49.382779 
L 81.432234 49.110026 
L 79.811435 49.755423 
L 79.675827 49.414865 
" clip-path="url(#p6988cd3618)"/>
    <path d="M 84.939065 39.371305 
L 86.317743 38.302292 
L 86.237967 37.9003 
L 87.733625 37.436356 
L 86.911819 38.76935 
L 86.54236 38.591975 
L 85.163682 39.660988 
L 84.939065 39.371305 
" clip-path="url(#p6988cd3618)"/>
    <path d="M 66.279847 60.200356 
L 67.992741 59.869405 
L 68.103157 59.474728 
L 69.647096 59.736437 
L 68.311772 60.554452 
L 68.062279 60.229313 
L 66.349386 60.560264 
L 66.279847 60.200356 
" clip-path="url(#p6988cd3618)"/>
    <path d="M 108.627989 71.888891 
L 110.348051 71.59749 
L 110.46753 71.205461 
L 112.00503 71.502669 
L 110.651215 72.289704 
L 110.409279 71.958904 
L 108.689217 72.250306 
L 108.627989 71.888891 
" clip-path="url(#p6988cd3618)"/>
    <path d="M 118.997556 29.070943 
L 120.640737 29.657024 
L 120.936512 29.373337 
L 122.132834 30.383809 
L 120.567076 30.409117 
L 120.517591 30.002284 
L 118.874411 29.416203 
L 118.997556 29.070943 
" clip-path="url(#p6988cd3618)"/>
    <path d="M 67.980307 16.946964 
L 66.241736 16.802374 
L 66.028704 17.152487 
L 64.613063 16.483009 
L 66.119846 16.056578 
L 66.272117 16.437071 
L 68.010688 16.581661 
L 67.980307 16.946964 
" clip-path="url(#p6988cd3618)"/>
    <path d="M 89.94878 71.381459 
L 91.658399 71.728941 
L 91.91102 71.406228 
L 93.23838 72.237104 
L 91.691985 72.483886 
L 91.585387 72.08816 
L 89.875768 71.740678 
L 89.94878 71.381459 
" clip-path="url(#p6988cd3618)"/>
    <path d="M 48.366309 25.648062 
L 50.068911 25.267691 
L 50.167861 24.869985 
L 51.718726 25.086913 
L 50.407628 25.943221 
L 50.148833 25.625436 
L 48.446231 26.005807 
L 48.366309 25.648062 
" clip-path="url(#p6988cd3618)"/>
    <path d="M 78.780967 69.952779 
L 77.142044 70.550672 
L 77.095489 70.95785 
L 75.529589 70.943811 
L 76.718608 69.924756 
L 77.016417 70.206307 
L 78.65534 69.608415 
L 78.780967 69.952779 
" clip-path="url(#p6988cd3618)"/>
    <path d="M 52.838488 89.049195 
L 52.284048 90.703323 
L 52.573359 90.9936 
L 51.586031 92.209093 
L 51.53068 90.644109 
L 51.936488 90.586826 
L 52.490928 88.932698 
L 52.838488 89.049195 
" clip-path="url(#p6988cd3618)"/>
    <path d="M 75.432413 34.845426 
L 76.32802 33.348286 
L 76.107536 33.002817 
L 77.332125 32.026793 
L 77.051259 33.567362 
L 76.642594 33.536468 
L 75.746987 35.033608 
L 75.432413 34.845426 
" clip-path="url(#p6988cd3618)"/>
    <path d="M 72.720467 35.807673 
L 73.51795 34.256041 
L 73.275709 33.925465 
L 74.435002 32.872717 
L 74.25378 34.428158 
L 73.843974 34.423605 
L 73.046491 35.975237 
L 72.720467 35.807673 
" clip-path="url(#p6988cd3618)"/>
    <path d="M 49.670478 82.978717 
L 48.409351 84.184163 
L 48.530143 84.575789 
L 47.090282 85.19145 
L 47.77029 83.780837 
L 48.156067 83.919179 
L 49.417193 82.713733 
L 49.670478 82.978717 
" clip-path="url(#p6988cd3618)"/>
    <path d="M 51.678657 57.574397 
L 53.31201 56.961458 
L 53.354819 56.553869 
L 54.920782 56.553506 
L 53.741185 57.583453 
L 53.440799 57.304653 
L 51.807446 57.917592 
L 51.678657 57.574397 
" clip-path="url(#p6988cd3618)"/>
    <path d="M 59.673782 42.466113 
L 61.375976 42.083922 
L 61.474501 41.68611 
L 63.025597 41.901381 
L 61.715416 42.759089 
L 61.456281 42.441582 
L 59.754087 42.823773 
L 59.673782 42.466113 
" clip-path="url(#p6988cd3618)"/>
    <path d="M 60.553298 17.823607 
L 58.836015 17.516238 
L 58.591016 17.844776 
L 57.244571 17.045198 
L 58.784766 16.762286 
L 58.900598 17.155408 
L 60.617881 17.462777 
L 60.553298 17.823607 
" clip-path="url(#p6988cd3618)"/>
    <path d="M 75.454107 61.259443 
L 73.713807 61.137403 
L 73.505332 61.490248 
L 72.081131 60.839178 
L 73.58226 60.39325 
L 73.73945 60.771737 
L 75.479749 60.893777 
L 75.454107 61.259443 
" clip-path="url(#p6988cd3618)"/>
    <path d="M 79.13812 42.549051 
L 80.24276 41.198755 
L 80.075091 40.824792 
L 81.429086 40.038066 
L 80.926252 41.521102 
L 80.52648 41.430859 
L 79.421841 42.781155 
L 79.13812 42.549051 
" clip-path="url(#p6988cd3618)"/>
    <path d="M 47.872683 37.421403 
L 46.169254 37.798054 
L 46.069436 38.195544 
L 44.519048 37.975228 
L 45.832014 37.121786 
L 46.090114 37.440135 
L 47.793543 37.063484 
L 47.872683 37.421403 
" clip-path="url(#p6988cd3618)"/>
    <path d="M 64.617001 56.083189 
L 66.337212 55.792656 
L 66.456889 55.400687 
L 67.994239 55.698672 
L 66.640026 56.485023 
L 66.398258 56.154101 
L 64.678046 56.444634 
L 64.617001 56.083189 
" clip-path="url(#p6988cd3618)"/>
    <path d="M 53.712725 29.366737 
L 55.428973 29.679836 
L 55.675067 29.352117 
L 57.018836 30.156184 
L 55.477705 30.433954 
L 55.363186 30.040448 
L 53.646937 29.727349 
L 53.712725 29.366737 
" clip-path="url(#p6988cd3618)"/>
    <path d="M 59.350766 15.582816 
L 60.947078 14.879021 
L 60.966905 14.469669 
L 62.53037 14.381271 
L 61.410542 15.475905 
L 61.094957 15.214433 
L 59.498645 15.918228 
L 59.350766 15.582816 
" clip-path="url(#p6988cd3618)"/>
    <path d="M 72.188564 17.691701 
L 71.254939 16.217969 
L 70.847198 16.259312 
L 70.527001 14.726434 
L 71.776165 15.670801 
L 71.564594 16.021799 
L 72.498219 17.495531 
L 72.188564 17.691701 
" clip-path="url(#p6988cd3618)"/>
    <path d="M 41.727494 70.513955 
L 43.458381 70.295844 
L 43.594396 69.909241 
L 45.117892 70.271457 
L 43.731883 71.000305 
L 43.50421 70.659532 
L 41.773323 70.877643 
L 41.727494 70.513955 
" clip-path="url(#p6988cd3618)"/>
    <path d="M 53.986428 45.761833 
L 55.671768 45.311088 
L 55.754118 44.909616 
L 57.312653 45.061957 
L 56.038245 45.971969 
L 55.766477 45.665206 
L 54.081137 46.115951 
L 53.986428 45.761833 
" clip-path="url(#p6988cd3618)"/>
    <path d="M 77.108681 70.200047 
L 75.414794 70.617528 
L 75.324557 71.017302 
L 73.769323 70.83431 
L 75.061398 69.949561 
L 75.327075 70.261615 
L 77.020961 69.844133 
L 77.108681 70.200047 
" clip-path="url(#p6988cd3618)"/>
    <path d="M 56.715529 25.0381 
L 58.45971 25.001078 
L 58.635172 24.630707 
L 60.112767 25.149314 
L 58.658509 25.730152 
L 58.467489 25.36756 
L 56.723308 25.404582 
L 56.715529 25.0381 
" clip-path="url(#p6988cd3618)"/>
    <path d="M 53.41481 87.86375 
L 52.729326 89.468009 
L 52.994392 89.780582 
L 51.912643 90.912862 
L 51.983147 89.348487 
L 52.392245 89.323978 
L 53.077728 87.719718 
L 53.41481 87.86375 
" clip-path="url(#p6988cd3618)"/>
    <path d="M 57.437717 26.838427 
L 59.170163 26.633063 
L 59.309021 26.247472 
L 60.829808 26.620894 
L 59.438472 27.339519 
L 59.213314 26.997078 
L 57.480868 27.202442 
L 57.437717 26.838427 
" clip-path="url(#p6988cd3618)"/>
    <path d="M 53.427871 32.454592 
L 51.687339 32.33588 
L 51.479539 32.689122 
L 50.054096 32.040777 
L 51.554369 31.591979 
L 51.712283 31.970165 
L 53.452814 32.088877 
L 53.427871 32.454592 
" clip-path="url(#p6988cd3618)"/>
    <path d="M 81.886497 39.26193 
L 82.942886 37.873556 
L 82.762147 37.505731 
L 84.087588 36.671796 
L 83.637309 38.171626 
L 83.234606 38.095521 
L 82.178218 39.483895 
L 81.886497 39.26193 
" clip-path="url(#p6988cd3618)"/>
    <path d="M 69.865269 66.017321 
L 71.56111 65.607868 
L 71.65324 65.208526 
L 73.20759 65.398881 
L 71.911339 66.277501 
L 71.647144 65.964193 
L 69.951302 66.373646 
L 69.865269 66.017321 
" clip-path="url(#p6988cd3618)"/>
    <path d="M 86.521931 15.918739 
L 86.50138 14.174284 
L 86.132682 13.995333 
L 86.665218 12.522701 
L 87.232299 13.982378 
L 86.867919 14.169966 
L 86.88847 15.914421 
L 86.521931 15.918739 
" clip-path="url(#p6988cd3618)"/>
    <path d="M 98.433114 56.136766 
L 100.064913 56.753837 
L 100.366004 56.475797 
L 101.54299 57.508726 
L 99.977033 57.504401 
L 99.935256 57.096704 
L 98.303458 56.479634 
L 98.433114 56.136766 
" clip-path="url(#p6988cd3618)"/>
    <path d="M 120.382971 30.603651 
L 122.098783 30.28816 
L 122.212754 29.894494 
L 123.75427 30.170115 
L 122.411623 30.976055 
L 122.165073 30.64868 
L 120.449261 30.964171 
L 120.382971 30.603651 
" clip-path="url(#p6988cd3618)"/>
    <path d="M 81.253173 28.231545 
L 82.090498 26.701046 
L 81.856883 26.364319 
L 83.043001 25.341889 
L 82.821633 26.892127 
L 82.412081 26.876982 
L 81.574757 28.407481 
L 81.253173 28.231545 
" clip-path="url(#p6988cd3618)"/>
    <path d="M 53.840171 43.77527 
L 55.337945 42.880725 
L 55.30734 42.472038 
L 56.848108 42.192264 
L 55.871217 43.41616 
L 55.525904 43.195432 
L 54.02813 44.089977 
L 53.840171 43.77527 
" clip-path="url(#p6988cd3618)"/>
    <path d="M 67.057447 16.868853 
L 65.752838 15.710606 
L 65.372411 15.863043 
L 64.640981 14.478395 
L 66.102512 15.040683 
L 65.996205 15.436486 
L 67.300814 16.594733 
L 67.057447 16.868853 
" clip-path="url(#p6988cd3618)"/>
    <path d="M 91.518062 23.226342 
L 92.386729 21.713413 
L 92.160097 21.371946 
L 93.367021 20.37416 
L 93.113773 21.91951 
L 92.70462 21.895934 
L 91.835954 23.408863 
L 91.518062 23.226342 
" clip-path="url(#p6988cd3618)"/>
    <path d="M 81.655276 29.500735 
L 82.761147 28.151447 
L 82.59382 27.77733 
L 83.948532 26.99184 
L 83.444345 28.474417 
L 83.044655 28.383809 
L 81.938785 29.733097 
L 81.655276 29.500735 
" clip-path="url(#p6988cd3618)"/>
    <path d="M 90.941167 58.393197 
L 92.68573 58.39865 
L 92.870157 58.03266 
L 94.334688 58.587086 
L 92.86672 59.132347 
L 92.684584 58.765212 
L 90.940022 58.75976 
L 90.941167 58.393197 
" clip-path="url(#p6988cd3618)"/>
    <path d="M 66.82425 68.57729 
L 68.549209 68.316425 
L 68.675619 67.926576 
L 70.207609 68.250992 
L 68.840055 69.013905 
L 68.604021 68.678868 
L 66.879062 68.939733 
L 66.82425 68.57729 
" clip-path="url(#p6988cd3618)"/>
    <path d="M 62.374656 25.609514 
L 60.95325 24.598007 
L 60.591385 24.790401 
L 59.715542 23.492272 
L 61.228988 23.894418 
L 61.165784 24.299346 
L 62.587191 25.310853 
L 62.374656 25.609514 
" clip-path="url(#p6988cd3618)"/>
    <path d="M 57.045076 75.434417 
L 55.571951 76.368994 
L 55.613557 76.776708 
L 54.080887 77.097897 
L 55.024445 75.848122 
L 55.37558 76.059466 
L 56.848705 75.124888 
L 57.045076 75.434417 
" clip-path="url(#p6988cd3618)"/>
    <path d="M 66.861253 89.930793 
L 65.430886 90.929587 
L 65.490477 91.335062 
L 63.973506 91.723699 
L 64.860887 90.43343 
L 65.221023 90.629043 
L 66.65139 89.630249 
L 66.861253 89.930793 
" clip-path="url(#p6988cd3618)"/>
    <path d="M 66.069442 30.332648 
L 65.552586 28.666392 
L 65.148179 28.599938 
L 65.238941 27.036608 
L 66.198502 28.274139 
L 65.902694 28.557792 
L 66.41955 30.224048 
L 66.069442 30.332648 
" clip-path="url(#p6988cd3618)"/>
    <path d="M 61.286135 52.223614 
L 63.027218 52.113305 
L 63.186956 51.735886 
L 64.685045 52.191921 
L 63.256489 52.833378 
L 63.050396 52.479136 
L 61.309312 52.589445 
L 61.286135 52.223614 
" clip-path="url(#p6988cd3618)"/>
    <path d="M 78.919836 26.966581 
L 79.272963 25.258122 
L 78.951086 25.004436 
L 79.786342 23.679827 
L 80.028014 25.227029 
L 79.631939 25.33232 
L 79.278812 27.040779 
L 78.919836 26.966581 
" clip-path="url(#p6988cd3618)"/>
    <path d="M 60.582291 54.039975 
L 62.304373 53.760737 
L 62.426619 53.369562 
L 63.96198 53.677629 
L 62.602637 54.455077 
L 62.363045 54.122575 
L 60.640963 54.401813 
L 60.582291 54.039975 
" clip-path="url(#p6988cd3618)"/>
    <path d="M 58.296386 93.136215 
L 56.851674 94.114144 
L 56.905374 94.520442 
L 55.382923 94.887021 
L 56.288937 93.609767 
L 56.646195 93.810586 
L 58.090907 92.832657 
L 58.296386 93.136215 
" clip-path="url(#p6988cd3618)"/>
    <path d="M 55.902782 46.155054 
L 57.625042 45.876935 
L 57.747543 45.48584 
L 59.282704 45.794903 
L 57.922856 46.571468 
L 57.68348 46.238811 
L 55.96122 46.51693 
L 55.902782 46.155054 
" clip-path="url(#p6988cd3618)"/>
    <path d="M 53.183883 58.710184 
L 54.760182 57.962639 
L 54.768714 57.552896 
L 56.329147 57.421419 
L 55.239929 58.546516 
L 54.917254 58.293845 
L 53.340955 59.041391 
L 53.183883 58.710184 
" clip-path="url(#p6988cd3618)"/>
    <path d="M 37.914406 69.575834 
L 39.452994 68.753468 
L 39.441843 68.343789 
L 40.994164 68.137542 
L 39.960221 69.313638 
L 39.625787 69.076751 
L 38.087199 69.899117 
L 37.914406 69.575834 
" clip-path="url(#p6988cd3618)"/>
    <path d="M 49.607857 29.795702 
L 47.935103 30.291108 
L 47.86346 30.694628 
L 46.301424 30.58379 
L 47.55118 29.640207 
L 47.83101 29.939634 
L 49.503764 29.444228 
L 49.607857 29.795702 
" clip-path="url(#p6988cd3618)"/>
    <path d="M 66.865122 88.953919 
L 66.475233 90.654366 
L 66.791565 90.914935 
L 65.927936 92.221222 
L 65.719687 90.669168 
L 66.117941 90.572444 
L 66.50783 88.871997 
L 66.865122 88.953919 
" clip-path="url(#p6988cd3618)"/>
    <path d="M 61.671629 5.16272 
L 63.414639 5.088859 
L 63.582237 4.714864 
L 65.070458 5.202139 
L 63.628796 5.81357 
L 63.430158 5.455094 
L 61.687148 5.528955 
L 61.671629 5.16272 
" clip-path="url(#p6988cd3618)"/>
    <path d="M 82.108763 65.606318 
L 80.494633 66.268225 
L 80.464132 66.676919 
L 78.898893 66.724496 
L 80.046899 65.659452 
L 80.355555 65.929069 
L 81.969685 65.267162 
L 82.108763 65.606318 
" clip-path="url(#p6988cd3618)"/>
    <path d="M 60.905871 12.539787 
L 62.648406 12.624126 
L 62.849194 12.266851 
L 64.287155 12.886938 
L 62.796031 13.365258 
L 62.630685 12.990261 
L 60.88815 12.905922 
L 60.905871 12.539787 
" clip-path="url(#p6988cd3618)"/>
    <path d="M 39.492521 43.472173 
L 37.752809 43.602315 
L 37.597383 43.98153 
L 36.094194 43.542596 
L 37.515347 42.884902 
L 37.725464 43.236772 
L 39.465176 43.10663 
L 39.492521 43.472173 
" clip-path="url(#p6988cd3618)"/>
    <path d="M 54.416605 32.023481 
L 52.672487 32.063384 
L 52.497637 32.434045 
L 51.019187 31.91788 
L 52.472484 31.33464 
L 52.664102 31.696916 
L 54.408221 31.657012 
L 54.416605 32.023481 
" clip-path="url(#p6988cd3618)"/>
    <path d="M 55.908808 26.644321 
L 54.193513 26.326044 
L 53.946432 26.653019 
L 52.605095 25.8449 
L 54.147057 25.571782 
L 54.260388 25.965632 
L 55.975683 26.283908 
L 55.908808 26.644321 
" clip-path="url(#p6988cd3618)"/>
    <path d="M 49.116131 53.24064 
L 47.456406 53.778086 
L 47.394964 54.183286 
L 45.83063 54.111887 
L 47.056185 53.137077 
L 47.343479 53.42935 
L 49.003205 52.891904 
L 49.116131 53.24064 
" clip-path="url(#p6988cd3618)"/>
    <path d="M 87.014793 67.50813 
L 88.656465 68.098434 
L 88.952969 67.815508 
L 90.146689 68.829052 
L 88.580871 68.850335 
L 88.532432 68.443377 
L 86.890761 67.853073 
L 87.014793 67.50813 
" clip-path="url(#p6988cd3618)"/>
    <path d="M 65.747077 23.905485 
L 64.209802 23.080661 
L 63.87499 23.317013 
L 62.842927 22.139267 
L 64.394917 22.347994 
L 64.383111 22.757655 
L 65.920386 23.582479 
L 65.747077 23.905485 
" clip-path="url(#p6988cd3618)"/>
    <path d="M 37.572445 16.968396 
L 35.841634 16.749699 
L 35.613846 17.090396 
L 34.228084 16.361079 
L 35.751702 15.999378 
L 35.887586 16.386027 
L 37.618397 16.604724 
L 37.572445 16.968396 
" clip-path="url(#p6988cd3618)"/>
    <path d="M 41.175441 20.581672 
L 39.440619 20.765866 
L 39.297063 21.149733 
L 37.780948 20.757769 
L 39.180956 20.056187 
L 39.401916 20.401351 
L 41.136739 20.217156 
L 41.175441 20.581672 
" clip-path="url(#p6988cd3618)"/>
    <path d="M 61.508458 17.248725 
L 59.763932 17.235811 
L 59.577942 17.601008 
L 58.115796 17.040323 
L 59.586082 16.501346 
L 59.766646 16.869257 
L 61.511171 16.882171 
L 61.508458 17.248725 
" clip-path="url(#p6988cd3618)"/>
    <path d="M 39.03321 66.927511 
L 40.611016 66.183153 
L 40.620375 65.773429 
L 42.181071 65.645106 
L 41.089581 66.767999 
L 40.767417 66.514676 
L 39.189611 67.259034 
L 39.03321 66.927511 
" clip-path="url(#p6988cd3618)"/>
    <path d="M 119.90062 24.682174 
L 121.599542 24.285674 
L 121.694717 23.887047 
L 123.247569 24.08926 
L 121.94465 24.957961 
L 121.682853 24.642646 
L 119.983932 25.039145 
L 119.90062 24.682174 
" clip-path="url(#p6988cd3618)"/>
    <path d="M 52.269637 31.610605 
L 54.01419 31.601827 
L 54.195626 31.234345 
L 55.66463 31.776807 
L 54.201159 32.334023 
L 54.016035 31.968386 
L 52.271482 31.977164 
L 52.269637 31.610605 
" clip-path="url(#p6988cd3618)"/>
    <path d="M 61.908056 26.955207 
L 60.286347 26.312089 
L 59.980843 26.585272 
L 58.820545 25.53363 
L 60.386232 25.563028 
L 60.421476 25.971341 
L 62.043186 26.614459 
L 61.908056 26.955207 
" clip-path="url(#p6988cd3618)"/>
    <path d="M 87.46071 67.931214 
L 89.001988 68.748533 
L 89.335644 68.510551 
L 90.373436 69.683251 
L 88.820447 69.482094 
L 88.830255 69.072381 
L 87.288978 68.255062 
L 87.46071 67.931214 
" clip-path="url(#p6988cd3618)"/>
    <path d="M 54.668396 60.141644 
L 56.295834 59.513171 
L 56.334758 59.105192 
L 57.900646 59.089909 
L 56.730916 60.131049 
L 56.427887 59.855123 
L 54.800449 60.483597 
L 54.668396 60.141644 
" clip-path="url(#p6988cd3618)"/>
    <path d="M 83.302926 37.678581 
L 81.751505 38.476468 
L 81.756164 38.886273 
L 80.20077 39.067901 
L 81.253216 37.908333 
L 81.583855 38.150488 
L 83.135276 37.352601 
L 83.302926 37.678581 
" clip-path="url(#p6988cd3618)"/>
    <path d="M 114.154309 61.316239 
L 115.87425 61.024097 
L 115.99356 60.632017 
L 117.531188 60.928563 
L 116.177712 61.716181 
L 115.935634 61.385485 
L 114.215693 61.677627 
L 114.154309 61.316239 
" clip-path="url(#p6988cd3618)"/>
    <path d="M 58.090577 14.649128 
L 57.857257 12.920226 
L 57.469473 12.787615 
L 57.818282 11.260994 
L 58.559287 12.640542 
L 58.220528 12.871202 
L 58.453848 14.600103 
L 58.090577 14.649128 
" clip-path="url(#p6988cd3618)"/>
    <path d="M 61.595591 53.172697 
L 63.337311 53.072968 
L 63.499339 52.696526 
L 64.99463 53.161654 
L 63.562203 53.79442 
L 63.358266 53.438933 
L 61.616546 53.538662 
L 61.595591 53.172697 
" clip-path="url(#p6988cd3618)"/>
    <path d="M 81.093945 37.352982 
L 82.433383 36.235202 
L 82.339238 35.836331 
L 83.81729 35.319031 
L 83.043832 36.680648 
L 82.668248 36.516641 
L 81.328809 37.634421 
L 81.093945 37.352982 
" clip-path="url(#p6988cd3618)"/>
    <path d="M 109.563959 17.157149 
L 111.180736 16.501736 
L 111.212879 16.093167 
L 112.778297 16.051882 
L 111.626019 17.112304 
L 111.318449 16.841448 
L 109.701672 17.496861 
L 109.563959 17.157149 
" clip-path="url(#p6988cd3618)"/>
    <path d="M 117.292805 21.256871 
L 119.02348 21.476657 
L 119.251483 21.136104 
L 120.636786 21.866291 
L 119.112941 22.227034 
L 118.9773 21.840301 
L 117.246624 21.620515 
L 117.292805 21.256871 
" clip-path="url(#p6988cd3618)"/>
    <path d="M 71.042328 14.532051 
L 69.351677 14.101665 
L 69.083629 14.411683 
L 67.798339 13.517106 
L 69.354923 13.34598 
L 69.442109 13.74643 
L 71.13276 14.176817 
L 71.042328 14.532051 
" clip-path="url(#p6988cd3618)"/>
    <path d="M 22.19683 39.325873 
L 20.489577 39.684798 
L 20.385632 40.081229 
L 18.837619 39.84481 
L 20.159384 39.005062 
L 20.414161 39.326076 
L 22.121414 38.967151 
L 22.19683 39.325873 
" clip-path="url(#p6988cd3618)"/>
    <path d="M 18.886745 75.823662 
L 17.3812 76.705065 
L 17.408227 77.114004 
L 15.86507 77.380283 
L 16.852635 76.164983 
L 17.196003 76.388725 
L 18.701548 75.507322 
L 18.886745 75.823662 
" clip-path="url(#p6988cd3618)"/>
    <path d="M 113.672829 67.48587 
L 115.412532 67.616165 
L 115.622679 67.264314 
L 117.043775 67.922133 
L 115.540548 68.360935 
L 115.385155 67.981706 
L 113.645451 67.85141 
L 113.672829 67.48587 
" clip-path="url(#p6988cd3618)"/>
    <path d="M 34.306267 72.939563 
L 36.035797 72.710953 
L 36.169464 72.323532 
L 37.695129 72.676498 
L 36.313568 73.413742 
L 36.083832 73.074356 
L 34.354302 73.302966 
L 34.306267 72.939563 
" clip-path="url(#p6988cd3618)"/>
    <path d="M 79.098314 51.045013 
L 80.743073 50.463379 
L 80.793658 50.056682 
L 82.359342 50.086225 
L 81.160291 51.093457 
L 80.865284 50.808971 
L 79.220525 51.390604 
L 79.098314 51.045013 
" clip-path="url(#p6988cd3618)"/>
    <path d="M 44.320033 43.291163 
L 42.794265 44.137076 
L 42.81171 44.546536 
L 41.262742 44.776614 
L 42.278489 43.584768 
L 42.616524 43.816487 
L 44.142293 42.970574 
L 44.320033 43.291163 
" clip-path="url(#p6988cd3618)"/>
    <path d="M 84.286281 71.783926 
L 85.93306 72.359827 
L 86.227074 72.074314 
L 87.429627 73.077363 
L 85.864056 73.112361 
L 85.812054 72.705842 
L 84.165275 72.129941 
L 84.286281 71.783926 
" clip-path="url(#p6988cd3618)"/>
    <path d="M 80.329787 43.976675 
L 81.695806 42.891538 
L 81.611312 42.490512 
L 83.101415 42.009024 
L 82.295329 43.351583 
L 81.923811 43.178562 
L 80.557793 44.263699 
L 80.329787 43.976675 
" clip-path="url(#p6988cd3618)"/>
    <path d="M 17.656396 40.109212 
L 15.980904 40.595285 
L 15.907012 40.9984 
L 14.345619 40.878855 
L 15.600616 39.942254 
L 15.878772 40.243236 
L 17.554264 39.757163 
L 17.656396 40.109212 
" clip-path="url(#p6988cd3618)"/>
    <path d="M 61.16875 22.702746 
L 59.425313 22.639803 
L 59.228925 22.999515 
L 57.783461 22.397126 
L 59.268601 21.900539 
L 59.438539 22.273477 
L 61.181976 22.33642 
L 61.16875 22.702746 
" clip-path="url(#p6988cd3618)"/>
    <path d="M 62.081127 62.281835 
L 63.676944 62.986755 
L 63.992713 62.725505 
L 65.11177 63.820928 
L 63.548367 63.731428 
L 63.528828 63.322063 
L 61.933012 62.617143 
L 62.081127 62.281835 
" clip-path="url(#p6988cd3618)"/>
    <path d="M 83.520082 29.828569 
L 84.537565 28.411436 
L 84.346697 28.048764 
L 85.648502 27.178395 
L 85.239987 28.690134 
L 84.835328 28.625226 
L 83.817845 30.04236 
L 83.520082 29.828569 
" clip-path="url(#p6988cd3618)"/>
    <path d="M 86.643229 54.387692 
L 88.357996 54.066575 
L 88.470674 53.672538 
L 90.013086 53.943102 
L 88.67309 54.753441 
L 88.425467 54.426876 
L 86.710701 54.747993 
L 86.643229 54.387692 
" clip-path="url(#p6988cd3618)"/>
    <path d="M 57.119258 14.106391 
L 58.79452 13.61953 
L 58.868222 13.21638 
L 60.429671 13.33519 
L 59.175115 14.272382 
L 58.896817 13.97153 
L 57.221556 14.458392 
L 57.119258 14.106391 
" clip-path="url(#p6988cd3618)"/>
    <path d="M 107.873732 18.040324 
L 109.546347 18.536192 
L 109.82626 18.236842 
L 111.075755 19.180772 
L 109.513689 19.291177 
L 109.442157 18.887637 
L 107.769542 18.391769 
L 107.873732 18.040324 
" clip-path="url(#p6988cd3618)"/>
    <path d="M 49.440218 45.048713 
L 47.724535 45.364896 
L 47.610724 45.758608 
L 46.069096 45.483609 
L 47.411418 44.677127 
L 47.6581 45.004403 
L 49.373783 44.688219 
L 49.440218 45.048713 
" clip-path="url(#p6988cd3618)"/>
    <path d="M 58.540977 15.59573 
L 56.824347 15.284731 
L 56.578655 15.612751 
L 55.233904 14.810327 
L 56.774693 14.530673 
L 56.889693 14.924039 
L 58.606323 15.235038 
L 58.540977 15.59573 
" clip-path="url(#p6988cd3618)"/>
    <path d="M 50.909743 29.931846 
L 49.219764 29.498828 
L 48.951233 29.808428 
L 47.667338 28.911851 
L 49.224187 28.743149 
L 49.310749 29.143735 
L 51.000728 29.576753 
L 50.909743 29.931846 
" clip-path="url(#p6988cd3618)"/>
    <path d="M 111.216597 27.285658 
L 112.821668 27.969239 
L 113.133926 27.703802 
L 114.267488 28.784208 
L 112.703031 28.71556 
L 112.678037 28.306491 
L 111.072966 27.622911 
L 111.216597 27.285658 
" clip-path="url(#p6988cd3618)"/>
    <path d="M 112.48384 29.055836 
L 114.228206 29.029069 
L 114.405843 28.659736 
L 115.880363 29.187021 
L 114.422715 29.759299 
L 114.23383 29.39559 
L 112.489464 29.422357 
L 112.48384 29.055836 
" clip-path="url(#p6988cd3618)"/>
    <path d="M 65.574145 81.946489 
L 63.938327 82.552823 
L 63.893872 82.960236 
L 62.32792 82.95427 
L 63.511669 81.929098 
L 63.810926 82.20911 
L 65.446744 81.602776 
L 65.574145 81.946489 
" clip-path="url(#p6988cd3618)"/>
    <path d="M 58.253856 20.106641 
L 56.644872 19.432314 
L 56.334148 19.699544 
L 55.194383 18.625684 
L 56.759209 18.685322 
L 56.786559 19.09424 
L 58.395543 19.768567 
L 58.253856 20.106641 
" clip-path="url(#p6988cd3618)"/>
    <path d="M 119.056853 24.070975 
L 120.785335 23.834569 
L 120.917254 23.446549 
L 122.444495 23.792632 
L 121.066272 24.536098 
L 120.835008 24.197752 
L 119.106526 24.434158 
L 119.056853 24.070975 
" clip-path="url(#p6988cd3618)"/>
    <path d="M 90.784326 23.111936 
L 91.544338 21.541615 
L 91.294233 21.216948 
L 92.427926 20.13668 
L 92.284087 21.696023 
L 91.87429 21.701307 
L 91.114277 23.271627 
L 90.784326 23.111936 
" clip-path="url(#p6988cd3618)"/>
    <path d="M 32.30898 58.831794 
L 34.031638 58.556129 
L 34.154695 58.165209 
L 35.689414 58.476461 
L 34.328461 59.251087 
L 34.089559 58.918088 
L 32.366902 59.193753 
L 32.30898 58.831794 
" clip-path="url(#p6988cd3618)"/>
    <path d="M 119.627528 9.979742 
L 121.040762 8.956848 
L 120.974307 8.55244 
L 122.484473 8.138149 
L 121.619088 9.443272 
L 121.255689 9.253792 
L 119.842455 10.276685 
L 119.627528 9.979742 
" clip-path="url(#p6988cd3618)"/>
    <path d="M 48.063168 42.067605 
L 46.424303 42.665648 
L 46.377786 43.072831 
L 44.811884 43.058937 
L 46.000809 42.039772 
L 46.298644 42.321295 
L 47.937509 41.723252 
L 48.063168 42.067605 
" clip-path="url(#p6988cd3618)"/>
    <path d="M 57.149241 19.554737 
L 55.40724 19.649468 
L 55.244133 20.025444 
L 53.750183 19.556027 
L 55.18442 18.927374 
L 55.387336 19.283445 
L 57.129336 19.188714 
L 57.149241 19.554737 
" clip-path="url(#p6988cd3618)"/>
    <path d="M 68.445952 17.9356 
L 66.796234 17.368176 
L 66.503692 17.655197 
L 65.295996 16.658346 
L 66.861367 16.615297 
L 66.915459 17.021543 
L 68.565177 17.588967 
L 68.445952 17.9356 
" clip-path="url(#p6988cd3618)"/>
    <path d="M 86.373631 40.118916 
L 87.300632 38.641008 
L 87.087489 38.290964 
L 88.332401 37.341 
L 88.019087 38.875299 
L 87.611165 38.835787 
L 86.684164 40.313695 
L 86.373631 40.118916 
" clip-path="url(#p6988cd3618)"/>
    <path d="M 56.85068 59.563045 
L 58.489799 58.965693 
L 58.536488 58.55853 
L 60.102383 58.573086 
L 58.913029 59.591749 
L 58.615312 59.3101 
L 56.976194 59.907451 
L 56.85068 59.563045 
" clip-path="url(#p6988cd3618)"/>
    <path d="M 63.466184 49.093988 
L 65.195424 48.863202 
L 65.328603 48.475613 
L 66.854711 48.826659 
L 65.474079 49.565641 
L 65.243916 49.226544 
L 63.514676 49.45733 
L 63.466184 49.093988 
" clip-path="url(#p6988cd3618)"/>
    <path d="M 40.273383 45.250426 
L 38.534396 45.389938 
L 38.381015 45.769985 
L 36.875483 45.339156 
L 38.293073 44.673815 
L 38.505082 45.024548 
L 40.24407 44.885036 
L 40.273383 45.250426 
" clip-path="url(#p6988cd3618)"/>
    <path d="M 112.980296 81.192141 
L 114.722326 81.286264 
L 114.925118 80.930122 
L 116.359574 81.558276 
L 114.865787 82.028213 
L 114.702549 81.652294 
L 112.960519 81.558171 
L 112.980296 81.192141 
" clip-path="url(#p6988cd3618)"/>
    <path d="M 53.068796 26.166231 
L 54.805923 26.327249 
L 55.022255 25.979166 
L 56.431504 26.661996 
L 54.920757 27.074164 
L 54.77209 26.692248 
L 53.034964 26.53123 
L 53.068796 26.166231 
" clip-path="url(#p6988cd3618)"/>
    <path d="M 78.253672 13.34963 
L 77.842125 11.654293 
L 77.44267 11.562657 
L 77.631107 10.008073 
L 78.511326 11.303238 
L 78.198344 11.567821 
L 78.60989 13.263157 
L 78.253672 13.34963 
" clip-path="url(#p6988cd3618)"/>
    <path d="M 65.306405 63.063968 
L 67.050953 63.054199 
L 67.232179 62.686614 
L 68.701492 63.22824 
L 67.238337 63.786289 
L 67.053005 63.420757 
L 65.308457 63.430527 
L 65.306405 63.063968 
" clip-path="url(#p6988cd3618)"/>
    <path d="M 24.944186 91.792162 
L 23.538289 92.825117 
L 23.607629 93.229039 
L 22.100459 93.654099 
L 22.956507 92.342832 
L 23.321249 92.529714 
L 24.727145 91.49676 
L 24.944186 91.792162 
" clip-path="url(#p6988cd3618)"/>
    <path d="M 75.608332 42.130028 
L 76.427531 40.589754 
L 76.189958 40.255808 
L 77.363925 39.219448 
L 77.160871 40.772191 
L 76.751169 40.761882 
L 75.93197 42.302156 
L 75.608332 42.130028 
" clip-path="url(#p6988cd3618)"/>
    <path d="M 65.182235 57.295487 
L 66.911614 57.52522 
L 67.141571 57.185983 
L 68.522653 57.924124 
L 66.996759 58.276099 
L 66.863343 57.888592 
L 65.133964 57.658859 
L 65.182235 57.295487 
" clip-path="url(#p6988cd3618)"/>
    <path d="M 56.563353 46.203683 
L 58.270838 45.845869 
L 58.375041 45.449507 
L 59.922901 45.686933 
L 58.60059 46.525821 
L 58.346021 46.204641 
L 56.638536 46.562454 
L 56.563353 46.203683 
" clip-path="url(#p6988cd3618)"/>
    <path d="M 16.988767 53.882228 
L 15.359235 54.505254 
L 15.318947 54.913101 
L 13.753017 54.923146 
L 14.926222 53.885925 
L 15.228327 54.162862 
L 16.857858 53.539836 
L 16.988767 53.882228 
" clip-path="url(#p6988cd3618)"/>
    <path d="M 119.50052 66.482991 
L 121.243672 66.553356 
L 121.44159 66.194483 
L 122.884476 66.803021 
L 121.397235 67.29328 
L 121.228887 66.919622 
L 119.485735 66.849257 
L 119.50052 66.482991 
" clip-path="url(#p6988cd3618)"/>
    <path d="M 117.996775 33.113343 
L 119.722493 32.857524 
L 119.850042 32.468046 
L 121.381077 32.796942 
L 120.011298 33.555852 
L 119.776245 33.220126 
L 118.050527 33.475945 
L 117.996775 33.113343 
" clip-path="url(#p6988cd3618)"/>
    <path d="M 62.121605 62.668281 
L 63.865631 62.711972 
L 64.058036 62.350112 
L 65.510063 62.936506 
L 64.030496 63.44946 
L 63.856451 63.078421 
L 62.112425 63.034731 
L 62.121605 62.668281 
" clip-path="url(#p6988cd3618)"/>
    <path d="M 40.306248 18.15721 
L 38.569058 17.996874 
L 38.352862 18.345042 
L 36.943345 17.662766 
L 38.45393 17.250004 
L 38.602747 17.631862 
L 40.339937 17.792198 
L 40.306248 18.15721 
" clip-path="url(#p6988cd3618)"/>
    <path d="M 102.970675 90.497685 
L 104.474927 91.381298 
L 104.818623 91.15806 
L 105.804403 92.374809 
L 104.261638 92.106265 
L 104.289265 91.697366 
L 102.785013 90.813753 
L 102.970675 90.497685 
" clip-path="url(#p6988cd3618)"/>
    <path d="M 48.213474 52.416465 
L 46.470298 52.486268 
L 46.301829 52.859872 
L 44.814746 52.369133 
L 46.257829 51.76106 
L 46.455631 52.119997 
L 48.198807 52.050194 
L 48.213474 52.416465 
" clip-path="url(#p6988cd3618)"/>
    <path d="M 75.186418 39.106855 
L 76.136172 37.643466 
L 75.928469 37.290165 
L 77.187928 36.359574 
L 76.850916 37.888842 
L 76.443654 37.843024 
L 75.493901 39.306414 
L 75.186418 39.106855 
" clip-path="url(#p6988cd3618)"/>
    <path d="M 46.294745 39.476989 
L 44.565803 39.243984 
L 44.335205 39.582784 
L 42.955522 38.842031 
L 44.48208 38.492944 
L 44.614762 38.880704 
L 46.343704 39.113709 
L 46.294745 39.476989 
" clip-path="url(#p6988cd3618)"/>
    <path d="M 49.854349 27.222021 
L 51.567391 26.891822 
L 51.67798 26.497193 
L 53.221804 26.75958 
L 51.886121 27.577008 
L 51.636771 27.25176 
L 49.92373 27.581959 
L 49.854349 27.222021 
" clip-path="url(#p6988cd3618)"/>
    <path d="M 80.487323 33.602902 
L 81.83232 32.491809 
L 81.740165 32.092473 
L 83.220777 31.582546 
L 82.440541 32.940291 
L 82.065779 32.774415 
L 80.720782 33.885508 
L 80.487323 33.602902 
" clip-path="url(#p6988cd3618)"/>
    <path d="M 36.681458 17.232007 
L 34.940768 17.348377 
L 34.782345 17.72635 
L 33.282678 17.275533 
L 34.708992 16.629107 
L 34.916317 16.982629 
L 36.657007 16.866259 
L 36.681458 17.232007 
" clip-path="url(#p6988cd3618)"/>
    <path d="M 104.48573 83.33784 
L 106.224098 83.484856 
L 106.437619 83.135041 
L 107.852324 83.806493 
L 106.344947 84.230821 
L 106.193208 83.850116 
L 104.45484 83.7031 
L 104.48573 83.33784 
" clip-path="url(#p6988cd3618)"/>
    <path d="M 108.455187 82.696864 
L 110.144457 83.132638 
L 110.413493 82.823476 
L 111.695924 83.722146 
L 110.138802 83.888308 
L 110.052894 83.487582 
L 108.363624 83.051808 
L 108.455187 82.696864 
" clip-path="url(#p6988cd3618)"/>
    <path d="M 67.000238 79.658629 
L 65.55616 80.637493 
L 65.610123 81.043756 
L 64.08791 81.411321 
L 64.993096 80.133481 
L 65.350484 80.334068 
L 66.794562 79.355204 
L 67.000238 79.658629 
" clip-path="url(#p6988cd3618)"/>
    <path d="M 36.291813 55.039946 
L 34.65739 55.650025 
L 34.613868 56.057538 
L 33.047907 56.05516 
L 34.229305 55.027279 
L 34.529202 55.306605 
L 36.163625 54.696526 
L 36.291813 55.039946 
" clip-path="url(#p6988cd3618)"/>
    <path d="M 121.431689 66.17584 
L 123.165443 65.981824 
L 123.306822 65.597151 
L 124.825132 65.980523 
L 123.42912 66.690022 
L 123.206209 66.346114 
L 121.472455 66.54013 
L 121.431689 66.17584 
" clip-path="url(#p6988cd3618)"/>
    <path d="M 58.542773 52.094834 
L 60.284047 51.987598 
L 60.444451 51.610461 
L 61.941733 52.06914 
L 60.512047 52.708074 
L 60.306579 52.353469 
L 58.565305 52.460705 
L 58.542773 52.094834 
" clip-path="url(#p6988cd3618)"/>
    <path d="M 62.236067 65.00642 
L 63.980479 64.982515 
L 64.158721 64.613474 
L 65.632374 65.143178 
L 64.173789 65.713063 
L 63.985502 65.349045 
L 62.24109 65.37295 
L 62.236067 65.00642 
" clip-path="url(#p6988cd3618)"/>
    <path d="M 118.212389 36.503643 
L 119.954304 36.407368 
L 120.117078 36.031248 
L 121.611444 36.49934 
L 120.177765 37.129265 
L 119.974533 36.773373 
L 118.232618 36.869648 
L 118.212389 36.503643 
" clip-path="url(#p6988cd3618)"/>
    <path d="M 46.325162 92.754569 
L 46.429393 94.496027 
L 46.806253 94.657081 
L 46.344991 96.15357 
L 45.708525 94.722783 
L 46.063484 94.517928 
L 45.959253 92.77647 
L 46.325162 92.754569 
" clip-path="url(#p6988cd3618)"/>
    <path d="M 87.119699 22.807254 
L 88.157646 21.405042 
L 87.972062 21.039638 
L 89.286366 20.188259 
L 88.855948 21.693908 
L 88.452274 21.623132 
L 87.414328 23.025345 
L 87.119699 22.807254 
" clip-path="url(#p6988cd3618)"/>
    <path d="M 54.1262 85.635299 
L 52.56424 86.412356 
L 52.563415 86.822186 
L 51.00573 86.982986 
L 52.073597 85.837604 
L 52.400967 86.084162 
L 53.962927 85.307105 
L 54.1262 85.635299 
" clip-path="url(#p6988cd3618)"/>
    <path d="M 66.937636 20.177344 
L 65.495394 19.195778 
L 65.13763 19.395696 
L 64.234838 18.116163 
L 65.756361 18.486578 
L 65.701637 18.892739 
L 67.143879 19.874304 
L 66.937636 20.177344 
" clip-path="url(#p6988cd3618)"/>
    <path d="M 56.734952 87.858743 
L 55.566154 89.153907 
L 55.715498 89.535559 
L 54.324958 90.255725 
L 54.899091 88.798807 
L 55.294019 88.908323 
L 56.462817 87.613159 
L 56.734952 87.858743 
" clip-path="url(#p6988cd3618)"/>
    <path d="M 66.669604 12.366737 
L 64.941483 12.127709 
L 64.709706 12.465704 
L 63.332613 11.720148 
L 64.860377 11.376383 
L 64.991707 11.764602 
L 66.719828 12.00363 
L 66.669604 12.366737 
" clip-path="url(#p6988cd3618)"/>
    <path d="M 33.059072 66.983225 
L 34.699757 66.390186 
L 34.747517 65.983147 
L 36.313368 66.00182 
L 35.121339 67.017352 
L 34.824364 66.734921 
L 33.18368 67.32796 
L 33.059072 66.983225 
" clip-path="url(#p6988cd3618)"/>
    <path d="M 120.395276 50.71211 
L 122.08543 50.279761 
L 122.172151 49.87921 
L 123.728933 50.04853 
L 122.444681 50.944598 
L 122.176273 50.63489 
L 120.48612 51.067239 
L 120.395276 50.71211 
" clip-path="url(#p6988cd3618)"/>
   </g>
  </g>
 </g>
 <defs>
  <clipPath id="p6988cd3618">
   <rect x="7.2" y="7.2" width="86.4" height="86.4"/>
  </clipPath>
 </defs>
</svg>
