<?xml version="1.0" encoding="utf-8" standalone="no"?>
<!DOCTYPE svg PUBLIC "-//W3C//DTD SVG 1.1//EN"
  "http://www.w3.org/Graphics/SVG/1.1/DTD/svg11.dtd">
<svg xmlns:xlink="http://www.w3.org/1999/xlink" width="100.8pt" height="100.8pt" viewBox="0 0 100.8 100.8" xmlns="http://www.w3.org/2000/svg" version="1.1">
 <metadata>
  <rdf:RDF xmlns:dc="http://purl.org/dc/elements/1.1/" xmlns:cc="http://creativecommons.org/ns#" xmlns:rdf="http://www.w3.org/1999/02/22-rdf-syntax-ns#">
   <cc:Work>
    <dc:type rdf:resource="http://purl.org/dc/dcmitype/StillImage"/>
    <dc:date>2025-09-10T17:09:18.199115</dc:date>
    <dc:format>image/svg+xml</dc:format>
    <dc:creator>
     <cc:Agent>
      <dc:title>Matplotlib v3.10.5, https://matplotlib.org/</dc:title>
     </cc:Agent>
    </dc:creator>
   </cc:Work>
  </rdf:RDF>
 </metadata>
 <defs>
  <style type="text/css">*{stroke-linejoin: round; stroke-linecap: butt}</style>
 </defs>
 <g id="figure_1">
  <g id="patch_1">
   <path d="M 0 100.8 
L 100.8 100.8 
L 100.8 0 
L 0 0 
z
" style="fill: #ffffff"/>
  </g>
  <g id="axes_1">
   <g id="Quiver_1">
    <path d="M 60.971977 89.852247 
L 61.89903 91.330121 
L 62.306951 91.290594 
L 62.620319 92.824882 
L 61.375373 91.874962 
L 61.588504 91.52491 
L 60.661451 90.047036 
L 60.971977 89.852247 
" clip-path="url(#pd3b84290e6)"/>
    <path d="M 119.279815 91.334384 
L 121.003461 91.064989 
L 121.127941 90.674519 
L 122.661517 90.991353 
L 121.297754 91.761022 
L 121.060066 91.427156 
L 119.33642 91.696552 
L 119.279815 91.334384 
" clip-path="url(#pd3b84290e6)"/>
    <path d="M 67.962698 69.112353 
L 66.228346 69.300927 
L 66.085761 69.685154 
L 64.568661 69.297019 
L 65.966893 68.591905 
L 66.188724 68.93651 
L 67.923075 68.747937 
L 67.962698 69.112353 
" clip-path="url(#pd3b84290e6)"/>
    <path d="M 53.592478 62.500354 
L 52.025589 63.267422 
L 52.022147 63.677238 
L 50.463467 63.828089 
L 51.538626 62.689549 
L 51.864415 62.938192 
L 53.431304 62.171124 
L 53.592478 62.500354 
" clip-path="url(#pd3b84290e6)"/>
    <path d="M 57.887102 24.848227 
L 59.626069 24.987983 
L 59.838127 24.637279 
L 61.255624 25.302818 
L 59.750032 25.733437 
L 59.596704 25.353369 
L 57.857737 25.213613 
L 57.887102 24.848227 
" clip-path="url(#pd3b84290e6)"/>
    <path d="M 76.216131 74.308898 
L 74.577227 74.90684 
L 74.530684 75.31402 
L 72.964784 75.300029 
L 74.153771 74.280937 
L 74.451589 74.562479 
L 76.090494 73.964537 
L 76.216131 74.308898 
" clip-path="url(#pd3b84290e6)"/>
    <path d="M 54.241122 51.787801 
L 52.660285 52.525698 
L 52.64925 52.935381 
L 51.088042 53.057318 
L 52.184116 51.9389 
L 52.505241 52.193538 
L 54.086078 51.455641 
L 54.241122 51.787801 
" clip-path="url(#pd3b84290e6)"/>
    <path d="M 51.324204 29.697363 
L 53.065877 29.797947 
L 53.269988 29.44256 
L 54.702104 30.076029 
L 53.206585 30.540423 
L 53.044742 30.163902 
L 51.30307 30.063318 
L 51.324204 29.697363 
" clip-path="url(#pd3b84290e6)"/>
    <path d="M 126.51873 62.971929 
L 128.241589 62.697526 
L 128.364933 62.306696 
L 129.899423 62.619071 
L 128.537903 63.3927 
L 128.299246 63.059527 
L 126.576387 63.33393 
L 126.51873 62.971929 
" clip-path="url(#pd3b84290e6)"/>
    <path d="M 80.516452 66.258871 
L 82.084176 67.024235 
L 82.409694 66.775238 
L 83.48609 67.912608 
L 81.927247 67.763453 
L 81.92336 67.35364 
L 80.355636 66.588276 
L 80.516452 66.258871 
" clip-path="url(#pd3b84290e6)"/>
    <path d="M 15.606078 65.544119 
L 13.894592 65.882274 
L 13.785838 66.277412 
L 12.240811 66.022202 
L 13.572682 65.198575 
L 13.82354 65.522662 
L 15.535026 65.184507 
L 15.606078 65.544119 
" clip-path="url(#pd3b84290e6)"/>
    <path d="M 67.757886 51.107531 
L 67.169677 52.749952 
L 67.452981 53.046095 
L 66.440961 54.241107 
L 66.417681 52.675317 
L 66.824577 52.626359 
L 67.412786 50.983939 
L 67.757886 51.107531 
" clip-path="url(#pd3b84290e6)"/>
    <path d="M 55.201419 105.890166 
L 55.216641 107.634673 
L 55.58479 107.81475 
L 55.047758 109.285748 
L 54.48514 107.824345 
L 54.850091 107.637871 
L 54.834869 105.893364 
L 55.201419 105.890166 
" clip-path="url(#pd3b84290e6)"/>
    <path d="M 1.482815 63.261359 
L -0.2392 63.541005 
L -0.361353 63.932208 
L -1.896788 63.624505 
L -0.537628 62.846736 
L -0.297958 63.179181 
L 1.424057 62.899535 
L 1.482815 63.261359 
" clip-path="url(#pd3b84290e6)"/>
    <path d="M 50.521943 58.087438 
L 48.794497 58.331306 
L 48.664255 58.719892 
L 47.135534 58.380407 
L 48.510533 57.630997 
L 48.743256 57.968341 
L 50.470702 57.724473 
L 50.521943 58.087438 
" clip-path="url(#pd3b84290e6)"/>
    <path d="M 45.757253 46.211204 
L 44.01647 46.096235 
L 43.80943 46.449924 
L 42.382596 45.804646 
L 43.8819 45.352622 
L 44.040627 45.730468 
L 45.78141 45.845437 
L 45.757253 46.211204 
" clip-path="url(#pd3b84290e6)"/>
    <path d="M 98.581351 86.840498 
L 99.69975 88.179421 
L 100.098578 88.085092 
L 100.616561 89.562906 
L 99.254587 88.790076 
L 99.41842 88.414416 
L 98.300021 87.075493 
L 98.581351 86.840498 
" clip-path="url(#pd3b84290e6)"/>
    <path d="M 42.646559 64.179669 
L 40.902811 64.12603 
L 40.708345 64.486785 
L 39.259687 63.892117 
L 40.742156 63.387613 
L 40.914081 63.759639 
L 42.657829 63.813278 
L 42.646559 64.179669 
" clip-path="url(#pd3b84290e6)"/>
    <path d="M 62.688064 43.333745 
L 61.417363 44.529091 
L 61.535028 44.921668 
L 60.090301 45.525824 
L 60.781541 44.120681 
L 61.166201 44.262096 
L 62.436902 43.066749 
L 62.688064 43.333745 
" clip-path="url(#pd3b84290e6)"/>
    <path d="M 70.1476 9.335872 
L 69.310556 7.805221 
L 68.901002 7.82029 
L 68.679918 6.270013 
L 69.865849 7.29266 
L 69.632172 7.629344 
L 70.469215 9.159996 
L 70.1476 9.335872 
" clip-path="url(#pd3b84290e6)"/>
    <path d="M 50.635972 4.146119 
L 49.267731 3.063779 
L 48.896568 3.237561 
L 48.087734 1.896656 
L 49.578821 2.37509 
L 49.495148 2.776289 
L 50.86339 3.858629 
L 50.635972 4.146119 
" clip-path="url(#pd3b84290e6)"/>
    <path d="M 79.16075 34.122206 
L 77.970545 35.397728 
L 78.113513 35.781813 
L 76.711174 36.478724 
L 77.309488 35.031568 
L 77.702537 35.147646 
L 78.892741 33.872124 
L 79.16075 34.122206 
" clip-path="url(#pd3b84290e6)"/>
    <path d="M 32.405999 58.096153 
L 31.306048 56.742028 
L 30.905965 56.830884 
L 30.40828 55.346112 
L 31.759537 56.137531 
L 31.590572 56.51091 
L 32.690522 57.865035 
L 32.405999 58.096153 
" clip-path="url(#pd3b84290e6)"/>
    <path d="M 55.901406 28.358568 
L 57.630018 28.594006 
L 57.861093 28.25553 
L 59.239732 28.998224 
L 57.712685 29.345162 
L 57.580549 28.957217 
L 55.851936 28.721779 
L 55.901406 28.358568 
" clip-path="url(#pd3b84290e6)"/>
    <path d="M 29.966159 40.046863 
L 28.242063 39.780349 
L 28.004933 40.114611 
L 26.639886 39.347223 
L 28.17293 39.027826 
L 28.298062 39.418087 
L 30.022158 39.684601 
L 29.966159 40.046863 
" clip-path="url(#pd3b84290e6)"/>
    <path d="M 60.944819 19.25944 
L 62.583535 19.857896 
L 62.881441 19.576448 
L 64.070109 20.595912 
L 62.504204 20.609412 
L 62.457789 20.202218 
L 60.819073 19.603762 
L 60.944819 19.25944 
" clip-path="url(#pd3b84290e6)"/>
    <path d="M 43.189068 54.197007 
L 41.451106 54.045236 
L 41.23663 54.394465 
L 39.823766 53.719145 
L 41.332298 53.298942 
L 41.482996 53.680061 
L 43.220957 53.831832 
L 43.189068 54.197007 
" clip-path="url(#pd3b84290e6)"/>
    <path d="M 65.906884 52.343976 
L 64.70625 53.609682 
L 64.84606 53.994929 
L 63.438047 54.680304 
L 64.048221 53.238109 
L 64.440304 53.357409 
L 65.640937 52.091702 
L 65.906884 52.343976 
" clip-path="url(#pd3b84290e6)"/>
    <path d="M 40.596543 20.359321 
L 42.280375 20.815662 
L 42.553161 20.509803 
L 43.824538 21.424045 
L 42.265506 21.571207 
L 42.18449 21.169463 
L 40.500658 20.713122 
L 40.596543 20.359321 
" clip-path="url(#pd3b84290e6)"/>
    <path d="M 4.333546 54.103261 
L 2.601383 54.310994 
L 2.463053 54.696775 
L 0.941756 54.325433 
L 2.332109 53.604906 
L 2.557735 53.947038 
L 4.289898 53.739305 
L 4.333546 54.103261 
" clip-path="url(#pd3b84290e6)"/>
    <path d="M 112.068648 66.780614 
L 113.748632 67.250926 
L 114.023949 66.947344 
L 115.287689 67.872115 
L 113.727488 68.006322 
L 113.649812 67.603919 
L 111.969828 67.133607 
L 112.068648 66.780614 
" clip-path="url(#pd3b84290e6)"/>
    <path d="M 25.856443 54.357191 
L 24.149949 53.994677 
L 23.894498 54.315155 
L 22.574501 53.47263 
L 24.123008 53.239466 
L 24.22612 53.636114 
L 25.932613 53.998628 
L 25.856443 54.357191 
" clip-path="url(#pd3b84290e6)"/>
    <path d="M 71.184138 24.825122 
L 69.463086 24.539605 
L 69.222284 24.871231 
L 67.865785 24.088831 
L 69.402259 23.786366 
L 69.523078 24.177984 
L 71.24413 24.463501 
L 71.184138 24.825122 
" clip-path="url(#pd3b84290e6)"/>
    <path d="M 72.284451 18.9104 
L 70.638554 18.331985 
L 70.344104 18.617048 
L 69.143085 17.612165 
L 70.708708 17.579557 
L 70.760088 17.986155 
L 72.405985 18.56457 
L 72.284451 18.9104 
" clip-path="url(#pd3b84290e6)"/>
    <path d="M 3.698334 59.936006 
L 1.994474 60.310703 
L 1.8942 60.708078 
L 0.344066 60.485985 
L 1.658009 59.634049 
L 1.915744 59.952694 
L 3.619604 59.577996 
L 3.698334 59.936006 
" clip-path="url(#pd3b84290e6)"/>
    <path d="M 82.551336 66.786493 
L 84.093009 67.603065 
L 84.42655 67.364922 
L 85.464911 68.537119 
L 83.911825 68.336714 
L 83.921434 67.926996 
L 82.379761 67.110424 
L 82.551336 66.786493 
" clip-path="url(#pd3b84290e6)"/>
    <path d="M 133.246186 17.485647 
L 134.984726 17.340701 
L 135.136919 16.960176 
L 136.643789 17.386298 
L 135.228286 18.056066 
L 135.015182 17.705997 
L 133.276641 17.850944 
L 133.246186 17.485647 
" clip-path="url(#pd3b84290e6)"/>
    <path d="M 56.700605 46.201169 
L 55.026585 46.692283 
L 54.953906 47.095618 
L 53.39216 46.980774 
L 54.644332 46.040399 
L 54.923393 46.340543 
L 56.597414 45.849429 
L 56.700605 46.201169 
" clip-path="url(#pd3b84290e6)"/>
    <path d="M 47.715679 44.569068 
L 46.088714 43.939366 
L 45.785477 44.215063 
L 44.616533 43.173041 
L 46.18241 43.189506 
L 46.221025 43.597514 
L 47.84799 44.227215 
L 47.715679 44.569068 
" clip-path="url(#pd3b84290e6)"/>
    <path d="M 42.432039 13.314919 
L 44.176478 13.336591 
L 44.3643 12.972332 
L 45.823613 13.540351 
L 44.350639 14.07194 
L 44.171924 13.703127 
L 42.427485 13.681455 
L 42.432039 13.314919 
" clip-path="url(#pd3b84290e6)"/>
    <path d="M 68.707366 35.252846 
L 67.139298 36.017505 
L 67.135227 36.427316 
L 65.576317 36.57577 
L 66.653224 35.438884 
L 66.978631 35.688027 
L 68.546699 34.923369 
L 68.707366 35.252846 
" clip-path="url(#pd3b84290e6)"/>
    <path d="M 97.644056 91.018996 
L 98.711355 92.398999 
L 99.113446 92.319723 
L 99.575533 93.815957 
L 98.24356 92.992495 
L 98.421393 92.623257 
L 97.354094 91.243254 
L 97.644056 91.018996 
" clip-path="url(#pd3b84290e6)"/>
    <path d="M 50.792845 90.417409 
L 52.130108 91.537795 
L 52.506011 91.37452 
L 53.276818 92.737639 
L 51.799775 92.217464 
L 51.894696 91.818776 
L 50.557433 90.69839 
L 50.792845 90.417409 
" clip-path="url(#pd3b84290e6)"/>
    <path d="M 56.123643 104.350453 
L 56.725446 105.98794 
L 57.132735 106.033523 
L 57.122435 107.599452 
L 56.100543 106.412871 
L 56.381383 106.11439 
L 55.779579 104.476903 
L 56.123643 104.350453 
" clip-path="url(#pd3b84290e6)"/>
    <path d="M 41.180681 55.935747 
L 39.450803 56.161716 
L 39.316545 56.548932 
L 37.79142 56.193638 
L 39.174105 55.458504 
L 39.403323 55.79824 
L 41.133201 55.57227 
L 41.180681 55.935747 
" clip-path="url(#pd3b84290e6)"/>
    <path d="M 52.436511 62.748358 
L 50.717587 63.046418 
L 50.599627 63.438906 
L 49.060987 63.147654 
L 50.411745 62.355382 
L 50.654959 62.685243 
L 52.373883 62.387183 
L 52.436511 62.748358 
" clip-path="url(#pd3b84290e6)"/>
    <path d="M 52.402758 106.441538 
L 51.950709 108.126528 
L 52.257262 108.398533 
L 51.346263 109.672236 
L 51.195128 108.113584 
L 51.596664 108.031545 
L 52.048713 106.346555 
L 52.402758 106.441538 
" clip-path="url(#pd3b84290e6)"/>
    <path d="M 47.93581 17.509348 
L 49.674372 17.654075 
L 49.887432 17.303979 
L 51.30302 17.973568 
L 49.796203 18.399881 
L 49.643962 18.019375 
L 47.905401 17.874649 
L 47.93581 17.509348 
" clip-path="url(#pd3b84290e6)"/>
    <path d="M 53.125944 13.918142 
L 51.633395 13.01491 
L 51.286805 13.233628 
L 50.317042 12.004075 
L 51.856158 12.292798 
L 51.823179 12.7013 
L 53.315728 13.604532 
L 53.125944 13.918142 
" clip-path="url(#pd3b84290e6)"/>
    <path d="M 35.331415 99.223485 
L 35.201523 100.963218 
L 35.553423 101.173284 
L 34.895932 102.594532 
L 34.456783 101.091406 
L 34.835976 100.935926 
L 34.965869 99.196193 
L 35.331415 99.223485 
" clip-path="url(#pd3b84290e6)"/>
    <path d="M 67.012072 55.703174 
L 65.591135 56.715338 
L 65.654527 57.120237 
L 64.141267 57.523083 
L 65.016509 56.224549 
L 65.378463 56.416775 
L 66.799399 55.404611 
L 67.012072 55.703174 
" clip-path="url(#pd3b84290e6)"/>
    <path d="M 86.182538 42.223831 
L 87.903612 41.938461 
L 88.024464 41.546853 
L 89.560913 41.849449 
L 88.204348 42.631734 
L 87.963573 42.300088 
L 86.242499 42.585458 
L 86.182538 42.223831 
" clip-path="url(#pd3b84290e6)"/>
    <path d="M 52.424811 64.182254 
L 50.724951 64.574696 
L 50.628825 64.973094 
L 49.07646 64.767175 
L 50.381449 63.901587 
L 50.642492 64.217527 
L 52.342352 63.825085 
L 52.424811 64.182254 
" clip-path="url(#pd3b84290e6)"/>
    <path d="M 122.991214 73.286358 
L 124.732661 73.39079 
L 124.937557 73.035855 
L 126.36827 73.672487 
L 124.871729 74.133575 
L 124.710718 73.756697 
L 122.969271 73.652265 
L 122.991214 73.286358 
" clip-path="url(#pd3b84290e6)"/>
    <path d="M 133.248388 28.61809 
L 134.986703 28.765735 
L 135.20035 28.415997 
L 136.614812 29.087961 
L 135.107282 29.511744 
L 134.95568 29.130984 
L 133.217365 28.983339 
L 133.248388 28.61809 
" clip-path="url(#pd3b84290e6)"/>
    <path d="M 60.25956 4.615975 
L 59.361658 3.120214 
L 58.953041 3.151735 
L 58.669811 1.611599 
L 59.895896 2.585742 
L 59.675943 2.931549 
L 60.573845 4.427311 
L 60.25956 4.615975 
" clip-path="url(#pd3b84290e6)"/>
    <path d="M 100.772651 80.63078 
L 102.27469 81.51815 
L 102.618942 81.295772 
L 103.601679 82.51498 
L 102.05959 82.242582 
L 102.088239 81.833753 
L 100.5862 80.946383 
L 100.772651 80.63078 
" clip-path="url(#pd3b84290e6)"/>
    <path d="M 48.488224 22.8084 
L 50.210683 22.531504 
L 50.333461 22.140497 
L 51.868402 22.450651 
L 50.508002 23.226249 
L 50.268863 22.893422 
L 48.546404 23.170317 
L 48.488224 22.8084 
" clip-path="url(#pd3b84290e6)"/>
    <path d="M 77.884631 75.06377 
L 76.17447 75.408573 
L 76.067253 75.804131 
L 74.521246 75.554927 
L 75.849906 74.726131 
L 76.102021 75.04924 
L 77.812183 74.704437 
L 77.884631 75.06377 
" clip-path="url(#pd3b84290e6)"/>
    <path d="M 60.720762 98.084275 
L 60.951485 99.813527 
L 61.339069 99.94672 
L 60.987967 101.472815 
L 60.249036 100.092156 
L 60.588141 99.862005 
L 60.357418 98.132754 
L 60.720762 98.084275 
" clip-path="url(#pd3b84290e6)"/>
    <path d="M 62.252307 39.9408 
L 60.706153 40.748849 
L 60.713501 41.158614 
L 59.159332 41.350443 
L 60.204147 40.183995 
L 60.536368 40.423976 
L 62.082523 39.615927 
L 62.252307 39.9408 
" clip-path="url(#pd3b84290e6)"/>
    <path d="M 59.637739 41.440798 
L 57.968897 41.949235 
L 57.900402 42.353302 
L 56.33755 42.254649 
L 57.579909 41.301348 
L 57.862066 41.598584 
L 59.530908 41.090147 
L 59.637739 41.440798 
" clip-path="url(#pd3b84290e6)"/>
    <path d="M 62.146587 88.250254 
L 63.433445 89.428191 
L 63.816145 89.281553 
L 64.52645 90.677156 
L 63.073632 90.092724 
L 63.185941 89.698582 
L 61.899083 88.520644 
L 62.146587 88.250254 
" clip-path="url(#pd3b84290e6)"/>
    <path d="M 37.824683 61.270647 
L 36.098131 61.520757 
L 35.969295 61.909811 
L 34.439356 61.575854 
L 35.811638 60.821478 
L 36.045579 61.15798 
L 37.772131 60.907869 
L 37.824683 61.270647 
" clip-path="url(#pd3b84290e6)"/>
    <path d="M 61.587226 46.06725 
L 60.311062 47.256766 
L 60.426927 47.649878 
L 58.979449 48.247411 
L 59.677116 46.845448 
L 60.061125 46.988623 
L 61.337289 45.799107 
L 61.587226 46.06725 
" clip-path="url(#pd3b84290e6)"/>
    <path d="M 52.567629 5.705263 
L 51.552671 4.286318 
L 51.147898 4.350506 
L 50.742076 2.838042 
L 52.042329 3.710728 
L 51.850815 4.073059 
L 52.865773 5.492003 
L 52.567629 5.705263 
" clip-path="url(#pd3b84290e6)"/>
    <path d="M 75.731777 64.24901 
L 74.055837 64.733541 
L 73.981574 65.136587 
L 72.420291 65.015605 
L 73.67615 64.080159 
L 73.954029 64.381398 
L 75.629969 63.896867 
L 75.731777 64.24901 
" clip-path="url(#pd3b84290e6)"/>
    <path d="M 66.38573 49.026204 
L 64.847292 49.848849 
L 64.858518 50.258527 
L 63.306234 50.465056 
L 64.339963 49.288772 
L 64.674441 49.525598 
L 66.212878 48.702952 
L 66.38573 49.026204 
" clip-path="url(#pd3b84290e6)"/>
    <path d="M 33.756263 34.201667 
L 32.065392 33.772142 
L 31.797502 34.082297 
L 30.511756 33.188375 
L 32.068253 33.016456 
L 32.155643 33.416861 
L 33.846514 33.846386 
L 33.756263 34.201667 
" clip-path="url(#pd3b84290e6)"/>
    <path d="M 51.059619 60.801552 
L 49.452855 61.481148 
L 49.426846 61.890153 
L 47.862223 61.954919 
L 48.998463 60.87733 
L 49.310061 61.14354 
L 50.916825 60.463945 
L 51.059619 60.801552 
" clip-path="url(#pd3b84290e6)"/>
    <path d="M 54.049374 28.603831 
L 55.701973 29.162814 
L 55.993043 28.874301 
L 57.205819 29.864964 
L 55.640689 29.916016 
L 55.584521 29.510052 
L 53.931922 28.95107 
L 54.049374 28.603831 
" clip-path="url(#pd3b84290e6)"/>
    <path d="M 61.023554 12.940732 
L 62.681917 13.482367 
L 62.969948 13.190821 
L 64.193038 14.168722 
L 62.628528 14.23617 
L 62.56811 13.830817 
L 60.909747 13.289182 
L 61.023554 12.940732 
" clip-path="url(#pd3b84290e6)"/>
    <path d="M 83.918006 11.447296 
L 85.015682 10.091328 
L 84.846091 9.718233 
L 86.196018 8.924547 
L 85.700825 10.410153 
L 85.300593 10.321968 
L 84.202917 11.677936 
L 83.918006 11.447296 
" clip-path="url(#pd3b84290e6)"/>
    <path d="M 41.805352 70.906083 
L 40.117611 71.347755 
L 40.033103 71.748779 
L 38.47541 71.588056 
L 39.754695 70.684912 
L 40.024809 70.993133 
L 41.712549 70.551461 
L 41.805352 70.906083 
" clip-path="url(#pd3b84290e6)"/>
    <path d="M 53.915402 45.555185 
L 52.220874 45.970046 
L 52.130019 46.369679 
L 50.57507 46.184283 
L 51.868511 45.301532 
L 52.133705 45.613997 
L 53.828232 45.199136 
L 53.915402 45.555185 
" clip-path="url(#pd3b84290e6)"/>
    <path d="M 77.398153 75.901539 
L 75.82937 76.664726 
L 75.824915 77.074533 
L 74.265866 77.221526 
L 75.343839 76.08565 
L 75.669011 76.335099 
L 77.237794 75.571911 
L 77.398153 75.901539 
" clip-path="url(#pd3b84290e6)"/>
    <path d="M 57.142975 21.988692 
L 58.882861 21.860905 
L 59.038801 21.481901 
L 60.541394 21.92287 
L 59.119351 22.578639 
L 58.909711 22.226485 
L 57.169825 22.354271 
L 57.142975 21.988692 
" clip-path="url(#pd3b84290e6)"/>
    <path d="M 61.025684 98.865051 
L 61.436615 100.560538 
L 61.836036 100.652319 
L 61.647035 102.206835 
L 60.767286 100.91135 
L 61.080365 100.646881 
L 60.669434 98.951395 
L 61.025684 98.865051 
" clip-path="url(#pd3b84290e6)"/>
    <path d="M 59.37635 23.042884 
L 61.09795 23.325083 
L 61.338113 22.992994 
L 62.696117 23.772778 
L 61.160228 24.078204 
L 61.038655 23.68682 
L 59.317055 23.40462 
L 59.37635 23.042884 
" clip-path="url(#pd3b84290e6)"/>
    <path d="M 54.198803 29.768904 
L 55.927217 30.005813 
L 56.15858 29.667534 
L 57.536586 30.4114 
L 56.009245 30.757039 
L 55.877439 30.368981 
L 54.149024 30.132073 
L 54.198803 29.768904 
" clip-path="url(#pd3b84290e6)"/>
    <path d="M 81.915449 39.174401 
L 83.418059 38.288006 
L 83.389674 37.879159 
L 84.931939 37.607758 
L 83.948414 38.82633 
L 83.604306 38.60373 
L 82.101696 39.490125 
L 81.915449 39.174401 
" clip-path="url(#pd3b84290e6)"/>
    <path d="M 70.256823 69.680189 
L 68.601092 70.229819 
L 68.54263 70.635459 
L 66.977813 70.57556 
L 68.196171 69.591769 
L 68.485606 69.881922 
L 70.141337 69.332292 
L 70.256823 69.680189 
" clip-path="url(#pd3b84290e6)"/>
    <path d="M 92.330962 2.994786 
L 93.377788 1.599183 
L 93.194527 1.232609 
L 94.514206 0.389586 
L 94.074244 1.892474 
L 93.671027 1.819139 
L 92.624201 3.214741 
L 92.330962 2.994786 
" clip-path="url(#pd3b84290e6)"/>
    <path d="M 112.643262 54.85401 
L 114.364923 54.572188 
L 114.486582 54.180831 
L 116.022404 54.486593 
L 114.664229 55.266079 
L 114.424139 54.933938 
L 112.702478 55.215759 
L 112.643262 54.85401 
" clip-path="url(#pd3b84290e6)"/>
    <path d="M 134.673316 29.728556 
L 136.413241 29.85582 
L 136.622775 29.503602 
L 138.045014 30.158945 
L 136.542554 30.600365 
L 136.3865 30.221407 
L 134.646576 30.094143 
L 134.673316 29.728556 
" clip-path="url(#pd3b84290e6)"/>
    <path d="M 68.820753 35.184954 
L 67.346768 36.118181 
L 67.388 36.525933 
L 65.855036 36.845716 
L 66.799741 35.596807 
L 67.150682 35.808473 
L 68.624666 34.875245 
L 68.820753 35.184954 
" clip-path="url(#pd3b84290e6)"/>
    <path d="M 55.640863 46.393768 
L 54.414334 47.634399 
L 54.546154 48.022451 
L 53.124281 48.678589 
L 53.764122 47.249309 
L 54.153657 47.376684 
L 55.380185 46.136054 
L 55.640863 46.393768 
" clip-path="url(#pd3b84290e6)"/>
    <path d="M 56.70336 6.863163 
L 55.418896 5.682615 
L 55.035899 5.828476 
L 54.328429 4.431435 
L 55.780057 5.018814 
L 55.666948 5.412728 
L 56.951413 6.593276 
L 56.70336 6.863163 
" clip-path="url(#pd3b84290e6)"/>
    <path d="M 100.408194 11.874494 
L 101.453638 10.477861 
L 101.270015 10.111468 
L 102.58886 9.267142 
L 102.150383 10.770464 
L 101.747094 10.697527 
L 100.70165 12.094159 
L 100.408194 11.874494 
" clip-path="url(#pd3b84290e6)"/>
    <path d="M 70.170053 38.030174 
L 68.818863 39.133726 
L 68.908785 39.533571 
L 67.425343 40.035209 
L 68.21316 38.681849 
L 68.586989 38.849819 
L 69.938178 37.746267 
L 70.170053 38.030174 
" clip-path="url(#pd3b84290e6)"/>
    <path d="M 91.384366 62.251045 
L 93.105023 62.538945 
L 93.346285 62.207653 
L 94.701699 62.99193 
L 93.164807 63.292268 
L 93.044531 62.900483 
L 91.323874 62.612584 
L 91.384366 62.251045 
" clip-path="url(#pd3b84290e6)"/>
    <path d="M 80.938691 70.679582 
L 82.593948 71.230638 
L 82.883633 70.940733 
L 84.101142 71.925573 
L 82.536275 71.984125 
L 82.478162 71.578435 
L 80.822905 71.027379 
L 80.938691 70.679582 
" clip-path="url(#pd3b84290e6)"/>
    <path d="M 52.725057 14.983559 
L 51.432855 13.811487 
L 51.050826 13.959864 
L 50.334181 12.567506 
L 51.789642 13.145324 
L 51.679127 13.539973 
L 52.971329 14.712046 
L 52.725057 14.983559 
" clip-path="url(#pd3b84290e6)"/>
    <path d="M 61.833234 88.185339 
L 62.856429 89.598353 
L 63.260822 89.531812 
L 63.675436 91.041889 
L 62.370128 90.176783 
L 62.559531 89.813343 
L 61.536336 88.40033 
L 61.833234 88.185339 
" clip-path="url(#pd3b84290e6)"/>
    <path d="M 65.827354 101.154695 
L 66.737788 102.642864 
L 67.146126 102.607911 
L 67.442281 104.145614 
L 66.208058 103.181803 
L 66.425099 102.834161 
L 65.514665 101.345992 
L 65.827354 101.154695 
" clip-path="url(#pd3b84290e6)"/>
    <path d="M 55.969324 20.84798 
L 54.451757 19.987439 
L 54.11151 20.215898 
L 53.107267 19.014343 
L 54.653953 19.2593 
L 54.632572 19.668573 
L 56.150138 20.529114 
L 55.969324 20.84798 
" clip-path="url(#pd3b84290e6)"/>
    <path d="M 47.114806 54.878568 
L 45.396874 55.18229 
L 45.280208 55.575165 
L 43.740617 55.288984 
L 45.088757 54.492266 
L 45.333057 54.821324 
L 47.050989 54.517602 
L 47.114806 54.878568 
" clip-path="url(#pd3b84290e6)"/>
    <path d="M 66.20282 33.246346 
L 64.548856 33.801268 
L 64.491692 34.207093 
L 62.926692 34.152198 
L 64.141896 33.164516 
L 64.432258 33.453742 
L 66.086221 32.89882 
L 66.20282 33.246346 
" clip-path="url(#pd3b84290e6)"/>
    <path d="M 46.385152 52.876552 
L 44.640603 52.88592 
L 44.459292 53.253464 
L 42.990103 52.711499 
L 44.453386 52.153787 
L 44.638634 52.519362 
L 46.383183 52.509993 
L 46.385152 52.876552 
" clip-path="url(#pd3b84290e6)"/>
    <path d="M 54.852136 106.586077 
L 54.797595 108.329796 
L 55.15825 108.524449 
L 54.562832 109.972799 
L 54.059095 108.490069 
L 54.43121 108.318336 
L 54.485751 106.574617 
L 54.852136 106.586077 
" clip-path="url(#pd3b84290e6)"/>
    <path d="M 55.931829 46.352636 
L 54.196957 46.536362 
L 54.053298 46.920189 
L 52.537289 46.527816 
L 53.937487 45.826612 
L 54.158353 46.171836 
L 55.893226 45.988111 
L 55.931829 46.352636 
" clip-path="url(#pd3b84290e6)"/>
    <path d="M 39.61285 63.250431 
L 37.898653 63.57457 
L 37.786669 63.968805 
L 36.243783 63.700961 
L 37.582348 62.888261 
L 37.830546 63.214389 
L 39.544743 62.890249 
L 39.61285 63.250431 
" clip-path="url(#pd3b84290e6)"/>
    <path d="M 37.864221 69.251766 
L 36.157618 69.613774 
L 36.054389 70.010392 
L 34.505951 69.776769 
L 35.826197 68.934635 
L 36.081554 69.255189 
L 37.788157 68.89318 
L 37.864221 69.251766 
" clip-path="url(#pd3b84290e6)"/>
    <path d="M 49.345424 31.7759 
L 51.024557 32.249239 
L 51.30042 31.946153 
L 52.562492 32.873199 
L 51.002052 33.004595 
L 50.925101 32.602053 
L 49.245967 32.128714 
L 49.345424 31.7759 
" clip-path="url(#pd3b84290e6)"/>
    <path d="M 66.168919 101.329079 
L 66.947686 102.890187 
L 67.357518 102.890562 
L 67.520023 104.44807 
L 66.373473 103.381458 
L 66.619672 103.053819 
L 65.840904 101.492711 
L 66.168919 101.329079 
" clip-path="url(#pd3b84290e6)"/>
    <path d="M 54.292166 -6.390175 
L 53.028961 -7.593443 
L 52.643424 -7.454436 
L 51.960983 -8.863873 
L 53.401904 -8.250697 
L 53.281788 -7.858863 
L 54.544992 -6.655595 
L 54.292166 -6.390175 
" clip-path="url(#pd3b84290e6)"/>
    <path d="M 82.047832 71.506847 
L 80.448806 72.204457 
L 80.427394 72.613728 
L 78.863598 72.696073 
L 79.987656 71.605783 
L 80.302227 71.868475 
L 81.901253 71.170866 
L 82.047832 71.506847 
" clip-path="url(#pd3b84290e6)"/>
    <path d="M 60.93377 6.263643 
L 62.516415 5.529634 
L 62.528458 5.11998 
L 64.089961 5.00188 
L 62.991141 6.117601 
L 62.670643 5.862175 
L 61.087998 6.596184 
L 60.93377 6.263643 
" clip-path="url(#pd3b84290e6)"/>
    <path d="M 39.350563 42.235124 
L 41.069503 41.937163 
L 41.187486 41.544681 
L 42.726108 41.836021 
L 41.375306 42.628215 
L 41.13211 42.298341 
L 39.41317 42.596303 
L 39.350563 42.235124 
" clip-path="url(#pd3b84290e6)"/>
    <path d="M 54.714535 29.554184 
L 56.459087 29.545535 
L 56.64055 29.178067 
L 58.109514 29.720638 
L 56.646001 30.277746 
L 56.460904 29.912095 
L 54.716352 29.920743 
L 54.714535 29.554184 
" clip-path="url(#pd3b84290e6)"/>
    <path d="M 56.715935 23.095957 
L 58.460449 23.110385 
L 58.646757 22.745349 
L 60.108416 23.307303 
L 58.637662 23.845004 
L 58.457418 23.476937 
L 56.712904 23.462509 
L 56.715935 23.095957 
" clip-path="url(#pd3b84290e6)"/>
    <path d="M 48.72928 51.580165 
L 46.991136 51.729817 
L 46.839974 52.110752 
L 45.331955 51.688709 
L 46.745641 51.015113 
L 46.959692 51.364604 
L 48.697835 51.214952 
L 48.72928 51.580165 
" clip-path="url(#pd3b84290e6)"/>
    <path d="M 85.87951 73.290778 
L 84.167561 73.626601 
L 84.058269 74.02159 
L 82.513592 73.764275 
L 83.846583 72.942464 
L 84.097 73.266892 
L 85.808948 72.931069 
L 85.87951 73.290778 
" clip-path="url(#pd3b84290e6)"/>
    <path d="M 56.129725 13.109756 
L 54.949443 11.825047 
L 54.555506 11.938074 
L 53.968427 10.486324 
L 55.365322 11.194084 
L 55.219382 11.57705 
L 56.399664 12.861759 
L 56.129725 13.109756 
" clip-path="url(#pd3b84290e6)"/>
    <path d="M 37.639153 17.145638 
L 39.380137 17.033804 
L 39.539544 16.656244 
L 41.038032 17.110967 
L 39.610039 17.753675 
L 39.403636 17.399614 
L 37.662651 17.511448 
L 37.639153 17.145638 
" clip-path="url(#pd3b84290e6)"/>
    <path d="M 41.254166 18.283876 
L 42.993584 18.149851 
L 43.148163 17.77029 
L 44.652328 18.205867 
L 43.232646 18.866732 
L 43.021745 18.515332 
L 41.282327 18.649357 
L 41.254166 18.283876 
" clip-path="url(#pd3b84290e6)"/>
    <path d="M 51.315582 8.042672 
L 49.720903 7.335186 
L 49.404714 7.595928 
L 48.28742 6.498707 
L 49.850677 6.590721 
L 49.869557 7.000118 
L 51.464237 7.707603 
L 51.315582 8.042672 
" clip-path="url(#pd3b84290e6)"/>
    <path d="M 39.081694 67.003554 
L 37.397157 67.457283 
L 37.315518 67.858901 
L 35.756716 67.709321 
L 37.02951 66.797052 
L 37.301821 67.103334 
L 38.986357 66.649605 
L 39.081694 67.003554 
" clip-path="url(#pd3b84290e6)"/>
    <path d="M 134.342997 24.714788 
L 136.087554 24.722178 
L 136.272387 24.356394 
L 137.736301 24.912446 
L 136.267729 25.456076 
L 136.086001 25.088739 
L 134.341445 25.081349 
L 134.342997 24.714788 
" clip-path="url(#pd3b84290e6)"/>
    <path d="M 53.52123 28.488922 
L 55.249051 28.730103 
L 55.48125 28.392397 
L 56.857413 29.139668 
L 55.329221 29.48153 
L 55.198375 29.093147 
L 53.470554 28.851966 
L 53.52123 28.488922 
" clip-path="url(#pd3b84290e6)"/>
    <path d="M 63.432048 23.804026 
L 65.123753 24.23026 
L 65.391039 23.919584 
L 66.678522 24.811003 
L 65.122363 24.98595 
L 65.034194 24.585716 
L 63.342489 24.159481 
L 63.432048 23.804026 
" clip-path="url(#pd3b84290e6)"/>
    <path d="M 86.037077 73.747858 
L 84.314208 74.022201 
L 84.19085 74.413027 
L 82.656371 74.100598 
L 84.017918 73.327017 
L 84.256564 73.660198 
L 85.979433 73.385855 
L 86.037077 73.747858 
" clip-path="url(#pd3b84290e6)"/>
    <path d="M 40.881152 63.844337 
L 39.145788 64.023372 
L 39.001092 64.40681 
L 37.48615 64.01034 
L 38.888237 63.312923 
L 39.10817 63.658743 
L 40.843534 63.479708 
L 40.881152 63.844337 
" clip-path="url(#pd3b84290e6)"/>
    <path d="M 80.223189 34.969994 
L 78.748797 35.902576 
L 78.789851 36.310346 
L 77.256747 36.629458 
L 78.201998 35.380963 
L 78.552846 35.592781 
L 80.027238 34.6602 
L 80.223189 34.969994 
" clip-path="url(#pd3b84290e6)"/>
    <path d="M 128.513385 62.26326 
L 130.234243 62.549935 
L 130.475269 62.218471 
L 131.831241 63.001784 
L 130.294564 63.303215 
L 130.174008 62.911516 
L 128.45315 62.624841 
L 128.513385 62.26326 
" clip-path="url(#pd3b84290e6)"/>
    <path d="M 59.629198 9.259885 
L 61.3609 9.048349 
L 61.498382 8.662266 
L 63.020491 9.030266 
L 61.631724 9.753844 
L 61.405347 9.412208 
L 59.673646 9.623745 
L 59.629198 9.259885 
" clip-path="url(#pd3b84290e6)"/>
    <path d="M 48.533351 58.388996 
L 46.798872 58.576415 
L 46.656031 58.960548 
L 45.13919 58.571403 
L 46.537891 57.867219 
L 46.759492 58.211972 
L 48.493971 58.024554 
L 48.533351 58.388996 
" clip-path="url(#pd3b84290e6)"/>
    <path d="M 67.622319 42.264832 
L 65.960762 42.796588 
L 65.897932 43.201574 
L 64.333851 43.124816 
L 65.562739 42.154211 
L 65.849031 42.447467 
L 67.510588 41.91571 
L 67.622319 42.264832 
" clip-path="url(#pd3b84290e6)"/>
    <path d="M 124.006266 17.340229 
L 125.749649 17.275745 
L 125.919257 16.902657 
L 127.404835 17.397931 
L 125.959904 18.001598 
L 125.763198 17.642059 
L 124.019815 17.706542 
L 124.006266 17.340229 
" clip-path="url(#pd3b84290e6)"/>
    <path d="M 131.614636 20.37645 
L 133.359206 20.379495 
L 133.543127 20.013251 
L 135.008422 20.565656 
L 133.541208 21.112942 
L 133.358566 20.746059 
L 131.613996 20.743014 
L 131.614636 20.37645 
" clip-path="url(#pd3b84290e6)"/>
    <path d="M 58.995565 6.755701 
L 57.67962 5.610352 
L 57.300711 5.766526 
L 56.555688 4.389144 
L 58.022683 4.937019 
L 57.920277 5.33385 
L 59.236222 6.479199 
L 58.995565 6.755701 
" clip-path="url(#pd3b84290e6)"/>
    <path d="M 8.355634 43.157172 
L 6.644113 43.495163 
L 6.535322 43.890291 
L 4.990319 43.634934 
L 6.322268 42.811435 
L 6.573095 43.135545 
L 8.284616 42.797553 
L 8.355634 43.157172 
" clip-path="url(#pd3b84290e6)"/>
    <path d="M 5.916186 81.935912 
L 4.413068 82.821453 
L 4.44122 83.230316 
L 2.898801 83.500838 
L 3.88302 82.282826 
L 4.227002 82.505623 
L 5.730119 81.620082 
L 5.916186 81.935912 
" clip-path="url(#pd3b84290e6)"/>
    <path d="M 127.601839 64.068159 
L 129.294368 63.645204 
L 129.383313 63.245141 
L 130.93913 63.423104 
L 129.649922 64.312025 
L 129.383238 64.000832 
L 127.690709 64.423787 
L 127.601839 64.068159 
" clip-path="url(#pd3b84290e6)"/>
    <path d="M 47.781908 76.398771 
L 49.275127 77.300899 
L 49.621554 77.081924 
L 50.592227 78.310759 
L 49.052898 78.023175 
L 49.085575 77.614649 
L 47.592356 76.712521 
L 47.781908 76.398771 
" clip-path="url(#pd3b84290e6)"/>
    <path d="M 74.635602 61.927411 
L 74.992664 63.635055 
L 75.38898 63.739432 
L 75.150873 65.287187 
L 74.312567 63.964506 
L 74.633859 63.710079 
L 74.276797 62.002435 
L 74.635602 61.927411 
" clip-path="url(#pd3b84290e6)"/>
    <path d="M 43.536168 40.99841 
L 45.109337 40.244302 
L 45.116161 39.834528 
L 46.676033 39.69655 
L 45.591512 40.826175 
L 45.267787 40.574852 
L 43.694618 41.328959 
L 43.536168 40.99841 
" clip-path="url(#pd3b84290e6)"/>
    <path d="M 89.498113 83.335696 
L 90.888653 84.389233 
L 91.256107 84.20774 
L 92.092761 85.531466 
L 90.59201 85.084267 
L 90.667288 84.681409 
L 89.276747 83.627872 
L 89.498113 83.335696 
" clip-path="url(#pd3b84290e6)"/>
    <path d="M 67.678979 50.762164 
L 66.145147 51.59337 
L 66.158655 52.002978 
L 64.607546 52.218154 
L 65.634705 51.036128 
L 65.970497 51.271086 
L 67.504328 50.439881 
L 67.678979 50.762164 
" clip-path="url(#pd3b84290e6)"/>
    <path d="M 3.361963 41.618466 
L 1.617391 41.620775 
L 1.434594 41.987581 
L -0.032389 41.439677 
L 1.433138 40.88789 
L 1.616906 41.254211 
L 3.361478 41.251902 
L 3.361963 41.618466 
" clip-path="url(#pd3b84290e6)"/>
    <path d="M 62.455331 18.515829 
L 64.198634 18.582416 
L 64.395773 18.223114 
L 65.839975 18.828524 
L 64.3538 19.322006 
L 64.184643 18.948713 
L 62.44134 18.882126 
L 62.455331 18.515829 
" clip-path="url(#pd3b84290e6)"/>
    <path d="M 48.105318 66.121811 
L 46.38752 66.426293 
L 46.271028 66.81922 
L 44.731311 66.53372 
L 46.079098 65.736406 
L 46.323544 66.065355 
L 48.041341 65.760873 
L 48.105318 66.121811 
" clip-path="url(#pd3b84290e6)"/>
    <path d="M 70.692061 36.173762 
L 69.084902 36.852421 
L 69.058654 37.261411 
L 67.493993 37.325265 
L 68.630861 36.248338 
L 68.942304 36.51473 
L 70.549464 35.836071 
L 70.692061 36.173762 
" clip-path="url(#pd3b84290e6)"/>
    <path d="M 100.689585 56.52654 
L 102.327077 57.128338 
L 102.625557 56.847498 
L 103.812142 57.869386 
L 102.246213 57.879691 
L 102.200629 57.472403 
L 100.563137 56.870604 
L 100.689585 56.52654 
" clip-path="url(#pd3b84290e6)"/>
    <path d="M 58.007034 10.871854 
L 59.751292 10.905092 
L 59.941525 10.542087 
L 61.397039 11.119769 
L 59.920573 11.641579 
L 59.744308 11.27159 
L 58.00005 11.238351 
L 58.007034 10.871854 
" clip-path="url(#pd3b84290e6)"/>
    <path d="M 121.824758 20.835751 
L 123.458838 21.446745 
L 123.758892 21.167587 
L 124.939713 22.19613 
L 123.373751 22.197631 
L 123.330458 21.790093 
L 121.696378 21.179099 
L 121.824758 20.835751 
" clip-path="url(#pd3b84290e6)"/>
    <path d="M 55.923096 33.932425 
L 56.055933 32.192915 
L 55.704389 31.982254 
L 56.364284 30.562121 
L 56.800889 32.065988 
L 56.421433 32.220827 
L 56.288596 33.960336 
L 55.923096 33.932425 
" clip-path="url(#pd3b84290e6)"/>
    <path d="M 59.628648 9.809879 
L 61.339787 9.469964 
L 61.448135 9.074714 
L 62.993423 9.328335 
L 61.6624 10.153331 
L 61.411209 9.829503 
L 59.700069 10.169418 
L 59.628648 9.809879 
" clip-path="url(#pd3b84290e6)"/>
    <path d="M 51.227966 28.371569 
L 52.959884 28.581325 
L 53.185909 28.239457 
L 54.575419 28.961608 
L 53.053689 29.331172 
L 52.91581 28.94523 
L 51.183893 28.735474 
L 51.227966 28.371569 
" clip-path="url(#pd3b84290e6)"/>
    <path d="M 125.447839 29.135016 
L 127.177337 29.363886 
L 127.407124 29.024535 
L 128.788575 29.761986 
L 127.262856 30.114723 
L 127.129248 29.727282 
L 125.39975 29.498413 
L 125.447839 29.135016 
" clip-path="url(#pd3b84290e6)"/>
    <path d="M 126.866233 28.868454 
L 128.6086 28.780764 
L 128.773225 28.405451 
L 130.265266 28.880902 
L 128.828501 29.503753 
L 128.627025 29.146865 
L 126.884658 29.234555 
L 126.866233 28.868454 
" clip-path="url(#pd3b84290e6)"/>
    <path d="M 63.05642 95.266175 
L 63.239667 97.001096 
L 63.623455 97.144861 
L 63.230665 98.660762 
L 62.529846 97.260371 
L 62.875131 97.0396 
L 62.691883 95.304678 
L 63.05642 95.266175 
" clip-path="url(#pd3b84290e6)"/>
    <path d="M 59.63997 16.588212 
L 61.365859 16.842863 
L 61.600684 16.506978 
L 62.970976 17.264961 
L 61.440165 17.594893 
L 61.312352 17.205501 
L 59.586464 16.95085 
L 59.63997 16.588212 
" clip-path="url(#pd3b84290e6)"/>
    <path d="M 133.267578 21.830198 
L 135.002648 21.648353 
L 135.146723 21.264681 
L 136.662306 21.658697 
L 135.261349 22.358383 
L 135.040857 22.01292 
L 133.305786 22.194765 
L 133.267578 21.830198 
" clip-path="url(#pd3b84290e6)"/>
    <path d="M 98.809201 11.166058 
L 99.696826 9.664178 
L 99.474508 9.319887 
L 100.693886 8.337362 
L 100.421221 9.879403 
L 100.012397 9.850683 
L 99.124772 11.352564 
L 98.809201 11.166058 
" clip-path="url(#pd3b84290e6)"/>
    <path d="M 31.683144 57.039933 
L 29.957918 57.299031 
L 29.83111 57.688751 
L 28.299452 57.362766 
L 29.667787 56.601254 
L 29.903477 56.936533 
L 31.628703 56.677434 
L 31.683144 57.039933 
" clip-path="url(#pd3b84290e6)"/>
    <path d="M 133.882095 7.953518 
L 135.626448 7.925889 
L 135.803902 7.556469 
L 137.278683 8.083025 
L 135.821318 8.656023 
L 135.632254 8.292408 
L 133.8879 8.320036 
L 133.882095 7.953518 
" clip-path="url(#pd3b84290e6)"/>
    <path d="M 33.676813 41.244358 
L 31.932718 41.28523 
L 31.758074 41.655988 
L 30.279339 41.140644 
L 31.732311 40.556597 
L 31.924131 40.918767 
L 33.668225 40.877895 
L 33.676813 41.244358 
" clip-path="url(#pd3b84290e6)"/>
    <path d="M 58.628649 16.2507 
L 60.328246 16.644278 
L 60.5895 16.328513 
L 61.89391 17.194973 
L 60.341408 17.399855 
L 60.245548 17.001392 
L 58.545951 16.607814 
L 58.628649 16.2507 
" clip-path="url(#pd3b84290e6)"/>
    <path d="M 56.661653 9.622484 
L 55.319727 8.507684 
L 54.944509 8.672526 
L 54.168023 7.312633 
L 55.647223 7.826643 
L 55.553965 8.225723 
L 56.895891 9.340523 
L 56.661653 9.622484 
" clip-path="url(#pd3b84290e6)"/>
    <path d="M 86.157089 39.44891 
L 87.698248 38.631377 
L 87.688382 38.221665 
L 89.241343 38.020291 
L 88.203715 39.193136 
L 87.870025 38.955201 
L 86.328867 39.772733 
L 86.157089 39.44891 
" clip-path="url(#pd3b84290e6)"/>
    <path d="M 43.005575 60.357921 
L 41.328124 60.837186 
L 41.252595 61.239997 
L 39.691701 61.114113 
L 40.950491 60.182615 
L 41.227423 60.484725 
L 42.904874 60.005461 
L 43.005575 60.357921 
" clip-path="url(#pd3b84290e6)"/>
    <path d="M 65.172003 53.879806 
L 63.807226 54.966507 
L 63.892179 55.367437 
L 62.402628 55.85063 
L 63.207176 54.507149 
L 63.578892 54.679744 
L 64.943668 53.593043 
L 65.172003 53.879806 
" clip-path="url(#pd3b84290e6)"/>
    <path d="M 39.897159 43.322368 
L 41.561634 42.799819 
L 41.626705 42.395187 
L 43.190336 42.480603 
L 41.956094 43.44439 
L 41.67143 43.149553 
L 40.006955 43.672102 
L 39.897159 43.322368 
" clip-path="url(#pd3b84290e6)"/>
    <path d="M 127.36025 81.908135 
L 129.103182 81.983736 
L 129.302177 81.625458 
L 130.743228 82.238328 
L 129.254521 82.724118 
L 129.087297 82.349955 
L 127.344365 82.274354 
L 127.36025 81.908135 
" clip-path="url(#pd3b84290e6)"/>
    <path d="M 54.268474 23.565621 
L 55.969343 23.953676 
L 56.22957 23.637063 
L 57.536788 24.499281 
L 55.98496 24.709206 
L 55.887806 24.311056 
L 54.186937 23.923002 
L 54.268474 23.565621 
" clip-path="url(#pd3b84290e6)"/>
    <path d="M 82.454446 4.262885 
L 84.113793 3.724267 
L 84.174948 3.319025 
L 85.739332 3.389319 
L 84.514466 4.364994 
L 84.226965 4.072924 
L 82.567618 4.611541 
L 82.454446 4.262885 
" clip-path="url(#pd3b84290e6)"/>
    <path d="M 51.32528 66.025004 
L 49.581377 66.073349 
L 49.408324 66.444852 
L 47.927393 65.935849 
L 49.377849 65.345582 
L 49.571219 65.706926 
L 51.315122 65.658581 
L 51.32528 66.025004 
" clip-path="url(#pd3b84290e6)"/>
    <path d="M 11.910132 97.993387 
L 10.336607 98.74675 
L 10.329589 99.156521 
L 8.769652 99.293762 
L 9.854706 98.164649 
L 10.178313 98.416126 
L 11.751837 97.662763 
L 11.910132 97.993387 
" clip-path="url(#pd3b84290e6)"/>
    <path d="M 65.832576 52.510038 
L 64.737261 53.867912 
L 64.907501 54.240712 
L 63.558957 55.036744 
L 64.051565 53.55028 
L 64.451949 53.637768 
L 65.547264 52.279894 
L 65.832576 52.510038 
" clip-path="url(#pd3b84290e6)"/>
    <path d="M 51.271142 60.783626 
L 49.627173 61.367491 
L 49.57714 61.774256 
L 48.011417 61.746837 
L 49.2091 60.737979 
L 49.504493 61.022065 
L 51.148462 60.4382 
L 51.271142 60.783626 
" clip-path="url(#pd3b84290e6)"/>
    <path d="M 57.023382 47.544735 
L 55.424193 48.24197 
L 55.402685 48.651237 
L 53.83887 48.733215 
L 54.963183 47.643189 
L 55.277692 47.905954 
L 56.876881 47.208719 
L 57.023382 47.544735 
" clip-path="url(#pd3b84290e6)"/>
    <path d="M 2.898651 56.962196 
L 1.180438 57.264321 
L 1.063406 57.657087 
L -0.475918 57.369475 
L 0.872962 56.57401 
L 1.116956 56.903295 
L 2.835169 56.601171 
L 2.898651 56.962196 
" clip-path="url(#pd3b84290e6)"/>
    <path d="M 132.948762 67.557617 
L 134.519387 68.317008 
L 134.843955 68.066774 
L 135.924672 69.200039 
L 134.365273 69.056818 
L 134.359826 68.647023 
L 132.789202 67.887632 
L 132.948762 67.557617 
" clip-path="url(#pd3b84290e6)"/>
    <path d="M 132.091115 30.71015 
L 133.770709 30.238449 
L 133.848052 29.835982 
L 135.408364 29.968899 
L 134.145389 30.894715 
L 133.869821 30.59136 
L 132.190227 31.063061 
L 132.091115 30.71015 
" clip-path="url(#pd3b84290e6)"/>
    <path d="M 47.816237 62.078104 
L 46.07227 62.124131 
L 45.898723 62.495403 
L 44.41847 61.984433 
L 45.86971 61.396094 
L 46.062599 61.757695 
L 47.806566 61.711667 
L 47.816237 62.078104 
" clip-path="url(#pd3b84290e6)"/>
    <path d="M 39.596889 20.339978 
L 41.13046 21.171659 
L 41.466325 20.936805 
L 42.493116 22.11915 
L 40.942074 21.903492 
L 40.95571 21.493888 
L 39.422139 20.662207 
L 39.596889 20.339978 
" clip-path="url(#pd3b84290e6)"/>
    <path d="M 117.195832 91.419889 
L 118.914348 91.720285 
L 119.158011 91.390755 
L 120.50769 92.184861 
L 118.968656 92.474022 
L 118.851229 92.081374 
L 117.132714 91.780978 
L 117.195832 91.419889 
" clip-path="url(#pd3b84290e6)"/>
    <path d="M 48.291131 49.145487 
L 46.609701 48.680381 
L 46.335326 48.984815 
L 45.068728 48.063963 
L 46.628506 47.924924 
L 46.707428 48.327084 
L 48.388858 48.79219 
L 48.291131 49.145487 
" clip-path="url(#pd3b84290e6)"/>
    <path d="M 62.67364 45.618172 
L 61.245957 46.620798 
L 61.306635 47.026112 
L 59.790712 47.418816 
L 60.67463 46.126172 
L 61.035288 46.320818 
L 62.462972 45.318192 
L 62.67364 45.618172 
" clip-path="url(#pd3b84290e6)"/>
    <path d="M 46.596143 40.240949 
L 48.309776 39.913838 
L 48.421076 39.51941 
L 49.964425 39.784578 
L 48.627271 40.599598 
L 48.378508 40.273901 
L 46.664874 40.601012 
L 46.596143 40.240949 
" clip-path="url(#pd3b84290e6)"/>
    <path d="M 50.028238 26.313472 
L 51.768006 26.442896 
L 51.977977 26.090939 
L 53.399402 26.748046 
L 51.896395 27.187601 
L 51.740812 26.80845 
L 50.001044 26.679026 
L 50.028238 26.313472 
" clip-path="url(#pd3b84290e6)"/>
    <path d="M 68.153173 40.982363 
L 66.62946 41.831969 
L 66.647898 42.241385 
L 65.099491 42.475215 
L 66.112348 41.280912 
L 66.450943 41.511811 
L 67.974656 40.662205 
L 68.153173 40.982363 
" clip-path="url(#pd3b84290e6)"/>
    <path d="M 37.595982 14.188665 
L 36.108549 13.27703 
L 35.760731 13.49379 
L 34.797917 12.258789 
L 36.335381 12.556186 
L 36.300098 12.964495 
L 37.787532 13.87613 
L 37.595982 14.188665 
" clip-path="url(#pd3b84290e6)"/>
    <path d="M 118.286517 87.586524 
L 119.950015 88.112172 
L 120.235227 87.817867 
L 121.467672 88.783951 
L 119.903884 88.866454 
L 119.839567 88.461701 
L 118.176069 87.936053 
L 118.286517 87.586524 
" clip-path="url(#pd3b84290e6)"/>
    <path d="M 122.653537 84.586288 
L 124.350956 84.989155 
L 124.613933 84.674823 
L 125.913585 85.548404 
L 124.359986 85.744792 
L 124.266307 85.345811 
L 122.568888 84.942945 
L 122.653537 84.586288 
" clip-path="url(#pd3b84290e6)"/>
    <path d="M 64.995786 89.892666 
L 65.894573 91.387898 
L 66.303171 91.356134 
L 66.587313 92.896102 
L 65.360652 91.922685 
L 65.5804 91.576748 
L 64.681613 90.081516 
L 64.995786 89.892666 
" clip-path="url(#pd3b84290e6)"/>
    <path d="M 22.757861 52.091586 
L 21.252721 51.209495 
L 20.909251 51.433079 
L 19.922242 50.217327 
L 21.465278 50.484312 
L 21.438063 50.893239 
L 22.943204 51.77533 
L 22.757861 52.091586 
" clip-path="url(#pd3b84290e6)"/>
    <path d="M 135.610383 63.734547 
L 137.327342 63.425368 
L 137.44276 63.032124 
L 138.983252 63.313412 
L 137.637651 64.114409 
L 137.392306 63.786129 
L 135.675347 64.095309 
L 135.610383 63.734547 
" clip-path="url(#pd3b84290e6)"/>
    <path d="M 44.264885 51.699577 
L 42.54997 51.379266 
L 42.302501 51.705947 
L 40.962125 50.896237 
L 42.504409 50.624949 
L 42.617273 51.018933 
L 44.332188 51.339244 
L 44.264885 51.699577 
" clip-path="url(#pd3b84290e6)"/>
    <path d="M 61.834599 63.544661 
L 63.482415 62.97174 
L 63.535152 62.565316 
L 65.100658 62.603146 
L 63.896293 63.604018 
L 63.602796 63.317974 
L 61.954979 63.890895 
L 61.834599 63.544661 
" clip-path="url(#pd3b84290e6)"/>
    <path d="M 132.552762 38.022828 
L 134.291576 38.16447 
L 134.504014 37.813997 
L 135.920788 38.481074 
L 134.41473 38.910059 
L 134.261814 38.529824 
L 132.523001 38.388182 
L 132.552762 38.022828 
" clip-path="url(#pd3b84290e6)"/>
    <path d="M 53.011499 101.183553 
L 52.912226 102.9253 
L 53.267767 103.129144 
L 52.635376 104.561736 
L 52.169856 103.066567 
L 52.546256 102.904441 
L 52.645529 101.162694 
L 53.011499 101.183553 
" clip-path="url(#pd3b84290e6)"/>
    <path d="M 75.192507 30.598976 
L 73.807504 31.65978 
L 73.88489 32.062238 
L 72.386502 32.51729 
L 73.216213 31.189201 
L 73.584611 31.368767 
L 74.969614 30.307964 
L 75.192507 30.598976 
" clip-path="url(#pd3b84290e6)"/>
    <path d="M 64.883442 92.732008 
L 65.746858 94.24794 
L 66.15609 94.225784 
L 66.403978 95.772002 
L 65.200521 94.770038 
L 65.428335 94.429359 
L 64.564919 92.913426 
L 64.883442 92.732008 
" clip-path="url(#pd3b84290e6)"/>
    <path d="M 55.141096 11.919208 
L 53.701872 10.933224 
L 53.343498 11.132043 
L 52.444634 9.849747 
L 53.965014 10.224827 
L 53.909044 10.630819 
L 55.348268 11.616803 
L 55.141096 11.919208 
" clip-path="url(#pd3b84290e6)"/>
    <path d="M 66.122119 97.497531 
L 66.83393 99.090284 
L 67.243376 99.108052 
L 67.339633 100.671054 
L 66.239383 99.556743 
L 66.499266 99.239847 
L 65.787455 97.647095 
L 66.122119 97.497531 
" clip-path="url(#pd3b84290e6)"/>
    <path d="M 56.044572 2.49174 
L 54.801326 1.267861 
L 54.413555 1.40051 
L 53.754384 -0.01996 
L 55.185027 0.616829 
L 55.058483 1.006635 
L 56.301729 2.230513 
L 56.044572 2.49174 
" clip-path="url(#pd3b84290e6)"/>
    <path d="M 32.3621 63.328772 
L 30.627037 63.14684 
L 30.406528 63.492292 
L 29.005606 62.792536 
L 30.521208 62.398596 
L 30.665264 62.782275 
L 32.400327 62.964206 
L 32.3621 63.328772 
" clip-path="url(#pd3b84290e6)"/>
    <path d="M 134.493964 52.947152 
L 136.238521 52.954679 
L 136.423383 52.588909 
L 137.887253 53.145076 
L 136.418638 53.688591 
L 136.236939 53.321239 
L 134.492382 53.313713 
L 134.493964 52.947152 
" clip-path="url(#pd3b84290e6)"/>
   </g>
  </g>
 </g>
 <defs>
  <clipPath id="pd3b84290e6">
   <rect x="7.2" y="7.2" width="86.4" height="86.4"/>
  </clipPath>
 </defs>
</svg>
