<?xml version="1.0" encoding="utf-8" standalone="no"?>
<!DOCTYPE svg PUBLIC "-//W3C//DTD SVG 1.1//EN"
  "http://www.w3.org/Graphics/SVG/1.1/DTD/svg11.dtd">
<svg xmlns:xlink="http://www.w3.org/1999/xlink" width="100.8pt" height="100.8pt" viewBox="0 0 100.8 100.8" xmlns="http://www.w3.org/2000/svg" version="1.1">
 <metadata>
  <rdf:RDF xmlns:dc="http://purl.org/dc/elements/1.1/" xmlns:cc="http://creativecommons.org/ns#" xmlns:rdf="http://www.w3.org/1999/02/22-rdf-syntax-ns#">
   <cc:Work>
    <dc:type rdf:resource="http://purl.org/dc/dcmitype/StillImage"/>
    <dc:date>2025-09-10T17:09:18.088634</dc:date>
    <dc:format>image/svg+xml</dc:format>
    <dc:creator>
     <cc:Agent>
      <dc:title>Matplotlib v3.10.5, https://matplotlib.org/</dc:title>
     </cc:Agent>
    </dc:creator>
   </cc:Work>
  </rdf:RDF>
 </metadata>
 <defs>
  <style type="text/css">*{stroke-linejoin: round; stroke-linecap: butt}</style>
 </defs>
 <g id="figure_1">
  <g id="patch_1">
   <path d="M 0 100.8 
L 100.8 100.8 
L 100.8 0 
L 0 0 
z
" style="fill: #ffffff"/>
  </g>
  <g id="axes_1">
   <g id="Quiver_1">
    <path d="M 57.012809 83.668391 
L 58.744642 83.878851 
L 58.970806 83.537074 
L 60.360023 84.25979 
L 58.838143 84.628735 
L 58.700421 84.242738 
L 56.968588 84.032278 
L 57.012809 83.668391 
" clip-path="url(#p58b578f7df)"/>
    <path d="M 112.204282 92.444265 
L 113.946354 92.537663 
L 114.148997 92.181437 
L 115.583714 92.808993 
L 114.090124 93.279552 
L 113.926729 92.903702 
L 112.184658 92.810303 
L 112.204282 92.444265 
" clip-path="url(#p58b578f7df)"/>
    <path d="M 75.111236 67.968909 
L 76.852925 68.069206 
L 77.056979 67.713786 
L 78.489199 68.347019 
L 76.993756 68.811659 
L 76.831851 68.435164 
L 75.090162 68.334866 
L 75.111236 67.968909 
" clip-path="url(#p58b578f7df)"/>
    <path d="M 59.942145 58.990364 
L 61.651898 58.643544 
L 61.75865 58.24786 
L 63.304949 58.495241 
L 61.977268 59.325603 
L 61.724771 59.002791 
L 60.015018 59.349611 
L 59.942145 58.990364 
" clip-path="url(#p58b578f7df)"/>
    <path d="M 50.636517 24.62765 
L 48.984944 24.06565 
L 48.693346 24.35363 
L 47.482382 23.360753 
L 49.047603 23.312561 
L 49.103029 23.718627 
L 50.754602 24.280627 
L 50.636517 24.62765 
" clip-path="url(#p58b578f7df)"/>
    <path d="M 82.991075 71.501222 
L 84.58764 72.204436 
L 84.90313 71.942849 
L 86.023357 73.037076 
L 84.459859 72.949245 
L 84.439883 72.539901 
L 82.843318 71.836687 
L 82.991075 71.501222 
" clip-path="url(#p58b578f7df)"/>
    <path d="M 60.645167 48.398108 
L 62.341787 47.991882 
L 62.434676 47.592716 
L 63.988661 47.786029 
L 62.69074 48.662181 
L 62.427141 48.34837 
L 60.730522 48.754596 
L 60.645167 48.398108 
" clip-path="url(#p58b578f7df)"/>
    <path d="M 44.110085 29.647845 
L 42.371784 29.500051 
L 42.158107 29.84977 
L 40.743702 29.177684 
L 42.251269 28.754031 
L 42.402838 29.134804 
L 44.141139 29.282599 
L 44.110085 29.647845 
" clip-path="url(#p58b578f7df)"/>
    <path d="M 119.442885 64.102221 
L 121.186613 64.156524 
L 121.381217 63.795843 
L 122.829648 64.391063 
L 121.346987 64.895002 
L 121.175203 64.522911 
L 119.431475 64.468607 
L 119.442885 64.102221 
" clip-path="url(#p58b578f7df)"/>
    <path d="M 73.941791 63.083168 
L 75.671164 62.853352 
L 75.804561 62.465838 
L 77.330472 62.81774 
L 75.949425 63.555947 
L 75.719452 63.216721 
L 73.990079 63.446538 
L 73.941791 63.083168 
" clip-path="url(#p58b578f7df)"/>
    <path d="M 22.706475 64.137066 
L 21.104063 64.826863 
L 21.080654 65.236025 
L 19.516475 65.310736 
L 20.645841 64.225945 
L 20.959126 64.490169 
L 22.561537 63.800373 
L 22.706475 64.137066 
" clip-path="url(#p58b578f7df)"/>
    <path d="M 70.133431 44.405411 
L 68.81903 45.552532 
L 68.92197 45.949224 
L 67.455715 46.499075 
L 68.198882 45.120691 
L 68.578 45.276354 
L 69.892402 44.129233 
L 70.133431 44.405411 
" clip-path="url(#p58b578f7df)"/>
    <path d="M 55.094767 98.810992 
L 53.962517 100.138224 
L 54.122438 100.515566 
L 52.752508 101.274204 
L 53.285817 99.801851 
L 53.683643 99.900319 
L 54.815893 98.573087 
L 55.094767 98.810992 
" clip-path="url(#p58b578f7df)"/>
    <path d="M 8.611649 62.102288 
L 6.936828 62.590665 
L 6.863491 62.993881 
L 5.301934 62.876484 
L 6.555642 61.938157 
L 6.834212 62.238757 
L 8.509033 61.75038 
L 8.611649 62.102288 
" clip-path="url(#p58b578f7df)"/>
    <path d="M 57.667672 57.077892 
L 55.969625 57.478107 
L 55.875323 57.876941 
L 54.322032 57.678126 
L 55.623048 56.806576 
L 55.885534 57.121318 
L 57.58358 56.721104 
L 57.667672 57.077892 
" clip-path="url(#p58b578f7df)"/>
    <path d="M 52.929285 46.684472 
L 51.200227 46.452308 
L 50.969793 46.791221 
L 49.58975 46.051139 
L 51.116138 45.70131 
L 51.249008 46.089004 
L 52.978067 46.321168 
L 52.929285 46.684472 
" clip-path="url(#p58b578f7df)"/>
    <path d="M 93.984135 81.341313 
L 94.848742 82.856567 
L 95.257956 82.834088 
L 95.50706 84.380111 
L 94.302816 83.379093 
L 94.530362 83.038235 
L 93.665755 81.522981 
L 93.984135 81.341313 
" clip-path="url(#p58b578f7df)"/>
    <path d="M 49.913901 64.389175 
L 48.283128 65.008947 
L 48.242026 65.416712 
L 46.676078 65.423631 
L 47.851352 64.388754 
L 48.152903 64.666294 
L 49.783676 64.046522 
L 49.913901 64.389175 
" clip-path="url(#p58b578f7df)"/>
    <path d="M 67.878385 38.435662 
L 66.27246 39.117236 
L 66.246954 39.526273 
L 64.682412 39.592966 
L 65.817324 38.513978 
L 66.12925 38.779805 
L 67.735174 38.098231 
L 67.878385 38.435662 
" clip-path="url(#p58b578f7df)"/>
    <path d="M 73.592259 15.631836 
L 72.956774 14.007123 
L 72.548632 13.969959 
L 72.526597 12.404151 
L 73.572771 13.569381 
L 73.298154 13.873597 
L 73.933638 15.49831 
L 73.592259 15.631836 
" clip-path="url(#p58b578f7df)"/>
    <path d="M 56.314994 8.633432 
L 54.752492 7.857459 
L 54.425294 8.104244 
L 53.356632 6.959605 
L 54.914428 7.119322 
L 54.915537 7.529152 
L 56.478039 8.305124 
L 56.314994 8.633432 
" clip-path="url(#p58b578f7df)"/>
    <path d="M 83.776538 28.647787 
L 84.587482 27.103151 
L 84.348124 26.770481 
L 85.516528 25.727853 
L 85.321787 27.28166 
L 84.912036 27.273544 
L 84.101092 28.81818 
L 83.776538 28.647787 
" clip-path="url(#p58b578f7df)"/>
    <path d="M 36.987329 63.415918 
L 38.446098 62.459084 
L 38.398307 62.052049 
L 39.925924 61.70763 
L 39.001448 62.971584 
L 38.647145 62.765596 
L 37.188376 63.72243 
L 36.987329 63.415918 
" clip-path="url(#p58b578f7df)"/>
    <path d="M 48.681743 27.741394 
L 47.035926 27.162754 
L 46.741437 27.447776 
L 45.540556 26.442727 
L 47.106184 26.410335 
L 47.157508 26.81694 
L 48.803325 27.395581 
L 48.681743 27.741394 
" clip-path="url(#p58b578f7df)"/>
    <path d="M 37.113753 41.148892 
L 35.369617 41.18798 
L 35.194594 41.558559 
L 33.716385 41.041703 
L 35.169954 40.459142 
L 35.361403 40.821508 
L 37.10554 40.782419 
L 37.113753 41.148892 
" clip-path="url(#p58b578f7df)"/>
    <path d="M 54.031949 17.123118 
L 52.495841 16.296132 
L 52.160696 16.532013 
L 51.130293 15.352815 
L 52.681987 15.563726 
L 52.669605 15.97337 
L 54.205713 16.800356 
L 54.031949 17.123118 
" clip-path="url(#p58b578f7df)"/>
    <path d="M 50.470426 54.798893 
L 48.96553 55.681402 
L 48.992858 56.090321 
L 47.449897 56.357735 
L 48.436568 55.141709 
L 48.7801 55.365198 
L 50.284996 54.482689 
L 50.470426 54.798893 
" clip-path="url(#p58b578f7df)"/>
    <path d="M 70.859585 47.122782 
L 69.635251 48.365579 
L 69.767757 48.753399 
L 68.347046 49.412049 
L 68.98436 47.981639 
L 69.374119 48.108326 
L 70.598453 46.865529 
L 70.859585 47.122782 
" clip-path="url(#p58b578f7df)"/>
    <path d="M 33.526543 18.821093 
L 31.925242 18.128728 
L 31.611534 18.392449 
L 30.483909 17.305849 
L 32.047967 17.383068 
L 32.07072 17.792268 
L 33.67202 18.484632 
L 33.526543 18.821093 
" clip-path="url(#p58b578f7df)"/>
    <path d="M 11.47884 53.246313 
L 9.743024 53.420906 
L 9.597347 53.803972 
L 8.083424 53.403626 
L 9.487293 52.709801 
L 9.706339 53.056182 
L 11.442156 52.881589 
L 11.47884 53.246313 
" clip-path="url(#p58b578f7df)"/>
    <path d="M 105.131744 64.838652 
L 106.820669 65.27577 
L 107.089951 64.966822 
L 108.371667 65.866512 
L 106.814413 66.031436 
L 106.728823 65.630641 
L 105.039899 65.193523 
L 105.131744 64.838652 
" clip-path="url(#p58b578f7df)"/>
    <path d="M 32.857046 55.838786 
L 31.288927 55.074234 
L 30.963538 55.323399 
L 29.886553 54.186586 
L 31.445473 54.334935 
L 31.449572 54.744746 
L 33.017691 55.509298 
L 32.857046 55.838786 
" clip-path="url(#p58b578f7df)"/>
    <path d="M 78.323417 25.639506 
L 80.066939 25.700053 
L 80.262833 25.340071 
L 81.709123 25.940474 
L 80.224667 26.439101 
L 80.054217 26.066397 
L 78.310695 26.005849 
L 78.323417 25.639506 
" clip-path="url(#p58b578f7df)"/>
    <path d="M 79.150002 20.941762 
L 80.890811 21.056309 
L 81.097765 20.70257 
L 82.524756 21.347502 
L 81.025561 21.799889 
L 80.866743 21.422082 
L 79.125934 21.307536 
L 79.150002 20.941762 
" clip-path="url(#p58b578f7df)"/>
    <path d="M 10.715592 58.392208 
L 8.986881 58.626926 
L 8.854584 59.014816 
L 7.327681 58.667242 
L 8.706629 57.925122 
L 8.937563 58.263695 
L 10.666274 58.028977 
L 10.715592 58.392208 
" clip-path="url(#p58b578f7df)"/>
    <path d="M 76.06658 63.398764 
L 77.77648 63.052664 
L 77.883398 62.657025 
L 79.429593 62.905058 
L 78.101562 63.73486 
L 77.849201 63.411942 
L 76.139301 63.758042 
L 76.06658 63.398764 
" clip-path="url(#p58b578f7df)"/>
    <path d="M 126.075096 18.083561 
L 127.816409 17.976935 
L 127.976944 17.599854 
L 129.474066 18.059056 
L 128.044156 18.69749 
L 127.838813 18.342814 
L 126.0975 18.44944 
L 126.075096 18.083561 
" clip-path="url(#p58b578f7df)"/>
    <path d="M 63.486379 43.829651 
L 65.092923 43.149534 
L 65.1188 42.74052 
L 66.683402 42.675247 
L 65.547512 43.753205 
L 65.235827 43.487095 
L 63.629283 44.167212 
L 63.486379 43.829651 
" clip-path="url(#p58b578f7df)"/>
    <path d="M 54.487256 47.180036 
L 52.744877 47.092573 
L 52.543448 47.449487 
L 51.106602 46.826822 
L 52.598581 46.351178 
L 52.763255 46.72647 
L 54.505633 46.813933 
L 54.487256 47.180036 
" clip-path="url(#p58b578f7df)"/>
    <path d="M 35.202349 13.589868 
L 33.478198 13.323707 
L 33.241136 13.658017 
L 31.875932 12.890908 
L 33.408911 12.571198 
L 33.534122 12.961434 
L 35.258274 13.227595 
L 35.202349 13.589868 
" clip-path="url(#p58b578f7df)"/>
    <path d="M 75.179312 32.096851 
L 73.613142 32.86539 
L 73.610086 33.275209 
L 72.051548 33.427523 
L 73.125638 32.287974 
L 73.45166 32.536311 
L 75.017829 31.767773 
L 75.179312 32.096851 
" clip-path="url(#p58b578f7df)"/>
    <path d="M 93.168013 85.267962 
L 94.765042 85.970129 
L 95.08036 85.708335 
L 96.201304 86.801826 
L 94.637749 86.715022 
L 94.617505 86.305691 
L 93.020476 85.603525 
L 93.168013 85.267962 
" clip-path="url(#p58b578f7df)"/>
    <path d="M 45.335649 85.970986 
L 44.983347 87.679618 
L 45.305347 87.933148 
L 44.470731 89.25816 
L 44.228311 87.711075 
L 44.624335 87.605593 
L 44.976637 85.896961 
L 45.335649 85.970986 
" clip-path="url(#p58b578f7df)"/>
    <path d="M 53.601017 97.781635 
L 52.401644 99.048538 
L 52.541837 99.433645 
L 51.134508 100.120422 
L 51.743245 98.67762 
L 52.135447 98.79653 
L 53.33482 97.529626 
L 53.601017 97.781635 
" clip-path="url(#p58b578f7df)"/>
    <path d="M 48.314306 55.0038 
L 46.578187 55.175352 
L 46.431839 55.558162 
L 44.91862 55.155164 
L 46.323702 54.4638 
L 46.542141 54.810564 
L 48.27826 54.639013 
L 48.314306 55.0038 
" clip-path="url(#p58b578f7df)"/>
    <path d="M 59.536355 61.517162 
L 57.827748 61.869584 
L 57.722294 62.265615 
L 56.175192 62.023304 
L 57.500145 61.188595 
L 57.753698 61.510577 
L 59.462305 61.158155 
L 59.536355 61.517162 
" clip-path="url(#p58b578f7df)"/>
    <path d="M 54.248101 99.53499 
L 53.343567 101.026753 
L 53.561983 101.373533 
L 52.331585 102.342224 
L 52.62165 100.80336 
L 53.030123 100.836695 
L 53.934657 99.344932 
L 54.248101 99.53499 
" clip-path="url(#p58b578f7df)"/>
    <path d="M 40.733081 17.277565 
L 38.992465 17.160107 
L 38.784919 17.5135 
L 37.359009 16.866182 
L 38.858958 16.416303 
L 39.017145 16.794375 
L 40.757761 16.911833 
L 40.733081 17.277565 
" clip-path="url(#p58b578f7df)"/>
    <path d="M 59.260994 17.627827 
L 57.940073 16.488218 
L 57.561849 16.64604 
L 56.810835 15.271915 
L 58.280201 15.813397 
L 58.179524 16.21067 
L 59.500444 17.35028 
L 59.260994 17.627827 
" clip-path="url(#p58b578f7df)"/>
    <path d="M 35.867347 92.014338 
L 36.014711 93.752676 
L 36.395446 93.904339 
L 35.97142 95.411801 
L 35.299684 93.99723 
L 35.649457 93.783639 
L 35.502093 92.045302 
L 35.867347 92.014338 
" clip-path="url(#p58b578f7df)"/>
    <path d="M 72.815662 51.55412 
L 71.125952 51.988194 
L 71.03964 52.388833 
L 69.482686 52.221104 
L 70.766022 51.323725 
L 71.034746 51.633158 
L 72.724456 51.199084 
L 72.815662 51.55412 
" clip-path="url(#p58b578f7df)"/>
    <path d="M 79.213009 43.733635 
L 77.773282 44.718887 
L 77.829045 45.124907 
L 76.308474 45.499213 
L 77.20799 44.217374 
L 77.566264 44.416376 
L 79.005991 43.431124 
L 79.213009 43.733635 
" clip-path="url(#p58b578f7df)"/>
    <path d="M 59.450059 62.560079 
L 57.774402 63.045585 
L 57.700374 63.448675 
L 56.139021 63.328601 
L 57.394335 62.392425 
L 57.67239 62.693502 
L 59.348046 62.207996 
L 59.450059 62.560079 
" clip-path="url(#p58b578f7df)"/>
    <path d="M 115.817811 72.856688 
L 117.546522 73.091406 
L 117.777456 72.752834 
L 119.156404 73.494953 
L 117.629501 73.842528 
L 117.497204 73.454637 
L 115.768493 73.21992 
L 115.817811 72.856688 
" clip-path="url(#p58b578f7df)"/>
    <path d="M 126.031909 28.010043 
L 127.757752 27.755089 
L 127.885497 27.365676 
L 129.416366 27.695338 
L 128.046207 28.453562 
L 127.811322 28.117718 
L 126.085479 28.372672 
L 126.031909 28.010043 
" clip-path="url(#p58b578f7df)"/>
    <path d="M 63.967913 10.793371 
L 63.029459 9.322711 
L 62.621856 9.365391 
L 62.296631 7.833573 
L 63.548887 8.773836 
L 63.338469 9.125526 
L 64.276923 10.596186 
L 63.967913 10.793371 
" clip-path="url(#p58b578f7df)"/>
    <path d="M 94.622058 77.010059 
L 95.728925 78.358534 
L 96.128547 78.267632 
L 96.633826 79.749837 
L 95.278536 78.965345 
L 95.445587 78.591105 
L 94.338721 77.24263 
L 94.622058 77.010059 
" clip-path="url(#p58b578f7df)"/>
    <path d="M 41.36544 24.310261 
L 39.669888 23.899606 
L 39.40547 24.212728 
L 38.109842 23.33319 
L 39.664326 23.143935 
L 39.756173 23.543342 
L 41.451726 23.953997 
L 41.36544 24.310261 
" clip-path="url(#p58b578f7df)"/>
    <path d="M 85.000071 73.303545 
L 86.499491 74.195332 
L 86.844397 73.973968 
L 87.82354 75.196064 
L 86.282259 74.919127 
L 86.312112 74.510385 
L 84.812692 73.618598 
L 85.000071 73.303545 
" clip-path="url(#p58b578f7df)"/>
    <path d="M 59.637301 90.795545 
L 61.314557 91.2755 
L 61.591613 90.973504 
L 62.850019 91.905519 
L 61.289073 92.030762 
L 61.21371 91.627919 
L 59.536454 91.147964 
L 59.637301 90.795545 
" clip-path="url(#p58b578f7df)"/>
    <path d="M 68.586806 36.622702 
L 66.880714 36.987111 
L 66.778043 37.383874 
L 65.229278 37.15243 
L 66.548338 36.308439 
L 66.804145 36.628633 
L 68.510237 36.264224 
L 68.586806 36.622702 
" clip-path="url(#p58b578f7df)"/>
    <path d="M 66.555147 39.330327 
L 65.001578 40.124024 
L 65.005131 40.53384 
L 63.449253 40.71127 
L 64.504824 39.554547 
L 64.834808 39.797593 
L 66.388377 39.003896 
L 66.555147 39.330327 
" clip-path="url(#p58b578f7df)"/>
    <path d="M 56.729119 83.341545 
L 58.465944 83.505775 
L 58.68292 83.158093 
L 60.090904 83.843528 
L 58.579397 84.252902 
L 58.431436 83.870712 
L 56.694611 83.706481 
L 56.729119 83.341545 
" clip-path="url(#p58b578f7df)"/>
    <path d="M 44.982859 60.230608 
L 43.330595 60.790576 
L 43.274669 61.196574 
L 41.709509 61.146456 
L 42.921693 60.155069 
L 43.212936 60.443408 
L 44.8652 59.88344 
L 44.982859 60.230608 
" clip-path="url(#p58b578f7df)"/>
    <path d="M 66.687825 40.845361 
L 68.387612 40.452585 
L 68.48366 40.054168 
L 70.036065 40.259782 
L 68.731246 41.125627 
L 68.470141 40.809738 
L 66.770354 41.202515 
L 66.687825 40.845361 
" clip-path="url(#p58b578f7df)"/>
    <path d="M 56.74798 11.54841 
L 55.856293 10.048934 
L 55.447548 10.07876 
L 55.170712 8.537462 
L 56.392744 9.516684 
L 56.171358 9.861575 
L 57.063046 11.361051 
L 56.74798 11.54841 
" clip-path="url(#p58b578f7df)"/>
    <path d="M 82.622975 61.891731 
L 84.350755 62.133218 
L 84.583013 61.795553 
L 85.959044 62.543068 
L 84.430792 62.884659 
L 84.300014 62.496253 
L 82.572234 62.254766 
L 82.622975 61.891731 
" clip-path="url(#p58b578f7df)"/>
    <path d="M 72.719951 45.638254 
L 71.113146 46.317752 
L 71.087111 46.726755 
L 69.522485 46.791426 
L 70.65879 45.713906 
L 70.970372 45.980135 
L 72.577177 45.300638 
L 72.719951 45.638254 
" clip-path="url(#p58b578f7df)"/>
    <path d="M 40.74295 35.976247 
L 39.033909 35.625937 
L 38.780754 35.948232 
L 37.454771 35.11516 
L 39.001572 34.870937 
L 39.107515 35.266839 
L 40.816556 35.617149 
L 40.74295 35.976247 
" clip-path="url(#p58b578f7df)"/>
    <path d="M 57.659275 58.006913 
L 55.956363 58.385898 
L 55.857089 58.783524 
L 54.306402 58.565333 
L 55.618196 57.710093 
L 55.876732 58.028088 
L 57.579644 57.649102 
L 57.659275 58.006913 
" clip-path="url(#p58b578f7df)"/>
    <path d="M 47.091923 26.636194 
L 45.514637 25.890738 
L 45.192297 26.143836 
L 44.101588 25.020184 
L 45.662195 25.149593 
L 45.671269 25.559324 
L 47.248556 26.304779 
L 47.091923 26.636194 
" clip-path="url(#p58b578f7df)"/>
    <path d="M 53.998462 11.014542 
L 52.713717 9.8343 
L 52.330755 9.980252 
L 51.622952 8.583379 
L 53.07472 9.170413 
L 52.961705 9.564354 
L 54.246451 10.744595 
L 53.998462 11.014542 
" clip-path="url(#p58b578f7df)"/>
    <path d="M 79.519181 16.975857 
L 81.26057 16.870501 
L 81.42138 16.493538 
L 82.918166 16.953832 
L 81.487791 17.591223 
L 81.282707 17.236396 
L 79.541318 17.341752 
L 79.519181 16.975857 
" clip-path="url(#p58b578f7df)"/>
    <path d="M 48.678831 68.728433 
L 50.36864 68.294752 
L 50.455045 67.894133 
L 52.01196 68.062224 
L 50.728416 68.959305 
L 50.459764 68.649809 
L 48.769955 69.08349 
L 48.678831 68.728433 
" clip-path="url(#p58b578f7df)"/>
    <path d="M 60.80739 43.491095 
L 62.462675 42.940122 
L 62.520808 42.534435 
L 64.085673 42.593065 
L 62.868114 43.577844 
L 62.578444 43.287925 
L 60.923158 43.838898 
L 60.80739 43.491095 
" clip-path="url(#p58b578f7df)"/>
    <path d="M 83.857769 72.415728 
L 85.487894 73.037207 
L 85.789735 72.759982 
L 86.963925 73.796089 
L 85.397986 73.787531 
L 85.357311 73.379723 
L 83.727186 72.758244 
L 83.857769 72.415728 
" clip-path="url(#p58b578f7df)"/>
    <path d="M 49.911524 22.870546 
L 48.277519 22.259349 
L 47.97743 22.53847 
L 46.796736 21.509781 
L 48.362698 21.508474 
L 48.405942 21.916017 
L 50.039947 22.527214 
L 49.911524 22.870546 
" clip-path="url(#p58b578f7df)"/>
    <path d="M 59.256468 91.760485 
L 60.687346 92.758547 
L 61.047381 92.562751 
L 61.935422 93.852565 
L 60.418252 93.464705 
L 60.477636 93.059198 
L 59.046758 92.061137 
L 59.256468 91.760485 
" clip-path="url(#p58b578f7df)"/>
    <path d="M 52.115233 22.191914 
L 50.85096 20.989767 
L 50.465546 21.129116 
L 49.781854 19.720285 
L 51.223319 20.332182 
L 51.10355 20.724122 
L 52.367824 21.926269 
L 52.115233 22.191914 
" clip-path="url(#p58b578f7df)"/>
    <path d="M 46.956635 29.135643 
L 45.405967 28.336288 
L 45.075099 28.578131 
L 44.02375 27.417568 
L 45.578972 27.600667 
L 45.573925 28.010467 
L 47.124593 28.809822 
L 46.956635 29.135643 
" clip-path="url(#p58b578f7df)"/>
    <path d="M 75.89925 43.148958 
L 74.390873 44.025504 
L 74.416582 44.434528 
L 72.872575 44.695833 
L 73.864051 43.483722 
L 74.206696 43.708569 
L 75.715072 42.832023 
L 75.89925 43.148958 
" clip-path="url(#p58b578f7df)"/>
    <path d="M 77.05896 67.056529 
L 78.785152 67.309103 
L 79.019573 66.972936 
L 80.390776 67.72927 
L 78.860363 68.061043 
L 78.732082 67.671806 
L 77.00589 67.419231 
L 77.05896 67.056529 
" clip-path="url(#p58b578f7df)"/>
    <path d="M 87.977747 8.827548 
L 88.329585 7.118822 
L 88.007516 6.865378 
L 88.841772 5.54014 
L 89.084612 7.087159 
L 88.688617 7.192749 
L 88.336779 8.901475 
L 87.977747 8.827548 
" clip-path="url(#p58b578f7df)"/>
    <path d="M 105.564629 56.014719 
L 107.309001 55.988014 
L 107.486651 55.618687 
L 108.961152 56.146025 
L 107.503484 56.718251 
L 107.314612 56.354535 
L 105.57024 56.38124 
L 105.564629 56.014719 
" clip-path="url(#p58b578f7df)"/>
    <path d="M 127.443535 29.206326 
L 129.154917 28.867635 
L 129.263547 28.472463 
L 130.808654 28.727189 
L 129.477041 29.551232 
L 129.226081 29.227225 
L 127.514699 29.565916 
L 127.443535 29.206326 
" clip-path="url(#p58b578f7df)"/>
    <path d="M 74.878744 31.346807 
L 73.277614 32.039568 
L 73.254963 32.448773 
L 71.690925 32.526379 
L 72.818281 31.4395 
L 73.132054 31.703144 
L 74.733183 31.010383 
L 74.878744 31.346807 
" clip-path="url(#p58b578f7df)"/>
    <path d="M 60.501534 40.975748 
L 62.110017 40.300237 
L 62.137065 39.891299 
L 63.701848 39.830508 
L 62.562874 40.905208 
L 62.251953 40.638206 
L 60.64347 41.313717 
L 60.501534 40.975748 
" clip-path="url(#p58b578f7df)"/>
    <path d="M 61.997845 11.729005 
L 60.774062 10.485668 
L 60.384247 10.612183 
L 59.747567 9.181492 
L 61.167986 9.84077 
L 61.035309 10.228531 
L 62.259091 11.471868 
L 61.997845 11.729005 
" clip-path="url(#p58b578f7df)"/>
    <path d="M 96.09852 17.632196 
L 97.204215 16.28276 
L 97.036838 15.908666 
L 98.391447 15.122998 
L 97.887455 16.605641 
L 97.487754 16.515086 
L 96.382059 17.864521 
L 96.09852 17.632196 
" clip-path="url(#p58b578f7df)"/>
    <path d="M 75.725199 33.490727 
L 74.231059 34.391328 
L 74.263318 34.799888 
L 72.723695 35.085897 
L 73.695624 33.858056 
L 74.041827 34.077384 
L 75.535968 33.176784 
L 75.725199 33.490727 
" clip-path="url(#p58b578f7df)"/>
    <path d="M 84.320727 61.413872 
L 82.700265 62.060128 
L 82.665811 62.468509 
L 81.100184 62.500936 
L 82.258444 61.447051 
L 82.564476 61.719643 
L 84.184937 61.073387 
L 84.320727 61.413872 
" clip-path="url(#p58b578f7df)"/>
    <path d="M 74.044853 68.396003 
L 75.788883 68.352562 
L 75.962981 67.981548 
L 77.442474 68.494713 
L 75.990364 69.0809 
L 75.798011 68.719013 
L 74.053981 68.762453 
L 74.044853 68.396003 
" clip-path="url(#p58b578f7df)"/>
    <path d="M 58.034206 19.794481 
L 56.992378 18.39515 
L 56.588902 18.467044 
L 56.154314 16.962594 
L 57.470972 17.810327 
L 57.286401 18.176245 
L 58.328229 19.575575 
L 58.034206 19.794481 
" clip-path="url(#p58b578f7df)"/>
    <path d="M 57.644783 82.448097 
L 57.76959 84.1882 
L 58.148326 84.344788 
L 57.704785 85.846624 
L 57.051452 84.42346 
L 57.403965 84.214424 
L 57.279158 82.474321 
L 57.644783 82.448097 
" clip-path="url(#p58b578f7df)"/>
    <path d="M 62.049205 95.231823 
L 60.875798 96.522814 
L 61.02378 96.904996 
L 59.630683 97.620202 
L 60.210004 96.165339 
L 60.604539 96.276262 
L 61.777946 94.98527 
L 62.049205 95.231823 
" clip-path="url(#p58b578f7df)"/>
    <path d="M 62.169135 24.339898 
L 61.218913 22.876816 
L 60.811666 22.922765 
L 60.474163 21.393604 
L 61.733921 22.323792 
L 61.526331 22.677158 
L 62.476553 24.140241 
L 62.169135 24.339898 
" clip-path="url(#p58b578f7df)"/>
    <path d="M 54.199377 53.625967 
L 52.473032 53.877495 
L 52.344515 54.266655 
L 50.814303 53.933954 
L 52.185964 53.178452 
L 52.420182 53.514761 
L 54.146527 53.263233 
L 54.199377 53.625967 
" clip-path="url(#p58b578f7df)"/>
    <path d="M 73.066763 30.938386 
L 71.581758 31.853966 
L 71.618124 32.26218 
L 70.081456 32.563659 
L 71.040987 31.326106 
L 71.389379 31.541941 
L 72.874384 30.626361 
L 73.066763 30.938386 
" clip-path="url(#p58b578f7df)"/>
    <path d="M 53.544186 52.833493 
L 51.841392 52.453976 
L 51.582756 52.771889 
L 50.27123 51.91624 
L 51.821985 51.698533 
L 51.921135 52.09619 
L 53.623929 52.475708 
L 53.544186 52.833493 
" clip-path="url(#p58b578f7df)"/>
    <path d="M 55.056943 99.467856 
L 54.257443 101.01845 
L 54.499255 101.349341 
L 53.338594 102.400581 
L 53.521838 100.845376 
L 53.931638 100.850462 
L 54.731137 99.299868 
L 55.056943 99.467856 
" clip-path="url(#p58b578f7df)"/>
    <path d="M 63.048965 45.230358 
L 64.779117 45.006506 
L 64.913849 44.619455 
L 66.438538 44.976616 
L 65.054954 45.710057 
L 64.826152 45.37004 
L 63.096 45.593892 
L 63.048965 45.230358 
" clip-path="url(#p58b578f7df)"/>
    <path d="M 46.726151 61.900827 
L 45.124782 62.593036 
L 45.101989 63.002232 
L 43.537924 63.079299 
L 44.665655 61.992809 
L 44.979337 62.256561 
L 46.580706 61.564352 
L 46.726151 61.900827 
" clip-path="url(#p58b578f7df)"/>
    <path d="M 44.814508 67.403581 
L 46.478797 66.880438 
L 46.543724 66.475783 
L 48.107386 66.560641 
L 46.873487 67.524868 
L 46.588718 67.230133 
L 44.924429 67.753276 
L 44.814508 67.403581 
" clip-path="url(#p58b578f7df)"/>
    <path d="M 42.375425 30.181829 
L 40.633269 30.273625 
L 40.469529 30.649325 
L 38.976371 30.177392 
L 40.411665 29.551156 
L 40.613981 29.907568 
L 42.356137 29.815772 
L 42.375425 30.181829 
" clip-path="url(#p58b578f7df)"/>
    <path d="M 62.945013 95.067238 
L 62.001103 96.534402 
L 62.210214 96.886871 
L 60.954475 97.822478 
L 61.285386 96.291878 
L 61.692828 96.336071 
L 62.636737 94.868907 
L 62.945013 95.067238 
" clip-path="url(#p58b578f7df)"/>
    <path d="M 59.456206 -1.50478 
L 58.960102 -3.177331 
L 58.556552 -3.248807 
L 58.666739 -4.810888 
L 59.610843 -3.561526 
L 59.311533 -3.281571 
L 59.807637 -1.60902 
L 59.456206 -1.50478 
" clip-path="url(#p58b578f7df)"/>
    <path d="M 88.650791 68.293421 
L 90.234144 69.025906 
L 90.554396 68.770171 
L 91.65429 69.884834 
L 90.092674 69.768238 
L 90.080237 69.358595 
L 88.496884 68.62611 
L 88.650791 68.293421 
" clip-path="url(#p58b578f7df)"/>
    <path d="M 54.39609 9.6226 
L 52.841033 8.831817 
L 52.511504 9.075482 
L 51.453766 7.92074 
L 53.009974 8.095252 
L 53.007189 8.505074 
L 54.562247 9.295857 
L 54.39609 9.6226 
" clip-path="url(#p58b578f7df)"/>
    <path d="M 32.296714 43.828499 
L 30.554275 43.914768 
L 30.389344 44.289947 
L 28.897691 43.813279 
L 30.334964 43.191599 
L 30.536149 43.548652 
L 32.278588 43.462383 
L 32.296714 43.828499 
" clip-path="url(#p58b578f7df)"/>
    <path d="M 47.462906 29.948708 
L 45.791776 29.44784 
L 45.51097 29.746352 
L 44.264302 28.798692 
L 45.826691 28.692956 
L 45.897017 29.096708 
L 47.568146 29.597575 
L 47.462906 29.948708 
" clip-path="url(#p58b578f7df)"/>
    <path d="M 49.432077 23.383306 
L 47.874664 22.597175 
L 47.545866 22.841824 
L 46.48468 21.690249 
L 48.041404 21.860108 
L 48.039844 22.269937 
L 49.597256 23.056068 
L 49.432077 23.383306 
" clip-path="url(#p58b578f7df)"/>
    <path d="M 55.828811 50.606139 
L 57.483089 50.052155 
L 57.540483 49.646363 
L 59.105452 49.702145 
L 57.889687 50.689138 
L 57.59949 50.399747 
L 55.945212 50.953731 
L 55.828811 50.606139 
" clip-path="url(#p58b578f7df)"/>
    <path d="M 93.012517 71.573322 
L 94.455853 72.553275 
L 94.813393 72.352958 
L 95.717614 73.631482 
L 94.195678 73.262767 
L 94.249948 72.856545 
L 92.806612 71.876592 
L 93.012517 71.573322 
" clip-path="url(#p58b578f7df)"/>
    <path d="M 60.996922 18.407431 
L 59.858606 17.085399 
L 59.461235 17.185687 
L 58.921189 15.715793 
L 60.294579 16.468149 
L 60.136387 16.846219 
L 61.274703 18.168252 
L 60.996922 18.407431 
" clip-path="url(#p58b578f7df)"/>
    <path d="M 30.491252 17.971599 
L 28.763706 18.214757 
L 28.633305 18.603289 
L 27.104723 18.263176 
L 28.48003 17.514331 
L 28.712615 17.851771 
L 30.44016 17.608613 
L 30.491252 17.971599 
" clip-path="url(#p58b578f7df)"/>
    <path d="M 34.054398 19.199637 
L 32.342152 18.865338 
L 32.092025 19.189989 
L 30.758302 18.369365 
L 32.30275 18.110675 
L 32.412394 18.505567 
L 34.12464 18.839865 
L 34.054398 19.199637 
" clip-path="url(#p58b578f7df)"/>
    <path d="M 57.811663 10.88505 
L 56.954269 9.365701 
L 56.544953 9.386234 
L 56.303203 7.839044 
L 57.502674 8.845776 
L 57.27351 9.185549 
L 58.130903 10.704897 
L 57.811663 10.88505 
" clip-path="url(#p58b578f7df)"/>
    <path d="M 45.931799 64.778996 
L 47.597588 64.260645 
L 47.663679 63.856177 
L 49.22709 63.945535 
L 47.990421 64.906207 
L 47.706502 64.610654 
L 46.040714 65.129006 
L 45.931799 64.778996 
" clip-path="url(#p58b578f7df)"/>
    <path d="M 127.142452 24.684272 
L 128.887026 24.685945 
L 129.07066 24.319557 
L 130.536389 24.87081 
L 129.069605 25.419249 
L 128.886675 25.052509 
L 127.1421 25.050836 
L 127.142452 24.684272 
" clip-path="url(#p58b578f7df)"/>
    <path d="M 46.260176 27.825385 
L 44.829253 26.827388 
L 44.469227 27.023201 
L 43.581128 25.733427 
L 45.098315 26.121219 
L 45.038949 26.526728 
L 46.469872 27.524725 
L 46.260176 27.825385 
" clip-path="url(#p58b578f7df)"/>
    <path d="M 56.289336 22.364443 
L 54.939679 21.259017 
L 54.565618 21.426468 
L 53.779679 20.072017 
L 55.262423 20.575712 
L 55.171948 20.975432 
L 56.521604 22.080857 
L 56.289336 22.364443 
" clip-path="url(#p58b578f7df)"/>
    <path d="M 93.229178 72.288405 
L 94.620919 73.340355 
L 94.988165 73.158443 
L 95.826329 74.481213 
L 94.325069 74.035727 
L 94.399887 73.632783 
L 93.008145 72.580833 
L 93.229178 72.288405 
" clip-path="url(#p58b578f7df)"/>
    <path d="M 48.090783 63.093934 
L 46.464917 63.726464 
L 46.427011 64.134538 
L 44.861166 64.153726 
L 46.028295 63.109673 
L 46.332011 63.384842 
L 47.957878 62.752312 
L 48.090783 63.093934 
" clip-path="url(#p58b578f7df)"/>
    <path d="M 86.043438 30.890117 
L 86.768176 29.303204 
L 86.510879 28.984205 
L 87.620153 27.878877 
L 87.51119 29.441044 
L 87.101613 29.455483 
L 86.376875 31.042397 
L 86.043438 30.890117 
" clip-path="url(#p58b578f7df)"/>
    <path d="M 121.37512 61.077736 
L 123.118755 61.020549 
L 123.289922 60.648174 
L 124.773415 61.149661 
L 123.32597 61.747275 
L 123.130771 61.386916 
L 121.387136 61.444103 
L 121.37512 61.077736 
" clip-path="url(#p58b578f7df)"/>
    <path d="M 52.394832 10.461665 
L 50.997317 9.417402 
L 50.631079 9.601335 
L 49.785638 8.283204 
L 51.28933 8.72041 
L 51.216734 9.123761 
L 52.61425 10.168023 
L 52.394832 10.461665 
" clip-path="url(#p58b578f7df)"/>
    <path d="M 55.775794 57.584339 
L 54.337959 58.57235 
L 54.3945 58.978262 
L 52.87465 59.355483 
L 53.771707 58.071922 
L 54.130361 58.270237 
L 55.568197 57.282226 
L 55.775794 57.584339 
" clip-path="url(#p58b578f7df)"/>
    <path d="M 74.484989 40.068452 
L 72.840359 40.650453 
L 72.789866 41.057162 
L 71.224175 41.027968 
L 72.423001 40.020468 
L 72.718071 40.304889 
L 74.362701 39.722887 
L 74.484989 40.068452 
" clip-path="url(#p58b578f7df)"/>
    <path d="M 116.829729 17.606598 
L 118.570699 17.718659 
L 118.777148 17.364625 
L 120.205058 18.007519 
L 118.706511 18.462046 
L 118.547153 18.084466 
L 116.806184 17.972406 
L 116.829729 17.606598 
" clip-path="url(#p58b578f7df)"/>
    <path d="M 124.391622 20.365308 
L 126.122768 20.149297 
L 126.259252 19.762859 
L 127.782307 20.126923 
L 126.395415 20.85409 
L 126.168155 20.51304 
L 124.43701 20.729052 
L 124.391622 20.365308 
" clip-path="url(#p58b578f7df)"/>
    <path d="M 64.470294 11.510897 
L 62.885489 10.781564 
L 62.565747 11.037935 
L 61.463638 9.925463 
L 63.025483 10.038953 
L 63.038735 10.44857 
L 64.623539 11.177903 
L 64.470294 11.510897 
" clip-path="url(#p58b578f7df)"/>
    <path d="M 15.44571 41.754902 
L 13.804011 42.345126 
L 13.755553 42.752082 
L 12.189735 42.730723 
L 13.383505 41.717237 
L 13.679995 42.000178 
L 15.321694 41.409954 
L 15.44571 41.754902 
" clip-path="url(#p58b578f7df)"/>
    <path d="M 12.089203 78.295571 
L 10.449423 78.891101 
L 10.402281 79.298212 
L 8.836403 79.281916 
L 10.026888 78.264575 
L 10.324292 78.546555 
L 11.964072 77.951026 
L 12.089203 78.295571 
" clip-path="url(#p58b578f7df)"/>
    <path d="M 120.618392 65.813295 
L 122.314981 65.406929 
L 122.407838 65.007756 
L 123.961838 65.200941 
L 122.66399 66.0772 
L 122.400365 65.763411 
L 120.703776 66.169777 
L 120.618392 65.813295 
" clip-path="url(#p58b578f7df)"/>
    <path d="M 41.517138 72.649354 
L 43.260307 72.579385 
L 43.42874 72.205765 
L 44.915869 72.696362 
L 43.472845 73.304573 
L 43.275009 72.945654 
L 41.53184 73.015624 
L 41.517138 72.649354 
" clip-path="url(#p58b578f7df)"/>
    <path d="M 73.076751 55.074581 
L 71.58009 55.970986 
L 71.611203 56.379634 
L 70.070784 56.661323 
L 71.046154 55.436213 
L 71.391741 55.656512 
L 72.888401 54.760108 
L 73.076751 55.074581 
" clip-path="url(#p58b578f7df)"/>
    <path d="M 37.151952 44.456895 
L 35.429582 44.734353 
L 35.306932 45.125401 
L 33.77189 44.815747 
L 35.132036 44.039705 
L 35.371284 44.372455 
L 37.093653 44.094997 
L 37.151952 44.456895 
" clip-path="url(#p58b578f7df)"/>
    <path d="M 83.831249 79.148446 
L 83.69139 80.887404 
L 84.042081 81.099483 
L 83.376458 82.51694 
L 82.945928 81.011323 
L 83.326006 80.858018 
L 83.465864 79.119059 
L 83.831249 79.148446 
" clip-path="url(#p58b578f7df)"/>
    <path d="M 73.999543 47.336589 
L 72.419273 48.075703 
L 72.408552 48.485394 
L 70.847439 48.608532 
L 71.942652 47.489271 
L 72.263973 47.743662 
L 73.844243 47.004548 
L 73.999543 47.336589 
" clip-path="url(#p58b578f7df)"/>
    <path d="M 10.599713 41.604954 
L 8.89303 41.966585 
L 8.789714 42.363179 
L 7.241328 42.129214 
L 8.56176 41.287373 
L 8.817046 41.607983 
L 10.523728 41.246352 
L 10.599713 41.604954 
" clip-path="url(#p58b578f7df)"/>
    <path d="M 55.149329 18.574899 
L 53.714469 17.582568 
L 53.35522 17.779803 
L 52.462026 16.493551 
L 53.980735 16.87534 
L 53.922974 17.28108 
L 55.357834 18.273411 
L 55.149329 18.574899 
" clip-path="url(#p58b578f7df)"/>
    <path d="M 55.21972 64.858938 
L 53.561346 65.400537 
L 53.500919 65.805889 
L 51.936411 65.738407 
L 53.159522 64.760532 
L 53.447547 65.052085 
L 55.105921 64.510486 
L 55.21972 64.858938 
" clip-path="url(#p58b578f7df)"/>
    <path d="M 77.336839 33.367342 
L 75.78239 34.15932 
L 75.78549 34.569139 
L 74.229416 34.744847 
L 75.286267 33.589292 
L 75.615983 33.832704 
L 77.170431 33.040727 
L 77.336839 33.367342 
" clip-path="url(#p58b578f7df)"/>
    <path d="M 93.859329 54.031831 
L 95.601808 53.946312 
L 95.7669 53.571204 
L 97.258348 54.048514 
L 95.820807 54.669575 
L 95.619776 54.312436 
L 93.877298 54.397954 
L 93.859329 54.031831 
" clip-path="url(#p58b578f7df)"/>
    <path d="M 50.719201 11.079951 
L 49.176814 10.264731 
L 48.843483 10.503167 
L 47.804095 9.331879 
L 49.357357 9.530923 
L 49.348106 9.94065 
L 50.890492 10.75587 
L 50.719201 11.079951 
" clip-path="url(#p58b578f7df)"/>
    <path d="M 115.02345 18.302662 
L 116.7668 18.368024 
L 116.963687 18.008584 
L 118.408313 18.612979 
L 116.922486 19.107505 
L 116.753066 18.734331 
L 115.009716 18.668969 
L 115.02345 18.302662 
" clip-path="url(#p58b578f7df)"/>
    <path d="M 55.462333 40.96891 
L 56.952637 40.061974 
L 56.918643 39.653555 
L 58.457038 39.361012 
L 57.490331 40.592968 
L 57.143199 40.375112 
L 55.652895 41.282048 
L 55.462333 40.96891 
" clip-path="url(#p58b578f7df)"/>
    <path d="M 52.499941 11.544525 
L 51.05308 10.569773 
L 50.696264 10.771377 
L 49.787444 9.496118 
L 51.310698 9.859349 
L 51.257892 10.265764 
L 52.704752 11.240516 
L 52.499941 11.544525 
" clip-path="url(#p58b578f7df)"/>
    <path d="M 44.005553 27.863425 
L 42.334375 27.362721 
L 42.053598 27.661261 
L 40.806838 26.713722 
L 42.369217 26.607834 
L 42.439582 27.011579 
L 44.110759 27.512283 
L 44.005553 27.863425 
" clip-path="url(#p58b578f7df)"/>
    <path d="M 118.309398 28.190378 
L 120.039736 28.412786 
L 120.268255 28.072578 
L 121.65245 28.804864 
L 120.12806 29.163298 
L 119.993005 28.776359 
L 118.262666 28.553951 
L 118.309398 28.190378 
" clip-path="url(#p58b578f7df)"/>
    <path d="M 119.688974 29.230166 
L 121.433034 29.272399 
L 121.625136 28.910379 
L 123.077652 29.495559 
L 121.598515 30.009749 
L 121.42416 29.638855 
L 119.6801 29.596623 
L 119.688974 29.230166 
" clip-path="url(#p58b578f7df)"/>
    <path d="M 62.279527 88.211613 
L 61.457499 89.750382 
L 61.694459 90.084765 
L 60.51859 91.118966 
L 60.724496 89.566599 
L 61.134178 89.57766 
L 61.956206 88.038891 
L 62.279527 88.211613 
" clip-path="url(#p58b578f7df)"/>
    <path d="M 52.382929 15.867098 
L 50.96925 14.844824 
L 50.605934 15.034463 
L 49.739978 13.729718 
L 51.250325 14.14335 
L 51.184047 14.547786 
L 52.597726 15.57006 
L 52.382929 15.867098 
" clip-path="url(#p58b578f7df)"/>
    <path d="M 126.087984 22.583641 
L 127.794809 22.222703 
L 127.898286 21.82615 
L 129.446578 22.060743 
L 128.125804 22.90205 
L 127.870648 22.581336 
L 126.163823 22.942274 
L 126.087984 22.583641 
" clip-path="url(#p58b578f7df)"/>
    <path d="M 95.157712 17.346871 
L 96.212782 15.957496 
L 96.031695 15.589842 
L 97.356344 14.75465 
L 96.907488 16.254906 
L 96.504713 16.179184 
L 95.449643 17.568559 
L 95.157712 17.346871 
" clip-path="url(#p58b578f7df)"/>
    <path d="M 38.694025 55.625469 
L 40.253997 54.844427 
L 40.253775 54.434596 
L 41.811045 54.269821 
L 40.746105 55.417925 
L 40.418107 55.172203 
L 38.858135 55.953245 
L 38.694025 55.625469 
" clip-path="url(#p58b578f7df)"/>
    <path d="M 126.638113 8.073846 
L 128.322337 7.618941 
L 128.403696 7.217267 
L 129.962602 7.36576 
L 128.690444 8.278916 
L 128.41792 7.972824 
L 126.733695 8.427729 
L 126.638113 8.073846 
" clip-path="url(#p58b578f7df)"/>
    <path d="M 40.845009 41.073927 
L 39.117445 40.830895 
L 38.884885 41.168353 
L 37.509523 40.419608 
L 39.03808 40.079383 
L 39.16851 40.467905 
L 40.896074 40.710937 
L 40.845009 41.073927 
" clip-path="url(#p58b578f7df)"/>
    <path d="M 51.456663 14.946625 
L 50.107922 13.840085 
L 49.733722 14.007227 
L 48.948903 12.652126 
L 50.431231 13.157047 
L 50.340425 13.556692 
L 51.689165 14.663232 
L 51.456663 14.946625 
" clip-path="url(#p58b578f7df)"/>
    <path d="M 62.223332 14.239893 
L 60.723833 13.348243 
L 60.378947 13.569638 
L 59.399694 12.347631 
L 60.940999 12.624428 
L 60.911183 13.033173 
L 62.410683 13.924823 
L 62.223332 14.239893 
" clip-path="url(#p58b578f7df)"/>
    <path d="M 79.952947 43.154051 
L 78.342504 43.824877 
L 78.314265 44.233734 
L 76.749312 44.289969 
L 77.891409 43.21859 
L 78.201552 43.486496 
L 79.811995 42.81567 
L 79.952947 43.154051 
" clip-path="url(#p58b578f7df)"/>
    <path d="M 49.839218 58.382814 
L 48.134567 58.011725 
L 47.877508 58.330914 
L 46.561764 57.481763 
L 48.111424 57.256388 
L 48.212539 57.653549 
L 49.91719 58.024638 
L 49.839218 58.382814 
" clip-path="url(#p58b578f7df)"/>
    <path d="M 70.689774 49.068236 
L 72.434341 49.062386 
L 72.616393 48.695209 
L 74.084485 49.240136 
L 72.62008 49.794896 
L 72.43557 49.428948 
L 70.691003 49.434798 
L 70.689774 49.068236 
" clip-path="url(#p58b578f7df)"/>
    <path d="M 33.097541 45.836498 
L 31.358758 45.978509 
L 31.205923 46.358776 
L 29.699774 45.930111 
L 31.116406 45.262733 
L 31.328919 45.613161 
L 33.067702 45.47115 
L 33.097541 45.836498 
" clip-path="url(#p58b578f7df)"/>
    <path d="M 120.16935 81.59624 
L 121.911176 81.694147 
L 122.114741 81.338446 
L 123.547829 81.969713 
L 122.053025 82.436405 
L 121.890604 82.060133 
L 120.148778 81.962226 
L 120.16935 81.59624 
" clip-path="url(#p58b578f7df)"/>
    <path d="M 47.101021 22.291538 
L 45.685057 21.272428 
L 45.322166 21.46288 
L 44.453294 20.160075 
L 45.964562 20.570327 
L 45.899189 20.974911 
L 47.315153 21.994021 
L 47.101021 22.291538 
" clip-path="url(#p58b578f7df)"/>
    <path d="M 75.493601 6.730619 
L 74.822669 5.120221 
L 74.41381 5.09201 
L 74.357471 3.527061 
L 75.428925 4.669087 
L 75.161041 4.979247 
L 75.831973 6.589645 
L 75.493601 6.730619 
" clip-path="url(#p58b578f7df)"/>
    <path d="M 58.578408 65.815112 
L 56.933182 66.395429 
L 56.882272 66.802086 
L 55.316612 66.77129 
L 56.516468 65.765018 
L 56.811248 66.04974 
L 58.456474 65.469422 
L 58.578408 65.815112 
" clip-path="url(#p58b578f7df)"/>
    <path d="M 18.40332 94.884608 
L 16.825787 95.629543 
L 16.816577 96.039271 
L 15.255928 96.168165 
L 16.347007 95.044872 
L 16.669264 95.298077 
L 18.246796 94.553142 
L 18.40332 94.884608 
" clip-path="url(#p58b578f7df)"/>
    <path d="M 70.326838 46.932438 
L 68.979694 48.040923 
L 69.071076 48.440436 
L 67.589479 48.947495 
L 68.372342 47.591263 
L 68.746782 47.757865 
L 70.093926 46.64938 
L 70.326838 46.932438 
" clip-path="url(#p58b578f7df)"/>
    <path d="M 58.013034 58.383607 
L 56.277304 58.559053 
L 56.131816 58.942191 
L 54.617696 58.54259 
L 56.021223 57.848074 
L 56.24044 58.194348 
L 57.976169 58.018901 
L 58.013034 58.383607 
" clip-path="url(#p58b578f7df)"/>
    <path d="M 63.502157 44.322291 
L 65.185954 43.86582 
L 65.266938 43.46407 
L 66.825982 43.611112 
L 65.554675 44.525452 
L 65.281866 44.219614 
L 63.598069 44.676085 
L 63.502157 44.322291 
" clip-path="url(#p58b578f7df)"/>
    <path d="M 10.004543 55.712095 
L 8.316862 56.153995 
L 8.232408 56.55503 
L 6.674693 56.394518 
L 7.953856 55.491201 
L 8.224012 55.799385 
L 9.911692 55.357485 
L 10.004543 55.712095 
" clip-path="url(#p58b578f7df)"/>
    <path d="M 126.333997 64.413068 
L 128.004364 63.909668 
L 128.074077 63.505809 
L 129.636625 63.609175 
L 128.391396 64.558725 
L 128.110137 64.26064 
L 126.43977 64.76404 
L 126.333997 64.413068 
" clip-path="url(#p58b578f7df)"/>
    <path d="M 125.197105 32.65045 
L 126.938095 32.538682 
L 127.097516 32.161129 
L 128.595987 32.615909 
L 127.167969 33.258562 
L 126.961579 32.904494 
L 125.220589 33.016261 
L 125.197105 32.65045 
" clip-path="url(#p58b578f7df)"/>
    <path d="M 54.979715 61.885875 
L 53.257403 61.608056 
L 53.018086 61.940755 
L 51.658102 61.164428 
L 53.193209 60.855096 
L 53.315778 61.24617 
L 55.038089 61.523988 
L 54.979715 61.885875 
" clip-path="url(#p58b578f7df)"/>
    <path d="M 33.157267 17.250487 
L 31.426563 17.030947 
L 31.198609 17.371533 
L 29.813202 16.641543 
L 31.336995 16.280583 
L 31.472691 16.667297 
L 33.203396 16.886836 
L 33.157267 17.250487 
" clip-path="url(#p58b578f7df)"/>
    <path d="M 110.064291 90.177539 
L 111.807402 90.106049 
L 111.975509 89.732282 
L 113.463066 90.221582 
L 112.020573 90.831051 
L 111.822423 90.472306 
L 110.079312 90.543796 
L 110.064291 90.177539 
" clip-path="url(#p58b578f7df)"/>
    <path d="M 55.245162 50.708314 
L 56.959028 50.382427 
L 57.07061 49.988078 
L 58.613769 50.25435 
L 57.276032 51.068414 
L 57.027502 50.742539 
L 55.313636 51.068426 
L 55.245162 50.708314 
" clip-path="url(#p58b578f7df)"/>
    <path d="M 68.514525 41.505393 
L 66.847561 42.019956 
L 66.780551 42.424271 
L 65.217347 42.331359 
L 66.456197 41.373502 
L 66.739443 41.669699 
L 68.406407 41.155136 
L 68.514525 41.505393 
" clip-path="url(#p58b578f7df)"/>
    <path d="M 39.62123 41.943088 
L 37.983026 42.542938 
L 37.936957 42.950172 
L 36.371042 42.938005 
L 37.558841 41.917529 
L 37.856987 42.198724 
L 39.495191 41.598874 
L 39.62123 41.943088 
" clip-path="url(#p58b578f7df)"/>
    <path d="M 42.797832 26.141701 
L 41.088498 25.792822 
L 40.835613 26.115329 
L 39.508933 25.283368 
L 41.055529 25.03785 
L 41.161803 25.433662 
L 42.871138 25.782542 
L 42.797832 26.141701 
" clip-path="url(#p58b578f7df)"/>
    <path d="M 74.443327 37.475028 
L 72.928541 38.340454 
L 72.95124 38.749656 
L 71.405352 38.999595 
L 72.405719 37.79481 
L 72.7467 38.022172 
L 74.261486 37.156747 
L 74.443327 37.475028 
" clip-path="url(#p58b578f7df)"/>
    <path d="M 43.8495 17.612506 
L 45.584694 17.79318 
L 45.804954 17.447568 
L 47.206382 18.146308 
L 45.691066 18.541348 
L 45.546732 18.157773 
L 43.811538 17.977099 
L 43.8495 17.612506 
" clip-path="url(#p58b578f7df)"/>
    <path d="M 111.418611 85.416368 
L 113.089429 85.91828 
L 113.370422 85.619943 
L 114.616497 86.568383 
L 113.054042 86.673142 
L 112.983969 86.269346 
L 111.313151 85.767434 
L 111.418611 85.416368 
" clip-path="url(#p58b578f7df)"/>
    <path d="M 115.611601 82.918755 
L 117.355304 82.973905 
L 117.550082 82.613318 
L 118.998224 83.209242 
L 117.515318 83.712461 
L 117.343716 83.340286 
L 115.600014 83.285136 
L 115.611601 82.918755 
" clip-path="url(#p58b578f7df)"/>
    <path d="M 61.239025 83.96297 
L 59.841411 85.007103 
L 59.913969 85.41046 
L 58.410236 85.847526 
L 59.2558 84.529474 
L 59.622021 84.713441 
L 61.019636 83.669308 
L 61.239025 83.96297 
" clip-path="url(#p58b578f7df)"/>
    <path d="M 29.080345 55.756328 
L 27.344172 55.927318 
L 27.1977 56.310081 
L 25.684611 55.906592 
L 27.089917 55.215683 
L 27.308244 55.562518 
L 29.044417 55.391529 
L 29.080345 55.756328 
" clip-path="url(#p58b578f7df)"/>
    <path d="M 128.52714 65.010076 
L 130.248645 64.727298 
L 130.370087 64.335873 
L 131.906078 64.640782 
L 130.548336 65.421023 
L 130.308061 65.089014 
L 128.586556 65.371793 
L 128.52714 65.010076 
" clip-path="url(#p58b578f7df)"/>
    <path d="M 51.390482 53.024088 
L 49.651263 53.160649 
L 49.497237 53.540435 
L 47.992439 53.107051 
L 49.411156 52.444117 
L 49.622569 52.795209 
L 51.361788 52.658648 
L 51.390482 53.024088 
" clip-path="url(#p58b578f7df)"/>
    <path d="M 55.116836 66.264138 
L 53.385721 66.480412 
L 53.249296 66.86687 
L 51.726185 66.503038 
L 53.112967 65.775661 
L 53.340278 66.116676 
L 55.071393 65.900401 
L 55.116836 66.264138 
" clip-path="url(#p58b578f7df)"/>
    <path d="M 125.385423 37.439218 
L 127.115246 37.665602 
L 127.344545 37.32592 
L 128.727054 38.061386 
L 127.201844 38.416315 
L 127.067679 38.029067 
L 125.337856 37.802683 
L 125.385423 37.439218 
" clip-path="url(#p58b578f7df)"/>
    <path d="M 53.26926 93.804161 
L 54.988635 94.099596 
L 55.231346 93.769364 
L 56.583312 94.559572 
L 55.045119 94.853173 
L 54.92656 94.460866 
L 53.207184 94.165431 
L 53.26926 93.804161 
" clip-path="url(#p58b578f7df)"/>
    <path d="M 80.877501 26.240143 
L 79.309827 27.00561 
L 79.305968 27.415423 
L 77.747134 27.564681 
L 78.823455 26.42724 
L 79.14899 26.676216 
L 80.716664 25.910748 
L 80.877501 26.240143 
" clip-path="url(#p58b578f7df)"/>
    <path d="M 61.188671 86.385197 
L 62.912945 86.650555 
L 63.14985 86.316134 
L 64.515412 87.082606 
L 62.982582 87.40303 
L 62.857189 87.012853 
L 61.132915 86.747496 
L 61.188671 86.385197 
" clip-path="url(#p58b578f7df)"/>
    <path d="M 61.077858 15.986335 
L 59.658871 14.971438 
L 59.296548 15.162967 
L 58.423807 13.86275 
L 59.936288 14.268509 
L 59.872118 14.673285 
L 61.291105 15.688183 
L 61.077858 15.986335 
" clip-path="url(#p58b578f7df)"/>
    <path d="M 63.100144 90.83551 
L 64.655287 91.626125 
L 64.984789 91.382424 
L 66.042652 92.537052 
L 64.486424 92.362708 
L 64.489165 91.952886 
L 62.934023 91.162271 
L 63.100144 90.83551 
" clip-path="url(#p58b578f7df)"/>
    <path d="M 61.182636 7.549395 
L 59.876486 6.392885 
L 59.496262 6.545828 
L 58.76299 5.162155 
L 60.225268 5.722497 
L 60.119488 6.118442 
L 61.425638 7.274952 
L 61.182636 7.549395 
" clip-path="url(#p58b578f7df)"/>
    <path d="M 39.459009 63.733895 
L 41.014727 62.944413 
L 41.012285 62.534589 
L 42.568639 62.361379 
L 41.509935 63.515236 
L 41.180611 63.271295 
L 39.624893 64.060777 
L 39.459009 63.733895 
" clip-path="url(#p58b578f7df)"/>
    <path d="M 127.349478 52.924931 
L 129.009858 53.460344 
L 129.296794 53.167719 
L 130.523542 54.141028 
L 128.959296 54.214342 
L 128.897358 53.809218 
L 127.236978 53.273805 
L 127.349478 52.924931 
" clip-path="url(#p58b578f7df)"/>
   </g>
  </g>
 </g>
 <defs>
  <clipPath id="p58b578f7df">
   <rect x="7.2" y="7.2" width="86.4" height="86.4"/>
  </clipPath>
 </defs>
</svg>
