<?xml version="1.0" encoding="utf-8" standalone="no"?>
<!DOCTYPE svg PUBLIC "-//W3C//DTD SVG 1.1//EN"
  "http://www.w3.org/Graphics/SVG/1.1/DTD/svg11.dtd">
<svg xmlns:xlink="http://www.w3.org/1999/xlink" width="100.8pt" height="100.8pt" viewBox="0 0 100.8 100.8" xmlns="http://www.w3.org/2000/svg" version="1.1">
 <metadata>
  <rdf:RDF xmlns:dc="http://purl.org/dc/elements/1.1/" xmlns:cc="http://creativecommons.org/ns#" xmlns:rdf="http://www.w3.org/1999/02/22-rdf-syntax-ns#">
   <cc:Work>
    <dc:type rdf:resource="http://purl.org/dc/dcmitype/StillImage"/>
    <dc:date>2025-09-10T17:09:17.750984</dc:date>
    <dc:format>image/svg+xml</dc:format>
    <dc:creator>
     <cc:Agent>
      <dc:title>Matplotlib v3.10.5, https://matplotlib.org/</dc:title>
     </cc:Agent>
    </dc:creator>
   </cc:Work>
  </rdf:RDF>
 </metadata>
 <defs>
  <style type="text/css">*{stroke-linejoin: round; stroke-linecap: butt}</style>
 </defs>
 <g id="figure_1">
  <g id="patch_1">
   <path d="M 0 100.8 
L 100.8 100.8 
L 100.8 0 
L 0 0 
z
" style="fill: #ffffff"/>
  </g>
  <g id="axes_1">
   <g id="Quiver_1">
    <path d="M 48.160385 75.744871 
L 49.840468 76.214823 
L 50.115719 75.911182 
L 51.379657 76.835682 
L 49.819485 76.970223 
L 49.741723 76.567837 
L 48.06164 76.097884 
L 48.160385 75.744871 
" clip-path="url(#p56e82cc873)"/>
    <path d="M 91.643528 86.921989 
L 93.383096 87.05402 
L 93.593594 86.702378 
L 95.014033 87.361614 
L 93.510369 87.798916 
L 93.355354 87.419532 
L 91.615786 87.287502 
L 91.643528 86.921989 
" clip-path="url(#p56e82cc873)"/>
    <path d="M 67.946284 67.563066 
L 69.661906 67.879585 
L 69.908652 67.552358 
L 71.250815 68.359103 
L 69.709134 68.633799 
L 69.5954 68.240066 
L 67.879778 67.923546 
L 67.946284 67.563066 
" clip-path="url(#p56e82cc873)"/>
    <path d="M 52.815397 59.598645 
L 54.54401 59.363201 
L 54.676145 58.975255 
L 56.203193 59.322187 
L 54.824557 60.064886 
L 54.593481 59.726411 
L 52.864868 59.961856 
L 52.815397 59.598645 
" clip-path="url(#p56e82cc873)"/>
    <path d="M 70.769624 24.965623 
L 72.47715 25.323234 
L 72.73168 25.002024 
L 74.054091 25.840754 
L 72.50626 26.078364 
L 72.40201 25.682014 
L 70.694484 25.324404 
L 70.769624 24.965623 
" clip-path="url(#p56e82cc873)"/>
    <path d="M 76.548791 66.159544 
L 78.261834 66.489718 
L 78.511179 66.164466 
L 79.846874 66.981876 
L 78.303054 67.244285 
L 78.192459 66.849658 
L 76.479416 66.519484 
L 76.548791 66.159544 
" clip-path="url(#p56e82cc873)"/>
    <path d="M 53.570189 50.595481 
L 55.286566 50.283086 
L 55.401247 49.889627 
L 56.942263 50.168029 
L 55.598165 50.971545 
L 55.352206 50.643726 
L 53.635829 50.956121 
L 53.570189 50.595481 
" clip-path="url(#p56e82cc873)"/>
    <path d="M 65.661058 29.318525 
L 67.399873 29.176873 
L 67.552786 28.796638 
L 69.058846 29.225615 
L 67.642076 29.892699 
L 67.429636 29.542227 
L 65.690822 29.683879 
L 65.661058 29.318525 
" clip-path="url(#p56e82cc873)"/>
    <path d="M 98.766972 61.819849 
L 100.508115 61.710496 
L 100.66806 61.333164 
L 102.165899 61.790021 
L 100.736991 62.430694 
L 100.531092 62.076339 
L 98.789949 62.185693 
L 98.766972 61.819849 
" clip-path="url(#p56e82cc873)"/>
    <path d="M 66.835232 63.447023 
L 68.529811 63.861671 
L 68.794965 63.549173 
L 70.088518 64.431761 
L 68.533592 64.617353 
L 68.442686 64.217731 
L 66.748108 63.803083 
L 66.835232 63.447023 
" clip-path="url(#p56e82cc873)"/>
    <path d="M 35.787085 51.787648 
L 37.518503 52.001506 
L 37.745338 51.660174 
L 39.133133 52.385613 
L 37.610533 52.751572 
L 37.473568 52.365305 
L 35.74215 52.151448 
L 35.787085 51.787648 
" clip-path="url(#p56e82cc873)"/>
    <path d="M 77.624234 45.443339 
L 75.898385 45.698263 
L 75.770634 46.087674 
L 74.23977 45.757985 
L 75.609943 44.999785 
L 75.844821 45.335633 
L 77.57067 45.080709 
L 77.624234 45.443339 
" clip-path="url(#p56e82cc873)"/>
    <path d="M 64.380925 85.347334 
L 66.125452 85.334504 
L 66.306034 84.966602 
L 67.776294 85.505651 
L 66.314121 86.066265 
L 66.128148 85.701059 
L 64.38362 85.713888 
L 64.380925 85.347334 
" clip-path="url(#p56e82cc873)"/>
    <path d="M 29.560466 57.247675 
L 27.829185 57.462636 
L 27.692467 57.84899 
L 26.169633 57.484001 
L 27.556966 56.757677 
L 27.784019 57.098865 
L 29.5153 56.883904 
L 29.560466 57.247675 
" clip-path="url(#p56e82cc873)"/>
    <path d="M 64.745455 56.901358 
L 66.473997 57.137325 
L 66.705176 56.79892 
L 68.083587 57.542036 
L 66.556434 57.888507 
L 66.424417 57.500521 
L 64.695875 57.264554 
L 64.745455 56.901358 
" clip-path="url(#p56e82cc873)"/>
    <path d="M 60.357131 47.982884 
L 62.087693 48.203555 
L 62.31587 47.863118 
L 63.700799 48.594014 
L 62.17677 48.953978 
L 62.041327 48.567175 
L 60.310764 48.346504 
L 60.357131 47.982884 
" clip-path="url(#p56e82cc873)"/>
    <path d="M 76.351909 72.346571 
L 74.612392 72.479295 
L 74.457528 72.858741 
L 72.95369 72.422039 
L 74.373865 71.762235 
L 74.584504 72.113793 
L 76.324022 71.981069 
L 76.351909 72.346571 
" clip-path="url(#p56e82cc873)"/>
    <path d="M 55.807441 58.314281 
L 57.521752 57.990735 
L 57.633872 57.596539 
L 59.176666 57.864917 
L 57.837819 58.677154 
L 57.589734 58.35094 
L 55.875423 58.674486 
L 55.807441 58.314281 
" clip-path="url(#p56e82cc873)"/>
    <path d="M 79.669734 43.956247 
L 77.937443 44.162905 
L 77.798874 44.5486 
L 76.277808 44.176314 
L 77.668607 43.45665 
L 77.894021 43.798922 
L 79.626311 43.592264 
L 79.669734 43.956247 
" clip-path="url(#p56e82cc873)"/>
    <path d="M 69.761084 30.529541 
L 70.691879 29.054019 
L 70.479635 28.703427 
L 71.726984 27.756664 
L 71.40973 29.290154 
L 71.00191 29.249594 
L 70.071115 30.725116 
L 69.761084 30.529541 
" clip-path="url(#p56e82cc873)"/>
    <path d="M 50.734477 18.220441 
L 52.473266 18.362386 
L 52.685765 18.01195 
L 54.102423 18.679273 
L 52.59629 19.107996 
L 52.443441 18.727735 
L 50.704652 18.58579 
L 50.734477 18.220441 
" clip-path="url(#p56e82cc873)"/>
    <path d="M 80.564561 35.194879 
L 82.198669 34.583951 
L 82.241979 34.176415 
L 83.807941 34.177981 
L 82.627078 35.206475 
L 82.327035 34.927305 
L 80.692928 35.538232 
L 80.564561 35.194879 
" clip-path="url(#p56e82cc873)"/>
    <path d="M 30.766797 66.74228 
L 29.034338 66.537027 
L 28.809202 66.879482 
L 27.417819 66.160947 
L 28.938583 65.787427 
L 29.077465 66.173009 
L 30.809924 66.378262 
L 30.766797 66.74228 
" clip-path="url(#p56e82cc873)"/>
    <path d="M 41.270269 29.048103 
L 39.570907 28.6535 
L 39.309462 28.969108 
L 38.005574 28.101861 
L 39.5582 27.897915 
L 39.653819 28.296436 
L 41.353181 28.691039 
L 41.270269 29.048103 
" clip-path="url(#p56e82cc873)"/>
    <path d="M 58.455062 38.889872 
L 60.167183 38.554938 
L 60.27668 38.160006 
L 61.821224 38.418122 
L 60.487806 39.239241 
L 60.237558 38.914684 
L 58.525437 39.249617 
L 58.455062 38.889872 
" clip-path="url(#p56e82cc873)"/>
    <path d="M 74.304871 22.938844 
L 76.00424 22.544284 
L 76.099869 22.145766 
L 77.652489 22.349751 
L 76.34858 23.216965 
L 76.087143 22.90135 
L 74.387774 23.29591 
L 74.304871 22.938844 
" clip-path="url(#p56e82cc873)"/>
    <path d="M 56.710371 47.123627 
L 58.409456 46.72784 
L 58.504798 46.329253 
L 60.057565 46.532116 
L 58.754282 47.400271 
L 58.492618 47.084846 
L 56.793532 47.480633 
L 56.710371 47.123627 
" clip-path="url(#p56e82cc873)"/>
    <path d="M 64.055018 46.606244 
L 65.737463 46.144821 
L 65.817266 45.742835 
L 67.376735 45.885289 
L 66.108124 46.803365 
L 65.834416 46.498331 
L 64.151971 46.959754 
L 64.055018 46.606244 
" clip-path="url(#p56e82cc873)"/>
    <path d="M 40.217845 19.11265 
L 41.959686 19.015021 
L 42.122167 18.638775 
L 43.616897 19.105705 
L 42.183708 19.736744 
L 41.9802 19.381011 
L 40.238359 19.47864 
L 40.217845 19.11265 
" clip-path="url(#p56e82cc873)"/>
    <path d="M 32.545798 48.727249 
L 30.828967 49.037136 
L 30.713712 49.430427 
L 29.173104 49.149776 
L 30.518374 48.348223 
L 30.763854 48.676401 
L 32.480685 48.366514 
L 32.545798 48.727249 
" clip-path="url(#p56e82cc873)"/>
    <path d="M 84.180799 59.408402 
L 85.920011 59.271763 
L 86.07402 58.89197 
L 87.578837 59.325286 
L 86.16015 59.988284 
L 85.948721 59.637201 
L 84.209509 59.77384 
L 84.180799 59.408402 
" clip-path="url(#p56e82cc873)"/>
    <path d="M 40.277373 55.144358 
L 42.014782 54.986421 
L 42.164126 54.60477 
L 43.67414 55.019617 
L 42.263682 55.699946 
L 42.047967 55.35148 
L 40.310558 55.509417 
L 40.277373 55.144358 
" clip-path="url(#p56e82cc873)"/>
    <path d="M 66.525287 34.738933 
L 68.160574 34.131169 
L 68.204673 33.723718 
L 69.770629 33.728314 
L 68.587777 34.754521 
L 68.288275 34.47477 
L 66.652988 35.082534 
L 66.525287 34.738933 
" clip-path="url(#p56e82cc873)"/>
    <path d="M 81.740628 26.706291 
L 83.484557 26.658827 
L 83.657798 26.287412 
L 85.138471 26.797163 
L 83.687717 27.386698 
L 83.49453 27.025256 
L 81.750601 27.072719 
L 81.740628 26.706291 
" clip-path="url(#p56e82cc873)"/>
    <path d="M 32.056656 55.900242 
L 30.312189 55.91952 
L 30.132969 56.288087 
L 28.660726 55.754477 
L 30.120817 55.188461 
L 30.308138 55.552978 
L 32.052606 55.5337 
L 32.056656 55.900242 
" clip-path="url(#p56e82cc873)"/>
    <path d="M 69.27502 66.501824 
L 71.014855 66.630316 
L 71.224638 66.278247 
L 72.646414 66.934593 
L 71.143643 67.374952 
L 70.987857 66.995885 
L 69.248021 66.867393 
L 69.27502 66.501824 
" clip-path="url(#p56e82cc873)"/>
    <path d="M 105.363382 22.985714 
L 107.103403 23.11164 
L 107.312666 22.759262 
L 108.735409 23.413511 
L 107.233288 23.856086 
L 107.076944 23.477248 
L 105.336923 23.351322 
L 105.363382 22.985714 
" clip-path="url(#p56e82cc873)"/>
    <path d="M 56.971644 48.579523 
L 58.71477 48.50848 
L 58.882973 48.134757 
L 60.370404 48.624438 
L 58.927755 49.233537 
L 58.729697 48.87474 
L 56.986571 48.945783 
L 56.971644 48.579523 
" clip-path="url(#p56e82cc873)"/>
    <path d="M 62.379316 50.183881 
L 64.073059 50.601939 
L 64.338842 50.289976 
L 65.630615 51.175166 
L 64.075319 51.357627 
L 63.985218 50.957823 
L 62.291475 50.539764 
L 62.379316 50.183881 
" clip-path="url(#p56e82cc873)"/>
    <path d="M 42.208657 15.458582 
L 43.948554 15.586242 
L 44.158169 15.234072 
L 45.580259 15.889738 
L 44.077698 16.330817 
L 43.921731 15.951823 
L 42.181834 15.824163 
L 42.208657 15.458582 
" clip-path="url(#p56e82cc873)"/>
    <path d="M 76.263995 41.751448 
L 74.6787 41.023176 
L 74.35913 41.279762 
L 73.256276 40.168028 
L 74.818196 40.280471 
L 74.831723 40.690079 
L 76.417017 41.418351 
L 76.263995 41.751448 
" clip-path="url(#p56e82cc873)"/>
    <path d="M 87.247196 76.788581 
L 88.991771 76.79079 
L 89.175517 76.424459 
L 90.641076 76.976161 
L 89.174124 77.52415 
L 88.991307 77.157354 
L 87.246731 77.155145 
L 87.247196 76.788581 
" clip-path="url(#p56e82cc873)"/>
    <path d="M 43.010939 71.112401 
L 44.754179 71.180632 
L 44.951657 70.821516 
L 46.395287 71.428287 
L 44.908648 71.920367 
L 44.739842 71.546915 
L 42.996602 71.478685 
L 43.010939 71.112401 
" clip-path="url(#p56e82cc873)"/>
    <path d="M 53.623678 82.807696 
L 55.366086 82.720779 
L 55.530878 82.345539 
L 57.022708 82.821652 
L 55.585666 83.443866 
L 55.384349 83.086888 
L 53.641941 83.173805 
L 53.623678 82.807696 
" clip-path="url(#p56e82cc873)"/>
    <path d="M 55.691929 56.873779 
L 57.436323 56.848748 
L 57.614327 56.479591 
L 59.088322 57.008343 
L 57.630105 57.579171 
L 57.441583 57.215274 
L 55.697188 57.240305 
L 55.691929 56.873779 
" clip-path="url(#p56e82cc873)"/>
    <path d="M 66.714173 61.773546 
L 68.364297 62.339794 
L 68.656634 62.052565 
L 69.86504 63.048554 
L 68.2997 63.09272 
L 68.245319 62.686512 
L 66.595195 62.120265 
L 66.714173 61.773546 
" clip-path="url(#p56e82cc873)"/>
    <path d="M 68.052458 85.024585 
L 69.769509 84.715929 
L 69.885046 84.32272 
L 71.425453 84.604477 
L 70.079608 85.405065 
L 69.834363 85.07671 
L 68.117312 85.385367 
L 68.052458 85.024585 
" clip-path="url(#p56e82cc873)"/>
    <path d="M 48.187335 14.794461 
L 49.931909 14.794282 
L 50.115153 14.427699 
L 51.581466 14.977394 
L 50.115266 15.527391 
L 49.931946 15.160846 
L 48.187372 15.161026 
L 48.187335 14.794461 
" clip-path="url(#p56e82cc873)"/>
    <path d="M 79.133692 21.325782 
L 80.867775 21.516835 
L 81.090098 21.172547 
L 82.487321 21.879659 
L 80.969668 22.265625 
L 80.827632 21.881194 
L 79.093548 21.690142 
L 79.133692 21.325782 
" clip-path="url(#p56e82cc873)"/>
    <path d="M 44.293471 74.190538 
L 42.559368 74.381404 
L 42.417291 74.765819 
L 40.899679 74.37969 
L 42.296978 73.672728 
L 42.519264 74.01704 
L 44.253367 73.826174 
L 44.293471 74.190538 
" clip-path="url(#p56e82cc873)"/>
    <path d="M 65.93296 51.758939 
L 64.24816 52.211692 
L 64.166289 52.613262 
L 62.607573 52.462779 
L 63.880896 51.551248 
L 64.153029 51.857687 
L 65.837829 51.404934 
L 65.93296 51.758939 
" clip-path="url(#p56e82cc873)"/>
    <path d="M 72.252122 45.48974 
L 70.55754 45.075102 
L 70.292387 45.387601 
L 68.998829 44.505021 
L 70.553754 44.31942 
L 70.644662 44.719042 
L 72.339244 45.133679 
L 72.252122 45.48974 
" clip-path="url(#p56e82cc873)"/>
    <path d="M 66.477752 61.052154 
L 68.153258 61.538186 
L 68.431407 61.237196 
L 69.686428 62.173766 
L 68.125037 62.29335 
L 68.051135 61.890237 
L 66.375629 61.404206 
L 66.477752 61.052154 
" clip-path="url(#p56e82cc873)"/>
    <path d="M 94.625093 71.015581 
L 96.325351 70.624865 
L 96.421881 70.226564 
L 97.974036 70.434059 
L 96.668169 71.298323 
L 96.407447 70.982118 
L 94.707189 71.372834 
L 94.625093 71.015581 
" clip-path="url(#p56e82cc873)"/>
    <path d="M 104.898008 26.447109 
L 106.548742 25.882653 
L 106.603564 25.476505 
L 108.168855 25.52237 
L 106.959369 26.517047 
L 106.667344 26.2295 
L 105.01661 26.793956 
L 104.898008 26.447109 
" clip-path="url(#p56e82cc873)"/>
    <path d="M 82.261892 18.344361 
L 84.001525 18.213144 
L 84.156717 17.833833 
L 85.660177 18.271838 
L 84.23943 18.93041 
L 84.029096 18.57867 
L 82.289463 18.709887 
L 82.261892 18.344361 
" clip-path="url(#p56e82cc873)"/>
    <path d="M 76.206162 67.358762 
L 77.837327 67.977498 
L 78.138702 67.699766 
L 79.314633 68.733896 
L 77.748682 68.727972 
L 77.707321 68.320233 
L 76.076156 67.701498 
L 76.206162 67.358762 
" clip-path="url(#p56e82cc873)"/>
    <path d="M 36.510948 32.906753 
L 34.784613 32.655137 
L 34.550379 32.991434 
L 33.178756 32.235862 
L 34.708985 31.903239 
L 34.837482 32.292405 
L 36.563817 32.544022 
L 36.510948 32.906753 
" clip-path="url(#p56e82cc873)"/>
    <path d="M 78.363149 68.498709 
L 76.621636 68.602028 
L 76.460385 68.978804 
L 74.964138 68.516759 
L 76.395258 67.881041 
L 76.599927 68.236107 
L 78.34144 68.132788 
L 78.363149 68.498709 
" clip-path="url(#p56e82cc873)"/>
    <path d="M 49.327352 77.913733 
L 47.658891 78.42342 
L 47.590699 78.827538 
L 46.027773 78.730055 
L 47.269418 77.775824 
L 47.551797 78.072849 
L 49.220258 77.563162 
L 49.327352 77.913733 
" clip-path="url(#p56e82cc873)"/>
    <path d="M 78.78521 43.385891 
L 77.040636 43.386144 
L 76.857407 43.752735 
L 75.391071 43.203101 
L 76.857248 42.653042 
L 77.040583 43.01958 
L 78.785157 43.019327 
L 78.78521 43.385891 
" clip-path="url(#p56e82cc873)"/>
    <path d="M 62.458551 43.213101 
L 64.194478 43.039624 
L 64.340402 42.656652 
L 65.854067 43.057971 
L 64.449753 43.750894 
L 64.230929 43.404371 
L 62.495001 43.577848 
L 62.458551 43.213101 
" clip-path="url(#p56e82cc873)"/>
    <path d="M 48.643211 74.241136 
L 46.898724 74.258462 
L 46.719092 74.626829 
L 45.247447 74.091572 
L 46.70817 73.52719 
L 46.895084 73.891916 
L 48.639571 73.87459 
L 48.643211 74.241136 
" clip-path="url(#p56e82cc873)"/>
    <path d="M 52.07449 61.646787 
L 53.774461 62.038758 
L 54.035416 61.722746 
L 55.340645 62.587972 
L 53.788337 62.794322 
L 53.692101 62.39595 
L 51.99213 62.003979 
L 52.07449 61.646787 
" clip-path="url(#p56e82cc873)"/>
    <path d="M 59.472747 41.642411 
L 61.21654 41.590159 
L 61.38876 41.218269 
L 62.870828 41.723953 
L 61.421697 42.317468 
L 61.227519 41.956558 
L 59.483726 42.00881 
L 59.472747 41.642411 
" clip-path="url(#p56e82cc873)"/>
    <path d="M 74.688799 20.46821 
L 76.411963 20.740677 
L 76.650246 20.407236 
L 78.012635 21.179334 
L 76.478497 21.493433 
L 76.354713 21.102743 
L 74.63155 20.830276 
L 74.688799 20.46821 
" clip-path="url(#p56e82cc873)"/>
    <path d="M 75.670646 59.709255 
L 77.404309 59.904063 
L 77.627377 59.560257 
L 79.023065 60.270394 
L 77.50458 60.653072 
L 77.363377 60.268334 
L 75.629714 60.073527 
L 75.670646 59.709255 
" clip-path="url(#p56e82cc873)"/>
    <path d="M 81.614407 49.961259 
L 83.288385 49.469995 
L 83.361028 49.066654 
L 84.922784 49.181359 
L 83.670696 50.121845 
L 83.391608 49.821726 
L 81.71763 50.31299 
L 81.614407 49.961259 
" clip-path="url(#p56e82cc873)"/>
    <path d="M 61.959072 34.549751 
L 63.661523 34.168697 
L 63.760314 33.770951 
L 65.311266 33.987259 
L 64.000511 34.844091 
L 63.741589 34.52641 
L 62.039137 34.907464 
L 61.959072 34.549751 
" clip-path="url(#p56e82cc873)"/>
    <path d="M 64.767783 57.347022 
L 66.501915 57.537608 
L 66.724145 57.193261 
L 68.121558 57.899998 
L 66.604009 58.286371 
L 66.461869 57.901978 
L 64.727737 57.711392 
L 64.767783 57.347022 
" clip-path="url(#p56e82cc873)"/>
    <path d="M 40.521175 24.602092 
L 38.785039 24.773452 
L 38.638649 25.156246 
L 37.125474 24.753082 
L 38.530632 24.061872 
L 38.749033 24.40866 
L 40.485169 24.2373 
L 40.521175 24.602092 
" clip-path="url(#p56e82cc873)"/>
    <path d="M 45.775855 19.603758 
L 47.451894 20.087941 
L 47.729711 19.786645 
L 48.985764 20.72183 
L 47.424506 20.843136 
L 47.350159 20.440105 
L 45.67412 19.955922 
L 45.775855 19.603758 
" clip-path="url(#p56e82cc873)"/>
    <path d="M 83.257739 24.605594 
L 84.926391 24.096524 
L 84.994733 23.692431 
L 86.557622 23.790492 
L 85.315624 24.744264 
L 85.033355 24.447135 
L 83.364703 24.956205 
L 83.257739 24.605594 
" clip-path="url(#p56e82cc873)"/>
    <path d="M 41.48396 69.347504 
L 43.218033 69.156369 
L 43.360051 68.771931 
L 44.877722 69.157824 
L 43.480533 69.865003 
L 43.258194 69.520726 
L 41.524121 69.711862 
L 41.48396 69.347504 
" clip-path="url(#p56e82cc873)"/>
    <path d="M 54.240646 48.483565 
L 55.979517 48.624518 
L 56.191816 48.273961 
L 57.608854 48.940476 
L 56.102966 49.370058 
L 55.9499 48.989884 
L 54.211029 48.84893 
L 54.240646 48.483565 
" clip-path="url(#p56e82cc873)"/>
    <path d="M 77.176244 66.03522 
L 78.916215 66.161834 
L 79.125617 65.809538 
L 80.548102 66.464349 
L 79.045807 66.906331 
L 78.889611 66.527431 
L 77.149641 66.400818 
L 77.176244 66.03522 
" clip-path="url(#p56e82cc873)"/>
    <path d="M 42.762688 27.913338 
L 41.067908 28.327177 
L 40.976812 28.726756 
L 39.421975 28.540422 
L 40.715948 27.658452 
L 40.980954 27.971076 
L 42.675734 27.557237 
L 42.762688 27.913338 
" clip-path="url(#p56e82cc873)"/>
    <path d="M 63.209667 80.111535 
L 64.950431 79.996308 
L 65.109101 79.618439 
L 66.608473 80.07024 
L 65.181735 80.71573 
L 64.974642 80.362072 
L 63.233878 80.477299 
L 63.209667 80.111535 
" clip-path="url(#p56e82cc873)"/>
    <path d="M 43.196912 28.173646 
L 44.801556 28.858224 
L 45.113979 28.592982 
L 46.246869 29.674092 
L 44.682455 29.604471 
L 44.657715 29.195387 
L 43.05307 28.510809 
L 43.196912 28.173646 
" clip-path="url(#p56e82cc873)"/>
    <path d="M 67.745167 32.215589 
L 69.362713 31.562076 
L 69.395336 31.153545 
L 70.960801 31.114099 
L 69.807278 32.173166 
L 69.500027 31.90195 
L 67.882482 32.555462 
L 67.745167 32.215589 
" clip-path="url(#p56e82cc873)"/>
    <path d="M 70.893109 47.69661 
L 69.149194 47.744536 
L 68.976051 48.115997 
L 67.495243 47.606639 
L 68.945841 47.01672 
L 69.139124 47.37811 
L 70.883039 47.330184 
L 70.893109 47.69661 
" clip-path="url(#p56e82cc873)"/>
    <path d="M 70.075058 66.922265 
L 71.817961 66.998599 
L 72.017107 66.640406 
L 73.457901 67.253882 
L 71.96899 67.739045 
L 71.801922 67.364812 
L 70.059018 67.288478 
L 70.075058 66.922265 
" clip-path="url(#p56e82cc873)"/>
    <path d="M 80.312504 26.45539 
L 78.568906 26.397099 
L 78.373478 26.757335 
L 76.926412 26.158803 
L 78.410222 25.658256 
L 78.581154 26.03074 
L 80.324752 26.089031 
L 80.312504 26.45539 
" clip-path="url(#p56e82cc873)"/>
    <path d="M 84.401249 52.83995 
L 86.005702 52.154915 
L 86.030326 51.745825 
L 87.594721 51.675759 
L 86.462138 52.757191 
L 86.149639 52.492038 
L 84.545186 53.177072 
L 84.401249 52.83995 
" clip-path="url(#p56e82cc873)"/>
    <path d="M 106.132223 31.290091 
L 107.854957 31.014886 
L 107.978119 30.623999 
L 109.512755 30.93566 
L 108.151594 31.709922 
L 107.912782 31.37686 
L 106.190048 31.652066 
L 106.132223 31.290091 
" clip-path="url(#p56e82cc873)"/>
    <path d="M 72.758714 39.836238 
L 71.054902 39.461321 
L 70.797126 39.779932 
L 69.483293 38.927828 
L 71.033455 38.705934 
L 71.133678 39.103322 
L 72.83749 39.478239 
L 72.758714 39.836238 
" clip-path="url(#p56e82cc873)"/>
    <path d="M 54.814908 48.645944 
L 56.5237 48.294416 
L 56.629361 47.898439 
L 58.176336 48.14156 
L 56.850947 48.975576 
L 56.597562 48.653461 
L 54.88877 49.00499 
L 54.814908 48.645944 
" clip-path="url(#p56e82cc873)"/>
    <path d="M 65.717977 23.57654 
L 67.461838 23.526608 
L 67.634553 23.154948 
L 69.115946 23.662602 
L 67.666028 24.25419 
L 67.472329 23.893022 
L 65.728468 23.942954 
L 65.717977 23.57654 
" clip-path="url(#p56e82cc873)"/>
    <path d="M 80.830814 29.891947 
L 82.408418 29.147157 
L 82.417666 28.73743 
L 83.978327 28.60868 
L 82.887144 29.731871 
L 82.564911 29.478637 
L 80.987307 30.223428 
L 80.830814 29.891947 
" clip-path="url(#p56e82cc873)"/>
    <path d="M 74.040984 41.82365 
L 72.296535 41.802853 
L 72.108897 42.167206 
L 70.649299 41.59992 
L 72.122006 41.067592 
L 72.300905 41.436315 
L 74.045354 41.457112 
L 74.040984 41.82365 
" clip-path="url(#p56e82cc873)"/>
    <path d="M 78.077305 54.24234 
L 76.366523 53.900628 
L 76.114992 54.224192 
L 74.784837 53.397799 
L 76.33039 53.145801 
L 76.438323 53.541164 
L 78.149105 53.882877 
L 78.077305 54.24234 
" clip-path="url(#p56e82cc873)"/>
    <path d="M 66.894476 68.846755 
L 68.637758 68.913827 
L 68.834998 68.554581 
L 70.279031 69.160393 
L 68.792718 69.65346 
L 68.623665 69.28012 
L 66.880383 69.213048 
L 66.894476 68.846755 
" clip-path="url(#p56e82cc873)"/>
    <path d="M 61.196532 30.270481 
L 62.940927 30.295378 
L 63.129422 29.931466 
L 64.587683 30.502181 
L 63.113729 31.031047 
L 62.935696 30.661904 
L 61.191301 30.637008 
L 61.196532 30.270481 
" clip-path="url(#p56e82cc873)"/>
    <path d="M 70.22835 70.709786 
L 71.961067 70.912843 
L 72.185768 70.570103 
L 73.578061 71.286874 
L 72.057772 71.662321 
L 71.918401 71.276916 
L 70.185685 71.073859 
L 70.22835 70.709786 
" clip-path="url(#p56e82cc873)"/>
    <path d="M 79.671779 83.619358 
L 81.326677 84.171494 
L 81.616551 83.881779 
L 82.833417 84.867413 
L 81.268512 84.924943 
L 81.210664 84.519215 
L 79.555766 83.96708 
L 79.671779 83.619358 
" clip-path="url(#p56e82cc873)"/>
    <path d="M 61.217624 38.049531 
L 62.919262 37.664874 
L 63.017211 37.266919 
L 64.568617 37.479942 
L 63.25968 38.339548 
L 63.000085 38.022417 
L 61.298447 38.407073 
L 61.217624 38.049531 
" clip-path="url(#p56e82cc873)"/>
    <path d="M 61.265947 52.693169 
L 62.954229 52.25358 
L 63.039232 51.852661 
L 64.596725 52.015305 
L 63.316327 52.91687 
L 63.046594 52.608316 
L 61.358312 53.047905 
L 61.265947 52.693169 
" clip-path="url(#p56e82cc873)"/>
    <path d="M 80.810662 40.341949 
L 82.552456 40.440353 
L 82.756123 40.084711 
L 84.189031 40.716387 
L 82.694094 41.182652 
L 82.53178 40.806334 
L 80.789985 40.707929 
L 80.810662 40.341949 
" clip-path="url(#p56e82cc873)"/>
    <path d="M 60.585314 53.996071 
L 62.320206 53.812532 
L 62.463907 53.42872 
L 63.979873 53.821256 
L 62.5796 54.522309 
L 62.358771 54.177062 
L 60.623878 54.360601 
L 60.585314 53.996071 
" clip-path="url(#p56e82cc873)"/>
    <path d="M 71.342847 87.823547 
L 73.022625 88.294596 
L 73.298074 87.991134 
L 74.561409 88.916459 
L 73.001149 89.049982 
L 72.923649 88.647545 
L 71.243872 88.176496 
L 71.342847 87.823547 
" clip-path="url(#p56e82cc873)"/>
    <path d="M 56.098089 47.469185 
L 57.687269 48.188936 
L 58.005458 47.930638 
L 59.114265 49.036435 
L 57.551763 48.932379 
L 57.536038 48.522849 
L 55.946857 47.803099 
L 56.098089 47.469185 
" clip-path="url(#p56e82cc873)"/>
    <path d="M 53.827833 60.603306 
L 55.545318 60.29706 
L 55.661407 59.904014 
L 57.201416 60.187933 
L 55.854449 60.98663 
L 55.609666 60.657932 
L 53.89218 60.964178 
L 53.827833 60.603306 
" clip-path="url(#p56e82cc873)"/>
    <path d="M 38.628619 71.561971 
L 36.884895 71.507488 
L 36.690254 71.868149 
L 35.241884 71.27278 
L 36.724597 70.768993 
L 36.896342 71.141102 
L 38.640067 71.195585 
L 38.628619 71.561971 
" clip-path="url(#p56e82cc873)"/>
    <path d="M 63.290365 29.351054 
L 64.70596 28.331432 
L 64.64044 27.926872 
L 66.15156 27.516073 
L 65.28316 28.819192 
L 64.9202 28.628872 
L 63.504605 29.648494 
L 63.290365 29.351054 
" clip-path="url(#p56e82cc873)"/>
    <path d="M 61.876584 78.869006 
L 60.151283 79.127607 
L 60.024362 79.51729 
L 58.492799 79.190863 
L 59.861353 78.429746 
L 60.096947 78.765092 
L 61.822247 78.506491 
L 61.876584 78.869006 
" clip-path="url(#p56e82cc873)"/>
    <path d="M 59.784627 10.334058 
L 61.527721 10.26225 
L 61.69576 9.888453 
L 63.183406 10.377481 
L 61.741024 10.987213 
L 61.542809 10.628504 
L 59.799715 10.700311 
L 59.784627 10.334058 
" clip-path="url(#p56e82cc873)"/>
    <path d="M 82.048741 59.682774 
L 83.757215 59.329705 
L 83.862519 58.933634 
L 85.409713 59.175359 
L 84.085076 60.01057 
L 83.831401 59.688684 
L 82.122927 60.041753 
L 82.048741 59.682774 
" clip-path="url(#p56e82cc873)"/>
    <path d="M 46.45708 11.846766 
L 44.895385 11.069176 
L 44.567931 11.315622 
L 43.500454 10.169877 
L 45.058085 10.331207 
L 45.058769 10.741038 
L 46.620465 11.518627 
L 46.45708 11.846766 
" clip-path="url(#p56e82cc873)"/>
    <path d="M 39.571198 43.70879 
L 41.303338 43.916723 
L 41.529004 43.574617 
L 42.919273 44.295304 
L 41.397933 44.66647 
L 41.259648 44.280674 
L 39.527508 44.072741 
L 39.571198 43.70879 
" clip-path="url(#p56e82cc873)"/>
    <path d="M 68.763465 31.313797 
L 70.455316 30.888149 
L 70.543624 30.487945 
L 72.099722 30.663431 
L 70.811931 31.554404 
L 70.544752 31.243635 
L 68.852901 31.669284 
L 68.763465 31.313797 
" clip-path="url(#p56e82cc873)"/>
    <path d="M 70.083944 27.200066 
L 71.369895 26.021134 
L 71.257282 25.627079 
L 72.709648 25.041527 
L 72.00042 26.437677 
L 71.617608 26.291334 
L 70.331657 27.470265 
L 70.083944 27.200066 
" clip-path="url(#p56e82cc873)"/>
    <path d="M 48.735561 50.810037 
L 50.464297 51.044571 
L 50.695195 50.705975 
L 52.074222 51.447948 
L 50.547356 51.795684 
L 50.415017 51.407808 
L 48.686281 51.173273 
L 48.735561 50.810037 
" clip-path="url(#p56e82cc873)"/>
    <path d="M 73.15663 63.65941 
L 74.858077 64.044927 
L 75.117832 63.727927 
L 76.426335 64.588194 
L 74.874821 64.800433 
L 74.777074 64.402429 
L 73.075627 64.016912 
L 73.15663 63.65941 
" clip-path="url(#p56e82cc873)"/>
    <path d="M 65.03208 26.417752 
L 66.748393 26.730495 
L 66.994419 26.402725 
L 68.338354 27.206514 
L 66.797281 27.484603 
L 66.682681 27.091121 
L 64.966367 26.778378 
L 65.03208 26.417752 
" clip-path="url(#p56e82cc873)"/>
    <path d="M 37.559574 17.368954 
L 39.294109 17.55584 
L 39.515604 17.211019 
L 40.914521 17.914773 
L 39.3978 18.304384 
L 39.254841 17.920295 
L 37.520306 17.733408 
L 37.559574 17.368954 
" clip-path="url(#p56e82cc873)"/>
    <path d="M 41.311297 17.710834 
L 43.045964 17.525192 
L 43.189199 17.141206 
L 44.70564 17.531905 
L 43.306218 18.234655 
L 43.08497 17.889675 
L 41.350303 18.075317 
L 41.311297 17.710834 
" clip-path="url(#p56e82cc873)"/>
    <path d="M 75.866282 17.457681 
L 77.595199 17.224493 
L 77.72784 16.83672 
L 79.254434 17.185644 
L 77.87483 17.926544 
L 77.644196 17.587768 
L 75.915279 17.820956 
L 75.866282 17.457681 
" clip-path="url(#p56e82cc873)"/>
    <path d="M 39.640605 68.742475 
L 37.908703 68.952379 
L 37.770857 69.338332 
L 36.249096 68.968898 
L 37.638544 68.246629 
L 37.864599 68.588478 
L 39.596501 68.378573 
L 39.640605 68.742475 
" clip-path="url(#p56e82cc873)"/>
    <path d="M 105.809237 26.328783 
L 107.385492 27.076418 
L 107.708181 26.823766 
L 108.797336 27.948925 
L 107.23691 27.817358 
L 107.228401 27.407616 
L 105.652146 26.65998 
L 105.809237 26.328783 
" clip-path="url(#p56e82cc873)"/>
    <path d="M 37.916733 31.456997 
L 36.18805 31.691926 
L 36.055799 32.079833 
L 34.528854 31.732445 
L 35.907712 30.990157 
L 36.138687 31.328701 
L 37.86737 31.093772 
L 37.916733 31.456997 
" clip-path="url(#p56e82cc873)"/>
    <path d="M 75.705774 27.980757 
L 77.389863 27.52537 
L 77.471107 27.123672 
L 79.030055 27.271718 
L 77.75816 28.185239 
L 77.485547 27.879226 
L 75.801459 28.334612 
L 75.705774 27.980757 
" clip-path="url(#p56e82cc873)"/>
    <path d="M 74.051047 62.739315 
L 75.793437 62.826598 
L 75.994829 62.469662 
L 77.43174 63.092178 
L 75.939811 63.567978 
L 75.775098 63.192703 
L 74.032708 63.10542 
L 74.051047 62.739315 
" clip-path="url(#p56e82cc873)"/>
    <path d="M 55.148384 63.877959 
L 56.878548 64.101718 
L 57.107331 63.761689 
L 58.490954 64.495055 
L 56.966285 64.852298 
L 56.831532 64.465254 
L 55.101369 64.241496 
L 55.148384 63.877959 
" clip-path="url(#p56e82cc873)"/>
    <path d="M 84.498821 39.091752 
L 86.242252 39.154805 
L 86.438663 38.795105 
L 87.884089 39.397586 
L 86.398917 39.894079 
L 86.229004 39.52113 
L 84.485572 39.458077 
L 84.498821 39.091752 
" clip-path="url(#p56e82cc873)"/>
    <path d="M 99.871492 62.143908 
L 101.59966 61.905229 
L 101.731069 61.517037 
L 103.258764 61.861111 
L 101.88152 62.606389 
L 101.649811 62.268347 
L 99.921642 62.507026 
L 99.871492 62.143908 
" clip-path="url(#p56e82cc873)"/>
    <path d="M 66.152752 23.672927 
L 67.875605 23.947354 
L 68.114267 23.614184 
L 69.475776 24.387831 
L 67.941282 24.700186 
L 67.817943 24.309354 
L 66.09509 24.034928 
L 66.152752 23.672927 
" clip-path="url(#p56e82cc873)"/>
    <path d="M 61.516751 52.558716 
L 63.241706 52.297819 
L 63.368108 51.907968 
L 64.900104 52.232356 
L 63.532564 52.995294 
L 63.296524 52.660261 
L 61.57157 52.921158 
L 61.516751 52.558716 
" clip-path="url(#p56e82cc873)"/>
    <path d="M 68.927039 44.720411 
L 67.193606 44.91725 
L 67.052854 45.302153 
L 65.533921 44.921255 
L 66.928776 44.209483 
L 67.152247 44.553027 
L 68.88568 44.356188 
L 68.927039 44.720411 
" clip-path="url(#p56e82cc873)"/>
    <path d="M 95.789692 18.949187 
L 97.514929 18.690174 
L 97.641756 18.300461 
L 99.173397 18.626521 
L 97.805026 19.387966 
L 97.569352 19.052676 
L 95.844115 19.311689 
L 95.789692 18.949187 
" clip-path="url(#p56e82cc873)"/>
    <path d="M 102.962486 20.054161 
L 104.684626 20.33304 
L 104.924149 20.000488 
L 106.283654 20.777652 
L 104.748358 21.086039 
L 104.626029 20.69489 
L 102.903889 20.416011 
L 102.962486 20.054161 
" clip-path="url(#p56e82cc873)"/>
    <path d="M 70.930066 14.546911 
L 72.51883 13.826246 
L 72.534319 13.416708 
L 74.096761 13.311751 
L 72.988591 14.418187 
L 72.670254 14.160073 
L 71.081491 14.880738 
L 70.930066 14.546911 
" clip-path="url(#p56e82cc873)"/>
    <path d="M 36.288787 36.100169 
L 38.02522 36.268508 
L 38.243018 35.92134 
L 39.649376 36.610103 
L 38.136905 37.0159 
L 37.989849 36.633361 
L 36.253416 36.465023 
L 36.288787 36.100169 
" clip-path="url(#p56e82cc873)"/>
    <path d="M 31.983762 70.17702 
L 30.355597 70.803607 
L 30.316201 71.21154 
L 28.750296 71.225008 
L 29.921231 70.185225 
L 30.22394 70.461502 
L 31.852105 69.834915 
L 31.983762 70.17702 
" clip-path="url(#p56e82cc873)"/>
    <path d="M 99.386527 68.171869 
L 101.130943 68.195141 
L 101.319099 67.831055 
L 102.77789 68.400412 
L 101.304429 68.930649 
L 101.126053 68.561673 
L 99.381637 68.5384 
L 99.386527 68.171869 
" clip-path="url(#p56e82cc873)"/>
    <path d="M 34.157437 72.347547 
L 32.423399 72.538998 
L 32.281451 72.923462 
L 30.76371 72.537846 
L 32.160769 71.830412 
L 32.383172 72.174648 
L 34.117209 71.983197 
L 34.157437 72.347547 
" clip-path="url(#p56e82cc873)"/>
    <path d="M 79.598291 53.908869 
L 77.873869 54.173261 
L 77.748257 54.563368 
L 76.215606 54.242086 
L 77.581597 53.476378 
L 77.818315 53.810931 
L 79.542737 53.546539 
L 79.598291 53.908869 
" clip-path="url(#p56e82cc873)"/>
    <path d="M 57.221232 36.92229 
L 58.914395 36.501896 
L 59.003944 36.101967 
L 60.559491 36.282283 
L 59.26894 37.169254 
L 59.002727 36.857658 
L 57.309564 37.278052 
L 57.221232 36.92229 
" clip-path="url(#p56e82cc873)"/>
    <path d="M 84.557325 68.230372 
L 86.287748 68.452137 
L 86.51614 68.111845 
L 87.900607 68.843617 
L 86.37635 69.202617 
L 86.241151 68.815728 
L 84.510729 68.593963 
L 84.557325 68.230372 
" clip-path="url(#p56e82cc873)"/>
    <path d="M 67.583999 49.177878 
L 65.868233 48.862147 
L 65.621637 49.189488 
L 64.279103 48.38336 
L 65.820658 48.107955 
L 65.934573 48.501636 
L 67.650339 48.817367 
L 67.583999 49.177878 
" clip-path="url(#p56e82cc873)"/>
    <path d="M 31.527622 39.453962 
L 29.892636 38.845397 
L 29.592997 39.125001 
L 28.410648 38.098214 
L 29.976606 38.094386 
L 30.020506 38.501859 
L 31.655492 39.110424 
L 31.527622 39.453962 
" clip-path="url(#p56e82cc873)"/>
    <path d="M 61.502965 24.823954 
L 63.236385 24.626995 
L 63.377111 24.242082 
L 64.89607 24.622876 
L 63.501264 25.334744 
L 63.277769 24.991215 
L 61.544349 25.188174 
L 61.502965 24.823954 
" clip-path="url(#p56e82cc873)"/>
    <path d="M 62.524094 57.928326 
L 64.209037 58.38055 
L 64.481075 58.074025 
L 65.754684 58.985156 
L 64.196015 59.136129 
L 64.114018 58.734585 
L 62.429074 58.282361 
L 62.524094 57.928326 
" clip-path="url(#p56e82cc873)"/>
    <path d="M 73.184153 39.45894 
L 71.442704 39.5633 
L 71.281678 39.940172 
L 69.785155 39.479022 
L 71.215894 38.842449 
L 71.420776 39.197393 
L 73.162225 39.093032 
L 73.184153 39.45894 
" clip-path="url(#p56e82cc873)"/>
    <path d="M 72.624437 54.437748 
L 70.914549 54.783899 
L 70.807643 55.179541 
L 69.26144 54.931555 
L 70.589447 54.101713 
L 70.841817 54.424623 
L 72.551705 54.078472 
L 72.624437 54.437748 
" clip-path="url(#p56e82cc873)"/>
    <path d="M 43.078464 15.508351 
L 44.822797 15.479338 
L 44.999958 15.109777 
L 46.475156 15.635163 
L 45.018246 16.209317 
L 44.828893 15.845852 
L 43.08456 15.874864 
L 43.078464 15.508351 
" clip-path="url(#p56e82cc873)"/>
    <path d="M 93.852139 17.577902 
L 95.547051 17.164598 
L 95.638273 16.765048 
L 97.193052 16.951874 
L 95.898799 17.833435 
L 95.633893 17.520727 
L 93.938981 17.934031 
L 93.852139 17.577902 
" clip-path="url(#p56e82cc873)"/>
    <path d="M 49.586317 45.443464 
L 51.330594 45.41136 
L 51.507099 45.041485 
L 52.983226 45.564256 
L 51.527336 46.140992 
L 51.33734 45.777862 
L 49.593062 45.809966 
L 49.586317 45.443464 
" clip-path="url(#p56e82cc873)"/>
    <path d="M 72.307704 19.329941 
L 74.04005 19.53612 
L 74.265369 19.193786 
L 75.656368 19.913065 
L 74.135404 20.285771 
L 73.996728 19.900115 
L 72.264382 19.693936 
L 72.307704 19.329941 
" clip-path="url(#p56e82cc873)"/>
    <path d="M 65.129152 31.390026 
L 66.873715 31.383371 
L 67.055597 31.01611 
L 68.523941 31.560359 
L 67.059792 32.115794 
L 66.875113 31.749932 
L 65.13055 31.756587 
L 65.129152 31.390026 
" clip-path="url(#p56e82cc873)"/>
    <path d="M 97.923543 21.566655 
L 99.668112 21.571989 
L 99.852514 21.205987 
L 101.317082 21.760313 
L 99.849152 22.305674 
L 99.666991 21.938551 
L 97.922422 21.933217 
L 97.923543 21.566655 
" clip-path="url(#p56e82cc873)"/>
    <path d="M 98.110725 29.461907 
L 99.84762 29.62543 
L 100.064454 29.27766 
L 101.472717 29.962522 
L 99.961377 30.372511 
L 99.813261 29.990381 
L 98.076366 29.826857 
L 98.110725 29.461907 
" clip-path="url(#p56e82cc873)"/>
    <path d="M 79.374845 79.868919 
L 81.066039 79.440666 
L 81.15373 79.040327 
L 82.710097 79.213417 
L 81.423679 80.106371 
L 81.156022 79.796015 
L 79.464828 80.224267 
L 79.374845 79.868919 
" clip-path="url(#p56e82cc873)"/>
    <path d="M 71.827953 24.573705 
L 73.519613 24.147298 
L 73.60774 23.747054 
L 75.163918 23.921842 
L 73.876526 24.813393 
L 73.609208 24.502744 
L 71.917549 24.929151 
L 71.827953 24.573705 
" clip-path="url(#p56e82cc873)"/>
    <path d="M 104.785914 24.082151 
L 106.511289 23.824032 
L 106.638318 23.434385 
L 108.16979 23.76124 
L 106.801023 24.521974 
L 106.565523 24.186562 
L 104.840148 24.44468 
L 104.785914 24.082151 
" clip-path="url(#p56e82cc873)"/>
    <path d="M 80.643103 29.231743 
L 82.370326 29.477166 
L 82.603354 29.140031 
L 83.977677 29.89068 
L 82.44865 30.228788 
L 82.318759 29.840085 
L 80.591535 29.594661 
L 80.643103 29.231743 
" clip-path="url(#p56e82cc873)"/>
    <path d="M 32.410583 59.662615 
L 30.670734 59.790931 
L 30.514909 60.169982 
L 29.012182 59.72947 
L 30.434026 59.073269 
L 30.643773 59.425359 
L 32.383622 59.297044 
L 32.410583 59.662615 
" clip-path="url(#p56e82cc873)"/>
    <path d="M 106.759898 13.422134 
L 108.4953 13.600761 
L 108.715151 13.25489 
L 110.117403 13.951977 
L 108.602553 14.348803 
L 108.457767 13.965399 
L 106.722365 13.786771 
L 106.759898 13.422134 
" clip-path="url(#p56e82cc873)"/>
    <path d="M 61.87035 40.188148 
L 63.588278 39.884413 
L 63.704941 39.491537 
L 65.244534 39.777707 
L 63.8964 40.574435 
L 63.652098 40.245379 
L 61.93417 40.549114 
L 61.87035 40.188148 
" clip-path="url(#p56e82cc873)"/>
    <path d="M 70.996034 16.312714 
L 72.551623 15.522983 
L 72.549115 15.113159 
L 74.105441 14.939699 
L 73.046923 16.093726 
L 72.717559 15.849838 
L 71.16197 16.639569 
L 70.996034 16.312714 
" clip-path="url(#p56e82cc873)"/>
    <path d="M 82.495468 20.824013 
L 84.202587 21.183567 
L 84.457482 20.862647 
L 85.778938 21.702882 
L 84.230837 21.93873 
L 84.127038 21.542261 
L 82.419919 21.182707 
L 82.495468 20.824013 
" clip-path="url(#p56e82cc873)"/>
    <path d="M 76.950351 50.410181 
L 78.647539 50.814036 
L 78.910699 50.499857 
L 80.209842 51.374194 
L 78.656129 51.569678 
L 78.562682 51.170643 
L 76.865494 50.766788 
L 76.950351 50.410181 
" clip-path="url(#p56e82cc873)"/>
    <path d="M 57.128245 60.316097 
L 58.865844 60.160258 
L 59.015649 59.778787 
L 60.52516 60.195458 
L 59.113882 60.874083 
L 58.898588 60.525357 
L 57.160989 60.681196 
L 57.128245 60.316097 
" clip-path="url(#p56e82cc873)"/>
    <path d="M 63.440499 48.697006 
L 65.179847 48.83193 
L 65.39093 48.480639 
L 66.81027 49.142237 
L 65.30588 49.577037 
L 65.151497 49.197396 
L 63.41215 49.062472 
L 63.440499 48.697006 
" clip-path="url(#p56e82cc873)"/>
    <path d="M 54.536392 43.01554 
L 56.27257 43.186504 
L 56.490892 42.839666 
L 57.896207 43.530555 
L 56.383125 43.934065 
L 56.236647 43.551304 
L 54.50047 43.38034 
L 54.536392 43.01554 
" clip-path="url(#p56e82cc873)"/>
    <path d="M 98.58781 81.197903 
L 100.331989 81.160678 
L 100.507408 80.790286 
L 101.985063 81.308721 
L 100.530872 81.889729 
L 100.33981 81.527159 
L 98.595631 81.564384 
L 98.58781 81.197903 
" clip-path="url(#p56e82cc873)"/>
    <path d="M 38.78222 24.147804 
L 40.504622 23.870559 
L 40.627321 23.479526 
L 42.162324 23.78937 
L 40.802082 24.565244 
L 40.562875 24.232465 
L 38.840473 24.50971 
L 38.78222 24.147804 
" clip-path="url(#p56e82cc873)"/>
    <path d="M 87.32944 20.658939 
L 89.064306 20.842698 
L 89.28518 20.497478 
L 90.685364 21.198708 
L 89.169347 21.591053 
L 89.025696 21.207223 
L 87.29083 21.023464 
L 87.32944 20.658939 
" clip-path="url(#p56e82cc873)"/>
    <path d="M 65.331964 62.830652 
L 67.053441 63.113584 
L 67.293746 62.781597 
L 68.651418 63.561959 
L 67.1154 63.866731 
L 66.993993 63.475295 
L 65.272516 63.192364 
L 65.331964 62.830652 
" clip-path="url(#p56e82cc873)"/>
    <path d="M 36.432391 82.892409 
L 38.1606 83.1308 
L 38.392252 82.792719 
L 39.76962 83.537768 
L 38.241983 83.882096 
L 38.11051 83.493926 
L 36.382301 83.255534 
L 36.432391 82.892409 
" clip-path="url(#p56e82cc873)"/>
    <path d="M 78.820569 51.95378 
L 77.085583 51.771123 
L 76.864929 52.116483 
L 75.4643 51.416142 
L 76.980067 51.022835 
L 77.123962 51.406574 
L 78.858948 51.589231 
L 78.820569 51.95378 
" clip-path="url(#p56e82cc873)"/>
    <path d="M 65.24591 56.270789 
L 66.973494 56.513681 
L 67.206027 56.176204 
L 68.581449 56.924838 
L 67.05292 57.265186 
L 66.922459 56.876675 
L 65.194874 56.633783 
L 65.24591 56.270789 
" clip-path="url(#p56e82cc873)"/>
    <path d="M 56.408199 45.511141 
L 58.148809 45.39359 
L 58.306975 45.015509 
L 59.806948 45.465308 
L 58.381073 46.112702 
L 58.173508 45.759321 
L 56.432899 45.876872 
L 56.408199 45.511141 
" clip-path="url(#p56e82cc873)"/>
    <path d="M 30.65088 49.575049 
L 28.914321 49.742096 
L 28.766981 50.124526 
L 27.254812 49.717604 
L 28.661683 49.029886 
L 28.879222 49.377216 
L 30.61578 49.210169 
L 30.65088 49.575049 
" clip-path="url(#p56e82cc873)"/>
    <path d="M 105.324277 67.892655 
L 107.056239 68.102039 
L 107.282192 67.760122 
L 108.671857 68.481974 
L 107.150206 68.851865 
L 107.012244 68.465953 
L 105.280282 68.25657 
L 105.324277 67.892655 
" clip-path="url(#p56e82cc873)"/>
    <path d="M 103.773639 33.255193 
L 105.513052 33.389285 
L 105.723967 33.037893 
L 107.143624 33.698813 
L 105.639442 34.134332 
L 105.484877 33.754765 
L 103.745465 33.620673 
L 103.773639 33.255193 
" clip-path="url(#p56e82cc873)"/>
    <path d="M 62.082744 62.1575 
L 63.805596 61.883051 
L 63.92893 61.492218 
L 65.463429 61.804554 
L 64.101929 62.578218 
L 63.863262 62.245051 
L 62.14041 62.519499 
L 62.082744 62.1575 
" clip-path="url(#p56e82cc873)"/>
    <path d="M 40.316458 18.515955 
L 42.046535 18.740382 
L 42.27545 18.400442 
L 43.65879 19.134343 
L 42.133983 19.490997 
L 41.999379 19.103901 
L 40.269302 18.879473 
L 40.316458 18.515955 
" clip-path="url(#p56e82cc873)"/>
    <path d="M 89.855356 84.811122 
L 91.369785 85.677168 
L 91.71086 85.449946 
L 92.710732 86.65514 
L 91.164947 86.404568 
L 91.187814 85.995375 
L 89.673385 85.129329 
L 89.855356 84.811122 
" clip-path="url(#p56e82cc873)"/>
    <path d="M 48.33277 50.741325 
L 49.986663 51.296464 
L 50.277062 51.007275 
L 51.492137 51.995116 
L 49.92713 52.049807 
L 49.870019 51.643974 
L 48.216126 51.088835 
L 48.33277 50.741325 
" clip-path="url(#p56e82cc873)"/>
    <path d="M 77.206222 49.337737 
L 78.94915 49.261987 
L 79.116343 48.88781 
L 80.605091 49.373472 
L 79.164092 49.986465 
L 78.965067 49.628205 
L 77.222138 49.703956 
L 77.206222 49.337737 
" clip-path="url(#p56e82cc873)"/>
    <path d="M 59.970758 37.077596 
L 61.692019 36.793334 
L 61.813123 36.401804 
L 63.349377 36.705389 
L 61.992308 37.4868 
L 61.751747 37.154999 
L 60.030487 37.439262 
L 59.970758 37.077596 
" clip-path="url(#p56e82cc873)"/>
    <path d="M 35.589715 28.457049 
L 37.309807 28.165809 
L 37.429322 27.773792 
L 38.966794 28.071144 
L 37.612906 28.858052 
L 37.371001 28.527229 
L 35.65091 28.818469 
L 35.589715 28.457049 
" clip-path="url(#p56e82cc873)"/>
    <path d="M 68.287523 40.820728 
L 69.881915 40.112594 
L 69.900629 39.70319 
L 71.463848 39.610539 
L 70.347001 40.708215 
L 70.030706 40.447602 
L 68.436314 41.155737 
L 68.287523 40.820728 
" clip-path="url(#p56e82cc873)"/>
    <path d="M 36.69382 15.453457 
L 38.427857 15.262016 
L 38.569807 14.877553 
L 40.087546 15.263178 
L 38.690482 15.970604 
L 38.468082 15.626366 
L 36.734045 15.817808 
L 36.69382 15.453457 
" clip-path="url(#p56e82cc873)"/>
    <path d="M 90.473845 80.496953 
L 92.20542 80.709547 
L 92.432005 80.368049 
L 93.82033 81.092475 
L 92.297997 81.459546 
L 92.16075 81.073379 
L 90.429176 80.860786 
L 90.473845 80.496953 
" clip-path="url(#p56e82cc873)"/>
    <path d="M 94.417022 82.374825 
L 96.144613 82.617664 
L 96.377135 82.280181 
L 97.752581 83.028771 
L 96.224062 83.369167 
L 96.093588 82.980659 
L 94.365998 82.737821 
L 94.417022 82.374825 
" clip-path="url(#p56e82cc873)"/>
    <path d="M 80.085366 75.314281 
L 81.80919 75.582558 
L 82.046661 75.248539 
L 83.410923 76.017323 
L 81.877553 76.335151 
L 81.75282 75.944762 
L 80.028996 75.676485 
L 80.085366 75.314281 
" clip-path="url(#p56e82cc873)"/>
    <path d="M 36.636521 48.721668 
L 38.375376 48.580501 
L 38.528396 48.200308 
L 40.034336 48.629706 
L 38.61738 49.296395 
L 38.405037 48.945863 
L 36.666183 49.08703 
L 36.636521 48.721668 
" clip-path="url(#p56e82cc873)"/>
    <path d="M 107.314143 65.432446 
L 108.996032 65.895888 
L 109.270106 65.591183 
L 110.537614 66.510782 
L 108.977974 66.651364 
L 108.898655 66.249282 
L 107.216766 65.78584 
L 107.314143 65.432446 
" clip-path="url(#p56e82cc873)"/>
    <path d="M 58.417916 53.934236 
L 60.15812 53.810817 
L 60.31501 53.432205 
L 61.816492 53.876944 
L 60.392807 54.529143 
L 60.184052 54.176463 
L 58.443848 54.299882 
L 58.417916 53.934236 
" clip-path="url(#p56e82cc873)"/>
    <path d="M 62.182745 63.807451 
L 63.819345 64.411669 
L 64.118239 64.13127 
L 65.303313 65.154911 
L 63.737371 65.162901 
L 63.692388 64.755546 
L 62.055789 64.151328 
L 62.182745 63.807451 
" clip-path="url(#p56e82cc873)"/>
    <path d="M 103.922387 37.403669 
L 105.525236 38.092451 
L 105.838353 37.828028 
L 106.968407 38.912103 
L 105.40418 38.838383 
L 105.380512 38.429236 
L 103.777662 37.740454 
L 103.922387 37.403669 
" clip-path="url(#p56e82cc873)"/>
    <path d="M 43.621545 78.52278 
L 45.320685 78.918328 
L 45.582305 78.602866 
L 46.88571 79.470838 
L 45.332971 79.67392 
L 45.237573 79.275346 
L 43.538434 78.879798 
L 43.621545 78.52278 
" clip-path="url(#p56e82cc873)"/>
    <path d="M 90.10179 27.314104 
L 91.835573 27.507845 
L 92.05843 27.163902 
L 93.454554 27.87318 
L 91.936305 28.256793 
L 91.794865 27.872142 
L 90.061082 27.678401 
L 90.10179 27.314104 
" clip-path="url(#p56e82cc873)"/>
    <path d="M 53.761204 79.49787 
L 55.503634 79.411388 
L 55.668519 79.036189 
L 57.16023 79.512674 
L 55.723033 80.134529 
L 55.521805 79.777501 
L 53.779375 79.863983 
L 53.761204 79.49787 
" clip-path="url(#p56e82cc873)"/>
    <path d="M 80.225341 24.30403 
L 81.919506 24.720371 
L 82.184973 24.408139 
L 83.477643 25.292019 
L 81.922532 25.476056 
L 81.832026 25.076344 
L 80.137861 24.660002 
L 80.225341 24.30403 
" clip-path="url(#p56e82cc873)"/>
    <path d="M 68.609613 82.387996 
L 70.351185 82.285715 
L 70.512661 81.909036 
L 72.008632 82.371972 
L 70.577134 83.006836 
L 70.372676 82.651648 
L 68.631104 82.753929 
L 68.609613 82.387996 
" clip-path="url(#p56e82cc873)"/>
    <path d="M 67.118253 15.65914 
L 68.850543 15.452485 
L 68.989113 15.066791 
L 70.510179 15.439079 
L 69.119378 16.158741 
L 68.893965 15.816468 
L 67.161675 16.023123 
L 67.118253 15.65914 
" clip-path="url(#p56e82cc873)"/>
    <path d="M 33.559065 69.613979 
L 31.817623 69.718489 
L 31.65663 70.095375 
L 30.160067 69.634353 
L 31.590752 68.997657 
L 31.795664 69.352583 
L 33.537105 69.248073 
L 33.559065 69.613979 
" clip-path="url(#p56e82cc873)"/>
    <path d="M 107.30438 48.875319 
L 108.953752 49.443737 
L 109.246467 49.156893 
L 110.453561 50.154472 
L 108.888164 50.196577 
L 108.834318 49.790298 
L 107.184945 49.22188 
L 107.30438 48.875319 
" clip-path="url(#p56e82cc873)"/>
   </g>
  </g>
 </g>
 <defs>
  <clipPath id="p56e82cc873">
   <rect x="7.2" y="7.2" width="86.4" height="86.4"/>
  </clipPath>
 </defs>
</svg>
