<?xml version="1.0" encoding="utf-8" standalone="no"?>
<!DOCTYPE svg PUBLIC "-//W3C//DTD SVG 1.1//EN"
  "http://www.w3.org/Graphics/SVG/1.1/DTD/svg11.dtd">
<svg xmlns:xlink="http://www.w3.org/1999/xlink" width="100.8pt" height="100.8pt" viewBox="0 0 100.8 100.8" xmlns="http://www.w3.org/2000/svg" version="1.1">
 <metadata>
  <rdf:RDF xmlns:dc="http://purl.org/dc/elements/1.1/" xmlns:cc="http://creativecommons.org/ns#" xmlns:rdf="http://www.w3.org/1999/02/22-rdf-syntax-ns#">
   <cc:Work>
    <dc:type rdf:resource="http://purl.org/dc/dcmitype/StillImage"/>
    <dc:date>2025-09-10T17:09:18.326102</dc:date>
    <dc:format>image/svg+xml</dc:format>
    <dc:creator>
     <cc:Agent>
      <dc:title>Matplotlib v3.10.5, https://matplotlib.org/</dc:title>
     </cc:Agent>
    </dc:creator>
   </cc:Work>
  </rdf:RDF>
 </metadata>
 <defs>
  <style type="text/css">*{stroke-linejoin: round; stroke-linecap: butt}</style>
 </defs>
 <g id="figure_1">
  <g id="patch_1">
   <path d="M 0 100.8 
L 100.8 100.8 
L 100.8 0 
L 0 0 
z
" style="fill: #ffffff"/>
  </g>
  <g id="axes_1">
   <g id="Quiver_1">
    <path d="M 64.47592 96.153169 
L 65.323741 97.677877 
L 65.733179 97.659919 
L 65.965194 99.208598 
L 64.772078 98.194343 
L 65.003374 97.856019 
L 64.155553 96.33131 
L 64.47592 96.153169 
" clip-path="url(#pda67f5985b)"/>
    <path d="M 126.480501 90.859469 
L 128.221305 90.744833 
L 128.380104 90.367018 
L 129.879322 90.819328 
L 128.452365 91.464334 
L 128.245392 91.110605 
L 126.504588 91.225241 
L 126.480501 90.859469 
" clip-path="url(#pda67f5985b)"/>
    <path d="M 64.994175 75.501194 
L 64.239656 77.074165 
L 64.490895 77.397956 
L 63.360984 78.48218 
L 63.499372 76.922344 
L 63.909148 76.915627 
L 64.663668 75.342657 
L 64.994175 75.501194 
" clip-path="url(#pda67f5985b)"/>
    <path d="M 60.634693 61.26835 
L 62.366024 61.053794 
L 62.502833 60.667472 
L 64.025581 61.032817 
L 62.638078 61.758816 
L 62.411106 61.417576 
L 60.679775 61.632132 
L 60.634693 61.26835 
" clip-path="url(#pda67f5985b)"/>
    <path d="M 65.048578 24.41744 
L 66.790028 24.313119 
L 66.951063 23.936251 
L 68.447575 24.397435 
L 67.016822 25.033975 
L 66.811948 24.679027 
L 65.070498 24.783348 
L 65.048578 24.41744 
" clip-path="url(#pda67f5985b)"/>
    <path d="M 70.09001 78.023875 
L 68.597852 78.927755 
L 68.631008 79.336243 
L 67.092017 79.625633 
L 68.061247 78.39566 
L 68.407931 78.614227 
L 69.90009 77.710347 
L 70.09001 78.023875 
" clip-path="url(#pda67f5985b)"/>
    <path d="M 60.993235 49.334885 
L 62.661095 48.823237 
L 62.728812 48.419039 
L 64.291851 48.514683 
L 63.051329 49.470374 
L 62.768601 49.173682 
L 61.100741 49.68533 
L 60.993235 49.334885 
" clip-path="url(#pda67f5985b)"/>
    <path d="M 44.114383 30.090785 
L 42.36982 30.097367 
L 42.187922 30.46462 
L 40.719602 29.920309 
L 42.183774 29.364935 
L 42.368437 29.730805 
L 44.113 29.724223 
L 44.114383 30.090785 
" clip-path="url(#pda67f5985b)"/>
    <path d="M 133.453581 65.197533 
L 135.113236 65.735193 
L 135.400568 65.442957 
L 136.625997 66.417926 
L 135.061654 66.489122 
L 135.000264 66.083915 
L 133.340609 65.546254 
L 133.453581 65.197533 
" clip-path="url(#pda67f5985b)"/>
    <path d="M 74.621007 70.673145 
L 73.18673 71.666316 
L 73.244729 72.072022 
L 71.726244 72.454701 
L 72.618684 71.167925 
L 72.978048 71.36495 
L 74.412325 70.37178 
L 74.621007 70.673145 
" clip-path="url(#pda67f5985b)"/>
    <path d="M 8.638068 67.317326 
L 6.947364 67.747505 
L 6.860129 68.147944 
L 5.303565 67.976627 
L 6.588965 67.082208 
L 6.856976 67.392259 
L 8.54768 66.962081 
L 8.638068 67.317326 
" clip-path="url(#pda67f5985b)"/>
    <path d="M 74.627412 49.534878 
L 76.341931 49.212435 
L 76.454305 48.818311 
L 77.996925 49.087683 
L 76.657556 49.899058 
L 76.409681 49.572684 
L 74.695162 49.895127 
L 74.627412 49.534878 
" clip-path="url(#pda67f5985b)"/>
    <path d="M 55.590911 113.071283 
L 55.685349 114.8133 
L 56.061298 114.97647 
L 55.59163 116.470342 
L 54.963218 115.035999 
L 55.319323 114.833143 
L 55.224885 113.091126 
L 55.590911 113.071283 
" clip-path="url(#pda67f5985b)"/>
    <path d="M -5.642992 64.310981 
L -7.368944 64.565205 
L -7.496853 64.954564 
L -9.027583 64.624254 
L -7.657103 63.86661 
L -7.42236 64.202553 
L -5.696409 63.94833 
L -5.642992 64.310981 
" clip-path="url(#pda67f5985b)"/>
    <path d="M 57.459435 56.065134 
L 59.156867 55.662309 
L 59.250556 55.26333 
L 60.80415 55.459757 
L 59.504477 56.333306 
L 59.241507 56.018967 
L 57.544075 56.421792 
L 57.459435 56.065134 
" clip-path="url(#pda67f5985b)"/>
    <path d="M 52.717096 44.13038 
L 54.411159 43.713626 
L 54.501568 43.313891 
L 56.056724 43.49755 
L 54.764269 44.381745 
L 54.498726 44.069577 
L 52.804663 44.486331 
L 52.717096 44.13038 
" clip-path="url(#pda67f5985b)"/>
    <path d="M 104.94942 90.041836 
L 106.506464 90.828692 
L 106.835377 90.584196 
L 107.896025 91.736266 
L 106.339381 91.565681 
L 106.341132 91.155853 
L 104.784088 90.368998 
L 104.94942 90.041836 
" clip-path="url(#pda67f5985b)"/>
    <path d="M 49.326086 66.704394 
L 50.925442 67.401241 
L 51.239887 67.138399 
L 52.364464 68.228154 
L 50.800629 68.146554 
L 50.779023 67.737293 
L 49.179667 67.040446 
L 49.326086 66.704394 
" clip-path="url(#pda67f5985b)"/>
    <path d="M 62.736702 36.000024 
L 62.823269 34.2576 
L 62.466251 34.056355 
L 63.088177 32.619188 
L 63.564589 34.110922 
L 63.189382 34.275789 
L 63.102815 36.018213 
L 62.736702 36.000024 
" clip-path="url(#pda67f5985b)"/>
    <path d="M 73.297726 2.695269 
L 74.061968 1.126995 
L 73.812738 0.801655 
L 74.949336 -0.275555 
L 74.801298 1.283395 
L 74.391488 1.287575 
L 73.627246 2.855848 
L 73.297726 2.695269 
" clip-path="url(#pda67f5985b)"/>
    <path d="M 47.800224 -2.568331 
L 47.126529 -4.177579 
L 46.717622 -4.20509 
L 46.658599 -5.76994 
L 47.732011 -4.629753 
L 47.464659 -4.319134 
L 48.138353 -2.709885 
L 47.800224 -2.568331 
" clip-path="url(#pda67f5985b)"/>
    <path d="M 73.432811 38.533864 
L 72.050306 39.597918 
L 72.128638 40.000194 
L 70.631324 40.458765 
L 71.457911 39.12873 
L 71.826731 39.30743 
L 73.209236 38.243376 
L 73.432811 38.533864 
" clip-path="url(#pda67f5985b)"/>
    <path d="M 25.436062 56.844736 
L 23.720878 56.525856 
L 23.473682 56.852743 
L 22.13263 56.044152 
L 23.674688 55.771577 
L 23.78788 56.165467 
L 25.503064 56.484347 
L 25.436062 56.844736 
" clip-path="url(#pda67f5985b)"/>
    <path d="M 63.022312 29.442064 
L 64.747034 29.704502 
L 64.983373 29.36968 
L 66.35023 30.133839 
L 64.817945 30.456859 
L 64.691891 30.066894 
L 62.967169 29.804457 
L 63.022312 29.442064 
" clip-path="url(#pda67f5985b)"/>
    <path d="M 26.123106 33.792139 
L 25.223189 32.297589 
L 24.814615 32.329661 
L 24.52931 30.789908 
L 25.756706 31.762398 
L 25.53722 32.108501 
L 26.437136 33.603051 
L 26.123106 33.792139 
" clip-path="url(#pda67f5985b)"/>
    <path d="M 67.598725 16.831892 
L 69.241184 16.243788 
L 69.290168 15.836895 
L 70.855956 15.860275 
L 69.660879 16.872219 
L 69.364755 16.588896 
L 67.722296 17.177 
L 67.598725 16.831892 
" clip-path="url(#pda67f5985b)"/>
    <path d="M 49.762348 51.035332 
L 51.368536 50.354379 
L 51.394199 49.945352 
L 52.958767 49.879264 
L 51.823439 50.957813 
L 51.511615 50.691866 
L 49.905428 51.372819 
L 49.762348 51.035332 
" clip-path="url(#pda67f5985b)"/>
    <path d="M 71.986673 48.574339 
L 73.513522 47.730376 
L 73.496599 47.320894 
L 75.04586 47.092796 
L 74.028591 48.283343 
L 73.690853 48.051192 
L 72.164004 48.895155 
L 71.986673 48.574339 
" clip-path="url(#pda67f5985b)"/>
    <path d="M 47.639267 21.799547 
L 49.348452 22.149162 
L 49.601476 21.826764 
L 50.927798 22.659295 
L 49.381097 22.904148 
L 49.274992 22.50829 
L 47.565808 22.158675 
L 47.639267 21.799547 
" clip-path="url(#pda67f5985b)"/>
    <path d="M -2.683344 55.636686 
L -4.387738 56.008944 
L -4.488581 56.406175 
L -6.038395 56.181863 
L -4.723234 55.331809 
L -4.465956 55.650822 
L -2.761562 55.278564 
L -2.683344 55.636686 
" clip-path="url(#pda67f5985b)"/>
    <path d="M 119.209716 67.370383 
L 120.948303 67.514776 
L 121.161296 67.164639 
L 122.577013 67.833955 
L 121.070278 68.260558 
L 120.917964 67.880082 
L 119.179377 67.73569 
L 119.209716 67.370383 
" clip-path="url(#pda67f5985b)"/>
    <path d="M 19.683678 50.531139 
L 18.202232 49.609804 
L 17.853006 49.824287 
L 16.898281 48.583021 
L 18.433769 48.890457 
L 18.395819 49.298528 
L 19.877266 50.219862 
L 19.683678 50.531139 
" clip-path="url(#pda67f5985b)"/>
    <path d="M 66.586532 30.163274 
L 65.431961 31.471135 
L 65.585467 31.851132 
L 64.202883 32.586454 
L 64.761056 31.123348 
L 65.157157 31.228541 
L 66.311728 29.92068 
L 66.586532 30.163274 
" clip-path="url(#pda67f5985b)"/>
    <path d="M 79.541201 19.039886 
L 81.281809 19.157466 
L 81.48938 18.804089 
L 82.915244 19.451507 
L 81.415263 19.901281 
L 81.257103 19.523197 
L 79.516495 19.405616 
L 79.541201 19.039886 
" clip-path="url(#pda67f5985b)"/>
    <path d="M -3.241057 61.821747 
L -4.924593 62.279183 
L -5.005348 62.68098 
L -6.564476 62.534831 
L -5.293692 61.619763 
L -5.020708 61.925445 
L -3.337172 61.468008 
L -3.241057 61.821747 
" clip-path="url(#pda67f5985b)"/>
    <path d="M 78.231504 72.774812 
L 77.170336 74.159538 
L 77.349805 74.527983 
L 76.021498 75.357345 
L 76.476944 73.859076 
L 76.879382 73.936568 
L 77.940551 72.551843 
L 78.231504 72.774812 
" clip-path="url(#pda67f5985b)"/>
    <path d="M 140.409403 18.551272 
L 142.134814 18.809141 
L 142.370265 18.473694 
L 143.739142 19.234231 
L 142.207718 19.561307 
L 142.080632 19.171678 
L 140.355221 18.91381 
L 140.409403 18.551272 
" clip-path="url(#pda67f5985b)"/>
    <path d="M 63.083802 42.790009 
L 64.661895 42.046264 
L 64.671413 41.636544 
L 66.232159 41.508826 
L 65.140233 42.631296 
L 64.818168 42.377848 
L 63.240075 43.121593 
L 63.083802 42.790009 
" clip-path="url(#pda67f5985b)"/>
    <path d="M 40.581702 44.219962 
L 38.839327 44.132432 
L 38.637884 44.489339 
L 37.201062 43.866619 
L 38.693059 43.391031 
L 38.857719 43.76633 
L 40.600094 43.85386 
L 40.581702 44.219962 
" clip-path="url(#pda67f5985b)"/>
    <path d="M 43.631955 6.396902 
L 43.96683 4.684772 
L 43.642264 4.434536 
L 44.463338 3.10109 
L 44.721507 4.645625 
L 44.326578 4.755135 
L 43.991702 6.467265 
L 43.631955 6.396902 
" clip-path="url(#pda67f5985b)"/>
    <path d="M 75.041135 31.812009 
L 76.614474 31.058254 
L 76.62139 30.648481 
L 78.181293 30.510853 
L 77.096519 31.640235 
L 76.77285 31.388839 
L 75.199511 32.142593 
L 75.041135 31.812009 
" clip-path="url(#pda67f5985b)"/>
    <path d="M 103.618653 94.929085 
L 105.077064 95.886462 
L 105.431443 95.680606 
L 106.355448 96.944906 
L 104.82796 96.599916 
L 104.875903 96.192899 
L 103.417492 95.235521 
L 103.618653 94.929085 
" clip-path="url(#pda67f5985b)"/>
    <path d="M 53.83351 97.03079 
L 54.558396 98.617635 
L 54.967974 98.632036 
L 55.077083 100.194193 
L 53.967706 99.088968 
L 54.224973 98.769946 
L 53.500087 97.183101 
L 53.83351 97.03079 
" clip-path="url(#pda67f5985b)"/>
    <path d="M 56.607528 111.586077 
L 56.722145 113.326883 
L 57.099959 113.485686 
L 56.647633 114.9849 
L 56.002643 113.557936 
L 56.356373 113.350966 
L 56.241755 111.61016 
L 56.607528 111.586077 
" clip-path="url(#pda67f5985b)"/>
    <path d="M 48.335374 56.340267 
L 50.069982 56.526476 
L 50.291343 56.181569 
L 51.690535 56.884777 
L 50.173966 57.274979 
L 50.030856 56.890946 
L 48.296248 56.704737 
L 48.335374 56.340267 
" clip-path="url(#pda67f5985b)"/>
    <path d="M 59.604316 62.782817 
L 61.346221 62.879265 
L 61.549488 62.523394 
L 62.983104 63.153461 
L 61.488692 63.621405 
L 61.325955 63.245268 
L 59.584051 63.148821 
L 59.604316 62.782817 
" clip-path="url(#pda67f5985b)"/>
    <path d="M 52.701953 113.580611 
L 52.772969 115.32374 
L 53.14669 115.491948 
L 52.656986 116.979372 
L 52.047909 115.536713 
L 52.406709 115.338661 
L 52.335693 113.595533 
L 52.701953 113.580611 
" clip-path="url(#pda67f5985b)"/>
    <path d="M 55.119481 17.468866 
L 56.864028 17.45921 
L 57.045279 17.091637 
L 58.514556 17.633359 
L 57.051366 18.191312 
L 56.866057 17.825768 
L 55.12151 17.835425 
L 55.119481 17.468866 
" clip-path="url(#pda67f5985b)"/>
    <path d="M 57.884741 8.273029 
L 59.047911 6.972812 
L 58.896914 6.591811 
L 60.284318 5.865623 
L 59.716508 7.325017 
L 59.321109 7.217214 
L 58.157938 8.517431 
L 57.884741 8.273029 
" clip-path="url(#pda67f5985b)"/>
    <path d="M 32.454593 105.889341 
L 31.761071 107.490144 
L 32.024566 107.804042 
L 30.937152 108.930882 
L 31.015501 107.36688 
L 31.424716 107.344423 
L 32.118237 105.743621 
L 32.454593 105.889341 
" clip-path="url(#pda67f5985b)"/>
    <path d="M 73.38405 52.406665 
L 74.972141 51.684512 
L 74.987247 51.27496 
L 76.549589 51.168541 
L 75.442456 52.276013 
L 75.123877 52.018197 
L 73.535786 52.74035 
L 73.38405 52.406665 
" clip-path="url(#pda67f5985b)"/>
    <path d="M 93.271209 43.835912 
L 94.971614 44.225996 
L 95.232219 43.909695 
L 96.538408 44.773472 
L 94.98633 44.981545 
L 94.889651 44.58328 
L 93.189246 44.193195 
L 93.271209 43.835912 
" clip-path="url(#pda67f5985b)"/>
    <path d="M 59.526195 63.078087 
L 61.261449 62.89799 
L 61.40591 62.514464 
L 62.921095 62.910007 
L 61.519434 63.608281 
L 61.29929 63.262596 
L 59.564036 63.442693 
L 59.526195 63.078087 
" clip-path="url(#pda67f5985b)"/>
    <path d="M 129.960598 75.243617 
L 131.639918 75.716283 
L 131.91566 75.413087 
L 133.178103 76.339628 
L 131.617715 76.471648 
L 131.540603 76.069137 
L 129.861283 75.596471 
L 129.960598 75.243617 
" clip-path="url(#pda67f5985b)"/>
    <path d="M 140.414255 28.251879 
L 142.156576 28.163251 
L 142.320999 27.787849 
L 143.813295 28.262496 
L 142.376866 28.886121 
L 142.175198 28.529341 
L 140.432877 28.61797 
L 140.414255 28.251879 
" clip-path="url(#pda67f5985b)"/>
    <path d="M 60.340543 -2.680287 
L 60.366495 -4.424668 
L 60.002697 -4.613382 
L 60.574294 -6.071297 
L 61.102268 -4.597024 
L 60.733018 -4.419215 
L 60.707067 -2.674834 
L 60.340543 -2.680287 
" clip-path="url(#pda67f5985b)"/>
    <path d="M 105.338185 86.281265 
L 106.432423 87.640007 
L 106.832877 87.552836 
L 107.324306 89.039691 
L 105.976393 88.24259 
L 106.146929 87.869925 
L 105.05269 86.511182 
L 105.338185 86.281265 
" clip-path="url(#pda67f5985b)"/>
    <path d="M 41.774455 20.458072 
L 40.157307 19.803567 
L 39.84989 20.074596 
L 38.697016 19.014822 
L 40.262457 19.055227 
L 40.29483 19.463778 
L 41.911977 20.118283 
L 41.774455 20.458072 
" clip-path="url(#pda67f5985b)"/>
    <path d="M 73.389375 80.540137 
L 72.274781 81.882229 
L 72.439679 82.257423 
L 71.079905 83.034115 
L 71.59369 81.554837 
L 71.992784 81.648034 
L 73.107378 80.305942 
L 73.389375 80.540137 
" clip-path="url(#pda67f5985b)"/>
    <path d="M 64.180518 104.322498 
L 65.023969 105.849629 
L 65.433456 105.832844 
L 65.661035 107.382182 
L 64.470829 106.364514 
L 64.703093 106.026853 
L 63.859643 104.499721 
L 64.180518 104.322498 
" clip-path="url(#pda67f5985b)"/>
    <path d="M 69.046568 37.645123 
L 70.725472 37.170969 
L 70.802228 36.76839 
L 72.362732 36.899028 
L 71.10111 37.826687 
L 70.8251 37.523735 
L 69.146196 37.997889 
L 69.046568 37.645123 
" clip-path="url(#pda67f5985b)"/>
    <path d="M 53.925792 45.721337 
L 52.528144 46.765422 
L 52.600689 47.168781 
L 51.096941 47.605796 
L 51.942549 46.287772 
L 52.308764 46.471752 
L 53.706413 45.427668 
L 53.925792 45.721337 
" clip-path="url(#pda67f5985b)"/>
    <path d="M 65.059364 94.916382 
L 65.754388 96.516531 
L 66.163624 96.538604 
L 66.243442 98.102532 
L 65.15497 96.976713 
L 65.41817 96.662568 
L 64.723146 95.062418 
L 65.059364 94.916382 
" clip-path="url(#pda67f5985b)"/>
    <path d="M 30.600486 61.341237 
L 28.855992 61.357885 
L 28.676216 61.726181 
L 27.204779 61.190352 
L 28.665722 60.626539 
L 28.852494 60.991337 
L 30.596988 60.97469 
L 30.600486 61.341237 
" clip-path="url(#pda67f5985b)"/>
    <path d="M 60.965846 38.747966 
L 60.889933 37.005047 
L 60.51574 36.837889 
L 61.001263 35.349095 
L 61.614391 36.790037 
L 61.256149 36.989096 
L 61.332063 38.732015 
L 60.965846 38.747966 
" clip-path="url(#pda67f5985b)"/>
    <path d="M 52.890686 -1.601584 
L 52.977196 -3.344012 
L 52.620172 -3.545246 
L 53.242051 -4.982433 
L 53.718511 -3.490714 
L 53.34331 -3.325835 
L 53.256799 -1.583407 
L 52.890686 -1.601584 
" clip-path="url(#pda67f5985b)"/>
    <path d="M 69.914636 68.388493 
L 68.491766 69.397942 
L 68.554384 69.802962 
L 67.040358 70.202917 
L 67.918078 68.906057 
L 68.279665 69.098974 
L 69.702534 68.089525 
L 69.914636 68.388493 
" clip-path="url(#pda67f5985b)"/>
    <path d="M 59.151516 49.749342 
L 57.415262 49.919524 
L 57.268612 50.302219 
L 55.755712 49.898028 
L 57.161338 49.207772 
L 57.379504 49.554708 
L 59.115757 49.384526 
L 59.151516 49.749342 
" clip-path="url(#pda67f5985b)"/>
    <path d="M 37.395895 27.782791 
L 38.304757 26.293665 
L 38.08735 25.946252 
L 39.320556 24.981139 
L 39.026023 26.519154 
L 38.617648 26.484632 
L 37.708786 27.973758 
L 37.395895 27.782791 
" clip-path="url(#pda67f5985b)"/>
    <path d="M 57.803679 58.303963 
L 59.468361 57.782071 
L 59.533592 57.377464 
L 61.097189 57.463498 
L 59.862566 58.426797 
L 59.578019 58.131848 
L 57.913337 58.65374 
L 57.803679 58.303963 
" clip-path="url(#pda67f5985b)"/>
    <path d="M 48.058677 32.862212 
L 46.597099 33.814752 
L 46.643692 34.221926 
L 45.115069 34.561851 
L 46.043259 33.300621 
L 46.396954 33.50765 
L 47.858532 32.55511 
L 48.058677 32.862212 
" clip-path="url(#pda67f5985b)"/>
    <path d="M 65.823432 7.796562 
L 67.032258 6.538677 
L 66.894952 6.152531 
L 68.307385 5.476312 
L 67.687861 6.914515 
L 67.296561 6.792672 
L 66.087735 8.050557 
L 65.823432 7.796562 
" clip-path="url(#pda67f5985b)"/>
    <path d="M 84.37351 4.367103 
L 84.49367 2.626672 
L 84.1406 2.418578 
L 84.790131 0.993675 
L 85.237681 2.49432 
L 84.859363 2.65192 
L 84.739204 4.392351 
L 84.37351 4.367103 
" clip-path="url(#pda67f5985b)"/>
    <path d="M 47.962674 74.387652 
L 49.442324 75.31187 
L 49.791967 75.098068 
L 50.744272 76.34119 
L 49.209386 76.030765 
L 49.24813 75.622769 
L 47.768481 74.698551 
L 47.962674 74.387652 
" clip-path="url(#pda67f5985b)"/>
    <path d="M 60.963507 46.634771 
L 62.67297 46.983012 
L 62.925735 46.66041 
L 64.252726 47.491876 
L 62.706221 47.737971 
L 62.599799 47.342199 
L 60.890335 46.993958 
L 60.963507 46.634771 
" clip-path="url(#pda67f5985b)"/>
    <path d="M 72.008495 80.603242 
L 70.692834 81.748917 
L 70.795338 82.145722 
L 69.32848 82.693961 
L 70.073161 81.316395 
L 70.452108 81.472474 
L 71.767769 80.326799 
L 72.008495 80.603242 
" clip-path="url(#pda67f5985b)"/>
    <path d="M 64.35872 22.184621 
L 66.102645 22.232197 
L 66.295855 21.870768 
L 67.746572 22.460396 
L 66.265865 22.970051 
L 66.092648 22.598625 
L 64.348723 22.551048 
L 64.35872 22.184621 
" clip-path="url(#pda67f5985b)"/>
    <path d="M 63.434897 105.629783 
L 64.019977 107.273322 
L 64.426779 107.323055 
L 64.400517 108.888797 
L 63.390774 107.69186 
L 63.674642 107.396257 
L 63.089562 105.752718 
L 63.434897 105.629783 
" clip-path="url(#pda67f5985b)"/>
    <path d="M 66.268713 25.213585 
L 67.93258 25.738081 
L 68.217588 25.443578 
L 69.450702 26.408807 
L 67.886972 26.492395 
L 67.822374 26.087687 
L 66.158508 25.563191 
L 66.268713 25.213585 
" clip-path="url(#pda67f5985b)"/>
    <path d="M 47.334814 32.208859 
L 45.664838 32.713556 
L 45.595438 33.117468 
L 44.032811 33.015314 
L 45.277303 32.064798 
L 45.558793 32.362666 
L 47.228769 31.857969 
L 47.334814 32.208859 
" clip-path="url(#pda67f5985b)"/>
    <path d="M 77.383751 44.853546 
L 76.22984 46.161989 
L 76.383538 46.541908 
L 75.001325 47.277928 
L 75.55876 45.81454 
L 75.954914 45.919533 
L 77.108825 44.61109 
L 77.383751 44.853546 
" clip-path="url(#pda67f5985b)"/>
    <path d="M 65.428732 74.902289 
L 64.240353 76.179511 
L 64.38387 76.563392 
L 62.982529 77.262307 
L 63.578773 75.814297 
L 63.971988 75.929813 
L 65.160367 74.652591 
L 65.428732 74.902289 
" clip-path="url(#pda67f5985b)"/>
    <path d="M 98.112103 -1.381409 
L 99.504123 -2.432985 
L 99.429413 -2.835949 
L 100.930792 -3.281034 
L 100.092274 -1.958488 
L 99.725077 -2.140498 
L 98.333057 -1.088922 
L 98.112103 -1.381409 
" clip-path="url(#pda67f5985b)"/>
    <path d="M 119.709272 56.571968 
L 121.403627 56.987537 
L 121.668951 56.675184 
L 122.962023 57.558475 
L 121.406997 57.743221 
L 121.316309 57.34355 
L 119.621954 56.92798 
L 119.709272 56.571968 
" clip-path="url(#pda67f5985b)"/>
    <path d="M 141.839159 29.334701 
L 143.581124 29.239325 
L 143.744092 28.863289 
L 145.238216 29.332152 
L 143.804213 29.961337 
L 143.601164 29.605341 
L 141.859199 29.700717 
L 141.839159 29.334701 
" clip-path="url(#pda67f5985b)"/>
    <path d="M 74.657164 30.948958 
L 76.119321 29.997306 
L 76.072975 29.590104 
L 77.601805 29.251108 
L 76.672848 30.511774 
L 76.319279 30.304529 
L 74.857122 31.256181 
L 74.657164 30.948958 
" clip-path="url(#pda67f5985b)"/>
    <path d="M 62.492657 44.497577 
L 64.194239 44.112668 
L 64.292129 43.714699 
L 65.843566 43.927491 
L 64.534757 44.787291 
L 64.275115 44.470198 
L 62.573533 44.855108 
L 62.492657 44.497577 
" clip-path="url(#pda67f5985b)"/>
    <path d="M 56.123901 -0.439684 
L 55.997738 -2.179689 
L 55.61888 -2.335982 
L 56.061251 -3.838163 
L 56.715693 -2.415509 
L 56.363343 -2.206198 
L 56.489505 -0.466193 
L 56.123901 -0.439684 
" clip-path="url(#pda67f5985b)"/>
    <path d="M 103.143378 5.263195 
L 103.811586 3.651661 
L 103.543177 3.341954 
L 104.612697 2.198117 
L 104.559006 3.763159 
L 104.150196 3.792062 
L 103.481988 5.403596 
L 103.143378 5.263195 
" clip-path="url(#pda67f5985b)"/>
    <path d="M 75.923112 33.713459 
L 77.369991 32.738742 
L 77.317193 32.332326 
L 78.840455 31.969128 
L 77.931607 33.244367 
L 77.574796 33.042756 
L 76.127917 34.017473 
L 75.923112 33.713459 
" clip-path="url(#pda67f5985b)"/>
    <path d="M 95.908886 68.011024 
L 96.977412 69.390078 
L 97.379432 69.310443 
L 97.842851 70.806265 
L 96.510146 69.983989 
L 96.68765 69.614593 
L 95.619123 68.23554 
L 95.908886 68.011024 
" clip-path="url(#pda67f5985b)"/>
    <path d="M 76.692782 76.713016 
L 75.642558 78.106058 
L 75.824925 78.473078 
L 74.503194 79.31288 
L 74.94682 77.811069 
L 75.349856 77.885388 
L 76.40008 76.492346 
L 76.692782 76.713016 
" clip-path="url(#pda67f5985b)"/>
    <path d="M 59.552093 12.215057 
L 61.191636 11.61887 
L 61.238615 11.211741 
L 62.804499 11.227408 
L 61.614421 12.245226 
L 61.316905 11.963366 
L 59.677362 12.559552 
L 59.552093 12.215057 
" clip-path="url(#pda67f5985b)"/>
    <path d="M 66.445815 93.69711 
L 67.565363 95.035075 
L 67.964109 94.940404 
L 68.483359 96.417773 
L 67.120723 95.646111 
L 67.284234 95.270311 
L 66.164686 93.932346 
L 66.445815 93.69711 
" clip-path="url(#pda67f5985b)"/>
    <path d="M 68.880423 107.698079 
L 69.617825 109.279147 
L 70.027504 109.290311 
L 70.148952 110.851558 
L 69.030877 109.755132 
L 69.285616 109.434088 
L 68.548214 107.853019 
L 68.880423 107.698079 
" clip-path="url(#pda67f5985b)"/>
    <path d="M 62.557355 17.58138 
L 64.149875 16.869047 
L 64.167509 16.459595 
L 65.730479 16.362825 
L 64.616529 17.46344 
L 64.299548 17.203662 
L 62.707028 17.915995 
L 62.557355 17.58138 
" clip-path="url(#pda67f5985b)"/>
    <path d="M 53.909038 52.400826 
L 55.576114 51.88663 
L 55.643214 51.482329 
L 57.206397 51.575586 
L 55.967337 52.533171 
L 55.684155 52.236911 
L 54.017079 52.751106 
L 53.909038 52.400826 
" clip-path="url(#pda67f5985b)"/>
    <path d="M 64.128799 39.987104 
L 63.598081 41.648992 
L 63.891516 41.9351 
L 62.921679 43.164594 
L 62.843944 41.600562 
L 63.248891 41.537479 
L 63.779608 39.875591 
L 64.128799 39.987104 
" clip-path="url(#pda67f5985b)"/>
    <path d="M 53.532062 51.80944 
L 55.268337 51.639484 
L 55.415036 51.256808 
L 56.927885 51.661197 
L 55.522168 52.35127 
L 55.304047 52.004305 
L 53.567773 52.174261 
L 53.532062 51.80944 
" clip-path="url(#pda67f5985b)"/>
    <path d="M 54.515171 113.781039 
L 54.43355 115.523703 
L 54.791138 115.723934 
L 54.173294 117.162861 
L 53.69265 115.672485 
L 54.067387 115.506553 
L 54.149008 113.763889 
L 54.515171 113.781039 
" clip-path="url(#pda67f5985b)"/>
    <path d="M 62.590929 43.473608 
L 64.224693 42.861765 
L 64.267775 42.454205 
L 65.833738 42.454893 
L 64.65345 43.484048 
L 64.353251 43.205046 
L 62.719487 43.816889 
L 62.590929 43.473608 
" clip-path="url(#pda67f5985b)"/>
    <path d="M 32.384675 62.726653 
L 30.644772 62.599086 
L 30.435176 62.951267 
L 29.013051 62.295677 
L 30.515588 61.854518 
L 30.671576 62.233503 
L 32.411479 62.36107 
L 32.384675 62.726653 
" clip-path="url(#pda67f5985b)"/>
    <path d="M 43.514469 73.490297 
L 44.864625 74.595112 
L 45.23861 74.427492 
L 46.025161 75.781588 
L 44.54219 75.278563 
L 44.632485 74.878803 
L 43.282329 73.773988 
L 43.514469 73.490297 
" clip-path="url(#pda67f5985b)"/>
    <path d="M 42.121841 32.592086 
L 40.380783 32.702783 
L 40.221129 33.080238 
L 38.722938 32.624536 
L 40.151351 31.982761 
L 40.357523 32.336957 
L 42.098582 32.226261 
L 42.121841 32.592086 
" clip-path="url(#pda67f5985b)"/>
    <path d="M 68.912899 108.000067 
L 69.576438 109.613526 
L 69.985163 109.643613 
L 70.034323 111.208804 
L 68.968118 110.061875 
L 69.237423 109.752947 
L 68.573884 108.139487 
L 68.912899 108.000067 
" clip-path="url(#pda67f5985b)"/>
    <path d="M 49.244042 -11.532661 
L 48.021932 -12.777646 
L 47.631947 -12.651656 
L 46.997193 -14.083203 
L 48.416724 -13.422013 
L 48.283524 -13.034431 
L 49.505634 -11.789446 
L 49.244042 -11.532661 
" clip-path="url(#pda67f5985b)"/>
    <path d="M 78.681241 77.744143 
L 77.8443 79.27485 
L 78.078 79.611519 
L 76.892138 80.634246 
L 77.113118 79.083954 
L 77.522673 79.098995 
L 78.359613 77.568287 
L 78.681241 77.744143 
" clip-path="url(#pda67f5985b)"/>
    <path d="M 62.139871 -0.683388 
L 62.457094 -2.39888 
L 62.129968 -2.645761 
L 62.937263 -3.987593 
L 63.211328 -2.445799 
L 62.817547 -2.332226 
L 62.500324 -0.616734 
L 62.139871 -0.683388 
" clip-path="url(#pda67f5985b)"/>
    <path d="M 32.181159 42.262944 
L 30.438482 42.181566 
L 30.238301 42.539182 
L 28.799289 41.921539 
L 30.289597 41.440687 
L 30.455581 41.815401 
L 32.198257 41.896779 
L 32.181159 42.262944 
" clip-path="url(#pda67f5985b)"/>
    <path d="M 47.756784 31.595033 
L 46.060328 32.001941 
L 45.967599 32.401144 
L 44.413536 32.208456 
L 45.711104 31.331782 
L 45.97483 31.645487 
L 47.671286 31.238579 
L 47.756784 31.595033 
" clip-path="url(#pda67f5985b)"/>
    <path d="M 63.844493 22.261597 
L 65.57728 22.059131 
L 65.716782 21.673773 
L 67.236943 22.049738 
L 65.844406 22.766034 
L 65.619821 22.423218 
L 63.887035 22.625684 
L 63.844493 22.261597 
" clip-path="url(#pda67f5985b)"/>
    <path d="M 55.683472 49.58266 
L 57.382388 49.186153 
L 57.477561 48.787526 
L 59.030414 48.989732 
L 57.727499 49.858439 
L 57.465701 49.543124 
L 55.766784 49.939631 
L 55.683472 49.58266 
" clip-path="url(#pda67f5985b)"/>
    <path d="M 83.16541 79.796552 
L 82.47554 81.398929 
L 82.739749 81.712226 
L 81.654906 82.841542 
L 81.72969 81.277366 
L 82.138853 81.253976 
L 82.828724 79.651599 
L 83.16541 79.796552 
" clip-path="url(#pda67f5985b)"/>
    <path d="M 60.418004 7.101573 
L 61.459979 5.702347 
L 61.275447 5.336411 
L 62.592193 4.488814 
L 62.157448 5.99322 
L 61.75398 5.921284 
L 60.712004 7.320509 
L 60.418004 7.101573 
" clip-path="url(#pda67f5985b)"/>
    <path d="M 31.000678 14.563047 
L 29.407404 13.852401 
L 29.090699 14.112515 
L 27.975583 13.01308 
L 29.538655 13.108194 
L 29.556723 13.517627 
L 31.149997 14.228274 
L 31.000678 14.563047 
" clip-path="url(#pda67f5985b)"/>
    <path d="M 48.157078 16.364819 
L 49.838132 15.898345 
L 49.916726 15.496121 
L 51.476617 15.633891 
L 50.210768 16.555773 
L 49.936145 16.251563 
L 48.255092 16.718036 
L 48.157078 16.364819 
" clip-path="url(#pda67f5985b)"/>
    <path d="M 51.801902 0.68461 
L 51.945985 -1.054005 
L 51.59581 -1.266935 
L 52.264875 -2.682771 
L 52.691746 -1.176113 
L 52.311297 -1.023731 
L 52.167214 0.714884 
L 51.801902 0.68461 
" clip-path="url(#pda67f5985b)"/>
    <path d="M 45.330794 70.322916 
L 46.833973 71.208349 
L 47.177939 70.985528 
L 48.162245 72.203469 
L 46.619807 71.933057 
L 46.647929 71.524192 
L 45.14475 70.63876 
L 45.330794 70.322916 
" clip-path="url(#pda67f5985b)"/>
    <path d="M 141.500735 25.691373 
L 143.229244 25.92759 
L 143.460472 25.589218 
L 144.838776 26.332533 
L 143.311572 26.678783 
L 143.179611 26.290778 
L 141.451102 26.054562 
L 141.500735 25.691373 
" clip-path="url(#pda67f5985b)"/>
    <path d="M 46.55043 30.57679 
L 44.856871 30.995587 
L 44.766944 31.395431 
L 43.211568 31.213648 
L 44.502955 30.327895 
L 44.768874 30.639742 
L 46.462433 30.220945 
L 46.55043 30.57679 
" clip-path="url(#pda67f5985b)"/>
    <path d="M 70.516505 25.005292 
L 72.236503 25.297078 
L 72.478512 24.966332 
L 73.832151 25.75367 
L 72.294585 26.050534 
L 72.175193 25.658479 
L 70.455196 25.366693 
L 70.516505 25.005292 
" clip-path="url(#pda67f5985b)"/>
    <path d="M 83.716401 80.394811 
L 83.119354 82.034041 
L 83.401059 82.331705 
L 82.382617 83.521249 
L 82.36777 81.955357 
L 82.774925 81.908592 
L 83.371972 80.269361 
L 83.716401 80.394811 
" clip-path="url(#pda67f5985b)"/>
    <path d="M 33.682884 64.235503 
L 31.940878 64.330114 
L 31.777745 64.706078 
L 30.283827 64.236559 
L 31.718106 63.608004 
L 31.920998 63.964089 
L 33.663005 63.869478 
L 33.682884 64.235503 
" clip-path="url(#pda67f5985b)"/>
    <path d="M 74.627686 39.468126 
L 73.267805 40.560951 
L 73.354559 40.961495 
L 71.867194 41.451377 
L 72.665697 40.104294 
L 73.038184 40.275217 
L 74.398065 39.182393 
L 74.627686 39.468126 
" clip-path="url(#pda67f5985b)"/>
    <path d="M 135.489899 64.111559 
L 137.176246 64.558527 
L 137.447326 64.251156 
L 138.72377 65.158311 
L 137.16558 65.314143 
L 137.08233 64.912856 
L 135.395984 64.465888 
L 135.489899 64.111559 
" clip-path="url(#pda67f5985b)"/>
    <path d="M 62.788112 2.958395 
L 63.587611 1.407801 
L 63.3458 1.07691 
L 64.506461 0.02567 
L 64.323216 1.580875 
L 63.913417 1.57579 
L 63.113917 3.126383 
L 62.788112 2.958395 
" clip-path="url(#pda67f5985b)"/>
    <path d="M 41.313959 58.011985 
L 39.571789 57.920438 
L 39.369524 58.27688 
L 37.934141 57.650849 
L 39.427231 57.178702 
L 39.591025 57.554379 
L 41.333194 57.645926 
L 41.313959 58.011985 
" clip-path="url(#pda67f5985b)"/>
    <path d="M 64.856562 35.417192 
L 64.241507 33.784637 
L 63.833863 33.742357 
L 63.83147 32.176396 
L 64.862946 33.354656 
L 64.584535 33.655403 
L 65.19959 35.287959 
L 64.856562 35.417192 
" clip-path="url(#pda67f5985b)"/>
    <path d="M 131.204181 17.924906 
L 132.943001 18.066461 
L 133.155422 17.715978 
L 134.572229 18.382984 
L 133.066192 18.812044 
L 132.913258 18.431817 
L 131.174438 18.290261 
L 131.204181 17.924906 
" clip-path="url(#pda67f5985b)"/>
    <path d="M 138.810411 20.259744 
L 140.554754 20.23146 
L 140.732069 19.861973 
L 142.207048 20.387975 
L 140.749898 20.961521 
L 140.560697 20.597976 
L 138.816353 20.62626 
L 138.810411 20.259744 
" clip-path="url(#pda67f5985b)"/>
    <path d="M 56.088599 0.082229 
L 55.395838 -1.518903 
L 54.986633 -1.541555 
L 54.909027 -3.105594 
L 55.995907 -1.978237 
L 55.732262 -1.664464 
L 56.425024 -0.063332 
L 56.088599 0.082229 
" clip-path="url(#pda67f5985b)"/>
    <path d="M 1.245851 44.329455 
L -0.475486 44.613252 
L -0.596696 45.004749 
L -2.132868 44.700748 
L -0.775587 43.919704 
L -0.535116 44.251571 
L 1.18622 43.967774 
L 1.245851 44.329455 
" clip-path="url(#pda67f5985b)"/>
    <path d="M -0.400171 85.403434 
L -1.929467 86.242953 
L -1.913735 86.652482 
L -3.463653 86.876075 
L -2.442926 85.688491 
L -2.105864 85.921623 
L -0.576568 85.082104 
L -0.400171 85.403434 
" clip-path="url(#pda67f5985b)"/>
    <path d="M 134.846194 64.432045 
L 136.588476 64.521481 
L 136.790309 64.164794 
L 138.22645 64.789085 
L 136.733934 65.263041 
L 136.569685 64.887563 
L 134.827402 64.798127 
L 134.846194 64.432045 
" clip-path="url(#pda67f5985b)"/>
    <path d="M 41.012793 79.262436 
L 39.379951 79.876732 
L 39.337481 80.284357 
L 37.771519 80.286022 
L 38.950259 79.255094 
L 39.250877 79.533645 
L 40.883719 78.919348 
L 41.012793 79.262436 
" clip-path="url(#pda67f5985b)"/>
    <path d="M 71.541209 68.550999 
L 70.794762 70.127816 
L 71.047657 70.450315 
L 69.923319 71.540317 
L 70.05371 69.979792 
L 70.463446 69.970975 
L 71.209893 68.394158 
L 71.541209 68.550999 
" clip-path="url(#pda67f5985b)"/>
    <path d="M 36.440456 40.536056 
L 34.706949 40.339853 
L 34.483604 40.683478 
L 33.088488 39.972218 
L 34.607281 39.590763 
L 34.748174 39.975614 
L 36.481682 40.171817 
L 36.440456 40.536056 
" clip-path="url(#pda67f5985b)"/>
    <path d="M 87.089782 90.307798 
L 86.491343 91.946518 
L 86.772795 92.244421 
L 85.753342 93.433099 
L 85.739826 91.867195 
L 86.14702 91.820775 
L 86.745459 90.182055 
L 87.089782 90.307798 
" clip-path="url(#pda67f5985b)"/>
    <path d="M 73.96083 47.238422 
L 75.523822 46.463442 
L 75.525191 46.053613 
L 77.083088 45.894883 
L 76.0137 47.038845 
L 75.686658 46.791852 
L 74.123667 47.566833 
L 73.96083 47.238422 
" clip-path="url(#pda67f5985b)"/>
    <path d="M -3.672525 42.982106 
L -5.385368 43.313326 
L -5.495721 43.708021 
L -7.039701 43.446555 
L -5.704506 42.62833 
L -5.454963 42.953429 
L -3.74212 42.622209 
L -3.672525 42.982106 
" clip-path="url(#pda67f5985b)"/>
    <path d="M 68.714421 15.147936 
L 70.253611 14.326696 
L 70.24276 13.917008 
L 71.795232 13.711898 
L 70.760428 14.887237 
L 70.426167 14.650105 
L 68.886977 15.471345 
L 68.714421 15.147936 
" clip-path="url(#pda67f5985b)"/>
    <path d="M 54.069869 61.951968 
L 55.546492 61.022924 
L 55.506415 60.615057 
L 57.04028 60.299621 
L 56.092039 61.545847 
L 55.741699 61.333187 
L 54.265077 62.262231 
L 54.069869 61.951968 
" clip-path="url(#pda67f5985b)"/>
    <path d="M 76.755548 32.231576 
L 78.264312 31.355696 
L 78.238784 30.946661 
L 79.782906 30.686037 
L 78.790895 31.897711 
L 78.44835 31.672713 
L 76.939585 32.548593 
L 76.755548 32.231576 
" clip-path="url(#pda67f5985b)"/>
    <path d="M 107.777692 57.554117 
L 109.504083 57.805363 
L 109.738245 57.469015 
L 111.11003 58.224293 
L 109.579873 58.557244 
L 109.451292 58.168106 
L 107.724902 57.91686 
L 107.777692 57.554117 
" clip-path="url(#pda67f5985b)"/>
    <path d="M 63.28234 6.155314 
L 64.590775 5.001394 
L 64.485779 4.605241 
L 65.949163 4.047794 
L 65.213153 5.430013 
L 64.833233 5.276318 
L 63.524798 6.430239 
L 63.28234 6.155314 
" clip-path="url(#pda67f5985b)"/>
    <path d="M 128.788791 19.433365 
L 130.500343 19.095536 
L 130.609172 18.700418 
L 132.15415 18.955923 
L 130.822122 19.779295 
L 130.571326 19.455162 
L 128.859775 19.79299 
L 128.788791 19.433365 
" clip-path="url(#pda67f5985b)"/>
    <path d="M 58.074153 40.874531 
L 58.508066 42.564283 
L 58.908697 42.650633 
L 58.740818 44.207571 
L 57.843562 42.92415 
L 58.153021 42.655455 
L 57.719108 40.965703 
L 58.074153 40.874531 
" clip-path="url(#pda67f5985b)"/>
    <path d="M 60.140627 2.803091 
L 60.300251 1.065834 
L 59.951994 0.849781 
L 60.633692 -0.560016 
L 61.047074 0.9504 
L 60.665277 1.099373 
L 60.505653 2.836631 
L 60.140627 2.803091 
" clip-path="url(#pda67f5985b)"/>
    <path d="M 45.108098 24.720764 
L 43.655166 23.755091 
L 43.299619 23.958924 
L 42.382834 22.689379 
L 43.908331 23.043068 
L 43.85807 23.449805 
L 45.311003 24.415479 
L 45.108098 24.720764 
" clip-path="url(#pda67f5985b)"/>
    <path d="M 132.598603 29.945747 
L 134.332069 30.14229 
L 134.555481 29.798708 
L 135.950457 30.510241 
L 134.43159 30.891399 
L 134.290772 30.50652 
L 132.557306 30.309978 
L 132.598603 29.945747 
" clip-path="url(#pda67f5985b)"/>
    <path d="M 134.067588 28.668589 
L 135.811489 28.6202 
L 135.984533 28.248694 
L 137.465476 28.757659 
L 136.015035 29.347963 
L 135.821656 28.986623 
L 134.077755 29.035012 
L 134.067588 28.668589 
" clip-path="url(#pda67f5985b)"/>
    <path d="M 65.314595 102.061694 
L 65.863769 103.717577 
L 66.269393 103.77615 
L 66.209063 105.34095 
L 65.225608 104.122322 
L 65.515841 103.832967 
L 64.966667 102.177085 
L 65.314595 102.061694 
" clip-path="url(#pda67f5985b)"/>
    <path d="M 66.028245 13.495223 
L 67.601793 12.741908 
L 67.608823 12.332137 
L 69.168764 12.194944 
L 68.083675 13.324024 
L 67.760077 13.072537 
L 66.186529 13.825852 
L 66.028245 13.495223 
" clip-path="url(#pda67f5985b)"/>
    <path d="M 139.751992 18.838638 
L 141.337098 18.10996 
L 141.350519 17.700349 
L 142.91241 17.587505 
L 141.809841 18.699521 
L 141.490205 18.443018 
L 139.9051 19.171695 
L 139.751992 18.838638 
" clip-path="url(#pda67f5985b)"/>
    <path d="M 103.014585 5.301908 
L 104.031412 3.884306 
L 103.840376 3.521722 
L 105.141779 2.650752 
L 104.733963 4.16268 
L 104.329274 4.097958 
L 103.312447 5.51556 
L 103.014585 5.301908 
" clip-path="url(#pda67f5985b)"/>
    <path d="M 24.560585 55.621806 
L 22.85011 55.278569 
L 22.59829 55.601908 
L 21.268872 54.774329 
L 22.81465 54.52371 
L 22.92223 54.919169 
L 24.632705 55.262407 
L 24.560585 55.621806 
" clip-path="url(#pda67f5985b)"/>
    <path d="M 141.070219 8.632881 
L 142.807025 8.7973 
L 143.024038 8.449641 
L 144.431948 9.135229 
L 142.920397 9.544439 
L 142.772478 9.162232 
L 141.035671 8.997814 
L 141.070219 8.632881 
" clip-path="url(#pda67f5985b)"/>
    <path d="M 33.688709 33.858825 
L 33.737026 32.114919 
L 33.375679 31.921555 
L 33.965923 30.471089 
L 34.474949 31.952012 
L 34.10345 32.125072 
L 34.055133 33.868977 
L 33.688709 33.858825 
" clip-path="url(#pda67f5985b)"/>
    <path d="M 65.196637 13.567396 
L 66.814696 12.915151 
L 66.847639 12.506646 
L 68.413135 12.468427 
L 67.258782 13.52659 
L 66.951743 13.255132 
L 65.333685 13.907378 
L 65.196637 13.567396 
" clip-path="url(#pda67f5985b)"/>
    <path d="M 57.658826 2.333148 
L 57.915992 0.607629 
L 57.580449 0.372315 
L 58.340427 -0.996872 
L 58.668128 0.534419 
L 58.278551 0.661664 
L 58.021386 2.387183 
L 57.658826 2.333148 
" clip-path="url(#pda67f5985b)"/>
    <path d="M 93.351297 40.770799 
L 95.065387 41.095498 
L 95.313691 40.769451 
L 96.651991 41.582588 
L 95.109017 41.849928 
L 94.997162 41.455657 
L 93.283072 41.130959 
L 93.351297 40.770799 
" clip-path="url(#pda67f5985b)"/>
    <path d="M 35.92632 61.752732 
L 34.214624 62.089825 
L 34.105625 62.484896 
L 32.560757 62.228727 
L 33.893138 61.405927 
L 34.143795 61.730169 
L 35.855491 61.393075 
L 35.92632 61.752732 
" clip-path="url(#pda67f5985b)"/>
    <path d="M 71.986574 51.770163 
L 73.676454 51.336751 
L 73.762923 50.936146 
L 75.319811 51.104486 
L 74.036124 52.001362 
L 73.767521 51.691823 
L 72.077641 52.125235 
L 71.986574 51.770163 
" clip-path="url(#pda67f5985b)"/>
    <path d="M 32.756824 43.817017 
L 31.012565 43.850102 
L 30.836268 44.220076 
L 29.359847 43.698136 
L 30.815412 43.120582 
L 31.005613 43.483604 
L 32.749872 43.450519 
L 32.756824 43.817017 
" clip-path="url(#pda67f5985b)"/>
    <path d="M 134.316072 83.929625 
L 135.990982 84.417706 
L 136.269499 84.117057 
L 137.523373 85.055162 
L 135.961838 85.172835 
L 135.888428 84.769632 
L 134.213518 84.281551 
L 134.316072 83.929625 
" clip-path="url(#pda67f5985b)"/>
    <path d="M 47.737562 20.621548 
L 46.185257 19.825378 
L 45.854886 20.067899 
L 44.801157 18.909496 
L 46.356752 19.089403 
L 46.352546 19.499213 
L 47.904851 20.295383 
L 47.737562 20.621548 
" clip-path="url(#pda67f5985b)"/>
    <path d="M 84.213923 -2.56092 
L 84.669405 -4.244982 
L 84.363408 -4.517611 
L 85.277001 -5.789455 
L 85.424958 -4.230497 
L 85.023255 -4.149277 
L 84.567773 -2.465215 
L 84.213923 -2.56092 
" clip-path="url(#pda67f5985b)"/>
    <path d="M 58.35221 64.284744 
L 60.064576 63.951058 
L 60.174361 63.556205 
L 61.718716 63.815448 
L 60.3847 64.635594 
L 60.134689 64.310854 
L 58.422323 64.644541 
L 58.35221 64.284744 
" clip-path="url(#pda67f5985b)"/>
    <path d="M 5.73679 101.666617 
L 4.23745 102.558534 
L 4.267339 102.967274 
L 2.726083 103.244347 
L 3.705119 102.022165 
L 4.050044 102.243498 
L 5.549383 101.351581 
L 5.73679 101.666617 
" clip-path="url(#pda67f5985b)"/>
    <path d="M 72.379017 49.724848 
L 74.015208 49.119521 
L 74.059914 48.712135 
L 75.625861 48.719064 
L 74.441482 49.743508 
L 74.142397 49.463312 
L 72.506206 50.068639 
L 72.379017 49.724848 
" clip-path="url(#pda67f5985b)"/>
    <path d="M 57.262631 56.707463 
L 58.752355 55.799571 
L 58.7181 55.391174 
L 60.256306 55.097646 
L 59.290389 56.330221 
L 58.943118 56.112587 
L 57.453394 57.020479 
L 57.262631 56.707463 
" clip-path="url(#pda67f5985b)"/>
    <path d="M 63.751346 45.006694 
L 65.412833 44.474721 
L 65.47561 44.069727 
L 67.0397 44.146281 
L 65.810939 45.117046 
L 65.524609 44.823828 
L 63.863122 45.3558 
L 63.751346 45.006694 
" clip-path="url(#pda67f5985b)"/>
    <path d="M -3.997737 58.96118 
L -5.673411 59.446622 
L -5.747456 59.849709 
L -7.308803 59.729576 
L -6.053454 58.793448 
L -5.775411 59.094535 
L -4.099736 58.609093 
L -3.997737 58.96118 
" clip-path="url(#pda67f5985b)"/>
    <path d="M 140.04071 67.059223 
L 141.781393 66.94279 
L 141.939802 66.56481 
L 143.439487 67.015573 
L 142.013196 67.662051 
L 141.805858 67.308536 
L 140.065174 67.424969 
L 140.04071 67.059223 
" clip-path="url(#pda67f5985b)"/>
    <path d="M 139.301064 30.110466 
L 141.039702 29.966668 
L 141.192146 29.586244 
L 142.698735 30.013361 
L 141.282789 30.682194 
L 141.069916 30.331984 
L 139.331278 30.475783 
L 139.301064 30.110466 
" clip-path="url(#pda67f5985b)"/>
    <path d="M 54.57397 59.416725 
L 56.226766 58.858334 
L 56.283079 58.452391 
L 57.848191 58.504001 
L 56.635061 59.494231 
L 56.344093 59.205615 
L 54.691298 59.764006 
L 54.57397 59.416725 
" clip-path="url(#pda67f5985b)"/>
    <path d="M 34.236613 15.59496 
L 32.990047 14.374463 
L 32.602638 14.508163 
L 31.939612 13.08949 
L 33.371979 13.722391 
L 33.246494 14.112538 
L 34.49306 15.333036 
L 34.236613 15.59496 
" clip-path="url(#pda67f5985b)"/>
    <path d="M 124.178074 93.237541 
L 125.866338 93.67719 
L 126.136082 93.368645 
L 127.416448 94.270256 
L 125.858949 94.432845 
L 125.77396 94.031923 
L 124.085696 93.592274 
L 124.178074 93.237541 
" clip-path="url(#pda67f5985b)"/>
    <path d="M 55.096304 46.473661 
L 56.747688 45.911112 
L 56.802979 45.505028 
L 58.368216 45.5527 
L 57.157582 46.545979 
L 56.86589 46.258096 
L 55.214505 46.820645 
L 55.096304 46.473661 
" clip-path="url(#pda67f5985b)"/>
    <path d="M 60.615184 38.535743 
L 60.184975 36.845044 
L 59.784534 36.757816 
L 59.955823 35.20125 
L 60.850265 36.486634 
L 60.540218 36.75465 
L 60.970427 38.445349 
L 60.615184 38.535743 
" clip-path="url(#pda67f5985b)"/>
    <path d="M 39.429943 40.580449 
L 37.68538 40.574676 
L 37.500886 40.940631 
L 36.036457 40.385936 
L 37.504525 39.840945 
L 37.686593 40.208114 
L 39.431156 40.213887 
L 39.429943 40.580449 
" clip-path="url(#pda67f5985b)"/>
    <path d="M 43.380079 23.693362 
L 41.79083 22.973761 
L 41.472666 23.232089 
L 40.363755 22.126396 
L 41.926267 22.230305 
L 41.942031 22.639833 
L 43.531279 23.359434 
L 43.380079 23.693362 
" clip-path="url(#pda67f5985b)"/>
    <path d="M 73.488258 36.084132 
L 74.830939 34.970249 
L 74.737953 34.571106 
L 76.217503 34.058102 
L 75.440091 35.417466 
L 75.064985 35.252369 
L 73.722304 36.366252 
L 73.488258 36.084132 
" clip-path="url(#pda67f5985b)"/>
    <path d="M 44.684724 15.756362 
L 46.36741 16.216916 
L 46.64096 15.911741 
L 47.910046 16.829162 
L 46.35065 16.972422 
L 46.27064 16.570476 
L 44.587954 16.109922 
L 44.684724 15.756362 
" clip-path="url(#pda67f5985b)"/>
    <path d="M 125.423525 87.379732 
L 127.167436 87.331672 
L 127.340551 86.960198 
L 128.821398 87.469444 
L 127.370845 88.059473 
L 127.177534 87.698097 
L 125.433623 87.746157 
L 125.423525 87.379732 
" clip-path="url(#pda67f5985b)"/>
    <path d="M 129.753276 85.694453 
L 131.476961 85.963632 
L 131.714608 85.629737 
L 133.078467 86.399235 
L 131.544931 86.716261 
L 131.420403 86.325807 
L 129.696717 86.056627 
L 129.753276 85.694453 
" clip-path="url(#pda67f5985b)"/>
    <path d="M 69.453237 95.516972 
L 70.536538 96.884451 
L 70.937678 96.800496 
L 71.417161 98.291246 
L 70.075688 97.483355 
L 70.249208 97.11207 
L 69.165907 95.744591 
L 69.453237 95.516972 
" clip-path="url(#pda67f5985b)"/>
    <path d="M 15.710986 52.882351 
L 13.97633 53.068113 
L 13.833121 53.452109 
L 12.316653 53.061515 
L 13.716026 52.358669 
L 13.937298 52.703633 
L 15.671955 52.517871 
L 15.710986 52.882351 
" clip-path="url(#pda67f5985b)"/>
    <path d="M 142.845208 63.917609 
L 144.589198 63.962652 
L 144.781884 63.600942 
L 146.233455 64.188462 
L 144.753491 64.700268 
L 144.579734 64.329094 
L 142.835743 64.284051 
L 142.845208 63.917609 
" clip-path="url(#pda67f5985b)"/>
    <path d="M 51.499486 51.378306 
L 53.24403 51.388523 
L 53.429456 51.023038 
L 54.892467 51.581462 
L 53.423016 52.122712 
L 53.241884 51.755081 
L 51.49734 51.744863 
L 51.499486 51.378306 
" clip-path="url(#pda67f5985b)"/>
    <path d="M 56.215209 68.146764 
L 54.812627 69.184214 
L 54.883259 69.587912 
L 53.377457 70.017795 
L 54.229303 68.703794 
L 54.594641 68.889508 
L 55.997224 67.852058 
L 56.215209 68.146764 
" clip-path="url(#pda67f5985b)"/>
    <path d="M 139.70861 38.879413 
L 141.440816 39.086793 
L 141.666373 38.744615 
L 143.056872 39.464859 
L 141.535651 39.836511 
L 141.397242 39.450758 
L 139.665035 39.243378 
L 139.70861 38.879413 
" clip-path="url(#pda67f5985b)"/>
    <path d="M 54.624874 108.147838 
L 55.016861 109.847803 
L 55.415234 109.944035 
L 55.2089 111.496345 
L 54.34366 110.191125 
L 54.65967 109.930166 
L 54.267683 108.230201 
L 54.624874 108.147838 
" clip-path="url(#pda67f5985b)"/>
    <path d="M 80.593381 25.817956 
L 81.956737 24.729467 
L 81.871259 24.328649 
L 83.360176 23.843506 
L 82.557387 25.188039 
L 82.185446 25.01593 
L 80.822091 26.104419 
L 80.593381 25.817956 
" clip-path="url(#pda67f5985b)"/>
    <path d="M 69.617297 98.107691 
L 70.769564 99.417584 
L 71.165849 99.313088 
L 71.721446 100.777176 
L 70.340158 100.03942 
L 70.494333 99.659694 
L 69.342066 98.349801 
L 69.617297 98.107691 
" clip-path="url(#pda67f5985b)"/>
    <path d="M 59.282954 5.804271 
L 60.29756 4.385079 
L 60.105957 4.022795 
L 61.405995 3.149788 
L 61.000546 4.662352 
L 60.595757 4.598265 
L 59.581151 6.017457 
L 59.282954 5.804271 
" clip-path="url(#pda67f5985b)"/>
    <path d="M 69.146599 104.028769 
L 69.879685 105.611845 
L 70.289332 105.624126 
L 70.406521 107.185698 
L 69.291441 106.086227 
L 69.547055 105.765878 
L 68.813969 104.182803 
L 69.146599 104.028769 
" clip-path="url(#pda67f5985b)"/>
    <path d="M 52.510886 -3.840605 
L 51.662313 -5.364899 
L 51.252885 -5.346739 
L 51.020107 -6.895304 
L 52.213722 -5.881636 
L 51.982592 -5.543198 
L 52.831165 -4.018904 
L 52.510886 -3.840605 
" clip-path="url(#pda67f5985b)"/>
    <path d="M 25.324233 61.706851 
L 23.624292 61.31475 
L 23.363313 61.630742 
L 22.05815 60.765416 
L 23.610473 60.559185 
L 23.706679 60.957564 
L 25.40662 61.349665 
L 25.324233 61.706851 
" clip-path="url(#pda67f5985b)"/>
    <path d="M 141.374003 51.00255 
L 143.053279 50.529709 
L 143.130349 50.12719 
L 144.69075 50.259048 
L 143.428404 51.18572 
L 143.15263 50.882552 
L 141.473354 51.355394 
L 141.374003 51.00255 
" clip-path="url(#pda67f5985b)"/>
   </g>
  </g>
 </g>
 <defs>
  <clipPath id="pda67f5985b">
   <rect x="7.2" y="7.2" width="86.4" height="86.4"/>
  </clipPath>
 </defs>
</svg>
