<?xml version="1.0" encoding="utf-8" standalone="no"?>
<!DOCTYPE svg PUBLIC "-//W3C//DTD SVG 1.1//EN"
  "http://www.w3.org/Graphics/SVG/1.1/DTD/svg11.dtd">
<svg xmlns:xlink="http://www.w3.org/1999/xlink" width="100.8pt" height="100.8pt" viewBox="0 0 100.8 100.8" xmlns="http://www.w3.org/2000/svg" version="1.1">
 <metadata>
  <rdf:RDF xmlns:dc="http://purl.org/dc/elements/1.1/" xmlns:cc="http://creativecommons.org/ns#" xmlns:rdf="http://www.w3.org/1999/02/22-rdf-syntax-ns#">
   <cc:Work>
    <dc:type rdf:resource="http://purl.org/dc/dcmitype/StillImage"/>
    <dc:date>2025-09-10T17:09:17.862183</dc:date>
    <dc:format>image/svg+xml</dc:format>
    <dc:creator>
     <cc:Agent>
      <dc:title>Matplotlib v3.10.5, https://matplotlib.org/</dc:title>
     </cc:Agent>
    </dc:creator>
   </cc:Work>
  </rdf:RDF>
 </metadata>
 <defs>
  <style type="text/css">*{stroke-linejoin: round; stroke-linecap: butt}</style>
 </defs>
 <g id="figure_1">
  <g id="patch_1">
   <path d="M 0 100.8 
L 100.8 100.8 
L 100.8 0 
L 0 0 
z
" style="fill: #ffffff"/>
  </g>
  <g id="axes_1">
   <g id="Quiver_1">
    <path d="M 55.065406 77.7949 
L 56.737828 78.29143 
L 57.017859 77.992191 
L 58.266981 78.936613 
L 56.704871 79.046402 
L 56.633498 78.642834 
L 54.961077 78.146304 
L 55.065406 77.7949 
" clip-path="url(#pea4e8169d3)"/>
    <path d="M 98.141442 90.182132 
L 99.69927 90.967443 
L 100.027939 90.722621 
L 101.089731 91.873637 
L 99.532919 91.704597 
L 99.534263 91.294768 
L 97.976435 90.509457 
L 98.141442 90.182132 
" clip-path="url(#pea4e8169d3)"/>
    <path d="M 60.749295 68.48798 
L 59.010044 68.624141 
L 58.855931 69.003892 
L 57.351232 68.570163 
L 58.770101 67.907554 
L 58.981434 68.258695 
L 60.720685 68.122534 
L 60.749295 68.48798 
" clip-path="url(#pea4e8169d3)"/>
    <path d="M 60.025879 59.291837 
L 61.768884 59.217863 
L 61.936458 58.843857 
L 63.424711 59.331036 
L 61.983087 59.94256 
L 61.784427 59.584098 
L 60.041422 59.658071 
L 60.025879 59.291837 
" clip-path="url(#pea4e8169d3)"/>
    <path d="M 64.546173 28.833988 
L 63.025556 29.689124 
L 63.045481 30.098471 
L 61.497934 30.337925 
L 62.506445 29.139949 
L 62.845877 29.369617 
L 64.366495 28.51448 
L 64.546173 28.833988 
" clip-path="url(#pea4e8169d3)"/>
    <path d="M 83.541372 67.917794 
L 85.233266 68.343285 
L 85.500416 68.032491 
L 86.788291 68.923344 
L 85.232208 69.098975 
L 85.143863 68.69878 
L 83.451969 68.273289 
L 83.541372 67.917794 
" clip-path="url(#pea4e8169d3)"/>
    <path d="M 46.50238 49.569744 
L 44.79043 49.233932 
L 44.540016 49.558361 
L 43.207019 48.736558 
L 44.751695 48.479234 
L 44.86099 48.874222 
L 46.57294 49.210035 
L 46.50238 49.569744 
" clip-path="url(#pea4e8169d3)"/>
    <path d="M 58.514595 30.268544 
L 56.775783 30.41021 
L 56.622872 30.790446 
L 55.116808 30.361481 
L 56.533573 29.694385 
L 56.746016 30.044856 
L 58.484828 29.903191 
L 58.514595 30.268544 
" clip-path="url(#pea4e8169d3)"/>
    <path d="M 105.83052 60.539138 
L 107.547158 60.228197 
L 107.662172 59.834835 
L 109.202952 60.114542 
L 107.858174 60.91692 
L 107.612492 60.588892 
L 105.895854 60.899833 
L 105.83052 60.539138 
" clip-path="url(#pea4e8169d3)"/>
    <path d="M 59.64938 64.553074 
L 57.914187 64.733763 
L 57.769857 65.117339 
L 56.254537 64.722313 
L 57.65596 64.02356 
L 57.876222 64.36917 
L 59.611414 64.188482 
L 59.64938 64.553074 
" clip-path="url(#pea4e8169d3)"/>
    <path d="M 36.357228 59.147461 
L 36.456481 60.889211 
L 36.832879 61.051341 
L 36.367342 62.546505 
L 35.734968 61.113906 
L 36.090511 60.910066 
L 35.991258 59.168316 
L 36.357228 59.147461 
" clip-path="url(#pea4e8169d3)"/>
    <path d="M 70.405303 44.879219 
L 68.66612 44.742188 
L 68.454612 45.093224 
L 67.036074 44.429907 
L 68.540989 43.996929 
L 68.694912 44.376757 
L 70.434095 44.513787 
L 70.405303 44.879219 
" clip-path="url(#pea4e8169d3)"/>
    <path d="M 57.260479 86.604707 
L 55.529351 86.820894 
L 55.392907 87.207345 
L 53.869815 86.843435 
L 55.256633 86.116129 
L 55.483927 86.457155 
L 57.215055 86.240968 
L 57.260479 86.604707 
" clip-path="url(#pea4e8169d3)"/>
    <path d="M 22.674849 59.250357 
L 20.999532 59.737034 
L 20.925785 60.140176 
L 19.364349 60.021193 
L 20.619008 59.08414 
L 20.897273 59.385022 
L 22.57259 58.898346 
L 22.674849 59.250357 
" clip-path="url(#pea4e8169d3)"/>
    <path d="M 57.529252 56.686404 
L 55.790334 56.546052 
L 55.578155 56.896683 
L 54.160887 56.230659 
L 55.666626 55.800555 
L 55.819824 56.180676 
L 57.558742 56.321028 
L 57.529252 56.686404 
" clip-path="url(#pea4e8169d3)"/>
    <path d="M 53.470183 50.346985 
L 51.794704 50.833107 
L 51.720823 51.236224 
L 50.159426 51.116723 
L 51.414397 50.180086 
L 51.692562 50.481061 
L 53.368041 49.99494 
L 53.470183 50.346985 
" clip-path="url(#pea4e8169d3)"/>
    <path d="M 83.534735 72.446907 
L 85.275653 72.559816 
L 85.482275 72.205883 
L 86.909871 72.849472 
L 85.411102 73.30327 
L 85.251929 72.925612 
L 83.511011 72.812703 
L 83.534735 72.446907 
" clip-path="url(#pea4e8169d3)"/>
    <path d="M 49.459937 61.833565 
L 47.894109 62.602797 
L 47.891234 63.012618 
L 46.332764 63.165622 
L 47.406348 62.025598 
L 47.73248 62.27379 
L 49.298309 61.504558 
L 49.459937 61.833565 
" clip-path="url(#pea4e8169d3)"/>
    <path d="M 72.543622 42.590597 
L 70.830623 42.260189 
L 70.581234 42.585407 
L 69.245651 41.767814 
L 70.789507 41.505617 
L 70.900048 41.900259 
L 72.613046 42.230667 
L 72.543622 42.590597 
" clip-path="url(#pea4e8169d3)"/>
    <path d="M 76.987806 29.261806 
L 78.708599 28.974746 
L 78.829067 28.58302 
L 80.365812 28.884106 
L 79.010016 29.667723 
L 78.768916 29.336313 
L 77.048122 29.623374 
L 76.987806 29.261806 
" clip-path="url(#pea4e8169d3)"/>
    <path d="M 57.680335 16.553435 
L 59.377253 16.148454 
L 59.470435 15.749357 
L 61.024278 15.943809 
L 59.725715 16.819009 
L 59.462346 16.505005 
L 57.765429 16.909986 
L 57.680335 16.553435 
" clip-path="url(#pea4e8169d3)"/>
    <path d="M 87.708418 34.043018 
L 89.430889 33.766172 
L 89.553679 33.375168 
L 91.088611 33.685368 
L 89.728188 34.460926 
L 89.489059 34.128091 
L 87.766588 34.404937 
L 87.708418 34.043018 
" clip-path="url(#pea4e8169d3)"/>
    <path d="M 37.784945 64.851068 
L 39.489669 64.480319 
L 39.590863 64.083177 
L 41.140478 64.308861 
L 39.824565 65.15775 
L 39.567569 64.838509 
L 37.862846 65.209259 
L 37.784945 64.851068 
" clip-path="url(#pea4e8169d3)"/>
    <path d="M 48.48722 28.248357 
L 50.228557 28.142159 
L 50.389185 27.765118 
L 51.886193 28.224689 
L 50.456127 28.862771 
L 50.250871 28.508044 
L 48.509533 28.614241 
L 48.48722 28.248357 
" clip-path="url(#pea4e8169d3)"/>
    <path d="M 51.55252 41.004011 
L 49.860659 41.429623 
L 49.772343 41.829825 
L 48.216248 41.654305 
L 49.504058 40.76336 
L 49.771231 41.074134 
L 51.463092 40.648522 
L 51.55252 41.004011 
" clip-path="url(#pea4e8169d3)"/>
    <path d="M 67.144783 23.223964 
L 65.400309 23.205383 
L 65.213133 23.569974 
L 63.752816 23.004543 
L 65.224846 22.470344 
L 65.404213 22.83884 
L 67.148687 22.85742 
L 67.144783 23.223964 
" clip-path="url(#pea4e8169d3)"/>
    <path d="M 49.758005 49.022108 
L 48.053853 49.39548 
L 47.95327 49.792776 
L 46.403309 49.569477 
L 47.717915 48.718564 
L 47.975402 49.037409 
L 49.679553 48.664037 
L 49.758005 49.022108 
" clip-path="url(#pea4e8169d3)"/>
    <path d="M 71.287709 47.293558 
L 73.024184 47.46147 
L 73.241897 47.114249 
L 74.648424 47.802667 
L 73.136053 48.208836 
L 72.988903 47.826333 
L 71.252428 47.65842 
L 71.287709 47.293558 
" clip-path="url(#pea4e8169d3)"/>
    <path d="M 47.361914 20.286746 
L 49.083224 20.570706 
L 49.323727 20.238863 
L 50.680933 21.020035 
L 49.144733 21.32389 
L 49.023559 20.932382 
L 47.302249 20.648422 
L 47.361914 20.286746 
" clip-path="url(#pea4e8169d3)"/>
    <path d="M 25.58645 50.519978 
L 23.897 50.955056 
L 23.810926 51.355747 
L 22.253872 51.188943 
L 23.536674 50.290801 
L 23.805582 50.600074 
L 25.495032 50.164996 
L 25.58645 50.519978 
" clip-path="url(#pea4e8169d3)"/>
    <path d="M 91.279535 60.889319 
L 92.986977 61.247337 
L 93.241584 60.926188 
L 94.563794 61.765234 
L 93.015906 62.002474 
L 92.911751 61.606099 
L 91.204309 61.248081 
L 91.279535 60.889319 
" clip-path="url(#pea4e8169d3)"/>
    <path d="M 46.697025 58.624519 
L 48.227168 59.462495 
L 48.563995 59.229023 
L 49.58592 60.415576 
L 48.035777 60.193548 
L 48.051095 59.784003 
L 46.520953 58.946028 
L 46.697025 58.624519 
" clip-path="url(#pea4e8169d3)"/>
    <path d="M 73.281523 32.248873 
L 74.918461 31.645568 
L 74.96367 31.238238 
L 76.529608 31.247103 
L 75.343963 32.270082 
L 75.045225 31.989516 
L 73.408287 32.59282 
L 73.281523 32.248873 
" clip-path="url(#pea4e8169d3)"/>
    <path d="M 74.573257 27.545983 
L 72.832462 27.660736 
L 72.673688 28.038562 
L 71.17444 27.586352 
L 72.601354 26.941251 
L 72.80835 27.294966 
L 74.549146 27.180213 
L 74.573257 27.545983 
" clip-path="url(#pea4e8169d3)"/>
    <path d="M 24.853852 55.866399 
L 23.109298 55.858199 
L 22.924295 56.223897 
L 21.46064 55.667165 
L 22.929465 55.124217 
L 23.111022 55.491639 
L 24.855575 55.499839 
L 24.853852 55.866399 
" clip-path="url(#pea4e8169d3)"/>
    <path d="M 62.063706 66.939718 
L 60.319218 66.957124 
L 60.139603 67.325499 
L 58.667933 66.79031 
L 60.128631 66.225861 
L 60.315561 66.590579 
L 62.060049 66.573172 
L 62.063706 66.939718 
" clip-path="url(#pea4e8169d3)"/>
    <path d="M 112.399146 21.690259 
L 114.115136 21.375756 
L 114.229333 20.982157 
L 115.77069 21.258665 
L 114.42758 22.063832 
L 114.181218 21.736315 
L 112.465228 22.050818 
L 112.399146 21.690259 
" clip-path="url(#pea4e8169d3)"/>
    <path d="M 49.802528 48.154168 
L 48.068503 47.962593 
L 47.846077 48.306814 
L 46.449067 47.59928 
L 47.966836 47.213772 
L 48.108757 47.598246 
L 49.842781 47.78982 
L 49.802528 48.154168 
" clip-path="url(#pea4e8169d3)"/>
    <path d="M 55.134949 50.526482 
L 53.390379 50.52197 
L 53.20615 50.888059 
L 51.74132 50.334422 
L 53.208994 49.78837 
L 53.391327 50.155407 
L 55.135897 50.159919 
L 55.134949 50.526482 
" clip-path="url(#pea4e8169d3)"/>
    <path d="M 49.394917 15.837098 
L 51.137075 15.928874 
L 51.339387 15.572459 
L 52.774688 16.198679 
L 51.281536 16.670629 
L 51.117792 16.294931 
L 49.375633 16.203155 
L 49.394917 15.837098 
" clip-path="url(#pea4e8169d3)"/>
    <path d="M 76.938566 34.407445 
L 77.127623 32.673147 
L 76.78308 32.451221 
L 77.488585 31.053185 
L 77.876296 32.570393 
L 77.492029 32.712872 
L 77.302971 34.447169 
L 76.938566 34.407445 
" clip-path="url(#pea4e8169d3)"/>
    <path d="M 80.351984 79.053451 
L 78.669571 79.514997 
L 78.589798 79.916989 
L 77.030318 79.774649 
L 78.298863 78.85648 
L 78.572593 79.161494 
L 80.255005 78.699948 
L 80.351984 79.053451 
" clip-path="url(#pea4e8169d3)"/>
    <path d="M 39.68578 77.688086 
L 38.842942 79.215555 
L 39.075341 79.553123 
L 37.885543 80.571268 
L 38.112501 79.02184 
L 38.521995 79.038461 
L 39.364833 77.510992 
L 39.68578 77.688086 
" clip-path="url(#pea4e8169d3)"/>
    <path d="M 60.44531 85.328153 
L 62.080516 85.936138 
L 62.380056 85.656428 
L 63.562769 86.682794 
L 61.996813 86.687179 
L 61.952769 86.279722 
L 60.317562 85.671737 
L 60.44531 85.328153 
" clip-path="url(#pea4e8169d3)"/>
    <path d="M 48.529677 56.323456 
L 46.79926 56.101657 
L 46.570861 56.441945 
L 45.186408 55.710146 
L 46.710672 55.351176 
L 46.845863 55.738068 
L 48.57628 55.959866 
L 48.529677 56.323456 
" clip-path="url(#pea4e8169d3)"/>
    <path d="M 59.469143 61.455468 
L 57.732226 61.292177 
L 57.515439 61.639977 
L 56.107084 60.955304 
L 57.618369 60.545112 
L 57.766536 60.927222 
L 59.503453 61.090513 
L 59.469143 61.455468 
" clip-path="url(#pea4e8169d3)"/>
    <path d="M 61.119872 87.038604 
L 59.422026 87.439674 
L 59.327925 87.838555 
L 57.774534 87.640523 
L 59.07511 86.768318 
L 59.337755 87.082928 
L 61.0356 86.681858 
L 61.119872 87.038604 
" clip-path="url(#pea4e8169d3)"/>
    <path d="M 41.027823 15.761832 
L 39.289346 15.907567 
L 39.137326 16.28816 
L 37.630263 15.862721 
L 39.045462 15.192311 
L 39.258725 15.542284 
L 40.997202 15.396549 
L 41.027823 15.761832 
" clip-path="url(#pea4e8169d3)"/>
    <path d="M 71.918884 21.177359 
L 70.17875 21.052957 
L 69.969795 21.405518 
L 68.54648 20.752516 
L 70.048212 20.308625 
L 70.204889 20.687326 
L 71.945023 20.811728 
L 71.918884 21.177359 
" clip-path="url(#pea4e8169d3)"/>
    <path d="M 40.694211 80.258381 
L 39.788999 81.749731 
L 40.007256 82.096611 
L 38.776418 83.064741 
L 39.067183 81.526009 
L 39.475641 81.559531 
L 40.380853 80.068181 
L 40.694211 80.258381 
" clip-path="url(#pea4e8169d3)"/>
    <path d="M 73.071428 52.066257 
L 74.808503 52.227828 
L 75.024946 51.879814 
L 76.433978 52.563092 
L 74.9231 52.97478 
L 74.774555 52.592817 
L 73.03748 52.431246 
L 73.071428 52.066257 
" clip-path="url(#pea4e8169d3)"/>
    <path d="M 79.326249 43.748171 
L 81.038308 43.412904 
L 81.147729 43.01795 
L 82.692323 43.275767 
L 81.359064 44.097144 
L 81.108753 43.772635 
L 79.396694 44.107902 
L 79.326249 43.748171 
" clip-path="url(#pea4e8169d3)"/>
    <path d="M 59.25854 61.928979 
L 57.518486 62.054489 
L 57.36205 62.433289 
L 55.860036 61.990355 
L 57.282935 61.336446 
L 57.492114 61.688875 
L 59.232168 61.563364 
L 59.25854 61.928979 
" clip-path="url(#pea4e8169d3)"/>
    <path d="M 101.612657 73.096748 
L 103.282991 73.600257 
L 103.564269 73.302189 
L 104.809436 74.25182 
L 103.246882 74.355085 
L 103.177195 73.951222 
L 101.506862 73.447713 
L 101.612657 73.096748 
" clip-path="url(#pea4e8169d3)"/>
    <path d="M 112.159624 26.64156 
L 113.903496 26.691046 
L 114.097102 26.329829 
L 115.547172 26.921046 
L 114.065908 27.429079 
L 113.893098 27.057463 
L 112.149226 27.007976 
L 112.159624 26.64156 
" clip-path="url(#pea4e8169d3)"/>
    <path d="M 75.14104 17.541925 
L 73.419498 17.25939 
L 73.17927 17.591432 
L 71.821418 16.811382 
L 73.357367 16.506257 
L 73.478864 16.897665 
L 75.200406 17.1802 
L 75.14104 17.541925 
" clip-path="url(#pea4e8169d3)"/>
    <path d="M 82.922657 69.956036 
L 84.549807 70.58526 
L 84.852963 70.309474 
L 86.022212 71.351153 
L 84.456331 71.335148 
L 84.417596 70.927152 
L 82.790447 70.297928 
L 82.922657 69.956036 
" clip-path="url(#pea4e8169d3)"/>
    <path d="M 41.243839 27.273511 
L 42.417089 25.982381 
L 42.26906 25.600217 
L 43.662071 24.884844 
L 43.082925 26.339776 
L 42.688377 26.228901 
L 41.515127 27.520031 
L 41.243839 27.273511 
" clip-path="url(#pea4e8169d3)"/>
    <path d="M 85.456595 67.131544 
L 87.184169 66.888588 
L 87.314616 66.500071 
L 88.843158 66.840362 
L 87.467764 67.589047 
L 87.235218 67.25158 
L 85.507644 67.494536 
L 85.456595 67.131544 
" clip-path="url(#pea4e8169d3)"/>
    <path d="M 55.065589 82.019668 
L 56.441651 83.092045 
L 56.811542 82.915574 
L 57.63009 84.250571 
L 56.135569 83.782975 
L 56.216327 83.381179 
L 54.840264 82.308802 
L 55.065589 82.019668 
" clip-path="url(#pea4e8169d3)"/>
    <path d="M 71.840404 41.293773 
L 70.170526 40.788753 
L 69.888978 41.086566 
L 68.64467 40.13581 
L 70.207317 40.033958 
L 70.276639 40.437884 
L 71.946517 40.942903 
L 71.840404 41.293773 
" clip-path="url(#pea4e8169d3)"/>
    <path d="M 69.5642 42.114037 
L 71.288284 41.847433 
L 71.413395 41.457166 
L 72.946456 41.776482 
L 71.581449 42.543941 
L 71.344301 42.209692 
L 69.620218 42.476295 
L 69.5642 42.114037 
" clip-path="url(#pea4e8169d3)"/>
    <path d="M 54.845681 77.71578 
L 56.325472 78.63977 
L 56.675082 78.425914 
L 57.627578 79.66889 
L 56.092645 79.358701 
L 56.131326 78.950699 
L 54.651536 78.026709 
L 54.845681 77.71578 
" clip-path="url(#pea4e8169d3)"/>
    <path d="M 44.962624 60.454638 
L 43.25894 60.079136 
L 43.001055 60.397659 
L 41.687514 59.545104 
L 43.237752 59.323742 
L 43.337839 59.721164 
L 45.041523 60.096665 
L 44.962624 60.454638 
" clip-path="url(#pea4e8169d3)"/>
    <path d="M 52.749846 44.395108 
L 51.104759 44.975822 
L 51.053947 45.382491 
L 49.48828 45.352071 
L 50.687894 44.34551 
L 50.982742 44.630162 
L 52.627828 44.049448 
L 52.749846 44.395108 
" clip-path="url(#pea4e8169d3)"/>
    <path d="M 67.628736 19.089593 
L 65.935721 18.66859 
L 65.669396 18.98009 
L 64.379164 18.092655 
L 65.934776 17.912899 
L 66.024181 18.312859 
L 67.717196 18.733863 
L 67.628736 19.089593 
" clip-path="url(#pea4e8169d3)"/>
    <path d="M 82.692287 61.40211 
L 84.388186 61.811332 
L 84.652339 61.497987 
L 85.94871 62.37643 
L 84.394386 62.566998 
L 84.302202 62.167669 
L 82.606303 61.758446 
L 82.692287 61.40211 
" clip-path="url(#pea4e8169d3)"/>
    <path d="M 74.672678 48.414681 
L 72.989895 47.95449 
L 72.71641 48.259724 
L 71.447127 47.342577 
L 73.006492 47.198981 
L 73.086589 47.600909 
L 74.769372 48.0611 
L 74.672678 48.414681 
" clip-path="url(#pea4e8169d3)"/>
    <path d="M 54.887728 35.869636 
L 53.158709 36.102096 
L 53.025905 36.489813 
L 51.499458 36.140245 
L 52.879374 35.399927 
L 53.109865 35.738801 
L 54.838884 35.506341 
L 54.887728 35.869636 
" clip-path="url(#pea4e8169d3)"/>
    <path d="M 57.546376 57.646234 
L 55.801875 57.630183 
L 55.615228 57.995046 
L 54.154092 57.431733 
L 55.625345 56.8954 
L 55.805247 57.263635 
L 57.549748 57.279685 
L 57.546376 57.646234 
" clip-path="url(#pea4e8169d3)"/>
    <path d="M 46.694366 28.099742 
L 48.17085 29.029009 
L 48.521221 28.816403 
L 49.469274 30.062771 
L 47.935458 29.747104 
L 47.975595 29.339243 
L 46.499112 28.409975 
L 46.694366 28.099742 
" clip-path="url(#pea4e8169d3)"/>
    <path d="M 52.807972 18.47411 
L 54.531131 18.20159 
L 54.654902 17.810896 
L 56.18905 18.124948 
L 54.826685 18.897088 
L 54.588392 18.563654 
L 52.865233 18.836174 
L 52.807972 18.47411 
" clip-path="url(#pea4e8169d3)"/>
    <path d="M 76.1684 23.85695 
L 74.444497 23.589195 
L 74.207127 23.923286 
L 72.842632 23.154915 
L 74.375906 22.836623 
L 74.500757 23.226974 
L 76.22466 23.494729 
L 76.1684 23.85695 
" clip-path="url(#pea4e8169d3)"/>
    <path d="M 34.659505 71.771537 
L 32.988317 72.272199 
L 32.917942 72.675942 
L 31.355566 72.570015 
L 32.602349 71.622508 
L 32.883119 71.921054 
L 34.554307 71.420392 
L 34.659505 71.771537 
" clip-path="url(#pea4e8169d3)"/>
    <path d="M 47.05617 47.9811 
L 45.324295 47.771004 
L 45.098202 48.112828 
L 43.708834 47.390405 
L 45.230636 47.021139 
L 45.368439 47.407108 
L 47.100315 47.617203 
L 47.05617 47.9811 
" clip-path="url(#pea4e8169d3)"/>
    <path d="M 84.108603 68.123645 
L 85.778715 68.627898 
L 86.060126 68.329956 
L 87.30487 69.280141 
L 85.74227 69.38271 
L 85.672763 68.978816 
L 84.002652 68.474563 
L 84.108603 68.123645 
" clip-path="url(#pea4e8169d3)"/>
    <path d="M 49.460934 25.200987 
L 51.109032 24.628875 
L 51.161968 24.222477 
L 52.727455 24.261074 
L 51.522599 25.261355 
L 51.229242 24.975167 
L 49.581144 25.54728 
L 49.460934 25.200987 
" clip-path="url(#pea4e8169d3)"/>
    <path d="M 56.097627 81.352743 
L 54.366025 81.565096 
L 54.228725 81.951244 
L 52.706443 81.583963 
L 54.094868 80.859729 
L 54.321406 81.201258 
L 56.053008 80.988904 
L 56.097627 81.352743 
" clip-path="url(#pea4e8169d3)"/>
    <path d="M 50.297277 27.685091 
L 52.038063 27.570182 
L 52.196802 27.192342 
L 53.696091 27.644417 
L 52.269235 28.289646 
L 52.062207 27.93595 
L 50.321421 28.050859 
L 50.297277 27.685091 
" clip-path="url(#pea4e8169d3)"/>
    <path d="M 60.633232 32.944702 
L 58.891041 33.035842 
L 58.727159 33.411481 
L 57.23418 32.938986 
L 58.669709 32.31329 
L 58.871891 32.669779 
L 60.614082 32.578638 
L 60.633232 32.944702 
" clip-path="url(#pea4e8169d3)"/>
    <path d="M 77.611209 44.930155 
L 79.255107 44.346076 
L 79.305087 43.939304 
L 80.870814 43.966521 
L 79.673261 44.975534 
L 79.377831 44.691486 
L 77.733933 45.275564 
L 77.611209 44.930155 
" clip-path="url(#pea4e8169d3)"/>
    <path d="M 62.929259 68.067535 
L 61.194952 68.256521 
L 61.052458 68.640783 
L 59.535266 68.253009 
L 60.93333 67.547562 
L 61.155243 67.892114 
L 62.889549 67.703128 
L 62.929259 68.067535 
" clip-path="url(#pea4e8169d3)"/>
    <path d="M 86.709673 22.951351 
L 88.277707 22.186619 
L 88.281759 21.776807 
L 89.840662 21.628281 
L 88.763808 22.765217 
L 88.43839 22.516088 
L 86.870356 23.280821 
L 86.709673 22.951351 
" clip-path="url(#pea4e8169d3)"/>
    <path d="M 91.65289 53.579224 
L 93.387897 53.761674 
L 93.60851 53.416288 
L 95.009223 54.116463 
L 93.493503 54.50995 
L 93.349562 54.126228 
L 91.614554 53.943778 
L 91.65289 53.579224 
" clip-path="url(#pea4e8169d3)"/>
    <path d="M 113.350477 31.903371 
L 115.088674 32.052367 
L 115.302593 31.702795 
L 116.716533 32.375859 
L 115.208673 32.79847 
L 115.057368 32.417592 
L 113.31917 32.268596 
L 113.350477 31.903371 
" clip-path="url(#pea4e8169d3)"/>
    <path d="M 77.830423 34.504637 
L 79.080735 33.287979 
L 78.95645 32.897448 
L 80.390757 32.268954 
L 79.723371 33.685582 
L 79.336375 33.550691 
L 78.086063 34.767348 
L 77.830423 34.504637 
" clip-path="url(#pea4e8169d3)"/>
    <path d="M 47.722135 47.805211 
L 46.002002 47.514213 
L 45.760144 47.84507 
L 44.406144 47.058354 
L 45.943574 46.760784 
L 46.063145 47.152785 
L 47.783279 47.443782 
L 47.722135 47.805211 
" clip-path="url(#pea4e8169d3)"/>
    <path d="M 72.506146 21.337851 
L 74.163524 20.79321 
L 74.223207 20.387748 
L 75.787836 20.452361 
L 74.566521 21.432477 
L 74.277962 21.141453 
L 72.620584 21.686094 
L 72.506146 21.337851 
" clip-path="url(#pea4e8169d3)"/>
    <path d="M 88.079321 29.378753 
L 89.819749 29.258554 
L 89.97734 28.880233 
L 91.477996 29.327748 
L 90.053108 29.977312 
L 89.845005 29.624247 
L 88.104577 29.744446 
L 88.079321 29.378753 
" clip-path="url(#pea4e8169d3)"/>
    <path d="M 77.068694 35.104356 
L 77.841599 33.540336 
L 77.594172 33.213622 
L 78.736712 32.142716 
L 78.580052 33.700823 
L 78.170226 33.702736 
L 77.397321 35.266756 
L 77.068694 35.104356 
" clip-path="url(#pea4e8169d3)"/>
    <path d="M 83.854953 58.41072 
L 85.218483 59.498983 
L 85.590396 59.326814 
L 86.393405 60.671216 
L 84.904408 60.186316 
L 84.989821 59.785484 
L 83.626291 58.697221 
L 83.854953 58.41072 
" clip-path="url(#pea4e8169d3)"/>
    <path d="M 59.753095 70.017263 
L 58.019465 70.21237 
L 57.878328 70.597132 
L 56.359777 70.214716 
L 57.755342 69.504338 
L 57.97847 69.848105 
L 59.7121 69.652998 
L 59.753095 70.017263 
" clip-path="url(#pea4e8169d3)"/>
    <path d="M 68.326335 29.452649 
L 70.059585 29.254206 
L 70.199982 28.869173 
L 71.719266 29.248666 
L 70.32507 29.961728 
L 70.101281 29.618391 
L 68.368031 29.816834 
L 68.326335 29.452649 
" clip-path="url(#pea4e8169d3)"/>
    <path d="M 63.040111 71.605356 
L 61.300284 71.733957 
L 61.144522 72.113035 
L 59.641723 71.67277 
L 61.063458 71.016334 
L 61.273263 71.368391 
L 63.01309 71.239789 
L 63.040111 71.605356 
" clip-path="url(#pea4e8169d3)"/>
    <path d="M 72.707045 85.835448 
L 71.022026 86.287391 
L 70.939962 86.688921 
L 69.381319 86.537688 
L 70.65508 85.62677 
L 70.927066 85.93334 
L 72.612084 85.481398 
L 72.707045 85.835448 
" clip-path="url(#pea4e8169d3)"/>
    <path d="M 68.350282 36.973868 
L 70.07537 36.713829 
L 70.201966 36.324041 
L 71.733801 36.649191 
L 70.365881 37.411449 
L 70.130009 37.076299 
L 68.404921 37.336337 
L 68.350282 36.973868 
" clip-path="url(#pea4e8169d3)"/>
    <path d="M 54.111906 53.045057 
L 52.367334 53.042934 
L 52.183606 53.409275 
L 50.71802 52.857645 
L 52.184944 52.309583 
L 52.36778 52.67637 
L 54.112352 52.678493 
L 54.111906 53.045057 
" clip-path="url(#pea4e8169d3)"/>
    <path d="M 77.477226 34.13505 
L 76.71194 32.567286 
L 76.302127 32.563378 
L 76.15305 31.004528 
L 77.290366 32.080981 
L 77.041353 32.406486 
L 77.806639 33.974251 
L 77.477226 34.13505 
" clip-path="url(#pea4e8169d3)"/>
    <path d="M 53.534881 55.554072 
L 51.814503 55.843621 
L 51.694602 56.23552 
L 50.157423 55.936656 
L 51.512085 55.15108 
L 51.753664 55.48214 
L 53.474042 55.192592 
L 53.534881 55.554072 
" clip-path="url(#pea4e8169d3)"/>
    <path d="M 64.180234 89.130129 
L 62.450862 89.359932 
L 62.317462 89.747444 
L 60.791554 89.395531 
L 62.172606 88.657334 
L 62.402576 88.996561 
L 64.131949 88.766759 
L 64.180234 89.130129 
" clip-path="url(#pea4e8169d3)"/>
    <path d="M 48.820202 47.667058 
L 47.07602 47.630149 
L 46.885024 47.992753 
L 45.430728 47.41201 
L 46.908289 46.893307 
L 47.083775 47.263667 
L 48.827957 47.300575 
L 48.820202 47.667058 
" clip-path="url(#pea4e8169d3)"/>
    <path d="M 46.786873 62.141784 
L 45.065777 62.427028 
L 44.944896 62.818626 
L 43.408469 62.515918 
L 44.765092 61.733733 
L 45.005842 62.065397 
L 46.726939 61.780152 
L 46.786873 62.141784 
" clip-path="url(#pea4e8169d3)"/>
    <path d="M 31.695541 73.309223 
L 30.003444 73.733902 
L 29.914908 74.134055 
L 28.35891 73.957677 
L 29.647212 73.067443 
L 29.914212 73.378364 
L 31.606309 72.953686 
L 31.695541 73.309223 
" clip-path="url(#pea4e8169d3)"/>
    <path d="M 56.410426 27.751996 
L 54.72932 27.285715 
L 54.454732 27.589957 
L 53.188778 26.66822 
L 54.748652 26.530271 
L 54.827293 26.932486 
L 56.5084 27.398767 
L 56.410426 27.751996 
" clip-path="url(#pea4e8169d3)"/>
    <path d="M 68.377234 81.730977 
L 69.939152 82.508117 
L 70.266535 82.261577 
L 71.334341 83.407016 
L 69.776664 83.246133 
L 69.775862 82.836302 
L 68.213944 82.059163 
L 68.377234 81.730977 
" clip-path="url(#pea4e8169d3)"/>
    <path d="M 54.361962 5.785757 
L 53.076229 4.60659 
L 52.69339 4.752863 
L 51.984419 3.356582 
L 53.436678 3.942402 
L 53.323992 4.336437 
L 54.609724 5.515604 
L 54.361962 5.785757 
" clip-path="url(#pea4e8169d3)"/>
    <path d="M 88.773231 62.536612 
L 90.37607 63.225413 
L 90.68919 62.960994 
L 91.81923 64.045084 
L 90.255004 63.971344 
L 90.231341 63.562196 
L 88.628502 62.873395 
L 88.773231 62.536612 
" clip-path="url(#pea4e8169d3)"/>
    <path d="M 53.723047 12.192347 
L 55.459541 12.360043 
L 55.67721 12.012795 
L 57.083824 12.701038 
L 55.571503 13.107395 
L 55.424305 12.72491 
L 53.687811 12.557214 
L 53.723047 12.192347 
" clip-path="url(#pea4e8169d3)"/>
    <path d="M 46.629804 42.571331 
L 48.352432 42.29548 
L 48.475447 41.904547 
L 50.0102 42.215633 
L 48.64933 42.990405 
L 48.410392 42.657433 
L 46.687765 42.933284 
L 46.629804 42.571331 
" clip-path="url(#pea4e8169d3)"/>
    <path d="M 61.615216 31.858784 
L 59.871214 31.903376 
L 59.697361 32.274505 
L 58.217529 31.762316 
L 59.669252 31.175172 
L 59.861844 31.536931 
L 61.605847 31.492339 
L 61.615216 31.858784 
" clip-path="url(#pea4e8169d3)"/>
    <path d="M 63.032674 27.960603 
L 61.291397 28.067822 
L 61.13099 28.444957 
L 59.633712 27.986265 
L 61.063404 27.347344 
L 61.268869 27.701951 
L 63.010145 27.594732 
L 63.032674 27.960603 
" clip-path="url(#pea4e8169d3)"/>
    <path d="M 55.905841 50.664942 
L 57.650069 50.630181 
L 57.826011 50.260037 
L 59.302932 50.780559 
L 57.847922 51.359512 
L 57.657373 50.996672 
L 55.913144 51.031433 
L 55.905841 50.664942 
" clip-path="url(#pea4e8169d3)"/>
    <path d="M 80.213277 65.064617 
L 81.924252 65.405344 
L 82.175597 65.081635 
L 83.506228 65.907263 
L 81.96082 66.16015 
L 81.85266 65.764849 
L 80.141685 65.424122 
L 80.213277 65.064617 
" clip-path="url(#pea4e8169d3)"/>
    <path d="M 72.192186 26.965349 
L 73.93166 27.098626 
L 74.14241 26.747135 
L 75.562376 27.407389 
L 74.058399 27.843614 
L 73.903656 27.464119 
L 72.164183 27.330842 
L 72.192186 26.965349 
" clip-path="url(#pea4e8169d3)"/>
    <path d="M 44.742134 17.505893 
L 46.486386 17.539325 
L 46.676659 17.17634 
L 48.13211 17.754184 
L 46.655585 18.275831 
L 46.479361 17.905822 
L 44.735109 17.87239 
L 44.742134 17.505893 
" clip-path="url(#pea4e8169d3)"/>
    <path d="M 48.360302 19.461405 
L 50.052796 19.884498 
L 50.319506 19.573326 
L 51.608641 20.462353 
L 50.052809 20.640189 
L 49.963897 20.240119 
L 48.271403 19.817026 
L 48.360302 19.461405 
" clip-path="url(#pea4e8169d3)"/>
    <path d="M 68.69637 17.301534 
L 66.956363 17.175391 
L 66.747056 17.527744 
L 65.324395 16.873318 
L 66.82657 16.43093 
L 66.982868 16.809787 
L 68.722875 16.935929 
L 68.69637 17.301534 
" clip-path="url(#pea4e8169d3)"/>
    <path d="M 32.640527 70.343969 
L 30.939838 70.732808 
L 30.842868 71.131002 
L 29.290943 70.921794 
L 30.597763 70.058973 
L 30.858136 70.375465 
L 32.558826 69.986625 
L 32.640527 70.343969 
" clip-path="url(#pea4e8169d3)"/>
    <path d="M 112.930759 26.313764 
L 114.675333 26.314409 
L 114.858751 25.947913 
L 116.324804 26.498302 
L 114.858344 27.047605 
L 114.675198 26.680974 
L 112.930624 26.680328 
L 112.930759 26.313764 
" clip-path="url(#pea4e8169d3)"/>
    <path d="M 45.084777 31.647374 
L 46.824164 31.781782 
L 47.035143 31.430429 
L 48.454679 32.091606 
L 46.950419 32.526852 
L 46.795923 32.147257 
L 45.056535 32.012849 
L 45.084777 31.647374 
" clip-path="url(#pea4e8169d3)"/>
    <path d="M 68.701165 29.619376 
L 66.984438 29.929846 
L 66.869317 30.323177 
L 65.328613 30.043047 
L 66.673612 29.241038 
L 66.919203 29.569134 
L 68.63593 29.258663 
L 68.701165 29.619376 
" clip-path="url(#pea4e8169d3)"/>
    <path d="M 81.059631 64.542528 
L 82.748955 64.978099 
L 83.017953 64.668904 
L 84.300493 65.56742 
L 82.743391 65.73377 
L 82.657434 65.333055 
L 80.96811 64.897483 
L 81.059631 64.542528 
" clip-path="url(#pea4e8169d3)"/>
    <path d="M 47.988489 63.087298 
L 46.266444 62.807839 
L 46.02681 63.14031 
L 44.667566 62.362688 
L 46.202967 62.054818 
L 46.325163 62.446008 
L 48.047208 62.725467 
L 47.988489 63.087298 
" clip-path="url(#pea4e8169d3)"/>
    <path d="M 89.49335 34.092049 
L 90.736303 32.867871 
L 90.609665 32.478096 
L 92.040154 31.840963 
L 91.381325 33.261591 
L 90.993523 33.129036 
L 89.750571 34.353214 
L 89.49335 34.092049 
" clip-path="url(#pea4e8169d3)"/>
    <path d="M 107.09628 62.519597 
L 108.838458 62.610984 
L 109.04069 62.254524 
L 110.476131 62.880423 
L 108.983084 63.352707 
L 108.819256 62.977045 
L 107.077078 62.885658 
L 107.09628 62.519597 
" clip-path="url(#pea4e8169d3)"/>
    <path d="M 59.181846 21.935293 
L 57.512682 21.427918 
L 57.230714 21.725333 
L 55.987749 20.772822 
L 57.550538 20.673175 
L 57.61929 21.077198 
L 59.288454 21.584574 
L 59.181846 21.935293 
" clip-path="url(#pea4e8169d3)"/>
    <path d="M 54.443989 53.948675 
L 52.717266 54.197601 
L 52.588162 54.586566 
L 51.058453 54.25156 
L 52.431252 53.498126 
L 52.664962 53.834788 
L 54.391686 53.585862 
L 54.443989 53.948675 
" clip-path="url(#pea4e8169d3)"/>
    <path d="M 75.621506 41.934373 
L 77.263594 41.345237 
L 77.312322 40.938313 
L 78.878124 40.960709 
L 77.683684 41.973404 
L 77.387381 41.690268 
L 75.745294 42.279403 
L 75.621506 41.934373 
" clip-path="url(#pea4e8169d3)"/>
    <path d="M 102.98319 19.850109 
L 104.714035 20.068547 
L 104.941772 19.727816 
L 106.327644 20.456925 
L 104.80408 20.818854 
L 104.668138 20.432226 
L 102.937293 20.213789 
L 102.98319 19.850109 
" clip-path="url(#pea4e8169d3)"/>
    <path d="M 110.134639 20.34848 
L 111.877731 20.420328 
L 112.075954 20.061623 
L 113.518322 20.671388 
L 112.030665 21.160383 
L 111.862635 20.786581 
L 110.119542 20.714734 
L 110.134639 20.34848 
" clip-path="url(#pea4e8169d3)"/>
    <path d="M 78.101069 15.950978 
L 79.811534 16.294281 
L 80.063366 15.970951 
L 81.392753 16.79858 
L 79.846965 17.049141 
L 79.739401 16.653678 
L 78.028936 16.310375 
L 78.101069 15.950978 
" clip-path="url(#pea4e8169d3)"/>
    <path d="M 29.240289 37.845069 
L 27.52818 38.180076 
L 27.4187 38.575014 
L 25.874145 38.316963 
L 27.207528 37.495787 
L 27.45779 37.820334 
L 29.169898 37.485327 
L 29.240289 37.845069 
" clip-path="url(#pea4e8169d3)"/>
    <path d="M 25.059126 72.203771 
L 23.384753 72.69368 
L 23.311784 73.096963 
L 21.750121 72.980995 
L 23.002969 72.041522 
L 23.281814 72.341867 
L 24.956188 71.851957 
L 25.059126 72.203771 
" clip-path="url(#pea4e8169d3)"/>
    <path d="M 106.448081 66.950287 
L 108.167254 66.653653 
L 108.28554 66.261263 
L 109.823937 66.553791 
L 108.472523 67.344942 
L 108.229582 67.014879 
L 106.510409 67.311514 
L 106.448081 66.950287 
" clip-path="url(#pea4e8169d3)"/>
    <path d="M 27.240721 74.241546 
L 25.557945 74.701771 
L 25.477856 75.103701 
L 23.918488 74.960136 
L 25.187754 74.042963 
L 25.461244 74.348192 
L 27.14402 73.887967 
L 27.240721 74.241546 
" clip-path="url(#pea4e8169d3)"/>
    <path d="M 72.368566 53.801527 
L 70.624193 53.77501 
L 70.43536 54.138746 
L 68.977631 53.566677 
L 70.452075 53.039181 
L 70.629765 53.408488 
L 72.374137 53.435005 
L 72.368566 53.801527 
" clip-path="url(#pea4e8169d3)"/>
    <path d="M 50.592788 39.811218 
L 48.960336 40.426555 
L 48.918126 40.834207 
L 47.352166 40.836868 
L 48.530248 39.80519 
L 48.831044 40.083549 
L 50.463496 39.468213 
L 50.592788 39.811218 
" clip-path="url(#pea4e8169d3)"/>
    <path d="M 77.45912 69.761006 
L 75.737655 70.044011 
L 75.616264 70.435451 
L 74.080233 70.130744 
L 75.437872 69.350325 
L 75.678191 69.682302 
L 77.399656 69.399297 
L 77.45912 69.761006 
" clip-path="url(#pea4e8169d3)"/>
    <path d="M 74.795944 48.415654 
L 76.537835 48.31898 
L 76.700522 47.942822 
L 78.194995 48.410572 
L 76.761461 49.040825 
L 76.558148 48.684981 
L 74.816257 48.781655 
L 74.795944 48.415654 
" clip-path="url(#pea4e8169d3)"/>
    <path d="M 24.485726 38.107119 
L 22.772327 37.77878 
L 22.523331 38.104298 
L 21.186761 37.28832 
L 22.730299 37.024258 
L 22.841316 37.418766 
L 24.554716 37.747105 
L 24.485726 38.107119 
" clip-path="url(#pea4e8169d3)"/>
    <path d="M 68.313998 22.605058 
L 69.973047 22.065522 
L 70.033978 21.660245 
L 71.598401 21.729674 
L 70.374075 22.706026 
L 70.086412 22.414116 
L 68.427363 22.953652 
L 68.313998 22.605058 
" clip-path="url(#pea4e8169d3)"/>
    <path d="M 55.457539 59.719832 
L 53.747961 60.067509 
L 53.641408 60.463246 
L 52.094985 60.21664 
L 53.42225 59.385613 
L 53.674908 59.708298 
L 55.384487 59.360621 
L 55.457539 59.719832 
" clip-path="url(#pea4e8169d3)"/>
    <path d="M 79.380852 35.623807 
L 80.906519 34.777711 
L 80.889025 34.368253 
L 82.437966 34.13799 
L 81.422361 35.329958 
L 81.084298 35.098279 
L 79.558631 35.944375 
L 79.380852 35.623807 
" clip-path="url(#pea4e8169d3)"/>
    <path d="M 79.641605 55.714615 
L 81.340602 56.110779 
L 81.602336 55.795411 
L 82.905426 56.663855 
L 81.352614 56.866374 
L 81.257361 56.467766 
L 79.558364 56.071603 
L 79.641605 55.714615 
" clip-path="url(#pea4e8169d3)"/>
    <path d="M 50.27174 16.109064 
L 52.010242 16.254473 
L 52.22344 15.904461 
L 53.638765 16.574605 
L 52.131781 17.000327 
L 51.97969 16.619762 
L 50.241187 16.474353 
L 50.27174 16.109064 
" clip-path="url(#pea4e8169d3)"/>
    <path d="M 100.878214 15.990763 
L 102.579913 15.606369 
L 102.677923 15.208429 
L 104.229296 15.421692 
L 102.920226 16.281096 
L 102.66068 15.963924 
L 100.958981 16.348318 
L 100.878214 15.990763 
" clip-path="url(#pea4e8169d3)"/>
    <path d="M 56.435238 43.387942 
L 58.106651 42.88803 
L 58.177207 42.484318 
L 59.739535 42.590946 
L 58.492327 43.537894 
L 58.211691 43.239222 
L 56.540278 43.739134 
L 56.435238 43.387942 
" clip-path="url(#pea4e8169d3)"/>
    <path d="M 65.586712 16.867603 
L 63.980801 16.185993 
L 63.668869 16.451812 
L 62.533982 15.372798 
L 64.098523 15.439527 
L 64.124019 15.848564 
L 65.729929 16.530175 
L 65.586712 16.867603 
" clip-path="url(#pea4e8169d3)"/>
    <path d="M 57.929108 31.724699 
L 56.18455 31.716972 
L 55.999646 32.082721 
L 54.535839 31.526386 
L 56.004517 30.983039 
L 56.186173 31.350412 
L 57.930731 31.358138 
L 57.929108 31.724699 
" clip-path="url(#pea4e8169d3)"/>
    <path d="M 104.593914 24.46516 
L 106.192506 25.163757 
L 106.507239 24.90126 
L 107.630623 25.992245 
L 106.066878 25.908933 
L 106.045719 25.499649 
L 104.447126 24.801051 
L 104.593914 24.46516 
" clip-path="url(#pea4e8169d3)"/>
    <path d="M 105.279998 29.166435 
L 107.023107 29.095 
L 107.191226 28.721239 
L 108.678767 29.210585 
L 107.236255 29.820009 
L 107.038117 29.461257 
L 105.295008 29.532692 
L 105.279998 29.166435 
" clip-path="url(#pea4e8169d3)"/>
    <path d="M 72.241887 79.454468 
L 70.507432 79.266843 
L 70.28579 79.611569 
L 68.887172 78.90722 
L 70.404059 78.518255 
L 70.546855 78.902405 
L 72.28131 79.09003 
L 72.241887 79.454468 
" clip-path="url(#pea4e8169d3)"/>
    <path d="M 64.913401 22.896446 
L 63.239661 22.404373 
L 62.960428 22.704358 
L 61.708794 21.763266 
L 63.270606 21.649316 
L 63.343053 22.052693 
L 65.016793 22.544765 
L 64.913401 22.896446 
" clip-path="url(#pea4e8169d3)"/>
    <path d="M 111.972662 25.046606 
L 113.7015 25.280387 
L 113.93225 24.941689 
L 115.3116 25.683062 
L 113.784886 26.031463 
L 113.652378 25.643645 
L 111.923541 25.409864 
L 111.972662 25.046606 
" clip-path="url(#pea4e8169d3)"/>
    <path d="M 87.819254 29.489481 
L 89.562692 29.552348 
L 89.759064 29.192626 
L 91.204555 29.794953 
L 89.719436 30.291604 
L 89.549483 29.918674 
L 87.806045 29.855807 
L 87.819254 29.489481 
" clip-path="url(#pea4e8169d3)"/>
    <path d="M 25.245471 60.332948 
L 23.50848 60.495443 
L 23.360138 60.877485 
L 21.849041 60.466602 
L 23.257708 59.782574 
L 23.474337 60.130473 
L 25.211328 59.967977 
L 25.245471 60.332948 
" clip-path="url(#pea4e8169d3)"/>
    <path d="M 113.921433 14.167495 
L 115.656633 14.348092 
L 115.876877 14.002471 
L 117.278336 14.701149 
L 115.763037 15.096255 
L 115.618686 14.712687 
L 113.883486 14.53209 
L 113.921433 14.167495 
" clip-path="url(#pea4e8169d3)"/>
    <path d="M 54.740108 39.608949 
L 53.010512 39.380848 
L 52.780875 39.720301 
L 51.399097 38.983464 
L 52.924659 38.630049 
L 53.05844 39.017431 
L 54.788036 39.245531 
L 54.740108 39.608949 
" clip-path="url(#pea4e8169d3)"/>
    <path d="M 64.39243 19.152585 
L 62.756814 19.759459 
L 62.712493 20.166887 
L 61.14654 20.16144 
L 62.32995 19.135876 
L 62.629299 19.415789 
L 64.264916 18.808914 
L 64.39243 19.152585 
" clip-path="url(#pea4e8169d3)"/>
    <path d="M 75.291189 20.285921 
L 73.560276 20.068022 
L 73.332645 20.408824 
L 71.946546 19.680147 
L 73.469997 19.317743 
L 73.60606 19.704329 
L 75.336973 19.922227 
L 75.291189 20.285921 
" clip-path="url(#pea4e8169d3)"/>
    <path d="M 82.594307 46.16823 
L 83.998483 45.132942 
L 83.928471 44.729135 
L 85.434934 44.30157 
L 84.581066 45.614258 
L 84.216014 45.427983 
L 82.811839 46.463271 
L 82.594307 46.16823 
" clip-path="url(#pea4e8169d3)"/>
    <path d="M 50.191984 62.378654 
L 48.496848 62.791033 
L 48.405408 63.190533 
L 46.850731 63.002859 
L 48.145465 62.122004 
L 48.4102 62.434857 
L 50.105336 62.022478 
L 50.191984 62.378654 
" clip-path="url(#pea4e8169d3)"/>
    <path d="M 56.388036 50.408186 
L 54.67433 50.734905 
L 54.56294 51.129309 
L 53.019652 50.863788 
L 54.356992 50.049073 
L 54.605681 50.374827 
L 56.319386 50.048107 
L 56.388036 50.408186 
" clip-path="url(#pea4e8169d3)"/>
    <path d="M 47.468609 44.672235 
L 45.752442 44.985773 
L 45.638024 45.379308 
L 44.096823 45.101933 
L 45.440385 44.297522 
L 45.686563 44.625177 
L 47.402729 44.311639 
L 47.468609 44.672235 
" clip-path="url(#pea4e8169d3)"/>
    <path d="M 105.770858 80.8037 
L 107.512815 80.708127 
L 107.67574 80.332072 
L 109.169917 80.800767 
L 107.735984 81.430114 
L 107.532896 81.074141 
L 105.79094 81.169713 
L 105.770858 80.8037 
" clip-path="url(#pea4e8169d3)"/>
    <path d="M 45.917118 25.50419 
L 47.630501 25.832615 
L 47.879513 25.507109 
L 49.216042 26.323155 
L 47.67249 26.587139 
L 47.561493 26.192625 
L 45.84811 25.8642 
L 45.917118 25.50419 
" clip-path="url(#pea4e8169d3)"/>
    <path d="M 80.116572 20.485971 
L 78.376877 20.355609 
L 78.166716 20.707453 
L 76.745645 20.049579 
L 78.248889 19.610835 
L 78.404268 19.99007 
L 80.143963 20.120432 
L 80.116572 20.485971 
" clip-path="url(#pea4e8169d3)"/>
    <path d="M 58.114568 63.470714 
L 56.371277 63.537604 
L 56.202184 63.910926 
L 54.715924 63.417703 
L 56.16002 62.812042 
L 56.357222 63.171309 
L 58.100514 63.10442 
L 58.114568 63.470714 
" clip-path="url(#pea4e8169d3)"/>
    <path d="M 30.747565 87.528247 
L 29.349621 88.571939 
L 29.422052 88.975319 
L 27.918182 89.41191 
L 28.764161 88.094125 
L 29.130324 88.278208 
L 30.528268 87.234516 
L 30.747565 87.528247 
" clip-path="url(#pea4e8169d3)"/>
    <path d="M 72.307824 48.73715 
L 70.74485 47.962132 
L 70.417803 48.209117 
L 69.348441 47.065131 
L 70.906335 47.223897 
L 70.907694 47.633726 
L 72.470668 48.408743 
L 72.307824 48.73715 
" clip-path="url(#pea4e8169d3)"/>
    <path d="M 58.022758 56.712324 
L 56.278284 56.730924 
L 56.098921 57.099421 
L 54.626885 56.565238 
L 56.087197 55.999791 
L 56.274376 56.36438 
L 58.01885 56.345781 
L 58.022758 56.712324 
" clip-path="url(#pea4e8169d3)"/>
    <path d="M 49.609144 48.03459 
L 47.945368 48.559366 
L 47.880839 48.964086 
L 46.317095 48.880763 
L 47.550046 47.915325 
L 47.835104 48.209779 
L 49.498879 47.685003 
L 49.609144 48.03459 
" clip-path="url(#pea4e8169d3)"/>
    <path d="M 23.692999 51.317555 
L 22.000568 51.740889 
L 21.911713 52.140972 
L 20.355856 51.963358 
L 21.644864 51.074147 
L 21.911618 51.385281 
L 23.60405 50.961947 
L 23.692999 51.317555 
" clip-path="url(#pea4e8169d3)"/>
    <path d="M 112.255731 66.197621 
L 113.951044 65.78598 
L 114.042658 65.386519 
L 115.597253 65.574869 
L 114.302137 66.455161 
L 114.037537 66.142193 
L 112.342224 66.553835 
L 112.255731 66.197621 
" clip-path="url(#pea4e8169d3)"/>
    <path d="M 110.924717 34.168626 
L 112.655221 34.389722 
L 112.883481 34.049342 
L 114.268231 34.780579 
L 112.744113 35.140167 
L 112.608765 34.753331 
L 110.878261 34.532235 
L 110.924717 34.168626 
" clip-path="url(#pea4e8169d3)"/>
    <path d="M 54.927736 62.854279 
L 53.185026 62.93489 
L 53.018877 63.309531 
L 51.52878 62.828023 
L 52.968064 62.211013 
L 53.168088 62.568717 
L 54.910798 62.488107 
L 54.927736 62.854279 
" clip-path="url(#pea4e8169d3)"/>
    <path d="M 47.491059 18.453135 
L 49.23557 18.438281 
L 49.415724 18.07017 
L 50.886609 18.607512 
L 49.425087 19.169822 
L 49.238691 18.804832 
L 47.49418 18.819686 
L 47.491059 18.453135 
" clip-path="url(#pea4e8169d3)"/>
    <path d="M 96.721588 86.833191 
L 98.394759 87.327183 
L 98.674336 87.02752 
L 99.924889 87.970047 
L 98.362948 88.082205 
L 98.290963 87.678745 
L 96.617792 87.184753 
L 96.721588 86.833191 
" clip-path="url(#pea4e8169d3)"/>
    <path d="M 55.426596 51.763858 
L 57.153219 52.013471 
L 57.387064 51.676903 
L 58.759562 52.430883 
L 57.22972 52.765281 
L 57.100772 52.376264 
L 55.374148 52.126651 
L 55.426596 51.763858 
" clip-path="url(#pea4e8169d3)"/>
    <path d="M 71.311642 45.39366 
L 69.907811 44.357903 
L 69.542696 44.544056 
L 68.689267 43.231084 
L 70.195586 43.659151 
L 70.125441 44.062934 
L 71.529272 45.098692 
L 71.311642 45.39366 
" clip-path="url(#pea4e8169d3)"/>
    <path d="M 53.531051 40.423614 
L 51.944969 41.150166 
L 51.930998 41.559759 
L 50.368957 41.670508 
L 51.473016 40.559971 
L 51.792308 40.816903 
L 53.378391 40.090351 
L 53.531051 40.423614 
" clip-path="url(#pea4e8169d3)"/>
    <path d="M 42.822419 28.58148 
L 44.566722 28.612246 
L 44.75644 28.248972 
L 46.212772 28.82459 
L 44.737046 29.348493 
L 44.560257 28.978754 
L 42.815954 28.947987 
L 42.822419 28.58148 
" clip-path="url(#pea4e8169d3)"/>
    <path d="M 74.985468 38.15943 
L 76.606767 37.515277 
L 76.64175 37.106942 
L 78.207418 37.076545 
L 77.047792 38.128927 
L 76.742114 37.855939 
L 75.120815 38.500092 
L 74.985468 38.15943 
" clip-path="url(#pea4e8169d3)"/>
    <path d="M 43.876948 16.38713 
L 45.606804 16.613254 
L 45.836053 16.273539 
L 47.218671 17.008797 
L 45.693515 17.363954 
L 45.559292 16.976726 
L 43.829436 16.750602 
L 43.876948 16.38713 
" clip-path="url(#pea4e8169d3)"/>
    <path d="M 97.352773 82.739493 
L 99.011178 83.281002 
L 99.299187 82.989434 
L 100.522352 83.967242 
L 98.957847 84.034809 
L 98.897398 83.629461 
L 97.238993 83.087952 
L 97.352773 82.739493 
" clip-path="url(#pea4e8169d3)"/>
    <path d="M 101.39996 80.896495 
L 103.107256 80.537776 
L 103.211249 80.141358 
L 104.759234 80.377964 
L 103.437367 81.217552 
L 103.182629 80.896507 
L 101.475333 81.255226 
L 101.39996 80.896495 
" clip-path="url(#pea4e8169d3)"/>
    <path d="M 72.856515 75.650346 
L 71.111954 75.643485 
L 70.927232 76.009325 
L 69.463149 75.453717 
L 70.931557 74.909641 
L 71.113396 75.276923 
L 72.857957 75.283785 
L 72.856515 75.650346 
" clip-path="url(#pea4e8169d3)"/>
    <path d="M 43.060841 52.189463 
L 44.592617 53.024447 
L 44.928987 52.790317 
L 45.953228 53.974871 
L 44.402654 53.755873 
L 44.417173 53.346299 
L 42.885397 52.511315 
L 43.060841 52.189463 
" clip-path="url(#pea4e8169d3)"/>
    <path d="M 114.336177 66.979709 
L 116.039869 67.355168 
L 116.297746 67.036639 
L 117.611308 67.889162 
L 116.061075 68.110562 
L 115.960978 67.713143 
L 114.257286 67.337683 
L 114.336177 66.979709 
" clip-path="url(#pea4e8169d3)"/>
    <path d="M 51.332094 52.90014 
L 49.62066 52.561713 
L 49.36975 52.885759 
L 48.038011 52.06192 
L 49.583078 51.806956 
L 49.691769 52.202112 
L 51.403203 52.54054 
L 51.332094 52.90014 
" clip-path="url(#pea4e8169d3)"/>
    <path d="M 55.072572 65.46857 
L 53.357071 65.785732 
L 53.243484 66.179508 
L 51.7017 65.905388 
L 53.043561 65.098141 
L 53.29043 65.425276 
L 55.005931 65.108114 
L 55.072572 65.46857 
" clip-path="url(#pea4e8169d3)"/>
    <path d="M 111.021038 36.901106 
L 112.761599 36.782843 
L 112.919611 36.404697 
L 114.419768 36.853882 
L 112.994158 37.50186 
L 112.786448 37.148563 
L 111.045887 37.266827 
L 111.021038 36.901106 
" clip-path="url(#pea4e8169d3)"/>
    <path d="M 45.8871 85.524115 
L 46.403697 87.190447 
L 46.808095 87.256963 
L 46.717092 88.82028 
L 45.757722 87.582601 
L 46.053573 87.298993 
L 45.536975 85.63266 
L 45.8871 85.524115 
" clip-path="url(#pea4e8169d3)"/>
    <path d="M 83.014062 28.884036 
L 81.294182 29.17652 
L 81.17495 29.568624 
L 79.637263 29.272384 
L 80.990582 28.484497 
L 81.232726 28.815145 
L 82.952606 28.52266 
L 83.014062 28.884036 
" clip-path="url(#pea4e8169d3)"/>
    <path d="M 60.556661 82.093146 
L 62.185076 82.719083 
L 62.487675 82.442686 
L 63.659025 83.482003 
L 62.093115 83.469158 
L 62.053556 83.061241 
L 60.425141 82.435303 
L 60.556661 82.093146 
" clip-path="url(#pea4e8169d3)"/>
    <path d="M 72.982699 24.259832 
L 71.24089 24.161654 
L 71.03727 24.517322 
L 69.60428 23.885832 
L 71.099156 23.419373 
L 71.261519 23.79567 
L 73.003327 23.893849 
L 72.982699 24.259832 
" clip-path="url(#pea4e8169d3)"/>
    <path d="M 61.418022 82.573929 
L 59.673996 82.530252 
L 59.481594 82.892113 
L 58.029563 82.30573 
L 59.509126 81.792765 
L 59.683173 82.163803 
L 61.427199 82.20748 
L 61.418022 82.573929 
" clip-path="url(#pea4e8169d3)"/>
    <path d="M 73.758867 13.001454 
L 75.379103 12.354639 
L 75.413416 11.946247 
L 76.979031 11.913279 
L 75.821136 12.967564 
L 75.51501 12.695078 
L 73.894774 13.341893 
L 73.758867 13.001454 
" clip-path="url(#pea4e8169d3)"/>
    <path d="M 26.354526 69.786343 
L 24.610452 69.828041 
L 24.435983 70.198881 
L 22.957003 69.684239 
L 24.409699 69.099503 
L 24.60169 69.461582 
L 26.345764 69.419883 
L 26.354526 69.786343 
" clip-path="url(#pea4e8169d3)"/>
    <path d="M 113.557602 52.515667 
L 115.064874 53.394111 
L 115.407801 53.169696 
L 116.397751 54.383055 
L 114.854073 54.119806 
L 114.880298 53.710815 
L 113.373026 52.832371 
L 113.557602 52.515667 
" clip-path="url(#pea4e8169d3)"/>
   </g>
  </g>
 </g>
 <defs>
  <clipPath id="pea4e8169d3">
   <rect x="7.2" y="7.2" width="86.4" height="86.4"/>
  </clipPath>
 </defs>
</svg>
