<?xml version="1.0" encoding="utf-8" standalone="no"?>
<!DOCTYPE svg PUBLIC "-//W3C//DTD SVG 1.1//EN"
  "http://www.w3.org/Graphics/SVG/1.1/DTD/svg11.dtd">
<svg xmlns:xlink="http://www.w3.org/1999/xlink" width="100.8pt" height="100.8pt" viewBox="0 0 100.8 100.8" xmlns="http://www.w3.org/2000/svg" version="1.1">
 <metadata>
  <rdf:RDF xmlns:dc="http://purl.org/dc/elements/1.1/" xmlns:cc="http://creativecommons.org/ns#" xmlns:rdf="http://www.w3.org/1999/02/22-rdf-syntax-ns#">
   <cc:Work>
    <dc:type rdf:resource="http://purl.org/dc/dcmitype/StillImage"/>
    <dc:date>2025-09-10T17:09:17.401902</dc:date>
    <dc:format>image/svg+xml</dc:format>
    <dc:creator>
     <cc:Agent>
      <dc:title>Matplotlib v3.10.5, https://matplotlib.org/</dc:title>
     </cc:Agent>
    </dc:creator>
   </cc:Work>
  </rdf:RDF>
 </metadata>
 <defs>
  <style type="text/css">*{stroke-linejoin: round; stroke-linecap: butt}</style>
 </defs>
 <g id="figure_1">
  <g id="patch_1">
   <path d="M 0 100.8 
L 100.8 100.8 
L 100.8 0 
L 0 0 
z
" style="fill: #ffffff"/>
  </g>
  <g id="axes_1">
   <g id="Quiver_1">
    <path d="M 26.785031 73.516382 
L 28.529506 73.534868 
L 28.716662 73.170266 
L 30.17701 73.735619 
L 28.70501 74.269897 
L 28.525622 73.901411 
L 26.781147 73.882925 
L 26.785031 73.516382 
" clip-path="url(#p2aaeb085b7)"/>
    <path d="M 70.221964 86.383639 
L 71.939761 86.688125 
L 72.184208 86.359176 
L 73.531993 87.156493 
L 71.992275 87.441989 
L 71.875784 87.049063 
L 70.157986 86.744577 
L 70.221964 86.383639 
" clip-path="url(#p2aaeb085b7)"/>
    <path d="M 46.651226 66.284229 
L 48.395223 66.23934 
L 48.569012 65.868182 
L 50.048931 66.380119 
L 48.597308 66.96751 
L 48.404654 66.605783 
L 46.660658 66.650671 
L 46.651226 66.284229 
" clip-path="url(#p2aaeb085b7)"/>
    <path d="M 31.3823 61.994673 
L 33.126024 61.940208 
L 33.297773 61.568101 
L 34.78048 62.071903 
L 33.332104 62.667257 
L 33.137468 62.306594 
L 31.393744 62.361058 
L 31.3823 61.994673 
" clip-path="url(#p2aaeb085b7)"/>
    <path d="M 63.493558 23.918497 
L 65.23343 23.790494 
L 65.389323 23.41147 
L 66.89197 23.852252 
L 65.470009 24.508199 
L 65.260326 24.15607 
L 63.520453 24.284073 
L 63.493558 23.918497 
" clip-path="url(#p2aaeb085b7)"/>
    <path d="M 69.218102 62.830659 
L 70.911024 62.409279 
L 71.000341 62.009299 
L 72.555992 62.18871 
L 71.265957 63.076432 
L 70.999563 62.76499 
L 69.306641 63.18637 
L 69.218102 62.830659 
" clip-path="url(#p2aaeb085b7)"/>
    <path d="M 32.225276 51.659675 
L 33.969078 51.607782 
L 34.141376 51.235928 
L 35.623339 51.741917 
L 34.174086 52.335134 
L 33.979982 51.974184 
L 32.23618 52.026077 
L 32.225276 51.659675 
" clip-path="url(#p2aaeb085b7)"/>
    <path d="M 57.924816 31.940597 
L 59.534034 32.614362 
L 59.844664 32.347023 
L 60.984804 33.420484 
L 59.419957 33.361393 
L 59.392464 32.952485 
L 57.783247 32.278721 
L 57.924816 31.940597 
" clip-path="url(#p2aaeb085b7)"/>
    <path d="M 77.331137 61.691086 
L 79.072712 61.793377 
L 79.277172 61.43819 
L 80.708667 62.073062 
L 79.212693 62.53599 
L 79.051219 62.15931 
L 77.309644 62.057019 
L 77.331137 61.691086 
" clip-path="url(#p2aaeb085b7)"/>
    <path d="M 60.132604 58.113933 
L 61.876565 58.067736 
L 62.050076 57.696447 
L 63.530379 58.207273 
L 62.079196 58.795754 
L 61.886272 58.434172 
L 60.142311 58.480369 
L 60.132604 58.113933 
" clip-path="url(#p2aaeb085b7)"/>
    <path d="M 14.612902 49.487987 
L 16.34918 49.318058 
L 16.495886 48.935384 
L 18.008728 49.339796 
L 16.603001 50.029848 
L 16.384885 49.682879 
L 14.648607 49.852808 
L 14.612902 49.487987 
" clip-path="url(#p2aaeb085b7)"/>
    <path d="M 84.750976 43.716278 
L 86.354328 43.028667 
L 86.378295 42.619537 
L 87.942575 42.54696 
L 86.811729 43.630209 
L 86.498806 43.365558 
L 84.895454 44.053168 
L 84.750976 43.716278 
" clip-path="url(#p2aaeb085b7)"/>
    <path d="M 42.847118 84.583201 
L 44.577579 84.361759 
L 44.71285 83.974895 
L 46.23704 84.334179 
L 44.852437 85.065693 
L 44.624108 84.725358 
L 42.893647 84.9468 
L 42.847118 84.583201 
" clip-path="url(#p2aaeb085b7)"/>
    <path d="M 22.47925 55.110802 
L 24.042997 55.884257 
L 24.369797 55.636945 
L 25.440301 56.779863 
L 23.88225 56.622654 
L 23.880481 56.212826 
L 22.316734 55.439372 
L 22.47925 55.110802 
" clip-path="url(#p2aaeb085b7)"/>
    <path d="M 57.165991 53.708048 
L 58.898812 53.505884 
L 59.038381 53.12055 
L 60.558477 53.496779 
L 59.165816 54.212834 
L 58.94129 53.869978 
L 57.208469 54.072143 
L 57.165991 53.708048 
" clip-path="url(#p2aaeb085b7)"/>
    <path d="M 39.0444 49.817388 
L 40.781698 49.658233 
L 40.930774 49.276477 
L 42.441078 49.690266 
L 41.031098 50.371583 
L 40.815139 50.023268 
L 39.077841 50.182423 
L 39.0444 49.817388 
" clip-path="url(#p2aaeb085b7)"/>
    <path d="M 69.12829 71.832814 
L 70.872853 71.839283 
L 71.057493 71.473401 
L 72.521701 72.02868 
L 71.053415 72.573086 
L 70.871494 72.205844 
L 69.126931 72.199376 
L 69.12829 71.832814 
" clip-path="url(#p2aaeb085b7)"/>
    <path d="M 49.287621 61.779789 
L 50.796885 62.65481 
L 51.139302 62.429616 
L 52.132004 63.640724 
L 50.587733 63.380981 
L 50.613028 62.971931 
L 49.103764 62.096911 
L 49.287621 61.779789 
" clip-path="url(#p2aaeb085b7)"/>
    <path d="M 72.46136 42.918617 
L 74.205866 42.93368 
L 74.392307 42.568713 
L 75.853761 43.131199 
L 74.382811 43.668364 
L 74.202701 43.300231 
L 72.458195 43.285167 
L 72.46136 42.918617 
" clip-path="url(#p2aaeb085b7)"/>
    <path d="M 66.185211 36.031421 
L 67.818909 36.64344 
L 68.119138 36.36447 
L 69.299314 37.393753 
L 67.733352 37.394272 
L 67.690313 36.986707 
L 66.056616 36.374688 
L 66.185211 36.031421 
" clip-path="url(#p2aaeb085b7)"/>
    <path d="M 29.422379 15.755459 
L 31.128817 16.118228 
L 31.384316 15.797788 
L 32.704187 16.64051 
L 31.155645 16.873443 
L 31.052593 16.476779 
L 29.346155 16.114011 
L 29.422379 15.755459 
" clip-path="url(#p2aaeb085b7)"/>
    <path d="M 74.372564 34.685077 
L 76.116304 34.631071 
L 76.28815 34.259009 
L 77.770726 34.763202 
L 76.322193 35.358174 
L 76.127651 34.99746 
L 74.383912 35.051465 
L 74.372564 34.685077 
" clip-path="url(#p2aaeb085b7)"/>
    <path d="M 23.669929 65.359934 
L 25.406479 65.192827 
L 25.553806 64.810392 
L 27.065989 65.217262 
L 25.659143 65.905028 
L 25.441591 65.557705 
L 23.705041 65.724813 
L 23.669929 65.359934 
" clip-path="url(#p2aaeb085b7)"/>
    <path d="M 34.079049 29.298971 
L 35.743605 29.821267 
L 36.028223 29.526388 
L 37.262612 30.489987 
L 35.698994 30.57564 
L 35.633862 30.171018 
L 33.969306 29.648722 
L 34.079049 29.298971 
" clip-path="url(#p2aaeb085b7)"/>
    <path d="M 37.262343 39.692428 
L 38.96004 40.094122 
L 39.2228 39.779608 
L 40.523055 40.652291 
L 38.969592 40.849753 
L 38.875637 40.450836 
L 37.17794 40.049143 
L 37.262343 39.692428 
" clip-path="url(#p2aaeb085b7)"/>
    <path d="M 66.831948 26.055575 
L 68.575052 25.983937 
L 68.743127 25.610156 
L 70.230726 26.099329 
L 68.788284 26.708921 
L 68.590104 26.350192 
L 66.847001 26.42183 
L 66.831948 26.055575 
" clip-path="url(#p2aaeb085b7)"/>
    <path d="M 35.318199 48.637607 
L 37.002557 48.183209 
L 37.084036 47.781559 
L 38.642898 47.93052 
L 37.370466 48.843294 
L 37.098034 48.537121 
L 35.413676 48.991519 
L 35.318199 48.637607 
" clip-path="url(#p2aaeb085b7)"/>
    <path d="M 43.292918 45.519811 
L 45.028127 45.700341 
L 45.248358 45.354712 
L 46.649844 46.053336 
L 45.13456 46.4485 
L 44.990195 46.064938 
L 43.254985 45.884407 
L 43.292918 45.519811 
" clip-path="url(#p2aaeb085b7)"/>
    <path d="M 19.239422 17.70614 
L 20.983741 17.676329 
L 21.160733 17.306686 
L 22.636171 17.831397 
L 21.179524 18.406218 
L 20.990005 18.042839 
L 19.245686 18.07265 
L 19.239422 17.70614 
" clip-path="url(#p2aaeb085b7)"/>
    <path d="M 25.223671 47.85981 
L 26.965728 47.766171 
L 27.129071 47.390298 
L 28.622727 47.86065 
L 27.188097 48.488405 
L 26.985403 48.132207 
L 25.243346 48.225846 
L 25.223671 47.85981 
" clip-path="url(#p2aaeb085b7)"/>
    <path d="M 76.975745 60.054946 
L 78.672753 59.650339 
L 78.766023 59.251262 
L 80.319823 59.446057 
L 79.021067 60.32097 
L 78.757767 60.006908 
L 77.06076 60.411515 
L 76.975745 60.054946 
" clip-path="url(#p2aaeb085b7)"/>
    <path d="M 18.859466 57.707419 
L 20.596693 57.547477 
L 20.745597 57.165654 
L 22.256088 57.578758 
L 20.846416 58.260715 
L 20.630299 57.912498 
L 18.893073 58.072439 
L 18.859466 57.707419 
" clip-path="url(#p2aaeb085b7)"/>
    <path d="M 45.411705 37.379092 
L 47.130576 37.080728 
L 47.248466 36.688219 
L 48.787157 36.979198 
L 47.43654 37.771709 
L 47.193267 37.441891 
L 45.474397 37.740256 
L 45.411705 37.379092 
" clip-path="url(#p2aaeb085b7)"/>
    <path d="M 74.054746 29.444422 
L 75.691407 30.048471 
L 75.990273 29.768041 
L 77.175451 30.79156 
L 75.60951 30.799711 
L 75.564486 30.392361 
L 73.927825 29.788312 
L 74.054746 29.444422 
" clip-path="url(#p2aaeb085b7)"/>
    <path d="M 24.884559 55.695599 
L 26.629014 55.675118 
L 26.80798 55.306427 
L 28.280591 55.839022 
L 26.82089 56.406044 
L 26.633317 56.041657 
L 24.888863 56.062138 
L 24.884559 55.695599 
" clip-path="url(#p2aaeb085b7)"/>
    <path d="M 61.7686 63.214051 
L 63.507303 63.071068 
L 63.659926 62.690715 
L 65.166314 63.118539 
L 63.750055 63.786708 
L 63.537346 63.436399 
L 61.798643 63.579382 
L 61.7686 63.214051 
" clip-path="url(#p2aaeb085b7)"/>
    <path d="M 83.833308 21.438007 
L 85.576286 21.512673 
L 85.775089 21.154289 
L 87.216469 21.766386 
L 85.728023 22.252974 
L 85.560597 21.878901 
L 83.81762 21.804235 
L 83.833308 21.438007 
" clip-path="url(#p2aaeb085b7)"/>
    <path d="M 48.828873 51.516434 
L 50.534957 51.152002 
L 50.637622 50.755238 
L 52.186391 50.98666 
L 50.867342 51.830669 
L 50.611531 51.510479 
L 48.905447 51.874911 
L 48.828873 51.516434 
" clip-path="url(#p2aaeb085b7)"/>
    <path d="M 55.167654 46.879002 
L 56.835239 47.391542 
L 57.118126 47.095001 
L 58.358137 48.051355 
L 56.795047 48.146164 
L 56.727546 47.74193 
L 55.059961 47.22939 
L 55.167654 46.879002 
" clip-path="url(#p2aaeb085b7)"/>
    <path d="M 20.803579 16.572373 
L 22.504811 16.95882 
L 22.764739 16.641962 
L 24.072771 17.502944 
L 22.521142 17.714335 
L 22.423612 17.316277 
L 20.72238 16.929831 
L 20.803579 16.572373 
" clip-path="url(#p2aaeb085b7)"/>
    <path d="M 68.46824 43.932331 
L 70.168773 43.542806 
L 70.265583 43.144573 
L 71.817592 43.353156 
L 70.51112 44.216504 
L 70.250619 43.900116 
L 68.550086 44.289641 
L 68.46824 43.932331 
" clip-path="url(#p2aaeb085b7)"/>
    <path d="M 65.680332 75.704785 
L 67.381064 75.316138 
L 67.478079 74.917955 
L 69.02998 75.127339 
L 67.723062 75.990013 
L 67.462725 75.673491 
L 65.761993 76.062137 
L 65.680332 75.704785 
" clip-path="url(#p2aaeb085b7)"/>
    <path d="M 21.52819 70.193525 
L 23.250969 69.918627 
L 23.3742 69.527761 
L 24.90878 69.839695 
L 23.547483 70.613716 
L 23.308729 70.280611 
L 21.585951 70.55551 
L 21.52819 70.193525 
" clip-path="url(#p2aaeb085b7)"/>
    <path d="M 32.497821 79.6685 
L 34.228366 79.889297 
L 34.456568 79.548877 
L 35.841444 80.279874 
L 34.317388 80.639726 
L 34.181973 80.252913 
L 32.451428 80.032116 
L 32.497821 79.6685 
" clip-path="url(#p2aaeb085b7)"/>
    <path d="M 34.173399 55.675065 
L 35.917487 55.633886 
L 36.092066 55.263097 
L 37.570893 55.77818 
L 36.118023 56.362483 
L 35.92614 56.000348 
L 34.182051 56.041527 
L 34.173399 55.675065 
" clip-path="url(#p2aaeb085b7)"/>
    <path d="M 59.371503 58.103952 
L 61.108643 58.264858 
L 61.324952 57.91676 
L 62.734246 58.599498 
L 61.223526 59.011765 
L 61.074834 58.629859 
L 59.337695 58.468954 
L 59.371503 58.103952 
" clip-path="url(#p2aaeb085b7)"/>
    <path d="M 46.726854 85.014873 
L 48.426942 85.406326 
L 48.687801 85.090234 
L 49.993293 85.955064 
L 48.441049 86.161886 
L 48.344691 85.763543 
L 46.644603 85.37209 
L 46.726854 85.014873 
" clip-path="url(#p2aaeb085b7)"/>
    <path d="M 26.72996 16.988703 
L 28.437436 16.630839 
L 28.541627 16.234474 
L 30.089493 16.471855 
L 28.767207 17.310781 
L 28.512629 16.989608 
L 26.805153 17.347472 
L 26.72996 16.988703 
" clip-path="url(#p2aaeb085b7)"/>
    <path d="M 57.65661 21.832688 
L 59.39543 21.974284 
L 59.607859 21.623805 
L 61.02465 22.290843 
L 59.518604 22.719869 
L 59.365678 22.339639 
L 57.626859 22.198043 
L 57.65661 21.832688 
" clip-path="url(#p2aaeb085b7)"/>
    <path d="M 37.242791 70.838903 
L 38.977735 71.021946 
L 39.198466 70.676635 
L 40.598939 71.377288 
L 39.083084 71.770258 
L 38.939274 71.386487 
L 37.204331 71.203444 
L 37.242791 70.838903 
" clip-path="url(#p2aaeb085b7)"/>
    <path d="M 58.502845 48.543988 
L 60.225518 48.819561 
L 60.464401 48.48655 
L 61.825396 49.261103 
L 60.290694 49.572437 
L 60.167615 49.181523 
L 58.444943 48.905951 
L 58.502845 48.543988 
" clip-path="url(#p2aaeb085b7)"/>
    <path d="M 78.995803 47.691331 
L 80.73451 47.834314 
L 80.947219 47.484004 
L 82.363478 48.152173 
L 80.857089 48.579997 
L 80.704467 48.199645 
L 78.96576 48.056661 
L 78.995803 47.691331 
" clip-path="url(#p2aaeb085b7)"/>
    <path d="M 59.365568 61.254674 
L 61.109696 61.294113 
L 61.301218 60.931786 
L 62.754669 61.514639 
L 61.276357 62.031197 
L 61.101409 61.660583 
L 59.357281 61.621144 
L 59.365568 61.254674 
" clip-path="url(#p2aaeb085b7)"/>
    <path d="M 73.760028 69.806852 
L 75.504599 69.807938 
L 75.688109 69.441488 
L 77.154023 69.992247 
L 75.687424 70.54118 
L 75.50437 70.174502 
L 73.759799 70.173416 
L 73.760028 69.806852 
" clip-path="url(#p2aaeb085b7)"/>
    <path d="M 83.873724 29.445447 
L 85.544284 29.948207 
L 85.825429 29.650014 
L 87.071021 30.599086 
L 85.508514 30.703052 
L 85.438646 30.29922 
L 83.768085 29.79646 
L 83.873724 29.445447 
" clip-path="url(#p2aaeb085b7)"/>
    <path d="M 61.016085 16.588123 
L 62.712234 16.996316 
L 62.976197 16.682811 
L 64.273101 17.560466 
L 62.718893 17.751978 
L 62.626466 17.352705 
L 60.930317 16.944512 
L 61.016085 16.588123 
" clip-path="url(#p2aaeb085b7)"/>
    <path d="M 69.422898 64.546903 
L 71.162083 64.68392 
L 71.373589 64.332883 
L 72.792132 64.996189 
L 71.28722 65.429178 
L 71.133294 65.049352 
L 69.394109 64.912335 
L 69.422898 64.546903 
" clip-path="url(#p2aaeb085b7)"/>
    <path d="M 29.3837 35.066308 
L 31.12137 34.911246 
L 31.271345 34.529842 
L 32.78067 34.947188 
L 31.369089 35.625182 
L 31.153951 35.276359 
L 29.416281 35.431421 
L 29.3837 35.066308 
" clip-path="url(#p2aaeb085b7)"/>
    <path d="M 71.337624 68.482269 
L 72.992809 69.03353 
L 73.28253 68.743662 
L 74.499917 69.728654 
L 72.935042 69.78701 
L 72.87698 69.381313 
L 71.221794 68.830051 
L 71.337624 68.482269 
" clip-path="url(#p2aaeb085b7)"/>
    <path d="M 41.815769 74.977189 
L 43.50107 75.428078 
L 43.772864 75.121338 
L 45.047195 76.03146 
L 43.488646 76.183667 
L 43.406331 75.782188 
L 41.721029 75.331298 
L 41.815769 74.977189 
" clip-path="url(#p2aaeb085b7)"/>
    <path d="M 71.768703 41.105743 
L 73.480458 41.442527 
L 73.731056 41.11824 
L 75.063586 41.940799 
L 73.518764 42.197247 
L 73.409694 41.802196 
L 71.697939 41.465412 
L 71.768703 41.105743 
" clip-path="url(#p2aaeb085b7)"/>
    <path d="M 41.007064 45.105792 
L 42.734156 44.859427 
L 42.863835 44.470653 
L 44.393046 44.807927 
L 43.019132 45.559325 
L 42.785921 45.222317 
L 41.05883 45.468683 
L 41.007064 45.105792 
" clip-path="url(#p2aaeb085b7)"/>
    <path d="M 41.888044 74.896617 
L 43.627859 75.025412 
L 43.837702 74.673379 
L 45.259365 75.329972 
L 43.756517 75.770071 
L 43.600797 75.390976 
L 41.860982 75.262181 
L 41.888044 74.896617 
" clip-path="url(#p2aaeb085b7)"/>
    <path d="M 30.798264 61.128996 
L 32.53841 61.253194 
L 32.747323 60.900608 
L 34.170715 61.553443 
L 32.669035 61.99751 
L 32.512314 61.618828 
L 30.772168 61.49463 
L 30.798264 61.128996 
" clip-path="url(#p2aaeb085b7)"/>
    <path d="M 38.190947 39.207938 
L 39.876814 38.75917 
L 39.959634 38.357794 
L 41.51799 38.511963 
L 40.242515 39.420481 
L 39.971107 39.113399 
L 38.28524 39.562167 
L 38.190947 39.207938 
" clip-path="url(#p2aaeb085b7)"/>
    <path d="M 53.27356 17.795721 
L 55.009894 17.626347 
L 55.156722 17.243721 
L 56.669435 17.648617 
L 55.263487 18.338218 
L 55.045482 17.99118 
L 53.309148 18.160553 
L 53.27356 17.795721 
" clip-path="url(#p2aaeb085b7)"/>
    <path d="M 68.342835 57.565677 
L 70.067559 57.303249 
L 70.193616 56.913286 
L 71.725899 57.236314 
L 70.359037 58.000466 
L 70.1227 57.665643 
L 68.397976 57.92807 
L 68.342835 57.565677 
" clip-path="url(#p2aaeb085b7)"/>
    <path d="M 74.733868 52.962506 
L 76.40482 53.463957 
L 76.685731 53.165543 
L 77.932067 54.113639 
L 76.369641 54.218829 
L 76.299456 53.815052 
L 74.628504 53.313602 
L 74.733868 52.962506 
" clip-path="url(#p2aaeb085b7)"/>
    <path d="M 41.113093 32.168781 
L 42.851213 32.018854 
L 43.002315 31.637895 
L 44.5104 32.059697 
L 43.096822 32.733519 
L 42.882715 32.384062 
L 41.144595 32.533989 
L 41.113093 32.168781 
" clip-path="url(#p2aaeb085b7)"/>
    <path d="M 43.263578 56.890954 
L 44.964358 57.279391 
L 45.224656 56.962837 
L 46.531681 57.825349 
L 44.979805 58.034924 
L 44.882741 57.636753 
L 43.181961 57.248316 
L 43.263578 56.890954 
" clip-path="url(#p2aaeb085b7)"/>
    <path d="M 33.309898 23.105692 
L 35.054298 23.080955 
L 35.232364 22.711829 
L 36.70627 23.24083 
L 35.247957 23.811411 
L 35.059496 23.447483 
L 33.315096 23.472219 
L 33.309898 23.105692 
" clip-path="url(#p2aaeb085b7)"/>
    <path d="M 25.096554 13.7671 
L 26.836189 13.635902 
L 26.991385 13.256593 
L 28.49484 13.694615 
L 27.074086 14.353171 
L 26.863756 14.001429 
L 25.124121 14.132626 
L 25.096554 13.7671 
" clip-path="url(#p2aaeb085b7)"/>
    <path d="M 62.470203 23.127272 
L 64.212329 23.0349 
L 64.375945 22.659146 
L 65.869258 23.130585 
L 64.434172 23.757295 
L 64.231738 23.40095 
L 62.489612 23.493322 
L 62.470203 23.127272 
" clip-path="url(#p2aaeb085b7)"/>
    <path d="M 20.487511 67.614434 
L 22.232079 67.610383 
L 22.41451 67.243394 
L 23.882039 67.789834 
L 22.417063 68.343084 
L 22.232931 67.976946 
L 20.488362 67.980997 
L 20.487511 67.614434 
" clip-path="url(#p2aaeb085b7)"/>
    <path d="M 32.920583 48.423655 
L 34.661086 48.30453 
L 34.81891 47.926307 
L 36.31929 48.374749 
L 34.894001 49.023432 
L 34.686116 48.670239 
L 32.945613 48.789364 
L 32.920583 48.423655 
" clip-path="url(#p2aaeb085b7)"/>
    <path d="M 55.762285 67.527034 
L 57.468071 67.89287 
L 57.724146 67.572891 
L 59.042499 68.417985 
L 57.493541 68.648132 
L 57.391202 68.251284 
L 55.685417 67.885448 
L 55.762285 67.527034 
" clip-path="url(#p2aaeb085b7)"/>
    <path d="M 35.572962 26.160424 
L 37.307064 26.35128 
L 37.529348 26.006967 
L 38.926651 26.713921 
L 37.409042 27.100059 
L 37.266962 26.715644 
L 35.53286 26.524788 
L 35.572962 26.160424 
" clip-path="url(#p2aaeb085b7)"/>
    <path d="M 41.655651 79.56932 
L 43.391169 79.391801 
L 43.5362 79.00849 
L 45.050795 79.406283 
L 43.648099 80.102474 
L 43.428469 79.756462 
L 41.692951 79.933982 
L 41.655651 79.56932 
" clip-path="url(#p2aaeb085b7)"/>
    <path d="M 22.347666 25.111953 
L 24.087429 24.982466 
L 24.242998 24.60331 
L 25.746022 25.04281 
L 24.32462 25.699969 
L 24.114636 25.348019 
L 22.374874 25.477506 
L 22.347666 25.111953 
" clip-path="url(#p2aaeb085b7)"/>
    <path d="M 61.149939 35.120482 
L 62.890634 35.004229 
L 63.049082 34.626266 
L 64.548719 35.077183 
L 63.122362 35.723514 
L 62.915061 35.369978 
L 61.174365 35.486232 
L 61.149939 35.120482 
" clip-path="url(#p2aaeb085b7)"/>
    <path d="M 64.070621 49.395894 
L 65.795657 49.135537 
L 65.922181 48.745725 
L 67.454075 49.070591 
L 66.086297 49.833102 
L 65.850362 49.497996 
L 64.125326 49.758354 
L 64.070621 49.395894 
" clip-path="url(#p2aaeb085b7)"/>
    <path d="M 48.93244 63.669185 
L 50.655873 63.398412 
L 50.78004 63.007843 
L 52.313869 63.32345 
L 50.950721 64.094209 
L 50.712766 63.760534 
L 48.989334 64.031307 
L 48.93244 63.669185 
" clip-path="url(#p2aaeb085b7)"/>
    <path d="M 73.223551 26.919572 
L 74.933406 27.265876 
L 75.185806 26.942988 
L 76.513737 27.77295 
L 74.967513 28.020797 
L 74.860642 27.625145 
L 73.150787 27.278841 
L 73.223551 26.919572 
" clip-path="url(#p2aaeb085b7)"/>
    <path d="M 63.709019 53.733666 
L 65.384786 54.218784 
L 65.662771 53.917643 
L 66.918302 54.853529 
L 65.356977 54.973964 
L 65.282855 54.570891 
L 63.607088 54.085773 
L 63.709019 53.733666 
" clip-path="url(#p2aaeb085b7)"/>
    <path d="M 85.015275 32.657154 
L 86.713111 32.256039 
L 86.807202 31.857155 
L 88.360598 32.055147 
L 87.060045 32.927386 
L 86.797392 32.612783 
L 85.099556 33.013897 
L 85.015275 32.657154 
" clip-path="url(#p2aaeb085b7)"/>
    <path d="M 65.875526 40.272806 
L 67.619779 40.306321 
L 67.810069 39.943346 
L 69.265493 40.521258 
L 67.788943 41.042835 
L 67.612737 40.672818 
L 65.868484 40.639303 
L 65.875526 40.272806 
" clip-path="url(#p2aaeb085b7)"/>
    <path d="M 47.32505 53.303649 
L 49.059111 53.494886 
L 49.28147 53.150621 
L 50.678618 53.857883 
L 49.160924 54.243687 
L 49.018929 53.859241 
L 47.284868 53.668004 
L 47.32505 53.303649 
" clip-path="url(#p2aaeb085b7)"/>
    <path d="M 44.311954 23.7439 
L 46.055186 23.812271 
L 46.252693 23.453171 
L 47.696275 24.060058 
L 46.209596 24.552019 
L 46.040821 24.178553 
L 44.297589 24.110183 
L 44.311954 23.7439 
" clip-path="url(#p2aaeb085b7)"/>
    <path d="M 74.474272 32.949808 
L 76.073228 33.64757 
L 76.387824 33.384908 
L 77.511777 34.475306 
L 75.947989 34.392811 
L 75.926617 33.983538 
L 74.32766 33.285776 
L 74.474272 32.949808 
" clip-path="url(#p2aaeb085b7)"/>
    <path d="M 80.53929 44.800928 
L 82.283841 44.791797 
L 82.465203 44.424279 
L 83.934317 44.966443 
L 82.470958 45.523956 
L 82.28576 45.158356 
L 80.541209 45.167487 
L 80.53929 44.800928 
" clip-path="url(#p2aaeb085b7)"/>
    <path d="M 70.790756 54.793817 
L 72.534786 54.750226 
L 72.708852 54.379197 
L 74.188389 54.892235 
L 72.736329 55.478546 
L 72.543945 55.116676 
L 70.799915 55.160266 
L 70.790756 54.793817 
" clip-path="url(#p2aaeb085b7)"/>
    <path d="M 45.27789 69.609467 
L 46.937907 69.072919 
L 46.999568 68.667753 
L 48.563864 68.739998 
L 47.337781 69.714145 
L 47.050645 69.421716 
L 45.390628 69.958264 
L 45.27789 69.609467 
" clip-path="url(#p2aaeb085b7)"/>
    <path d="M 39.684843 31.985926 
L 41.411611 31.737311 
L 41.540785 31.348369 
L 43.070433 31.68365 
L 41.697499 32.436837 
L 41.463849 32.100134 
L 39.737081 32.348748 
L 39.684843 31.985926 
" clip-path="url(#p2aaeb085b7)"/>
    <path d="M 48.904578 72.050489 
L 50.642264 72.205353 
L 50.857362 71.856506 
L 52.269021 72.534339 
L 50.759743 72.951857 
L 50.609724 72.57047 
L 48.872039 72.415606 
L 48.904578 72.050489 
" clip-path="url(#p2aaeb085b7)"/>
    <path d="M 58.433977 79.886869 
L 60.157055 79.613848 
L 60.280713 79.223117 
L 61.814952 79.536724 
L 60.452812 80.30926 
L 60.214422 79.975896 
L 58.491343 80.248916 
L 58.433977 79.886869 
" clip-path="url(#p2aaeb085b7)"/>
    <path d="M 40.119096 39.795658 
L 41.846213 40.04185 
L 42.07939 39.704819 
L 43.453379 40.456079 
L 41.924202 40.793507 
L 41.794483 40.404746 
L 40.067367 40.158554 
L 40.119096 39.795658 
" clip-path="url(#p2aaeb085b7)"/>
    <path d="M 54.455935 51.678933 
L 56.181648 51.934766 
L 56.416703 51.599042 
L 57.786477 52.357962 
L 56.255439 52.686846 
L 56.127893 52.297367 
L 54.40218 52.041535 
L 54.455935 51.678933 
" clip-path="url(#p2aaeb085b7)"/>
    <path d="M 59.545854 42.265375 
L 61.213447 42.777885 
L 61.496328 42.481339 
L 62.736356 43.437671 
L 61.173267 43.532507 
L 61.10576 43.128274 
L 59.438167 42.615765 
L 59.545854 42.265375 
" clip-path="url(#p2aaeb085b7)"/>
    <path d="M 53.459743 54.598887 
L 55.199763 54.724855 
L 55.409035 54.372482 
L 56.831762 55.026765 
L 55.329631 55.469304 
L 55.173295 55.090463 
L 53.433275 54.964495 
L 53.459743 54.598887 
" clip-path="url(#p2aaeb085b7)"/>
    <path d="M 50.373041 88.3124 
L 51.960633 89.035648 
L 52.279389 88.778051 
L 53.385758 89.886287 
L 51.823489 89.77879 
L 51.808666 89.369227 
L 50.221075 88.64598 
L 50.373041 88.3124 
" clip-path="url(#p2aaeb085b7)"/>
    <path d="M 35.255248 41.966825 
L 36.975625 41.677265 
L 37.095523 41.285364 
L 38.632704 41.584218 
L 37.278047 42.369804 
L 37.036466 42.038745 
L 35.31609 42.328305 
L 35.255248 41.966825 
" clip-path="url(#p2aaeb085b7)"/>
    <path d="M 32.342713 61.570763 
L 34.057703 61.250836 
L 34.170655 60.856877 
L 35.712879 61.128511 
L 34.372321 61.937921 
L 34.124925 61.611184 
L 32.409935 61.931111 
L 32.342713 61.570763 
" clip-path="url(#p2aaeb085b7)"/>
    <path d="M 31.632383 69.175517 
L 33.364847 69.380723 
L 33.589974 69.038262 
L 34.981376 69.75676 
L 33.460622 70.130321 
L 33.32173 69.744743 
L 31.589266 69.539537 
L 31.632383 69.175517 
" clip-path="url(#p2aaeb085b7)"/>
    <path d="M 43.370006 33.964551 
L 45.056105 34.412451 
L 45.327354 34.105229 
L 46.603297 35.01309 
L 45.045021 35.168061 
L 44.961994 34.766728 
L 43.275895 34.318829 
L 43.370006 33.964551 
" clip-path="url(#p2aaeb085b7)"/>
    <path d="M 54.75212 76.677801 
L 56.493388 76.570446 
L 56.653766 76.193298 
L 58.15108 76.651873 
L 56.721438 77.290906 
L 56.515946 76.936315 
L 54.774677 77.043671 
L 54.75212 76.677801 
" clip-path="url(#p2aaeb085b7)"/>
    <path d="M 38.404177 13.187964 
L 40.083602 12.715657 
L 40.1608 12.313162 
L 41.721159 12.445516 
L 40.458518 13.371787 
L 40.182841 13.068532 
L 38.503416 13.540839 
L 38.404177 13.187964 
" clip-path="url(#p2aaeb085b7)"/>
    <path d="M 74.823647 62.246875 
L 76.567923 62.279122 
L 76.75795 61.916008 
L 78.213792 62.492863 
L 76.737623 63.015512 
L 76.561148 62.645623 
L 74.816871 62.613376 
L 74.823647 62.246875 
" clip-path="url(#p2aaeb085b7)"/>
    <path d="M 38.646975 14.573724 
L 40.362216 14.255148 
L 40.475478 13.861279 
L 42.017487 14.134127 
L 40.676292 14.94248 
L 40.429154 14.615549 
L 38.713913 14.934125 
L 38.646975 14.573724 
" clip-path="url(#p2aaeb085b7)"/>
    <path d="M 18.517558 45.440737 
L 20.259823 45.350991 
L 20.424005 44.975483 
L 21.916606 45.449173 
L 20.480577 46.07372 
L 20.27868 45.717069 
L 18.536415 45.806816 
L 18.517558 45.440737 
" clip-path="url(#p2aaeb085b7)"/>
    <path d="M 61.863548 32.743371 
L 63.600056 32.575801 
L 63.747281 32.193327 
L 65.259572 32.599794 
L 63.852909 33.287935 
L 63.635265 32.94067 
L 61.898757 33.10824 
L 61.863548 32.743371 
" clip-path="url(#p2aaeb085b7)"/>
    <path d="M 50.515081 32.677828 
L 52.258739 32.62135 
L 52.430058 32.249044 
L 53.913347 32.751135 
L 52.465659 33.348161 
L 52.270606 32.987722 
L 50.526948 33.0442 
L 50.515081 32.677828 
" clip-path="url(#p2aaeb085b7)"/>
    <path d="M 27.750294 49.678772 
L 29.494868 49.679135 
L 29.678227 49.312609 
L 31.144369 49.86276 
L 29.677998 50.412301 
L 29.494792 50.045699 
L 27.750218 50.045337 
L 27.750294 49.678772 
" clip-path="url(#p2aaeb085b7)"/>
    <path d="M 51.937132 64.503189 
L 53.671501 64.691621 
L 53.893303 64.346998 
L 55.291593 65.051998 
L 53.774525 65.440257 
L 53.631908 65.056041 
L 51.897539 64.867609 
L 51.937132 64.503189 
" clip-path="url(#p2aaeb085b7)"/>
    <path d="M 43.806968 24.144767 
L 45.396453 24.863845 
L 45.714532 24.605413 
L 46.823806 25.71074 
L 45.261261 25.607345 
L 45.245362 25.197822 
L 43.655877 24.478744 
L 43.806968 24.144767 
" clip-path="url(#p2aaeb085b7)"/>
    <path d="M 16.183406 16.996175 
L 17.911525 17.235213 
L 18.143304 16.897219 
L 19.520393 17.642783 
L 17.992626 17.98654 
L 17.861299 17.59832 
L 16.13318 17.359282 
L 16.183406 16.996175 
" clip-path="url(#p2aaeb085b7)"/>
    <path d="M 19.808412 19.159627 
L 21.537603 18.928462 
L 21.670697 18.540844 
L 23.196882 18.891555 
L 21.816412 19.63084 
L 21.586175 19.291794 
L 19.856984 19.522959 
L 19.808412 19.159627 
" clip-path="url(#p2aaeb085b7)"/>
    <path d="M 54.358646 18.534679 
L 56.088277 18.306818 
L 56.222112 17.919455 
L 57.747624 18.273081 
L 56.365744 19.009727 
L 56.136155 18.670242 
L 54.406524 18.898103 
L 54.358646 18.534679 
" clip-path="url(#p2aaeb085b7)"/>
    <path d="M 32.610807 65.132916 
L 34.344481 64.938216 
L 34.485709 64.553487 
L 36.00417 64.93626 
L 34.608438 65.64631 
L 34.385391 65.302491 
L 32.651717 65.49719 
L 32.610807 65.132916 
" clip-path="url(#p2aaeb085b7)"/>
    <path d="M 85.295223 26.850642 
L 87.039764 26.861439 
L 87.225311 26.496017 
L 88.688137 27.054928 
L 87.218505 27.595688 
L 87.037495 27.227997 
L 85.292954 27.217199 
L 85.295223 26.850642 
" clip-path="url(#p2aaeb085b7)"/>
    <path d="M 30.641277 30.00817 
L 32.381614 30.1297 
L 32.589987 29.776795 
L 34.014378 30.427447 
L 32.51338 30.873815 
L 32.356079 30.495374 
L 30.615742 30.373843 
L 30.641277 30.00817 
" clip-path="url(#p2aaeb085b7)"/>
    <path d="M 68.268707 32.434206 
L 69.991454 32.709304 
L 70.230246 32.376228 
L 71.591454 33.150406 
L 70.056837 33.462162 
L 69.933651 33.071282 
L 68.210904 32.796184 
L 68.268707 32.434206 
" clip-path="url(#p2aaeb085b7)"/>
    <path d="M 66.806026 62.781388 
L 68.462838 62.235038 
L 68.522103 61.829515 
L 70.086798 61.892512 
L 68.866496 62.873889 
L 68.577636 62.583163 
L 66.920823 63.129513 
L 66.806026 62.781388 
" clip-path="url(#p2aaeb085b7)"/>
    <path d="M 33.784711 64.927888 
L 35.529057 64.899733 
L 35.706399 64.530258 
L 37.181338 65.056369 
L 35.724147 65.629807 
L 35.534973 65.266249 
L 33.790627 65.294405 
L 33.784711 64.927888 
" clip-path="url(#p2aaeb085b7)"/>
    <path d="M 77.408098 40.798548 
L 79.027212 41.448171 
L 79.33381 41.176217 
L 80.489876 42.232508 
L 78.92432 42.196825 
L 78.890715 41.788374 
L 77.271602 41.138751 
L 77.408098 40.798548 
" clip-path="url(#p2aaeb085b7)"/>
    <path d="M 78.521297 61.013867 
L 80.258108 60.849468 
L 80.406031 60.467263 
L 81.917577 60.876491 
L 80.50966 61.562062 
L 80.292651 61.214401 
L 78.55584 61.3788 
L 78.521297 61.013867 
" clip-path="url(#p2aaeb085b7)"/>
    <path d="M 45.042529 19.11684 
L 46.78083 19.264668 
L 46.994514 18.914953 
L 48.408905 19.587066 
L 46.90133 20.01069 
L 46.749769 19.629914 
L 45.011468 19.482086 
L 45.042529 19.11684 
" clip-path="url(#p2aaeb085b7)"/>
    <path d="M 54.440919 54.133311 
L 56.184628 54.078376 
L 56.356276 53.706222 
L 57.83912 54.209624 
L 56.390905 54.805369 
L 56.19617 54.444758 
L 54.452462 54.499694 
L 54.440919 54.133311 
" clip-path="url(#p2aaeb085b7)"/>
    <path d="M 76.726996 48.322728 
L 78.435773 47.97114 
L 78.54142 47.575159 
L 80.088404 47.818226 
L 78.763044 48.652288 
L 78.509648 48.330183 
L 76.80087 48.681771 
L 76.726996 48.322728 
" clip-path="url(#p2aaeb085b7)"/>
    <path d="M 74.394198 19.322891 
L 75.974048 20.062899 
L 76.295513 19.80869 
L 77.390093 20.928572 
L 75.829049 20.804549 
L 75.81856 20.394852 
L 74.23871 19.654844 
L 74.394198 19.322891 
" clip-path="url(#p2aaeb085b7)"/>
    <path d="M 81.52102 17.726665 
L 83.265517 17.710397 
L 83.445373 17.34214 
L 84.916693 17.878289 
L 83.455628 18.441785 
L 83.268935 18.076945 
L 81.524439 18.093214 
L 81.52102 17.726665 
" clip-path="url(#p2aaeb085b7)"/>
    <path d="M 50.156323 16.501424 
L 51.900211 16.452537 
L 52.073149 16.08098 
L 53.554238 16.589522 
L 52.103966 17.180241 
L 51.910483 16.818957 
L 50.166595 16.867844 
L 50.156323 16.501424 
" clip-path="url(#p2aaeb085b7)"/>
    <path d="M 14.892921 35.00983 
L 16.603742 34.668324 
L 16.711722 34.272974 
L 18.257245 34.525158 
L 16.92699 35.351391 
L 16.675498 35.027797 
L 14.964677 35.369302 
L 14.892921 35.00983 
" clip-path="url(#p2aaeb085b7)"/>
    <path d="M 24.266819 66.449835 
L 26.011326 66.464977 
L 26.197782 66.100017 
L 27.659211 66.662569 
L 26.188238 67.199668 
L 26.008144 66.831527 
L 24.263637 66.816385 
L 24.266819 66.449835 
" clip-path="url(#p2aaeb085b7)"/>
    <path d="M 77.783201 69.860505 
L 79.189101 68.827553 
L 79.119762 68.42363 
L 80.626934 67.998574 
L 79.770883 69.309839 
L 79.406141 69.122956 
L 78.000241 70.155908 
L 77.783201 69.860505 
" clip-path="url(#p2aaeb085b7)"/>
    <path d="M 27.170921 73.887661 
L 28.912945 73.98192 
L 29.115765 73.625794 
L 30.550172 74.254058 
L 29.056349 74.72388 
L 28.89314 74.347948 
L 27.151116 74.25369 
L 27.170921 73.887661 
" clip-path="url(#p2aaeb085b7)"/>
    <path d="M 72.794225 56.159444 
L 74.538653 56.137053 
L 74.717215 55.768167 
L 76.190408 56.299149 
L 74.73133 56.867769 
L 74.543358 56.503587 
L 72.79893 56.525978 
L 72.794225 56.159444 
" clip-path="url(#p2aaeb085b7)"/>
    <path d="M 36.100352 37.444974 
L 37.84388 37.505419 
L 38.039753 37.145425 
L 39.486078 37.745742 
L 38.001651 38.244457 
L 37.83118 37.871763 
L 36.087652 37.811318 
L 36.100352 37.444974 
" clip-path="url(#p2aaeb085b7)"/>
    <path d="M 63.239144 66.583697 
L 64.97574 66.75035 
L 65.193201 66.402971 
L 66.600227 67.090369 
L 65.088151 67.497634 
L 64.940724 67.115238 
L 63.204127 66.948585 
L 63.239144 66.583697 
" clip-path="url(#p2aaeb085b7)"/>
    <path d="M 74.424733 53.332853 
L 76.169307 53.332021 
L 76.352414 52.965369 
L 77.818932 53.514516 
L 76.352938 54.065062 
L 76.169481 53.698585 
L 74.424907 53.699417 
L 74.424733 53.332853 
" clip-path="url(#p2aaeb085b7)"/>
    <path d="M 24.007885 42.019283 
L 25.69952 42.445793 
L 25.966858 42.135161 
L 27.254195 43.02679 
L 25.698007 43.201483 
L 25.609904 42.801234 
L 23.918268 42.374724 
L 24.007885 42.019283 
" clip-path="url(#p2aaeb085b7)"/>
    <path d="M 40.074816 26.81083 
L 41.806151 27.025342 
L 42.033115 26.684095 
L 43.420636 27.410059 
L 41.897897 27.775443 
L 41.761079 27.389124 
L 40.029743 27.174613 
L 40.074816 26.81083 
" clip-path="url(#p2aaeb085b7)"/>
    <path d="M 41.366286 54.519833 
L 43.106246 54.393038 
L 43.262402 54.014123 
L 44.764743 54.455948 
L 43.342327 55.110907 
L 43.132888 54.758633 
L 41.392927 54.885428 
L 41.366286 54.519833 
" clip-path="url(#p2aaeb085b7)"/>
    <path d="M 66.505139 35.582492 
L 68.245243 35.707257 
L 68.454271 35.354739 
L 69.87745 36.008038 
L 68.375625 36.451615 
L 68.219028 36.072882 
L 66.478924 35.948117 
L 66.505139 35.582492 
" clip-path="url(#p2aaeb085b7)"/>
    <path d="M 79.780337 53.659541 
L 81.488218 54.015461 
L 81.74243 53.693999 
L 83.065671 54.53142 
L 81.518076 54.770562 
L 81.413433 54.374316 
L 79.705552 54.018395 
L 79.780337 53.659541 
" clip-path="url(#p2aaeb085b7)"/>
    <path d="M 21.511344 15.446791 
L 23.241382 15.671531 
L 23.470359 15.331632 
L 24.853565 16.065784 
L 23.328694 16.422162 
L 23.19416 16.035041 
L 21.464123 15.810301 
L 21.511344 15.446791 
" clip-path="url(#p2aaeb085b7)"/>
    <path d="M 72.927989 16.835775 
L 74.669697 16.73579 
L 74.831669 16.359324 
L 76.327029 16.824233 
L 74.894695 17.457209 
L 74.690706 17.101752 
L 72.948998 17.201737 
L 72.927989 16.835775 
" clip-path="url(#p2aaeb085b7)"/>
    <path d="M 28.011339 46.026153 
L 29.755869 46.013535 
L 29.936495 45.645655 
L 31.40669 46.184881 
L 29.944449 46.745318 
L 29.75852 46.380089 
L 28.01399 46.392707 
L 28.011339 46.026153 
" clip-path="url(#p2aaeb085b7)"/>
    <path d="M 51.14799 15.712535 
L 52.891769 15.659854 
L 53.063898 15.287922 
L 54.54609 15.793241 
L 53.097106 16.387113 
L 52.902838 16.026251 
L 51.159059 16.078932 
L 51.14799 15.712535 
" clip-path="url(#p2aaeb085b7)"/>
    <path d="M 57.972403 32.179982 
L 59.682601 31.835359 
L 59.789861 31.439812 
L 61.335841 31.689179 
L 60.007094 32.517835 
L 59.755013 32.194699 
L 58.044815 32.539323 
L 57.972403 32.179982 
" clip-path="url(#p2aaeb085b7)"/>
    <path d="M 77.039487 21.583065 
L 78.78392 21.605057 
L 78.971808 21.240832 
L 80.431017 21.809118 
L 78.957946 22.340437 
L 78.779299 21.971592 
L 77.034866 21.949601 
L 77.039487 21.583065 
" clip-path="url(#p2aaeb085b7)"/>
    <path d="M 76.780112 26.228794 
L 78.502894 25.953912 
L 78.626129 25.563048 
L 80.160706 25.874996 
L 78.799401 26.649004 
L 78.560651 26.315897 
L 76.837869 26.59078 
L 76.780112 26.228794 
" clip-path="url(#p2aaeb085b7)"/>
    <path d="M 58.401956 78.559621 
L 60.14637 78.536047 
L 60.324682 78.16704 
L 61.798234 78.697023 
L 60.339542 79.266632 
L 60.151323 78.902578 
L 58.406909 78.926152 
L 58.401956 78.559621 
" clip-path="url(#p2aaeb085b7)"/>
    <path d="M 65.538723 23.578326 
L 67.283103 23.604227 
L 67.471807 23.240424 
L 68.929739 23.811979 
L 67.45548 24.339996 
L 67.277661 23.970751 
L 65.53328 23.944849 
L 65.538723 23.578326 
" clip-path="url(#p2aaeb085b7)"/>
    <path d="M 83.27848 24.792823 
L 84.993453 24.472806 
L 85.106384 24.078841 
L 86.648622 24.350394 
L 85.308107 25.159874 
L 85.060694 24.83315 
L 83.345721 25.153167 
L 83.27848 24.792823 
" clip-path="url(#p2aaeb085b7)"/>
    <path d="M 73.50838 28.124836 
L 75.243245 28.308611 
L 75.464121 27.963393 
L 76.864299 28.664637 
L 75.348279 29.056967 
L 75.20463 28.673136 
L 73.469766 28.489361 
L 73.50838 28.124836 
" clip-path="url(#p2aaeb085b7)"/>
    <path d="M 25.220179 58.920705 
L 26.919399 59.315915 
L 27.180957 59.0004 
L 28.484534 59.868113 
L 26.931836 60.071504 
L 26.836359 59.672949 
L 25.137139 59.277739 
L 25.220179 58.920705 
" clip-path="url(#p2aaeb085b7)"/>
    <path d="M 85.415926 15.298476 
L 87.062046 14.720693 
L 87.113583 14.314115 
L 88.679194 14.347324 
L 87.477788 15.351746 
L 87.183448 15.06657 
L 85.537327 15.644353 
L 85.415926 15.298476 
" clip-path="url(#p2aaeb085b7)"/>
    <path d="M 54.292061 45.553098 
L 56.028851 45.7177 
L 56.245901 45.370063 
L 57.653738 46.055799 
L 56.142144 46.46485 
L 55.994266 46.082629 
L 54.257475 45.918027 
L 54.292061 45.553098 
" clip-path="url(#p2aaeb085b7)"/>
    <path d="M 50.3135 19.27723 
L 52.053989 19.157919 
L 52.211773 18.779678 
L 53.712201 19.22796 
L 52.286981 19.876796 
L 52.079059 19.523625 
L 50.338569 19.642936 
L 50.3135 19.27723 
" clip-path="url(#p2aaeb085b7)"/>
    <path d="M 61.51658 15.88268 
L 63.23532 15.583557 
L 63.353037 15.190995 
L 64.891856 15.481296 
L 63.541589 16.274403 
L 63.29817 15.944692 
L 61.579431 16.243816 
L 61.51658 15.88268 
" clip-path="url(#p2aaeb085b7)"/>
    <path d="M 55.531709 49.853969 
L 57.264071 49.647913 
L 57.402774 49.262267 
L 58.923711 49.635081 
L 57.532661 50.354261 
L 57.307366 50.011911 
L 55.575005 50.217967 
L 55.531709 49.853969 
" clip-path="url(#p2aaeb085b7)"/>
    <path d="M 35.659675 59.788041 
L 37.39477 59.969647 
L 37.615215 59.624153 
L 39.016268 60.323646 
L 37.50074 60.717871 
L 37.356612 60.33422 
L 35.621517 60.152614 
L 35.659675 59.788041 
" clip-path="url(#p2aaeb085b7)"/>
    <path d="M 42.436709 44.374728 
L 44.158629 44.654961 
L 44.398413 44.322598 
L 45.757307 45.100831 
L 44.221768 45.408011 
L 44.099748 45.016766 
L 42.377827 44.736533 
L 42.436709 44.374728 
" clip-path="url(#p2aaeb085b7)"/>
    <path d="M 33.22179 43.560028 
L 34.958695 43.723416 
L 35.175502 43.375628 
L 36.583819 44.060379 
L 35.072511 44.470487 
L 34.924365 44.088369 
L 33.18746 43.924981 
L 33.22179 43.560028 
" clip-path="url(#p2aaeb085b7)"/>
    <path d="M 77.077243 82.609571 
L 78.815069 82.76284 
L 79.029847 82.413795 
L 80.442127 83.090332 
L 78.933234 83.509235 
L 78.782865 83.127987 
L 77.045038 82.974718 
L 77.077243 82.609571 
" clip-path="url(#p2aaeb085b7)"/>
    <path d="M 17.496446 22.800373 
L 19.221329 22.538983 
L 19.34762 22.149096 
L 20.879708 22.473046 
L 19.512386 23.236375 
L 19.276251 22.901409 
L 17.551369 23.162799 
L 17.496446 22.800373 
" clip-path="url(#p2aaeb085b7)"/>
    <path d="M 66.006078 20.728904 
L 67.717851 21.065625 
L 67.968437 20.741329 
L 69.300997 21.563839 
L 67.756185 21.820344 
L 67.6471 21.425297 
L 65.935328 21.088576 
L 66.006078 20.728904 
" clip-path="url(#p2aaeb085b7)"/>
    <path d="M 43.877163 60.623077 
L 45.58253 60.990852 
L 45.838969 60.671163 
L 47.156361 61.517755 
L 45.607142 61.746142 
L 45.505255 61.349178 
L 43.799888 60.981403 
L 43.877163 60.623077 
" clip-path="url(#p2aaeb085b7)"/>
    <path d="M 15.034198 79.749327 
L 16.772374 79.600038 
L 16.923616 79.219134 
L 18.431546 79.641492 
L 17.01772 80.314793 
L 16.803742 79.965258 
L 15.065567 80.114546 
L 15.034198 79.749327 
" clip-path="url(#p2aaeb085b7)"/>
    <path d="M 72.241037 52.043605 
L 73.985365 52.014423 
L 74.16249 51.644844 
L 75.637739 52.170087 
L 74.180885 52.744383 
L 73.991497 52.380936 
L 72.247168 52.410118 
L 72.241037 52.043605 
" clip-path="url(#p2aaeb085b7)"/>
    <path d="M 43.677933 55.16734 
L 45.412924 54.984735 
L 45.556831 54.601 
L 47.072586 54.994352 
L 45.671936 55.694652 
L 45.451292 55.349285 
L 43.716302 55.531891 
L 43.677933 55.16734 
" clip-path="url(#p2aaeb085b7)"/>
    <path d="M 49.571457 44.52439 
L 51.311678 44.647574 
L 51.520385 44.294867 
L 52.944158 44.946873 
L 51.442736 45.391814 
L 51.285795 45.013223 
L 49.545574 44.890039 
L 49.571457 44.52439 
" clip-path="url(#p2aaeb085b7)"/>
    <path d="M 24.049603 52.76737 
L 25.724265 52.278442 
L 25.79747 51.875202 
L 27.359065 51.992086 
L 26.105666 52.930825 
L 25.826997 52.630317 
L 24.152335 53.119245 
L 24.049603 52.76737 
" clip-path="url(#p2aaeb085b7)"/>
    <path d="M 84.228204 68.807332 
L 85.972496 68.83879 
L 86.162358 68.47559 
L 87.618462 69.051787 
L 86.142528 69.575104 
L 85.965886 69.205294 
L 84.221594 69.173836 
L 84.228204 68.807332 
" clip-path="url(#p2aaeb085b7)"/>
    <path d="M 82.987734 28.843511 
L 84.729623 28.940288 
L 84.932958 28.584456 
L 86.366455 29.214793 
L 84.871954 29.682455 
L 84.709289 29.306288 
L 82.967399 29.20951 
L 82.987734 28.843511 
" clip-path="url(#p2aaeb085b7)"/>
    <path d="M 55.04944 63.526202 
L 56.792179 63.60619 
L 56.992075 63.248415 
L 58.431579 63.86491 
L 56.941654 64.346951 
L 56.775372 63.972369 
L 55.032634 63.89238 
L 55.04944 63.526202 
" clip-path="url(#p2aaeb085b7)"/>
    <path d="M 18.977181 15.883993 
L 20.715577 16.030676 
L 20.929031 15.68082 
L 22.343865 16.352002 
L 20.836569 16.776619 
L 20.684757 16.395942 
L 18.94636 16.249259 
L 18.977181 15.883993 
" clip-path="url(#p2aaeb085b7)"/>
    <path d="M 69.254693 82.573137 
L 70.993178 82.718737 
L 71.206414 82.368749 
L 72.621665 83.039049 
L 71.114635 83.464605 
L 70.962585 83.084023 
L 69.2241 82.938423 
L 69.254693 82.573137 
" clip-path="url(#p2aaeb085b7)"/>
    <path d="M 27.152004 48.141528 
L 28.895104 48.213236 
L 29.093298 47.854515 
L 30.535715 48.464165 
L 29.048097 48.953278 
L 28.880037 48.57949 
L 27.136937 48.507782 
L 27.152004 48.141528 
" clip-path="url(#p2aaeb085b7)"/>
    <path d="M 55.81245 48.951236 
L 57.52638 48.625692 
L 57.638041 48.231366 
L 59.181146 48.497945 
L 57.843247 49.311742 
L 57.594782 48.985818 
L 55.880852 49.311362 
L 55.81245 48.951236 
" clip-path="url(#p2aaeb085b7)"/>
    <path d="M 38.559478 39.543323 
L 40.303648 39.580907 
L 40.494785 39.218377 
L 41.948856 39.799684 
L 40.471094 40.317814 
L 40.295751 39.947386 
L 38.551581 39.909802 
L 38.559478 39.543323 
" clip-path="url(#p2aaeb085b7)"/>
    <path d="M 14.636575 33.293233 
L 16.337039 32.903415 
L 16.43378 32.505166 
L 17.985825 32.713481 
L 16.679501 33.577054 
L 16.418946 33.260711 
L 14.718482 33.650529 
L 14.636575 33.293233 
" clip-path="url(#p2aaeb085b7)"/>
    <path d="M 47.442527 42.559086 
L 49.183671 42.44973 
L 49.343615 42.072398 
L 50.841454 42.529254 
L 49.412547 43.169928 
L 49.206648 42.815574 
L 47.465505 42.924929 
L 47.442527 42.559086 
" clip-path="url(#p2aaeb085b7)"/>
    <path d="M 15.411634 18.211345 
L 17.148117 18.379175 
L 17.365813 18.031943 
L 18.772373 18.720294 
L 17.260022 19.126535 
L 17.112853 18.744039 
L 15.37637 18.576209 
L 15.411634 18.211345 
" clip-path="url(#p2aaeb085b7)"/>
    <path d="M 68.898909 78.472353 
L 70.536218 77.870066 
L 70.58168 77.462764 
L 72.147612 77.4726 
L 70.961332 78.494843 
L 70.662768 78.214092 
L 69.02546 78.81638 
L 68.898909 78.472353 
" clip-path="url(#p2aaeb085b7)"/>
    <path d="M 73.579088 84.487646 
L 75.3127 84.682893 
L 75.535855 84.339144 
L 76.931363 85.049634 
L 75.412781 85.431928 
L 75.271675 85.047154 
L 73.538063 84.851908 
L 73.579088 84.487646 
" clip-path="url(#p2aaeb085b7)"/>
    <path d="M 58.889524 77.25888 
L 60.559312 76.75356 
L 60.628561 76.349622 
L 62.191227 76.451194 
L 60.947089 77.402173 
L 60.665488 77.104411 
L 58.9957 77.60973 
L 58.889524 77.25888 
" clip-path="url(#p2aaeb085b7)"/>
    <path d="M 15.14028 50.440668 
L 16.82596 49.991203 
L 16.908615 49.589793 
L 18.467034 49.743317 
L 17.191935 50.652362 
L 16.9204 50.345393 
L 15.23472 50.794858 
L 15.14028 50.440668 
" clip-path="url(#p2aaeb085b7)"/>
    <path d="M 86.088442 64.708403 
L 87.764747 65.191672 
L 88.042399 64.890225 
L 89.298961 65.824725 
L 87.73777 65.946882 
L 87.663204 65.543892 
L 85.986899 65.060622 
L 86.088442 64.708403 
" clip-path="url(#p2aaeb085b7)"/>
    <path d="M 50.995187 57.260302 
L 52.706148 57.601109 
L 52.957508 57.277412 
L 54.288101 58.103101 
L 52.74268 58.355917 
L 52.634539 57.96061 
L 50.923578 57.619804 
L 50.995187 57.260302 
" clip-path="url(#p2aaeb085b7)"/>
    <path d="M 40.924516 61.327318 
L 42.626185 60.942795 
L 42.724165 60.544848 
L 44.275554 60.757992 
L 42.966549 61.617496 
L 42.70698 61.300344 
L 41.005311 61.684867 
L 40.924516 61.327318 
" clip-path="url(#p2aaeb085b7)"/>
    <path d="M 83.221196 33.033473 
L 84.956052 33.217332 
L 85.176945 32.872125 
L 86.577089 33.573436 
L 85.06105 33.965693 
L 84.917421 33.581854 
L 83.182564 33.397996 
L 83.221196 33.033473 
" clip-path="url(#p2aaeb085b7)"/>
    <path d="M 22.298773 75.401075 
L 24.041264 75.486313 
L 24.242237 75.129141 
L 25.679878 75.74997 
L 24.188508 76.22752 
L 24.023354 75.852439 
L 22.280863 75.767202 
L 22.298773 75.401075 
" clip-path="url(#p2aaeb085b7)"/>
    <path d="M 69.179867 22.337409 
L 70.907096 22.582793 
L 71.140115 22.245652 
L 72.514456 22.99627 
L 70.985437 23.334412 
L 70.855536 22.945713 
L 69.128308 22.700329 
L 69.179867 22.337409 
" clip-path="url(#p2aaeb085b7)"/>
    <path d="M 32.752424 82.927994 
L 34.486227 83.121555 
L 34.709048 82.777589 
L 36.105246 83.486722 
L 34.587037 83.870492 
L 34.445557 83.485856 
L 32.711754 83.292295 
L 32.752424 82.927994 
" clip-path="url(#p2aaeb085b7)"/>
    <path d="M 59.085462 20.463134 
L 60.798123 20.795289 
L 61.047844 20.470326 
L 62.382592 21.28928 
L 60.838469 21.549903 
L 60.728331 21.155148 
L 59.01567 20.822993 
L 59.085462 20.463134 
" clip-path="url(#p2aaeb085b7)"/>
    <path d="M 47.4027 81.370547 
L 49.1472 81.386792 
L 49.333887 81.02195 
L 50.79496 81.585426 
L 49.323647 82.121595 
L 49.143786 81.75334 
L 47.399287 81.737095 
L 47.4027 81.370547 
" clip-path="url(#p2aaeb085b7)"/>
    <path d="M 45.541185 15.676208 
L 47.128529 14.952415 
L 47.143212 14.542847 
L 48.705443 14.434813 
L 47.599455 15.543429 
L 47.28061 15.285942 
L 45.693266 16.009736 
L 45.541185 15.676208 
" clip-path="url(#p2aaeb085b7)"/>
    <path d="M 26.488801 69.307053 
L 28.233277 69.325569 
L 28.420439 68.96097 
L 29.880778 69.526348 
L 28.408768 70.060601 
L 28.229387 69.692112 
L 26.484911 69.673596 
L 26.488801 69.307053 
" clip-path="url(#p2aaeb085b7)"/>
    <path d="M 86.48138 49.305036 
L 84.764393 48.996013 
L 84.519078 49.324315 
L 83.173404 48.523441 
L 84.713871 48.242013 
L 84.829324 48.635246 
L 86.546311 48.944268 
L 86.48138 49.305036 
" clip-path="url(#p2aaeb085b7)"/>
   </g>
  </g>
 </g>
 <defs>
  <clipPath id="p2aaeb085b7">
   <rect x="7.2" y="7.2" width="86.4" height="86.4"/>
  </clipPath>
 </defs>
</svg>
