<?xml version="1.0" encoding="utf-8" standalone="no"?>
<!DOCTYPE svg PUBLIC "-//W3C//DTD SVG 1.1//EN"
  "http://www.w3.org/Graphics/SVG/1.1/DTD/svg11.dtd">
<svg xmlns:xlink="http://www.w3.org/1999/xlink" width="100.8pt" height="100.8pt" viewBox="0 0 100.8 100.8" xmlns="http://www.w3.org/2000/svg" version="1.1">
 <metadata>
  <rdf:RDF xmlns:dc="http://purl.org/dc/elements/1.1/" xmlns:cc="http://creativecommons.org/ns#" xmlns:rdf="http://www.w3.org/1999/02/22-rdf-syntax-ns#">
   <cc:Work>
    <dc:type rdf:resource="http://purl.org/dc/dcmitype/StillImage"/>
    <dc:date>2025-09-10T17:00:28.518358</dc:date>
    <dc:format>image/svg+xml</dc:format>
    <dc:creator>
     <cc:Agent>
      <dc:title>Matplotlib v3.10.5, https://matplotlib.org/</dc:title>
     </cc:Agent>
    </dc:creator>
   </cc:Work>
  </rdf:RDF>
 </metadata>
 <defs>
  <style type="text/css">*{stroke-linejoin: round; stroke-linecap: butt}</style>
 </defs>
 <g id="figure_1">
  <g id="patch_1">
   <path d="M 0 100.8 
L 100.8 100.8 
L 100.8 0 
L 0 0 
z
" style="fill: #ffffff"/>
  </g>
  <g id="axes_1">
   <g id="Quiver_1">
    <path d="M 29.710128 63.596252 
L 32.161266 63.877297 
L 32.477832 63.391797 
L 34.449356 64.400545 
L 32.300675 64.936874 
L 32.102214 64.392323 
L 29.651076 64.111278 
L 29.710128 63.596252 
" clip-path="url(#pe1a115a9ba)"/>
    <path d="M 38.073473 17.065962 
L 40.063253 15.607251 
L 39.965797 15.035914 
L 42.097893 14.437044 
L 40.885297 16.290174 
L 40.369753 16.025337 
L 38.379973 17.484049 
L 38.073473 17.065962 
" clip-path="url(#pe1a115a9ba)"/>
    <path d="M -0.628311 14.487864 
L 0.542321 12.316065 
L 0.208975 11.84193 
L 1.877347 10.385561 
L 1.577967 12.579838 
L 0.998652 12.562034 
L -0.171981 14.733833 
L -0.628311 14.487864 
" clip-path="url(#pe1a115a9ba)"/>
    <path d="M 51.695068 48.519806 
L 54.104124 47.987324 
L 54.245332 47.4252 
L 56.437887 47.736941 
L 54.580982 48.943748 
L 54.216007 48.493507 
L 51.806951 49.025989 
L 51.695068 48.519806 
" clip-path="url(#pe1a115a9ba)"/>
    <path d="M 49.662958 59.616381 
L 52.124307 59.446609 
L 52.347221 58.911602 
L 54.469414 59.544672 
L 52.454237 60.463116 
L 52.159979 59.963781 
L 49.69863 60.133552 
L 49.662958 59.616381 
" clip-path="url(#pe1a115a9ba)"/>
    <path d="M 42.443657 61.356523 
L 44.908437 61.465707 
L 45.190324 60.959285 
L 47.227481 61.827889 
L 45.1215 62.512962 
L 44.885495 61.983599 
L 42.420715 61.874415 
L 42.443657 61.356523 
" clip-path="url(#pe1a115a9ba)"/>
    <path d="M 17.143716 12.095408 
L 18.086741 9.815548 
L 17.706776 9.377884 
L 19.217915 7.758952 
L 19.143888 9.97232 
L 18.565778 10.013693 
L 17.622753 12.293554 
L 17.143716 12.095408 
" clip-path="url(#pe1a115a9ba)"/>
    <path d="M 47.595005 11.678128 
L 49.775836 10.524425 
L 49.762538 9.944988 
L 51.959077 9.662681 
L 50.489777 11.319678 
L 50.018249 10.982654 
L 47.837418 12.136358 
L 47.595005 11.678128 
" clip-path="url(#pe1a115a9ba)"/>
    <path d="M 40.570705 15.994096 
L 42.174205 14.119033 
L 41.948684 13.58512 
L 43.887346 12.514574 
L 43.13063 14.595886 
L 42.568187 14.455955 
L 40.964687 16.331018 
L 40.570705 15.994096 
" clip-path="url(#pe1a115a9ba)"/>
    <path d="M 26.222138 6.59322 
L 28.21647 5.140734 
L 28.1208 4.569095 
L 30.254757 3.976893 
L 29.036374 5.826223 
L 28.521662 5.559776 
L 26.52733 7.012262 
L 26.222138 6.59322 
" clip-path="url(#pe1a115a9ba)"/>
    <path d="M 18.98851 83.304476 
L 21.103702 84.574535 
L 21.592781 84.263528 
L 22.970238 85.997625 
L 20.7922 85.596839 
L 20.836842 85.018972 
L 18.721649 83.748913 
L 18.98851 83.304476 
" clip-path="url(#pe1a115a9ba)"/>
    <path d="M -0.990886 18.366357 
L 0.419113 16.341769 
L 0.141844 15.832804 
L 1.965004 14.575598 
L 1.418046 16.721598 
L 0.844513 16.638033 
L -0.565485 18.662622 
L -0.990886 18.366357 
" clip-path="url(#pe1a115a9ba)"/>
    <path d="M -9.837646 37.53953 
L -11.154505 35.453157 
L -11.731235 35.510661 
L -12.180439 33.342091 
L -10.416089 34.680578 
L -10.716123 35.176463 
L -9.399264 37.262835 
L -9.837646 37.53953 
" clip-path="url(#pe1a115a9ba)"/>
    <path d="M 10.256467 6.515387 
L 11.700303 4.514788 
L 11.43163 4.001233 
L 13.275668 2.774856 
L 12.69271 4.911357 
L 12.120663 4.818163 
L 10.676827 6.818761 
L 10.256467 6.515387 
" clip-path="url(#pe1a115a9ba)"/>
    <path d="M 19.260944 75.917019 
L 21.728085 75.934623 
L 21.990977 75.418086 
L 24.058976 76.210462 
L 21.97988 76.973246 
L 21.724386 76.45301 
L 19.257246 76.435406 
L 19.260944 75.917019 
" clip-path="url(#pe1a115a9ba)"/>
    <path d="M 39.104068 5.3472 
L 41.268646 4.16328 
L 41.247292 3.584084 
L 43.439692 3.271259 
L 41.993577 4.948528 
L 41.517408 4.618094 
L 39.35283 5.802014 
L 39.104068 5.3472 
" clip-path="url(#pe1a115a9ba)"/>
    <path d="M -2.384131 9.245088 
L -0.778902 7.371509 
L -1.00393 6.837387 
L 0.935719 5.768632 
L 0.177083 7.849245 
L -0.385231 7.708795 
L -1.99046 9.582374 
L -2.384131 9.245088 
" clip-path="url(#pe1a115a9ba)"/>
    <path d="M 23.069284 85.096857 
L 25.386929 85.94279 
L 25.808162 85.544687 
L 27.489448 86.986129 
L 25.274928 87.005614 
L 25.209185 86.429766 
L 22.891539 85.583833 
L 23.069284 85.096857 
" clip-path="url(#pe1a115a9ba)"/>
    <path d="M 34.141768 85.241864 
L 36.308059 86.422648 
L 36.783748 86.091525 
L 38.232292 87.766697 
L 36.03944 87.457048 
L 36.059956 86.877822 
L 33.893665 85.697038 
L 34.141768 85.241864 
" clip-path="url(#pe1a115a9ba)"/>
    <path d="M 40.966315 57.428083 
L 43.299003 56.624573 
L 43.375241 56.050021 
L 45.589037 56.109903 
L 43.881734 57.520433 
L 43.467834 57.114711 
L 41.135146 57.91822 
L 40.966315 57.428083 
" clip-path="url(#pe1a115a9ba)"/>
    <path d="M 29.007744 3.256886 
L 31.075396 1.910827 
L 31.009791 1.334964 
L 33.171831 0.855318 
L 31.85828 2.63831 
L 31.358226 2.345276 
L 29.290574 3.691335 
L 29.007744 3.256886 
" clip-path="url(#pe1a115a9ba)"/>
    <path d="M 27.352585 60.077558 
L 29.765919 59.56481 
L 29.911723 59.00386 
L 32.101653 59.333535 
L 30.234933 60.525104 
L 29.873656 60.071891 
L 27.460321 60.584639 
L 27.352585 60.077558 
" clip-path="url(#pe1a115a9ba)"/>
    <path d="M 35.675981 7.225044 
L 37.408157 5.468157 
L 37.220986 4.919623 
L 39.230548 3.988957 
L 38.328439 6.011499 
L 37.777308 5.832116 
L 36.045132 7.589003 
L 35.675981 7.225044 
" clip-path="url(#pe1a115a9ba)"/>
    <path d="M 48.413592 77.299919 
L 50.869429 77.536473 
L 51.177139 77.045314 
L 53.16663 78.018147 
L 51.028027 78.593349 
L 50.819725 78.052485 
L 48.363888 77.815931 
L 48.413592 77.299919 
" clip-path="url(#pe1a115a9ba)"/>
    <path d="M 22.305976 12.977107 
L 24.480904 11.8123 
L 24.464653 11.232939 
L 26.659724 10.939442 
L 25.198888 12.603905 
L 24.725649 12.269289 
L 22.550721 13.434095 
L 22.305976 12.977107 
" clip-path="url(#pe1a115a9ba)"/>
    <path d="M 44.000692 25.944743 
L 46.243004 24.91562 
L 46.262342 24.336354 
L 48.471288 24.178132 
L 46.91105 25.749798 
L 46.45924 25.386768 
L 44.216928 26.415891 
L 44.000692 25.944743 
" clip-path="url(#pe1a115a9ba)"/>
    <path d="M 41.657978 16.968658 
L 43.697693 15.580622 
L 43.620333 15.006219 
L 45.772119 14.482489 
L 44.495281 16.291954 
L 43.989342 16.0092 
L 41.949627 17.397236 
L 41.657978 16.968658 
" clip-path="url(#pe1a115a9ba)"/>
    <path d="M 33.599875 85.677451 
L 36.047702 85.986037 
L 36.369705 85.504127 
L 38.329763 86.534977 
L 36.175188 87.047115 
L 35.982863 86.500366 
L 33.535036 86.19178 
L 33.599875 85.677451 
" clip-path="url(#pe1a115a9ba)"/>
    <path d="M 38.915373 14.851911 
L 41.02584 13.57402 
L 40.979056 12.996323 
L 43.155593 12.587464 
L 41.784574 14.326656 
L 41.294346 14.017465 
L 39.183879 15.295356 
L 38.915373 14.851911 
" clip-path="url(#pe1a115a9ba)"/>
    <path d="M 33.020643 15.106233 
L 34.40307 13.06271 
L 34.118927 12.55755 
L 35.924877 11.275744 
L 35.407061 13.428962 
L 34.832447 13.35318 
L 33.450021 15.396703 
L 33.020643 15.106233 
" clip-path="url(#pe1a115a9ba)"/>
    <path d="M 56.267429 56.459194 
L 58.63431 55.762815 
L 58.736649 55.192333 
L 60.945417 55.35303 
L 59.175613 56.684297 
L 58.780631 56.260136 
L 56.41375 56.956516 
L 56.267429 56.459194 
" clip-path="url(#pe1a115a9ba)"/>
    <path d="M 25.892877 11.571647 
L 27.901199 10.138567 
L 27.811077 9.566028 
L 29.950676 8.994546 
L 28.714418 10.831975 
L 28.202313 10.56055 
L 26.193991 11.993629 
L 25.892877 11.571647 
" clip-path="url(#pe1a115a9ba)"/>
    <path d="M 28.773392 74.209214 
L 31.130471 74.938086 
L 31.53125 74.519398 
L 33.282575 75.874883 
L 31.071806 76.005183 
L 30.977323 75.433347 
L 28.620244 74.704476 
L 28.773392 74.209214 
" clip-path="url(#pe1a115a9ba)"/>
    <path d="M 42.541586 50.989758 
L 44.933525 50.385033 
L 45.057756 49.818915 
L 47.258698 50.064544 
L 45.438944 51.326676 
L 45.060588 50.88762 
L 42.668649 51.492345 
L 42.541586 50.989758 
" clip-path="url(#pe1a115a9ba)"/>
    <path d="M 43.738008 14.499377 
L 45.916488 13.341229 
L 45.90201 12.761821 
L 48.097968 12.47504 
L 46.632048 14.135026 
L 46.159834 13.798964 
L 43.981354 14.957111 
L 43.738008 14.499377 
" clip-path="url(#pe1a115a9ba)"/>
    <path d="M 2.632691 27.874039 
L 2.639545 25.406848 
L 2.121867 25.146209 
L 2.905225 23.074777 
L 3.677061 25.150529 
L 3.157943 25.408288 
L 3.151089 27.875479 
L 2.632691 27.874039 
" clip-path="url(#pe1a115a9ba)"/>
    <path d="M 30.017948 1.529626 
L 31.561915 -0.394754 
L 31.319777 -0.921339 
L 33.223947 -2.052097 
L 32.532811 0.051901 
L 31.966259 -0.07034 
L 30.422293 1.854039 
L 30.017948 1.529626 
" clip-path="url(#pe1a115a9ba)"/>
    <path d="M -2.239735 15.958719 
L -2.068882 13.497445 
L -2.568088 13.202968 
L -1.648757 11.188195 
L -1.016621 13.310666 
L -1.551726 13.533344 
L -1.72258 15.994618 
L -2.239735 15.958719 
" clip-path="url(#pe1a115a9ba)"/>
    <path d="M 43.725871 12.773551 
L 45.839359 11.500662 
L 45.793943 10.922855 
L 47.971443 10.519153 
L 46.596309 12.255092 
L 46.106814 11.944741 
L 43.993326 13.21763 
L 43.725871 12.773551 
" clip-path="url(#pe1a115a9ba)"/>
    <path d="M -3.480604 31.38338 
L -4.539148 29.154802 
L -5.118619 29.143089 
L -5.305898 26.936416 
L -3.713834 28.475836 
L -4.070887 28.932385 
L -3.012343 31.160962 
L -3.480604 31.38338 
" clip-path="url(#pe1a115a9ba)"/>
    <path d="M 0.941819 7.225651 
L 2.304497 5.168911 
L 2.015502 4.666512 
L 3.809022 3.367371 
L 3.311969 5.525476 
L 2.736653 5.455233 
L 1.373975 7.511973 
L 0.941819 7.225651 
" clip-path="url(#pe1a115a9ba)"/>
    <path d="M -12.747325 36.512214 
L -14.168652 34.495559 
L -14.741707 34.582337 
L -15.300686 32.439436 
L -13.470507 33.686403 
L -13.744918 34.196914 
L -12.323592 36.21357 
L -12.747325 36.512214 
" clip-path="url(#pe1a115a9ba)"/>
    <path d="M 51.165338 65.40269 
L 53.626507 65.230238 
L 53.848838 64.694989 
L 55.971719 65.325747 
L 53.957543 66.246385 
L 53.662742 65.74737 
L 51.201573 65.919822 
L 51.165338 65.40269 
" clip-path="url(#pe1a115a9ba)"/>
    <path d="M 53.223563 59.199378 
L 55.690303 59.151612 
L 55.939418 58.628291 
L 58.027684 59.365599 
L 55.969528 60.183199 
L 55.70034 59.669915 
L 53.233599 59.717681 
L 53.223563 59.199378 
" clip-path="url(#pe1a115a9ba)"/>
    <path d="M 6.213543 10.479257 
L 7.043698 8.155913 
L 6.642739 7.737397 
L 8.072716 6.046348 
L 8.107259 8.260685 
L 7.531871 8.330342 
L 6.701716 10.653686 
L 6.213543 10.479257 
" clip-path="url(#pe1a115a9ba)"/>
    <path d="M 6.003436 6.317975 
L 7.684402 4.512036 
L 7.481544 3.969108 
L 9.463529 2.981074 
L 8.619919 5.028706 
L 8.06386 4.865236 
L 6.382894 6.671175 
L 6.003436 6.317975 
" clip-path="url(#pe1a115a9ba)"/>
    <path d="M 40.028314 16.723947 
L 41.892836 15.108203 
L 41.749224 14.546688 
L 43.825536 13.776359 
L 42.76771 15.72199 
L 42.232331 15.49997 
L 40.367809 17.115715 
L 40.028314 16.723947 
" clip-path="url(#pe1a115a9ba)"/>
    <path d="M 43.876935 64.045242 
L 46.257326 63.396549 
L 46.371105 62.828238 
L 48.576199 63.033273 
L 46.780009 64.328719 
L 46.393627 63.896709 
L 44.013237 64.545403 
L 43.876935 64.045242 
" clip-path="url(#pe1a115a9ba)"/>
    <path d="M 4.979627 80.847475 
L 7.274035 81.754531 
L 7.70567 81.367731 
L 9.348165 82.853224 
L 7.133906 82.814014 
L 7.083447 82.236626 
L 4.789039 81.329569 
L 4.979627 80.847475 
" clip-path="url(#pe1a115a9ba)"/>
    <path d="M 13.211299 6.859363 
L 14.997798 5.157753 
L 14.827947 4.60361 
L 16.865749 3.736521 
L 15.900559 5.729732 
L 15.355335 5.533126 
L 13.568837 7.234737 
L 13.211299 6.859363 
" clip-path="url(#pe1a115a9ba)"/>
    <path d="M 49.171442 66.525935 
L 51.620136 66.827582 
L 51.940772 66.344762 
L 53.903744 67.370052 
L 51.750629 67.888294 
L 51.556755 67.342093 
L 49.108061 67.040446 
L 49.171442 66.525935 
" clip-path="url(#pe1a115a9ba)"/>
    <path d="M -1.906467 32.495072 
L -2.357239 30.069401 
L -2.91427 29.909279 
L -2.528618 27.72851 
L -1.385248 29.625134 
L -1.847565 29.974686 
L -1.396793 32.400358 
L -1.906467 32.495072 
" clip-path="url(#pe1a115a9ba)"/>
    <path d="M 20.190297 65.163718 
L 22.610175 64.682822 
L 22.763359 64.123843 
L 24.948754 64.482351 
L 23.066493 65.649214 
L 22.71122 65.191279 
L 20.291342 65.672175 
L 20.190297 65.163718 
" clip-path="url(#pe1a115a9ba)"/>
    <path d="M 5.34183 5.828164 
L 6.982793 3.985796 
L 6.768078 3.447447 
L 8.727921 2.416189 
L 7.929414 4.481828 
L 7.369905 4.33059 
L 5.728942 6.172958 
L 5.34183 5.828164 
" clip-path="url(#pe1a115a9ba)"/>
    <path d="M 24.479554 10.719582 
L 26.451534 9.236889 
L 26.347169 8.666774 
L 28.471859 8.042139 
L 27.281784 9.909811 
L 26.763073 9.651234 
L 24.791093 11.133928 
L 24.479554 10.719582 
" clip-path="url(#pe1a115a9ba)"/>
    <path d="M 20.808058 80.939428 
L 23.207593 81.51328 
L 23.58026 81.069386 
L 25.416126 82.307964 
L 23.218532 82.581933 
L 23.087017 82.017463 
L 20.687482 81.44361 
L 20.808058 80.939428 
" clip-path="url(#pe1a115a9ba)"/>
    <path d="M -20.387457 40.18471 
L -21.754079 38.130586 
L -22.329259 38.201933 
L -22.830451 36.044785 
L -21.034442 37.340483 
L -21.322473 37.843436 
L -19.955851 39.89756 
L -20.387457 40.18471 
" clip-path="url(#pe1a115a9ba)"/>
    <path d="M 20.953389 58.716932 
L 23.328251 58.048274 
L 23.437254 57.479028 
L 25.643992 57.66554 
L 23.858743 58.976023 
L 23.468748 58.547273 
L 21.093885 59.215931 
L 20.953389 58.716932 
" clip-path="url(#pe1a115a9ba)"/>
    <path d="M -1.910609 19.101779 
L -1.706313 16.643047 
L -2.20147 16.341811 
L -1.254837 14.339721 
L -0.651611 16.470589 
L -1.189693 16.685973 
L -1.393989 19.144705 
L -1.910609 19.101779 
" clip-path="url(#pe1a115a9ba)"/>
    <path d="M 2.417356 12.749229 
L 3.197466 10.408613 
L 2.78762 9.998796 
L 4.180982 8.277454 
L 4.26303 10.49054 
L 3.689269 10.572527 
L 2.909159 12.913144 
L 2.417356 12.749229 
" clip-path="url(#pe1a115a9ba)"/>
    <path d="M 49.33897 78.979542 
L 51.785172 79.300733 
L 52.109653 78.820488 
L 54.064375 79.86142 
L 51.907191 80.362453 
L 51.717684 79.814721 
L 49.271482 79.493531 
L 49.33897 78.979542 
" clip-path="url(#pe1a115a9ba)"/>
    <path d="M 41.867468 67.322483 
L 44.327318 67.5128 
L 44.625735 67.015939 
L 46.633173 67.951178 
L 44.505768 68.566505 
L 44.287329 68.029656 
L 41.827479 67.839339 
L 41.867468 67.322483 
" clip-path="url(#pe1a115a9ba)"/>
    <path d="M 33.427148 49.106006 
L 35.812443 48.475578 
L 35.930575 47.908155 
L 38.134033 48.130087 
L 36.327966 49.411727 
L 35.944907 48.976768 
L 33.559612 49.607196 
L 33.427148 49.106006 
" clip-path="url(#pe1a115a9ba)"/>
    <path d="M 47.329314 74.755831 
L 49.786863 74.973858 
L 50.09086 74.480392 
L 52.087631 75.438194 
L 49.953426 76.029507 
L 49.741052 75.49023 
L 47.283502 75.272203 
L 47.329314 74.755831 
" clip-path="url(#pe1a115a9ba)"/>
    <path d="M 55.675712 74.078725 
L 58.100856 74.532325 
L 58.450947 74.070416 
L 60.346237 75.215997 
L 58.16502 75.599106 
L 58.005547 75.041888 
L 55.580403 74.588288 
L 55.675712 74.078725 
" clip-path="url(#pe1a115a9ba)"/>
    <path d="M -9.627863 32.81198 
L -10.202624 30.412661 
L -10.767144 30.281359 
L -10.494006 28.083661 
L -9.254733 29.919059 
L -9.698487 30.291894 
L -9.123726 32.691213 
L -9.627863 32.81198 
" clip-path="url(#pe1a115a9ba)"/>
    <path d="M -9.162438 36.465554 
L -9.912961 34.115279 
L -10.485641 34.02606 
L -10.375683 31.814186 
L -9.004145 33.552968 
L -9.419129 33.957581 
L -8.668606 36.307856 
L -9.162438 36.465554 
" clip-path="url(#pe1a115a9ba)"/>
    <path d="M 35.100137 75.682416 
L 37.56058 75.499936 
L 37.780728 74.963785 
L 39.906162 75.585887 
L 37.895754 76.514725 
L 37.598922 76.016916 
L 35.138479 76.199396 
L 35.100137 75.682416 
" clip-path="url(#pe1a115a9ba)"/>
    <path d="M 51.098138 62.704398 
L 53.535494 63.086985 
L 53.871946 62.61505 
L 55.799881 63.704796 
L 53.630782 64.151438 
L 53.455106 63.599115 
L 51.01775 63.216528 
L 51.098138 62.704398 
" clip-path="url(#pe1a115a9ba)"/>
    <path d="M 32.396981 69.460161 
L 34.863992 69.490575 
L 35.129563 68.975409 
L 37.19342 69.778512 
L 35.110392 70.530491 
L 34.857602 70.008935 
L 32.390591 69.978522 
L 32.396981 69.460161 
" clip-path="url(#pe1a115a9ba)"/>
    <path d="M 2.426649 7.823485 
L 3.351109 5.536027 
L 2.967598 5.101466 
L 4.465524 3.470302 
L 4.409496 5.684199 
L 3.831741 5.730271 
L 2.907282 8.017729 
L 2.426649 7.823485 
" clip-path="url(#pe1a115a9ba)"/>
    <path d="M 8.233443 50.613945 
L 8.032957 48.154901 
L 7.495209 47.938683 
L 8.101735 45.808753 
L 9.045265 47.812307 
L 8.549642 48.112775 
L 8.750129 50.571819 
L 8.233443 50.613945 
" clip-path="url(#pe1a115a9ba)"/>
    <path d="M -0.359557 35.146584 
L -0.406834 32.679835 
L -0.930106 32.430616 
L -0.192383 30.342496 
L 0.624809 32.400815 
L 0.111471 32.669901 
L 0.158748 35.136651 
L -0.359557 35.146584 
" clip-path="url(#pe1a115a9ba)"/>
    <path d="M -19.145241 35.008168 
L -20.197906 32.776803 
L -20.777344 32.763562 
L -20.958802 30.556402 
L -19.370804 32.100015 
L -19.72906 32.55562 
L -18.676395 34.786986 
L -19.145241 35.008168 
" clip-path="url(#pe1a115a9ba)"/>
    <path d="M 27.109383 87.632375 
L 29.353752 88.657003 
L 29.804834 88.293069 
L 31.368217 89.861607 
L 29.158958 89.707809 
L 29.13846 89.128583 
L 26.894091 88.103955 
L 27.109383 87.632375 
" clip-path="url(#pe1a115a9ba)"/>
    <path d="M 19.08622 23.65703 
L 20.180212 21.445637 
L 19.830495 20.983446 
L 21.446935 19.469643 
L 21.224446 21.673045 
L 20.644863 21.675504 
L 19.55087 23.886896 
L 19.08622 23.65703 
" clip-path="url(#pe1a115a9ba)"/>
    <path d="M 3.797184 42.651396 
L 2.361015 40.64528 
L 1.788615 40.736284 
L 1.21384 38.597566 
L 3.05317 39.830995 
L 2.782533 40.343517 
L 4.218702 42.349633 
L 3.797184 42.651396 
" clip-path="url(#pe1a115a9ba)"/>
    <path d="M 45.157679 63.722913 
L 47.617196 63.528323 
L 47.834702 62.991095 
L 49.963172 63.602726 
L 47.957362 64.54145 
L 47.658083 64.045108 
L 45.198566 64.239698 
L 45.157679 63.722913 
" clip-path="url(#pe1a115a9ba)"/>
    <path d="M 3.090374 27.376551 
L 3.225393 24.913051 
L 2.721955 24.625869 
L 3.611869 22.597931 
L 4.274824 24.710979 
L 3.743016 24.941421 
L 3.607997 27.404921 
L 3.090374 27.376551 
" clip-path="url(#pe1a115a9ba)"/>
    <path d="M 35.556992 10.146195 
L 37.239403 8.341602 
L 37.036979 7.798511 
L 39.019755 6.812063 
L 38.174506 8.85902 
L 37.618579 8.695105 
L 35.936168 10.499698 
L 35.556992 10.146195 
" clip-path="url(#pe1a115a9ba)"/>
    <path d="M 46.474142 67.262906 
L 48.854427 67.912009 
L 49.240883 67.480066 
L 51.03685 68.775821 
L 48.831721 68.980477 
L 48.71804 68.412146 
L 46.337754 67.763043 
L 46.474142 67.262906 
" clip-path="url(#pe1a115a9ba)"/>
    <path d="M 59.768075 50.560591 
L 62.215899 50.251956 
L 62.408213 49.705203 
L 64.562799 50.217297 
L 62.602761 51.248187 
L 62.280748 50.766283 
L 59.832924 51.074919 
L 59.768075 50.560591 
" clip-path="url(#pe1a115a9ba)"/>
    <path d="M 39.980694 15.846067 
L 42.18714 14.742137 
L 42.186991 14.162548 
L 44.389369 13.930147 
L 42.882854 15.553382 
L 42.419094 15.205748 
L 40.212649 16.309679 
L 39.980694 15.846067 
" clip-path="url(#pe1a115a9ba)"/>
    <path d="M 25.124025 61.394266 
L 27.580426 61.624869 
L 27.886945 61.132966 
L 29.878787 62.100976 
L 27.741584 62.681358 
L 27.531972 62.141 
L 25.075571 61.910396 
L 25.124025 61.394266 
" clip-path="url(#pe1a115a9ba)"/>
    <path d="M 14.075273 77.538134 
L 16.11774 78.922113 
L 16.623116 78.638355 
L 17.903547 80.445279 
L 15.750724 79.925825 
L 15.826943 79.35127 
L 13.784476 77.967291 
L 14.075273 77.538134 
" clip-path="url(#pe1a115a9ba)"/>
    <path d="M 52.427379 53.523466 
L 54.623769 52.399657 
L 54.618387 51.820093 
L 56.818577 51.567817 
L 55.32678 53.204588 
L 54.8599 52.861156 
L 52.66351 53.984964 
L 52.427379 53.523466 
" clip-path="url(#pe1a115a9ba)"/>
    <path d="M 24.203958 84.747729 
L 26.620519 85.245032 
L 26.978891 84.789518 
L 28.853192 85.969124 
L 26.665415 86.312797 
L 26.516027 85.752792 
L 24.099466 85.255489 
L 24.203958 84.747729 
" clip-path="url(#pe1a115a9ba)"/>
    <path d="M 3.893684 52.331956 
L 2.840234 50.100968 
L 2.260792 50.087931 
L 2.078555 47.880836 
L 3.667098 49.423888 
L 3.309003 49.87962 
L 4.362452 52.110609 
L 3.893684 52.331956 
" clip-path="url(#pe1a115a9ba)"/>
    <path d="M 30.758516 -1.132504 
L 32.622014 -2.749436 
L 32.478045 -3.31086 
L 34.553867 -4.082508 
L 33.497277 -2.136205 
L 32.961758 -2.357885 
L 31.09826 -0.740953 
L 30.758516 -1.132504 
" clip-path="url(#pe1a115a9ba)"/>
    <path d="M 49.468822 56.992787 
L 51.913477 56.660004 
L 52.100385 56.11138 
L 54.259921 56.60218 
L 52.310155 57.652368 
L 51.983401 57.173667 
L 49.538745 57.50645 
L 49.468822 56.992787 
" clip-path="url(#pe1a115a9ba)"/>
    <path d="M 39.417338 21.953242 
L 41.616738 20.835345 
L 41.612914 20.255769 
L 43.813774 20.009408 
L 42.317582 21.642163 
L 41.851627 21.297476 
L 39.652227 22.415374 
L 39.417338 21.953242 
" clip-path="url(#pe1a115a9ba)"/>
    <path d="M 39.308026 84.442302 
L 41.708899 85.010543 
L 42.080527 84.565779 
L 43.919284 85.800061 
L 41.722337 86.079168 
L 41.589502 85.515006 
L 39.188629 84.946765 
L 39.308026 84.442302 
" clip-path="url(#pe1a115a9ba)"/>
    <path d="M 9.562219 19.302494 
L 10.26499 16.937498 
L 9.841897 16.541372 
L 11.177939 14.775169 
L 11.332671 16.984363 
L 10.761914 17.085161 
L 10.059143 19.450158 
L 9.562219 19.302494 
" clip-path="url(#pe1a115a9ba)"/>
    <path d="M 59.615936 69.909552 
L 62.014953 69.333542 
L 62.14596 68.768954 
L 64.3438 69.040947 
L 62.509048 70.281175 
L 62.135982 69.837616 
L 59.736965 70.413626 
L 59.615936 69.909552 
" clip-path="url(#pe1a115a9ba)"/>
    <path d="M 9.523031 7.601158 
L 11.146473 5.743338 
L 10.92667 5.207046 
L 12.876661 4.157277 
L 12.097749 6.230384 
L 11.536833 6.084451 
L 9.91339 7.942271 
L 9.523031 7.601158 
" clip-path="url(#pe1a115a9ba)"/>
    <path d="M 21.923197 19.951725 
L 22.952033 17.709281 
L 22.588945 17.257517 
L 24.160412 15.697078 
L 24.002472 17.906044 
L 23.423209 17.925456 
L 22.394373 20.167901 
L 21.923197 19.951725 
" clip-path="url(#pe1a115a9ba)"/>
    <path d="M 47.220332 65.616447 
L 49.609865 66.230638 
L 49.989956 65.793084 
L 51.804698 67.06241 
L 49.602801 67.299323 
L 49.480813 66.732718 
L 47.09128 66.118527 
L 47.220332 65.616447 
" clip-path="url(#pe1a115a9ba)"/>
    <path d="M 48.565999 56.271638 
L 50.906209 55.490292 
L 50.987893 54.916488 
L 53.201022 54.997369 
L 51.480415 56.391639 
L 51.070382 55.982009 
L 48.730173 56.763355 
L 48.565999 56.271638 
" clip-path="url(#pe1a115a9ba)"/>
    <path d="M 56.265158 19.402599 
L 58.492885 18.342262 
L 58.504132 17.762782 
L 60.710653 17.573728 
L 59.172515 19.16703 
L 58.715679 18.810344 
L 56.487953 19.870681 
L 56.265158 19.402599 
" clip-path="url(#pe1a115a9ba)"/>
    <path d="M 61.178422 30.491348 
L 63.582342 29.936157 
L 63.718239 29.372725 
L 65.913638 29.663761 
L 64.068205 30.888037 
L 63.698998 30.441261 
L 61.295077 30.996452 
L 61.178422 30.491348 
" clip-path="url(#pe1a115a9ba)"/>
   </g>
  </g>
 </g>
 <defs>
  <clipPath id="pe1a115a9ba">
   <rect x="7.2" y="7.2" width="86.4" height="86.4"/>
  </clipPath>
 </defs>
</svg>
