<?xml version="1.0" encoding="utf-8" standalone="no"?>
<!DOCTYPE svg PUBLIC "-//W3C//DTD SVG 1.1//EN"
  "http://www.w3.org/Graphics/SVG/1.1/DTD/svg11.dtd">
<svg xmlns:xlink="http://www.w3.org/1999/xlink" width="100.8pt" height="100.8pt" viewBox="0 0 100.8 100.8" xmlns="http://www.w3.org/2000/svg" version="1.1">
 <metadata>
  <rdf:RDF xmlns:dc="http://purl.org/dc/elements/1.1/" xmlns:cc="http://creativecommons.org/ns#" xmlns:rdf="http://www.w3.org/1999/02/22-rdf-syntax-ns#">
   <cc:Work>
    <dc:type rdf:resource="http://purl.org/dc/dcmitype/StillImage"/>
    <dc:date>2025-09-10T17:09:17.624527</dc:date>
    <dc:format>image/svg+xml</dc:format>
    <dc:creator>
     <cc:Agent>
      <dc:title>Matplotlib v3.10.5, https://matplotlib.org/</dc:title>
     </cc:Agent>
    </dc:creator>
   </cc:Work>
  </rdf:RDF>
 </metadata>
 <defs>
  <style type="text/css">*{stroke-linejoin: round; stroke-linecap: butt}</style>
 </defs>
 <g id="figure_1">
  <g id="patch_1">
   <path d="M 0 100.8 
L 100.8 100.8 
L 100.8 0 
L 0 0 
z
" style="fill: #ffffff"/>
  </g>
  <g id="axes_1">
   <g id="Quiver_1">
    <path d="M 41.17692 73.798556 
L 42.921493 73.796181 
L 43.104276 73.429368 
L 44.571279 73.977218 
L 43.105772 74.52906 
L 42.921991 74.162745 
L 41.177419 74.165119 
L 41.17692 73.798556 
" clip-path="url(#paf3d05ed27)"/>
    <path d="M 84.475723 86.378339 
L 86.203445 86.620219 
L 86.43578 86.282607 
L 87.811641 87.030435 
L 86.283311 87.371678 
L 86.152622 86.983243 
L 84.4249 86.741363 
L 84.475723 86.378339 
" clip-path="url(#paf3d05ed27)"/>
    <path d="M 60.799975 66.256635 
L 62.516822 65.946842 
L 62.632098 65.553557 
L 64.172691 65.834294 
L 62.827376 66.635773 
L 62.581914 66.30758 
L 60.865067 66.617373 
L 60.799975 66.256635 
" clip-path="url(#paf3d05ed27)"/>
    <path d="M 45.695045 60.568996 
L 47.436494 60.464634 
L 47.597519 60.087762 
L 49.094043 60.54891 
L 47.663304 61.185485 
L 47.458422 60.830542 
L 45.716973 60.934904 
L 45.695045 60.568996 
" clip-path="url(#paf3d05ed27)"/>
    <path d="M 63.609701 23.836263 
L 62.018912 23.12007 
L 61.701302 23.379079 
L 60.590024 22.275765 
L 62.152755 22.376325 
L 62.169396 22.785818 
L 63.760185 23.502012 
L 63.609701 23.836263 
" clip-path="url(#paf3d05ed27)"/>
    <path d="M 69.485978 65.155329 
L 67.787278 65.552772 
L 67.692325 65.951451 
L 66.139361 65.750101 
L 67.441797 64.880676 
L 67.703769 65.195847 
L 69.402468 64.798404 
L 69.485978 65.155329 
" clip-path="url(#paf3d05ed27)"/>
    <path d="M 46.49964 51.882858 
L 48.234066 51.69495 
L 48.376799 51.310778 
L 49.893749 51.699495 
L 48.495247 52.404072 
L 48.273548 52.059382 
L 46.539123 52.24729 
L 46.49964 51.882858 
" clip-path="url(#paf3d05ed27)"/>
    <path d="M 58.418855 30.250295 
L 56.853226 29.480655 
L 56.527029 29.728762 
L 55.453741 28.588459 
L 57.012172 28.741868 
L 57.01494 29.15169 
L 58.580569 29.92133 
L 58.418855 30.250295 
" clip-path="url(#paf3d05ed27)"/>
    <path d="M 91.576791 62.271477 
L 93.314861 62.120945 
L 93.46583 61.739934 
L 94.974062 62.161213 
L 93.560718 62.835525 
L 93.34649 62.486142 
L 91.60842 62.636674 
L 91.576791 62.271477 
" clip-path="url(#paf3d05ed27)"/>
    <path d="M 59.827452 62.094667 
L 58.105557 62.375065 
L 57.983574 62.766322 
L 56.448006 62.459289 
L 57.806826 61.680926 
L 58.046641 62.013267 
L 59.768535 61.732869 
L 59.827452 62.094667 
" clip-path="url(#paf3d05ed27)"/>
    <path d="M 28.676355 50.912898 
L 30.333051 51.459613 
L 30.621975 51.16895 
L 31.842062 52.150595 
L 30.277353 52.213249 
L 30.218177 51.807712 
L 28.561481 51.260997 
L 28.676355 50.912898 
" clip-path="url(#paf3d05ed27)"/>
    <path d="M 84.779645 44.036584 
L 86.429786 44.602766 
L 86.722112 44.315526 
L 87.930557 45.311468 
L 86.365219 45.355694 
L 86.310822 44.949489 
L 84.660681 44.383307 
L 84.779645 44.036584 
" clip-path="url(#paf3d05ed27)"/>
    <path d="M 57.210187 85.402378 
L 58.93469 85.666258 
L 59.171309 85.331634 
L 60.537527 86.096936 
L 59.004973 86.418674 
L 58.879245 86.028604 
L 57.154742 85.764724 
L 57.210187 85.402378 
" clip-path="url(#paf3d05ed27)"/>
    <path d="M 36.67451 55.995546 
L 38.417202 55.914541 
L 38.583266 55.539862 
L 40.073472 56.021033 
L 38.634327 56.638368 
L 38.434222 56.28071 
L 36.69153 56.361714 
L 36.67451 55.995546 
" clip-path="url(#paf3d05ed27)"/>
    <path d="M 57.647156 56.28217 
L 55.999788 56.856384 
L 55.94737 57.262849 
L 54.381835 57.226247 
L 55.585415 56.224431 
L 55.879136 56.510244 
L 57.526504 55.936031 
L 57.647156 56.28217 
" clip-path="url(#paf3d05ed27)"/>
    <path d="M 53.161567 47.07318 
L 54.882279 46.785626 
L 55.002635 46.393866 
L 56.539466 46.694513 
L 55.183894 47.478517 
L 54.942699 47.147177 
L 53.221987 47.43473 
L 53.161567 47.07318 
" clip-path="url(#paf3d05ed27)"/>
    <path d="M 83.507213 71.43304 
L 85.249245 71.338883 
L 85.412476 70.962962 
L 86.906272 71.432871 
L 85.471828 72.061051 
L 85.269029 71.704913 
L 83.526997 71.79907 
L 83.507213 71.43304 
" clip-path="url(#paf3d05ed27)"/>
    <path d="M 48.775652 60.01272 
L 47.033334 60.101425 
L 46.868927 60.476834 
L 45.37661 60.002253 
L 46.813012 59.378564 
L 47.014695 59.735335 
L 48.757014 59.64663 
L 48.775652 60.01272 
" clip-path="url(#paf3d05ed27)"/>
    <path d="M 86.778128 42.739085 
L 88.513113 42.556401 
L 88.657003 42.17266 
L 90.172776 42.565944 
L 88.772158 43.266306 
L 88.551498 42.92095 
L 86.816513 43.103634 
L 86.778128 42.739085 
" clip-path="url(#paf3d05ed27)"/>
    <path d="M 66.064744 36.899928 
L 64.322713 36.805793 
L 64.119919 37.161933 
L 62.685467 36.53377 
L 64.179257 36.063843 
L 64.342492 36.439763 
L 66.084523 36.533898 
L 66.064744 36.899928 
" clip-path="url(#paf3d05ed27)"/>
    <path d="M 43.59043 17.640143 
L 45.276675 18.087491 
L 45.547824 17.78018 
L 46.824063 18.687623 
L 45.265839 18.843104 
L 45.18268 18.441799 
L 43.496435 17.994451 
L 43.59043 17.640143 
" clip-path="url(#paf3d05ed27)"/>
    <path d="M 73.894176 38.070924 
L 72.151969 38.161735 
L 71.988016 38.537343 
L 70.495126 38.064566 
L 71.930774 37.439141 
L 72.132888 37.795668 
L 73.875095 37.704857 
L 73.894176 38.070924 
" clip-path="url(#paf3d05ed27)"/>
    <path d="M 37.973344 67.227459 
L 39.685842 67.560469 
L 39.935724 67.23563 
L 41.270065 68.055249 
L 39.725812 68.315102 
L 39.615871 67.920293 
L 37.903374 67.587284 
L 37.973344 67.227459 
" clip-path="url(#paf3d05ed27)"/>
    <path d="M 48.321156 30.31489 
L 50.06532 30.277136 
L 50.240626 29.906692 
L 51.718438 30.424678 
L 50.264424 31.006126 
L 50.073252 30.643615 
L 48.329088 30.681368 
L 48.321156 30.31489 
" clip-path="url(#paf3d05ed27)"/>
    <path d="M 51.460771 40.272451 
L 53.170238 40.620678 
L 53.423 40.298075 
L 54.749998 41.12953 
L 53.203495 41.375638 
L 53.09707 40.979866 
L 51.387603 40.631638 
L 51.460771 40.272451 
" clip-path="url(#paf3d05ed27)"/>
    <path d="M 67.256712 24.912447 
L 65.669939 24.187402 
L 65.350891 24.444637 
L 64.245777 23.33515 
L 65.807923 23.444415 
L 65.822283 23.853994 
L 67.409056 24.579039 
L 67.256712 24.912447 
" clip-path="url(#paf3d05ed27)"/>
    <path d="M 49.730267 48.752537 
L 51.472538 48.662937 
L 51.636752 48.287444 
L 53.129313 48.761259 
L 51.693231 49.385685 
L 51.491365 49.029018 
L 49.749094 49.118618 
L 49.730267 48.752537 
" clip-path="url(#paf3d05ed27)"/>
    <path d="M 57.22742 48.516949 
L 58.849303 49.15963 
L 59.154733 48.886364 
L 60.315314 49.937692 
L 58.749619 49.908717 
L 58.714265 49.500414 
L 57.092382 48.857734 
L 57.22742 48.516949 
" clip-path="url(#paf3d05ed27)"/>
    <path d="M 33.015649 19.516831 
L 34.745523 19.290843 
L 34.879777 18.903625 
L 36.404905 19.258904 
L 35.022228 19.994052 
L 34.793007 19.654319 
L 33.063132 19.880307 
L 33.015649 19.516831 
" clip-path="url(#paf3d05ed27)"/>
    <path d="M 39.59691 47.08469 
L 41.341398 47.067307 
L 41.521018 46.698935 
L 42.992681 47.234144 
L 41.531976 47.798572 
L 41.34505 47.433853 
L 39.600563 47.451236 
L 39.59691 47.08469 
" clip-path="url(#paf3d05ed27)"/>
    <path d="M 77.018567 60.338313 
L 75.274036 60.350585 
L 75.093337 60.718429 
L 73.623249 60.178911 
L 75.085602 59.618764 
L 75.271458 59.98403 
L 77.015988 59.971758 
L 77.018567 60.338313 
" clip-path="url(#paf3d05ed27)"/>
    <path d="M 33.10993 55.79593 
L 34.849692 55.666456 
L 35.005264 55.287301 
L 36.508284 55.726813 
L 35.086877 56.383961 
L 34.876896 56.03201 
L 33.137134 56.161483 
L 33.10993 55.79593 
" clip-path="url(#paf3d05ed27)"/>
    <path d="M 59.841588 37.235745 
L 61.58611 37.249135 
L 61.7722 36.883988 
L 63.234193 37.445072 
L 61.76376 37.983648 
L 61.583296 37.615688 
L 59.838774 37.602298 
L 59.841588 37.235745 
" clip-path="url(#paf3d05ed27)"/>
    <path d="M 74.477329 27.254378 
L 72.868825 26.57891 
L 72.557911 26.845919 
L 71.418908 25.771251 
L 72.983692 25.831999 
L 73.010752 26.240936 
L 74.619256 26.916405 
L 74.477329 27.254378 
" clip-path="url(#paf3d05ed27)"/>
    <path d="M 39.263038 55.454334 
L 41.005579 55.538542 
L 41.206341 55.181251 
L 42.644349 55.80123 
L 41.153261 56.279662 
L 40.987886 55.904678 
L 39.245345 55.820471 
L 39.263038 55.454334 
" clip-path="url(#paf3d05ed27)"/>
    <path d="M 62.135463 66.329339 
L 60.469467 66.84702 
L 60.403213 67.25146 
L 58.839838 67.161473 
L 60.076893 66.201299 
L 60.360693 66.496966 
L 62.026689 65.979285 
L 62.135463 66.329339 
" clip-path="url(#paf3d05ed27)"/>
    <path d="M 98.172448 22.465561 
L 99.916703 22.498963 
L 100.10697 22.135975 
L 101.56243 22.713793 
L 100.085915 23.235466 
L 99.909685 22.86546 
L 98.16543 22.832058 
L 98.172448 22.465561 
" clip-path="url(#paf3d05ed27)"/>
    <path d="M 49.692431 49.21399 
L 48.187175 48.332093 
L 47.843734 48.555722 
L 46.856568 47.340098 
L 48.399638 47.606884 
L 48.372476 48.015814 
L 49.877732 48.89771 
L 49.692431 49.21399 
" clip-path="url(#paf3d05ed27)"/>
    <path d="M 55.391673 48.813762 
L 53.704163 49.256304 
L 53.619861 49.657371 
L 52.062086 49.497452 
L 53.340905 48.593648 
L 53.611177 48.90173 
L 55.298687 48.459187 
L 55.391673 48.813762 
" clip-path="url(#paf3d05ed27)"/>
    <path d="M 34.977857 14.934952 
L 36.687107 14.585657 
L 36.793285 14.189819 
L 38.339941 14.43496 
L 37.013463 15.267244 
L 36.7605 14.944799 
L 35.05125 15.294094 
L 34.977857 14.934952 
" clip-path="url(#paf3d05ed27)"/>
    <path d="M 82.898403 44.407894 
L 84.636918 44.553183 
L 84.850091 44.203156 
L 86.265463 44.873203 
L 84.758508 45.299029 
L 84.606391 44.918474 
L 82.867875 44.773185 
L 82.898403 44.407894 
" clip-path="url(#paf3d05ed27)"/>
    <path d="M 80.073181 76.781347 
L 81.799813 77.030902 
L 82.033646 76.694325 
L 83.40617 77.44826 
L 81.876338 77.782708 
L 81.747377 77.393696 
L 80.020746 77.144141 
L 80.073181 76.781347 
" clip-path="url(#paf3d05ed27)"/>
    <path d="M 35.792546 70.831433 
L 37.529836 70.672175 
L 37.67889 70.29041 
L 39.189219 70.704109 
L 37.779279 71.385511 
L 37.563299 71.037208 
L 35.826009 71.196466 
L 35.792546 70.831433 
" clip-path="url(#paf3d05ed27)"/>
    <path d="M 46.483969 83.171114 
L 48.181626 83.572978 
L 48.444417 83.25849 
L 49.744585 84.131303 
L 48.191102 84.32861 
L 48.097187 83.929684 
L 46.39953 83.527821 
L 46.483969 83.171114 
" clip-path="url(#paf3d05ed27)"/>
    <path d="M 48.501483 56.977163 
L 50.245064 57.036015 
L 50.440607 56.675843 
L 51.88748 57.274839 
L 50.40351 57.774909 
L 50.232698 57.402371 
L 48.489117 57.343519 
L 48.501483 56.977163 
" clip-path="url(#paf3d05ed27)"/>
    <path d="M 59.924657 59.77477 
L 58.3558 60.537808 
L 58.351306 60.947615 
L 56.792243 61.094459 
L 57.870325 59.958686 
L 58.195473 60.208165 
L 59.76433 59.445127 
L 59.924657 59.77477 
" clip-path="url(#paf3d05ed27)"/>
    <path d="M 61.00312 86.295604 
L 62.747134 86.339865 
L 62.939657 85.978069 
L 64.391491 86.564938 
L 62.911757 87.077407 
L 62.737834 86.706311 
L 60.99382 86.66205 
L 61.00312 86.295604 
" clip-path="url(#paf3d05ed27)"/>
    <path d="M 40.967065 14.796329 
L 42.700918 14.603211 
L 42.842496 14.218611 
L 44.360608 14.602768 
L 42.964228 15.311545 
L 42.741495 14.967522 
L 41.007642 15.160641 
L 40.967065 14.796329 
" clip-path="url(#paf3d05ed27)"/>
    <path d="M 71.951448 20.536273 
L 73.695246 20.484191 
L 73.867503 20.112318 
L 75.349521 20.618146 
L 73.900333 21.211521 
L 73.706189 20.850591 
L 71.962392 20.902674 
L 71.951448 20.536273 
" clip-path="url(#paf3d05ed27)"/>
    <path d="M 51.44772 73.038193 
L 53.184305 73.204936 
L 53.401783 72.857568 
L 54.808774 73.545039 
L 53.296677 73.952226 
L 53.149269 73.569822 
L 51.412684 73.403079 
L 51.44772 73.038193 
" clip-path="url(#paf3d05ed27)"/>
    <path d="M 72.853671 49.530712 
L 74.592424 49.673121 
L 74.805017 49.322741 
L 76.221497 49.990443 
L 74.71525 50.418764 
L 74.562502 50.038462 
L 72.823749 49.896052 
L 72.853671 49.530712 
" clip-path="url(#paf3d05ed27)"/>
    <path d="M 79.340898 46.847049 
L 81.015119 47.337485 
L 81.294058 47.037227 
L 82.546612 47.977094 
L 80.984913 48.092572 
L 80.91207 47.689266 
L 79.237849 47.198831 
L 79.340898 46.847049 
" clip-path="url(#paf3d05ed27)"/>
    <path d="M 59.471286 59.401043 
L 57.769747 59.01594 
L 57.510069 59.333004 
L 56.201357 58.473055 
L 57.752819 58.260439 
L 57.850663 58.658419 
L 59.552203 59.043522 
L 59.471286 59.401043 
" clip-path="url(#paf3d05ed27)"/>
    <path d="M 87.716734 72.636405 
L 89.337938 73.280796 
L 89.643656 73.007853 
L 90.803127 74.060405 
L 89.237464 74.029778 
L 89.20254 73.621438 
L 87.581337 72.977047 
L 87.716734 72.636405 
" clip-path="url(#paf3d05ed27)"/>
    <path d="M 98.119257 28.768576 
L 99.847104 28.527568 
L 99.977989 28.139198 
L 101.506146 28.481213 
L 100.129908 29.228347 
L 99.897744 28.890617 
L 98.169897 29.131625 
L 98.119257 28.768576 
" clip-path="url(#paf3d05ed27)"/>
    <path d="M 75.105105 18.885608 
L 76.847557 18.971601 
L 77.048685 18.614517 
L 78.486056 19.235969 
L 76.994479 19.712873 
L 76.829489 19.33772 
L 75.087037 19.251727 
L 75.105105 18.885608 
" clip-path="url(#paf3d05ed27)"/>
    <path d="M 69.412868 65.159796 
L 67.668644 65.194666 
L 67.492725 65.564821 
L 66.015771 65.044392 
L 67.470745 64.465348 
L 67.661317 64.828175 
L 69.405541 64.793305 
L 69.412868 65.159796 
" clip-path="url(#paf3d05ed27)"/>
    <path d="M 43.659928 33.580546 
L 45.404378 33.559882 
L 45.583305 33.191173 
L 47.055972 33.723613 
L 45.596331 34.290788 
L 45.40872 33.926421 
L 43.66427 33.947085 
L 43.659928 33.580546 
" clip-path="url(#paf3d05ed27)"/>
    <path d="M 85.506376 67.709107 
L 87.22194 67.392288 
L 87.335606 66.998535 
L 88.877335 67.272962 
L 87.535313 68.079942 
L 87.288509 67.752757 
L 85.572945 68.069576 
L 85.506376 67.709107 
" clip-path="url(#paf3d05ed27)"/>
    <path d="M 56.167598 75.451826 
L 57.910543 75.527205 
L 58.109493 75.168903 
L 59.550622 75.78159 
L 58.061977 76.267568 
L 57.894705 75.893427 
L 56.151759 75.818047 
L 56.167598 75.451826 
" clip-path="url(#paf3d05ed27)"/>
    <path d="M 86.019121 43.021453 
L 87.733527 43.344481 
L 87.981513 43.018192 
L 89.320605 43.830025 
L 87.777893 44.098869 
L 87.665653 43.704706 
L 85.951247 43.381678 
L 86.019121 43.021453 
" clip-path="url(#paf3d05ed27)"/>
    <path d="M 55.279241 43.931181 
L 56.994907 43.614907 
L 57.108698 43.22119 
L 58.65034 43.496108 
L 57.308061 44.302661 
L 57.061361 43.975398 
L 55.345695 44.291671 
L 55.279241 43.931181 
" clip-path="url(#paf3d05ed27)"/>
    <path d="M 55.784843 73.8119 
L 57.445406 73.277044 
L 57.507479 72.871941 
L 59.0717 72.94578 
L 57.844626 73.918677 
L 57.557788 73.625956 
L 55.897225 74.160812 
L 55.784843 73.8119 
" clip-path="url(#paf3d05ed27)"/>
    <path d="M 45.027376 60.024677 
L 46.769363 60.119641 
L 46.972326 59.763597 
L 48.406479 60.392442 
L 46.912466 60.861659 
L 46.749409 60.485662 
L 45.007423 60.390698 
L 45.027376 60.024677 
" clip-path="url(#paf3d05ed27)"/>
    <path d="M 52.337249 41.866659 
L 53.99905 42.397656 
L 54.285207 42.10427 
L 55.514538 43.074314 
L 53.950493 43.151786 
L 53.887479 42.746828 
L 52.225678 42.215831 
L 52.337249 41.866659 
" clip-path="url(#paf3d05ed27)"/>
    <path d="M 67.584721 19.345091 
L 69.294953 19.689555 
L 69.547005 19.366396 
L 70.875829 20.194928 
L 69.329872 20.44444 
L 69.222576 20.048903 
L 67.512343 19.704439 
L 67.584721 19.345091 
" clip-path="url(#paf3d05ed27)"/>
    <path d="M 68.529189 59.267503 
L 66.814857 59.590928 
L 66.702709 59.985117 
L 65.159934 59.716631 
L 66.498838 58.904487 
L 66.7469 59.230719 
L 68.461232 58.907293 
L 68.529189 59.267503 
" clip-path="url(#paf3d05ed27)"/>
    <path d="M 74.759254 51.981352 
L 76.503739 51.999222 
L 76.690766 51.634554 
L 78.151314 52.199391 
L 76.679502 52.734189 
L 76.499984 52.365767 
L 74.755499 52.347896 
L 74.759254 51.981352 
" clip-path="url(#paf3d05ed27)"/>
    <path d="M 55.027077 36.126138 
L 56.693838 36.64135 
L 56.9772 36.345262 
L 58.215676 37.303603 
L 56.652436 37.395906 
L 56.585584 36.991564 
L 54.918822 36.476352 
L 55.027077 36.126138 
" clip-path="url(#paf3d05ed27)"/>
    <path d="M 57.598151 56.559504 
L 59.341343 56.628964 
L 59.539075 56.269988 
L 60.982277 56.877777 
L 59.495291 57.368808 
L 59.326749 56.995238 
L 57.583557 56.925777 
L 57.598151 56.559504 
" clip-path="url(#paf3d05ed27)"/>
    <path d="M 47.660469 23.529366 
L 49.403426 23.454258 
L 49.570756 23.080143 
L 51.059326 23.566353 
L 49.618101 24.178816 
L 49.419207 23.820482 
L 47.67625 23.895591 
L 47.660469 23.529366 
" clip-path="url(#paf3d05ed27)"/>
    <path d="M 38.884164 17.614962 
L 40.470235 18.34154 
L 40.789532 18.084613 
L 41.893572 19.195169 
L 40.331533 19.084394 
L 40.317569 18.6748 
L 38.731498 17.948222 
L 38.884164 17.614962 
" clip-path="url(#paf3d05ed27)"/>
    <path d="M 76.474803 26.705607 
L 78.152558 27.1838 
L 78.429297 26.881513 
L 79.688681 27.812207 
L 78.127867 27.939088 
L 78.052081 27.536325 
L 76.374327 27.058132 
L 76.474803 26.705607 
" clip-path="url(#paf3d05ed27)"/>
    <path d="M 34.416869 70.148916 
L 36.031199 70.810335 
L 36.339773 70.540625 
L 37.488102 71.605323 
L 35.922847 71.558219 
L 35.892224 71.149533 
L 34.277894 70.488114 
L 34.416869 70.148916 
" clip-path="url(#paf3d05ed27)"/>
    <path d="M 47.007168 47.906166 
L 48.70485 47.504405 
L 48.798789 47.105486 
L 50.35226 47.302887 
L 49.052039 48.17562 
L 48.789267 47.861117 
L 47.091584 48.262877 
L 47.007168 47.906166 
" clip-path="url(#paf3d05ed27)"/>
    <path d="M 69.958281 65.513719 
L 71.688266 65.288566 
L 71.822707 64.901413 
L 73.347664 65.257428 
L 71.964632 65.991909 
L 71.735574 65.652065 
L 70.005589 65.877217 
L 69.958281 65.513719 
" clip-path="url(#paf3d05ed27)"/>
    <path d="M 49.742703 25.84638 
L 51.465292 26.122467 
L 51.704275 25.789528 
L 53.065038 26.564487 
L 51.530243 26.875362 
L 51.407281 26.484412 
L 49.684693 26.208325 
L 49.742703 25.84638 
" clip-path="url(#paf3d05ed27)"/>
    <path d="M 56.04859 80.587028 
L 57.789967 80.692621 
L 57.9951 80.337823 
L 59.425388 80.975409 
L 57.928539 81.435499 
L 57.76778 81.058513 
L 56.026403 80.95292 
L 56.04859 80.587028 
" clip-path="url(#paf3d05ed27)"/>
    <path d="M 36.470844 25.336371 
L 38.189223 25.035178 
L 38.306467 24.642475 
L 39.845635 24.930922 
L 38.496324 25.725655 
L 38.252509 25.396237 
L 36.53413 25.697431 
L 36.470844 25.336371 
" clip-path="url(#paf3d05ed27)"/>
    <path d="M 61.155131 35.265101 
L 59.418123 35.427414 
L 59.269741 35.80944 
L 57.758687 35.398397 
L 59.167427 34.714518 
L 59.384019 35.06244 
L 61.121026 34.900127 
L 61.155131 35.265101 
" clip-path="url(#paf3d05ed27)"/>
    <path d="M 78.088847 47.13234 
L 79.833105 47.165578 
L 80.023338 46.802572 
L 81.478852 47.380255 
L 80.002386 47.902065 
L 79.826121 47.532076 
L 78.081863 47.498837 
L 78.088847 47.13234 
" clip-path="url(#paf3d05ed27)"/>
    <path d="M 62.883111 66.607286 
L 64.625496 66.694662 
L 64.826907 66.337737 
L 66.263785 66.960329 
L 64.77183 67.436049 
L 64.607137 67.060766 
L 62.864752 66.97339 
L 62.883111 66.607286 
" clip-path="url(#paf3d05ed27)"/>
    <path d="M 87.490377 26.331112 
L 89.219624 26.100376 
L 89.352814 25.712791 
L 90.878912 26.063881 
L 89.498259 26.802823 
L 89.268105 26.46372 
L 87.538859 26.694456 
L 87.490377 26.331112 
" clip-path="url(#paf3d05ed27)"/>
    <path d="M 77.894717 55.657589 
L 79.590125 56.068855 
L 79.854655 55.755829 
L 81.149967 56.635833 
L 79.595414 56.824528 
L 79.503712 56.425088 
L 77.808304 56.013822 
L 77.894717 55.657589 
" clip-path="url(#paf3d05ed27)"/>
    <path d="M 99.005249 32.429464 
L 100.693911 31.991335 
L 100.77926 31.590489 
L 102.336613 31.75448 
L 101.055436 32.654938 
L 100.785969 32.346151 
L 99.097308 32.784281 
L 99.005249 32.429464 
" clip-path="url(#paf3d05ed27)"/>
    <path d="M 79.795413 41.02454 
L 81.508876 40.696527 
L 81.619969 40.30204 
L 83.163457 40.566396 
L 81.826731 41.38212 
L 81.577797 41.056554 
L 79.864334 41.384567 
L 79.795413 41.02454 
" clip-path="url(#paf3d05ed27)"/>
    <path d="M 47.731477 50.446449 
L 46.111589 49.798763 
L 45.805316 50.071084 
L 44.647988 49.016176 
L 46.213586 49.049986 
L 46.247679 49.458397 
L 47.867567 50.106084 
L 47.731477 50.446449 
" clip-path="url(#paf3d05ed27)"/>
    <path d="M 58.497897 23.784736 
L 60.22158 23.51557 
L 60.346111 23.125117 
L 61.879645 23.442155 
L 60.51578 24.211642 
L 60.278136 23.877745 
L 58.554453 24.146911 
L 58.497897 23.784736 
" clip-path="url(#paf3d05ed27)"/>
    <path d="M 74.361844 33.311142 
L 72.651894 32.965294 
L 72.399581 33.288248 
L 71.071428 32.458641 
L 72.617587 32.210381 
L 72.724563 32.606005 
L 74.434512 32.951853 
L 74.361844 33.311142 
" clip-path="url(#paf3d05ed27)"/>
    <path d="M 81.238772 41.542971 
L 82.982953 41.505955 
L 83.158416 41.135585 
L 84.636009 41.654197 
L 83.181749 42.23503 
L 82.990731 41.872437 
L 81.246549 41.909452 
L 81.238772 41.542971 
" clip-path="url(#paf3d05ed27)"/>
    <path d="M 85.187843 55.290144 
L 86.927239 55.424447 
L 87.138197 55.073081 
L 88.557773 55.734173 
L 87.053539 56.16951 
L 86.89902 55.789924 
L 85.159624 55.65562 
L 85.187843 55.290144 
" clip-path="url(#paf3d05ed27)"/>
    <path d="M 59.675047 68.570663 
L 61.411457 68.402077 
L 61.558459 68.019518 
L 63.070987 68.4251 
L 61.664727 69.114063 
L 61.44688 68.766926 
L 59.710469 68.935511 
L 59.675047 68.570663 
" clip-path="url(#paf3d05ed27)"/>
    <path d="M 53.973973 30.168882 
L 55.707417 29.972123 
L 55.848187 29.587227 
L 57.367102 29.968195 
L 55.972214 30.679903 
L 55.748759 30.336348 
L 54.015315 30.533108 
L 53.973973 30.168882 
" clip-path="url(#paf3d05ed27)"/>
    <path d="M 63.010921 69.876134 
L 64.70203 69.447548 
L 64.789642 69.047191 
L 66.346043 69.219973 
L 65.059802 70.113182 
L 64.792083 69.802878 
L 63.100975 70.231465 
L 63.010921 69.876134 
" clip-path="url(#paf3d05ed27)"/>
    <path d="M 72.797085 81.331697 
L 74.537133 81.457314 
L 74.746334 81.104898 
L 76.169193 81.758894 
L 74.667151 82.201737 
L 74.510739 81.822927 
L 72.770691 81.69731 
L 72.797085 81.331697 
" clip-path="url(#paf3d05ed27)"/>
    <path d="M 54.198702 39.636221 
L 55.908275 39.288523 
L 56.014823 38.892784 
L 57.561249 39.139371 
L 56.233995 39.970415 
L 55.981332 39.647733 
L 54.27176 39.995431 
L 54.198702 39.636221 
" clip-path="url(#paf3d05ed27)"/>
    <path d="M 54.375018 54.865479 
L 52.654882 55.156456 
L 52.535306 55.548455 
L 50.99788 55.250868 
L 52.351889 54.464167 
L 52.593743 54.795027 
L 54.313879 54.504049 
L 54.375018 54.865479 
" clip-path="url(#paf3d05ed27)"/>
    <path d="M 73.602484 39.935756 
L 75.344816 39.847304 
L 75.509277 39.471918 
L 77.001526 39.946716 
L 75.565033 40.570196 
L 75.363401 40.213396 
L 73.621069 40.301848 
L 73.602484 39.935756 
" clip-path="url(#paf3d05ed27)"/>
    <path d="M 53.444208 55.119097 
L 51.699637 55.115755 
L 51.515653 55.481967 
L 50.050453 54.929313 
L 51.51776 54.382277 
L 51.700339 54.749191 
L 53.44491 54.752534 
L 53.444208 55.119097 
" clip-path="url(#paf3d05ed27)"/>
    <path d="M 64.305811 85.881118 
L 65.970076 85.357894 
L 66.034983 84.953235 
L 67.598649 85.038017 
L 66.364797 86.002304 
L 66.080014 85.707583 
L 64.415749 86.230808 
L 64.305811 85.881118 
" clip-path="url(#paf3d05ed27)"/>
    <path d="M 49.495658 44.485196 
L 51.213654 44.788566 
L 51.457887 44.459458 
L 52.80619 45.255898 
L 51.266658 45.542396 
L 51.149911 45.149545 
L 49.431915 44.846176 
L 49.495658 44.485196 
" clip-path="url(#paf3d05ed27)"/>
    <path d="M 46.772964 61.864372 
L 48.517503 61.875394 
L 48.703098 61.509995 
L 50.165851 62.069094 
L 48.69615 62.609666 
L 48.515187 62.241951 
L 46.770648 62.230929 
L 46.772964 61.864372 
" clip-path="url(#paf3d05ed27)"/>
    <path d="M 45.863522 71.423285 
L 47.580114 71.734485 
L 47.825845 71.406494 
L 49.170502 72.209075 
L 47.62968 72.488549 
L 47.514726 72.09517 
L 45.798133 71.783969 
L 45.863522 71.423285 
" clip-path="url(#paf3d05ed27)"/>
    <path d="M 57.577023 33.52586 
L 59.309207 33.733417 
L 59.534799 33.391261 
L 60.925225 34.111647 
L 59.403965 34.483143 
L 59.265596 34.097377 
L 57.533411 33.88982 
L 57.577023 33.52586 
" clip-path="url(#paf3d05ed27)"/>
    <path d="M 69.007848 77.441177 
L 70.714565 77.802626 
L 70.969817 77.481989 
L 72.290338 78.32369 
L 70.741977 78.55782 
L 70.638619 78.161236 
L 68.931901 77.799787 
L 69.007848 77.441177 
" clip-path="url(#paf3d05ed27)"/>
    <path d="M 52.576914 10.631507 
L 54.309604 10.428243 
L 54.448929 10.04282 
L 55.969263 10.418085 
L 54.577056 11.135023 
L 54.352313 10.79231 
L 52.619623 10.995574 
L 52.576914 10.631507 
" clip-path="url(#paf3d05ed27)"/>
    <path d="M 74.98604 61.496075 
L 73.304429 61.031612 
L 73.030171 61.336151 
L 71.76322 60.415785 
L 73.322944 60.276148 
L 73.40202 60.678278 
L 75.083631 61.14274 
L 74.98604 61.496075 
" clip-path="url(#paf3d05ed27)"/>
    <path d="M 52.964667 14.709627 
L 54.699496 14.525493 
L 54.843065 14.141631 
L 56.359166 14.533647 
L 54.959134 15.235181 
L 54.738186 14.890009 
L 53.003357 15.074144 
L 52.964667 14.709627 
" clip-path="url(#paf3d05ed27)"/>
    <path d="M 32.331938 42.862718 
L 33.949187 42.208466 
L 33.981623 41.79992 
L 35.54707 41.75976 
L 34.394031 42.819353 
L 34.086656 42.548277 
L 32.469408 43.202529 
L 32.331938 42.862718 
" clip-path="url(#paf3d05ed27)"/>
    <path d="M 61.798846 33.429521 
L 60.073194 33.173269 
L 59.838057 33.508936 
L 58.468468 32.749683 
L 59.999585 32.421172 
L 60.127036 32.810681 
L 61.852689 33.066933 
L 61.798846 33.429521 
" clip-path="url(#paf3d05ed27)"/>
    <path d="M 64.887214 32.017914 
L 66.627143 31.890693 
L 66.783205 31.511739 
L 68.285655 31.953197 
L 66.863399 32.608504 
L 66.653874 32.256281 
L 64.913945 32.383502 
L 64.887214 32.017914 
" clip-path="url(#paf3d05ed27)"/>
    <path d="M 41.527147 49.847143 
L 43.207879 49.379515 
L 43.286198 48.977237 
L 44.846183 49.113935 
L 43.580968 50.036687 
L 43.306136 49.732665 
L 41.625404 50.200293 
L 41.527147 49.847143 
" clip-path="url(#paf3d05ed27)"/>
    <path d="M 66.054828 62.068086 
L 67.758843 61.694079 
L 67.859278 61.296745 
L 69.409322 61.519466 
L 68.095033 62.370869 
L 67.837428 62.05212 
L 66.133413 62.426128 
L 66.054828 62.068086 
" clip-path="url(#paf3d05ed27)"/>
    <path d="M 57.9574 25.128824 
L 59.65657 25.524249 
L 59.918167 25.208768 
L 61.221635 26.076645 
L 59.668911 26.27984 
L 59.573485 25.881273 
L 57.874314 25.485848 
L 57.9574 25.128824 
" clip-path="url(#paf3d05ed27)"/>
    <path d="M 30.404488 16.598067 
L 32.135132 16.818099 
L 32.363183 16.477578 
L 33.748382 17.207963 
L 32.224486 17.568489 
L 32.0889 17.181736 
L 30.358256 16.961704 
L 30.404488 16.598067 
" clip-path="url(#paf3d05ed27)"/>
    <path d="M 34.177431 18.476043 
L 35.921146 18.530757 
L 36.115834 18.170121 
L 37.564125 18.765683 
L 36.081345 19.269273 
L 35.90965 18.897141 
L 34.165935 18.842427 
L 34.177431 18.476043 
" clip-path="url(#paf3d05ed27)"/>
    <path d="M 68.765097 18.418696 
L 70.507222 18.511051 
L 70.709653 18.154704 
L 72.144745 18.7814 
L 70.651436 19.252854 
L 70.487817 18.877101 
L 68.745691 18.784746 
L 68.765097 18.418696 
" clip-path="url(#paf3d05ed27)"/>
    <path d="M 46.813836 67.517243 
L 48.498569 67.970243 
L 48.770748 67.663844 
L 50.043936 68.575562 
L 48.485199 68.725817 
L 48.403386 68.324234 
L 46.718653 67.871234 
L 46.813836 67.517243 
" clip-path="url(#paf3d05ed27)"/>
    <path d="M 99.183804 23.230307 
L 100.882951 22.834779 
L 100.978354 22.436207 
L 102.53109 22.639307 
L 101.227675 23.507263 
L 100.966058 23.191798 
L 99.266911 23.587326 
L 99.183804 23.230307 
" clip-path="url(#paf3d05ed27)"/>
    <path d="M 45.025223 30.122536 
L 46.769754 30.110597 
L 46.950524 29.742787 
L 48.420509 30.282586 
L 46.958049 30.842454 
L 46.772263 30.477152 
L 45.027731 30.489091 
L 45.025223 30.122536 
" clip-path="url(#paf3d05ed27)"/>
    <path d="M 68.731956 30.20594 
L 67.124737 29.527424 
L 66.813317 29.793844 
L 65.676354 28.717018 
L 67.24102 28.780733 
L 67.267304 29.18972 
L 68.874523 29.868236 
L 68.731956 30.20594 
" clip-path="url(#paf3d05ed27)"/>
    <path d="M 66.851726 62.74542 
L 65.107171 62.753276 
L 64.925541 63.120662 
L 63.456823 62.577424 
L 64.920589 62.020981 
L 65.10552 62.386716 
L 66.850075 62.37886 
L 66.851726 62.74542 
" clip-path="url(#paf3d05ed27)"/>
    <path d="M 47.941761 62.95799 
L 49.638605 62.552703 
L 49.731715 62.153589 
L 51.285593 62.347761 
L 49.987188 63.223195 
L 49.723763 62.909238 
L 48.026919 63.314526 
L 47.941761 62.95799 
" clip-path="url(#paf3d05ed27)"/>
    <path d="M 77.268048 38.833708 
L 78.990857 38.559008 
L 79.114134 38.168158 
L 80.648678 38.480269 
L 79.287291 39.254132 
L 79.048576 38.921 
L 77.325767 39.195699 
L 77.268048 38.833708 
" clip-path="url(#paf3d05ed27)"/>
    <path d="M 92.800249 63.130799 
L 94.51088 63.473268 
L 94.762554 63.149815 
L 96.092344 63.976797 
L 94.546679 64.228111 
L 94.438921 63.8327 
L 92.728291 63.490231 
L 92.800249 63.130799 
" clip-path="url(#paf3d05ed27)"/>
    <path d="M 59.05508 22.542831 
L 60.754291 22.938076 
L 61.015855 22.622567 
L 62.319415 23.490306 
L 60.766713 23.693665 
L 60.671244 23.295108 
L 58.972032 22.899863 
L 59.05508 22.542831 
" clip-path="url(#paf3d05ed27)"/>
    <path d="M 54.426661 53.999955 
L 52.682149 54.014528 
L 52.501935 54.38261 
L 51.031137 53.845031 
L 52.492749 53.282956 
L 52.679087 53.647977 
L 54.423599 53.633404 
L 54.426661 53.999955 
" clip-path="url(#paf3d05ed27)"/>
    <path d="M 75.974426 43.564039 
L 77.515245 42.745868 
L 77.50521 42.33616 
L 79.058087 42.134142 
L 78.020945 43.307417 
L 77.687157 43.069621 
L 76.146338 43.887792 
L 75.974426 43.564039 
" clip-path="url(#paf3d05ed27)"/>
    <path d="M 88.708948 20.016536 
L 90.449614 20.133195 
L 90.656998 19.779708 
L 92.083204 20.426371 
L 90.583461 20.876939 
L 90.425102 20.498939 
L 88.684436 20.38228 
L 88.708948 20.016536 
" clip-path="url(#paf3d05ed27)"/>
    <path d="M 95.825691 18.900849 
L 97.570265 18.900047 
L 97.753379 18.533399 
L 99.219888 19.082571 
L 97.753884 19.633091 
L 97.570433 19.266611 
L 95.825859 19.267413 
L 95.825691 18.900849 
" clip-path="url(#paf3d05ed27)"/>
    <path d="M 64.442642 17.504892 
L 66.186227 17.446198 
L 66.357073 17.073675 
L 67.840998 17.57388 
L 66.39407 18.172745 
L 66.19856 17.812555 
L 64.454975 17.871249 
L 64.442642 17.504892 
" clip-path="url(#paf3d05ed27)"/>
    <path d="M 29.141558 35.408312 
L 30.850476 35.759221 
L 31.103744 35.437015 
L 32.429435 36.270551 
L 30.882548 36.514232 
L 30.776744 36.118293 
L 29.067826 35.767384 
L 29.141558 35.408312 
" clip-path="url(#paf3d05ed27)"/>
    <path d="M 38.642168 67.236769 
L 40.386179 67.281057 
L 40.578708 66.919263 
L 42.030534 67.506155 
L 40.550791 68.018601 
L 40.376874 67.647503 
L 38.632862 67.603215 
L 38.642168 67.236769 
" clip-path="url(#paf3d05ed27)"/>
    <path d="M 92.161135 68.077328 
L 93.89121 67.852892 
L 94.025811 67.465795 
L 95.55062 67.822441 
L 94.167284 68.556349 
L 93.938367 68.21641 
L 92.208293 68.440846 
L 92.161135 68.077328 
" clip-path="url(#paf3d05ed27)"/>
    <path d="M 41.267007 71.193926 
L 42.992795 70.938602 
L 43.120455 70.54916 
L 44.651396 70.878494 
L 43.281399 71.637012 
L 43.046443 71.301219 
L 41.320655 71.556544 
L 41.267007 71.193926 
" clip-path="url(#paf3d05ed27)"/>
    <path d="M 86.630106 52.462428 
L 88.287411 51.917571 
L 88.347042 51.512102 
L 89.911679 51.57651 
L 88.690492 52.556786 
L 88.401895 52.2658 
L 86.744589 52.810656 
L 86.630106 52.462428 
" clip-path="url(#paf3d05ed27)"/>
    <path d="M 50.320514 38.657006 
L 52.016528 39.065758 
L 52.280594 38.75234 
L 53.577209 39.630423 
L 52.022938 39.821422 
L 51.930643 39.422119 
L 50.234628 39.013367 
L 50.320514 38.657006 
" clip-path="url(#paf3d05ed27)"/>
    <path d="M 77.370576 67.314951 
L 79.102686 67.106769 
L 79.240915 66.720953 
L 80.762309 67.0919 
L 79.372143 67.812787 
L 79.146428 67.470714 
L 77.414318 67.678896 
L 77.370576 67.314951 
" clip-path="url(#paf3d05ed27)"/>
    <path d="M 74.672479 50.119198 
L 76.399692 49.873711 
L 76.52957 49.485003 
L 78.058609 49.823055 
L 76.684312 50.573754 
L 76.451273 50.236628 
L 74.72406 50.482115 
L 74.672479 50.119198 
" clip-path="url(#paf3d05ed27)"/>
    <path d="M 38.343351 41.610568 
L 40.087497 41.649207 
L 40.278853 41.286792 
L 41.732572 41.868978 
L 40.254497 42.386215 
L 40.079379 42.015681 
L 38.335232 41.977042 
L 38.343351 41.610568 
" clip-path="url(#paf3d05ed27)"/>
    <path d="M 54.367396 25.635647 
L 56.111834 25.613812 
L 56.290513 25.244983 
L 57.763537 25.776434 
L 56.304277 26.344589 
L 56.116422 25.980347 
L 54.371984 26.002183 
L 54.367396 25.635647 
" clip-path="url(#paf3d05ed27)"/>
    <path d="M 55.51403 56.055909 
L 57.256653 55.973462 
L 57.422407 55.598645 
L 58.91301 56.078583 
L 57.474377 56.697109 
L 57.273976 56.339616 
L 55.531353 56.422063 
L 55.51403 56.055909 
" clip-path="url(#paf3d05ed27)"/>
    <path d="M 80.370237 38.662282 
L 82.112243 38.75693 
L 82.315142 38.400849 
L 83.749408 39.029434 
L 82.255481 39.498922 
L 82.092356 39.122954 
L 80.35035 39.028306 
L 80.370237 38.662282 
" clip-path="url(#paf3d05ed27)"/>
    <path d="M 79.6144 52.648793 
L 81.334621 52.358301 
L 81.454307 51.966336 
L 82.99165 52.264358 
L 81.637419 53.050676 
L 81.395658 52.719748 
L 79.675437 53.01024 
L 79.6144 52.648793 
" clip-path="url(#paf3d05ed27)"/>
    <path d="M 35.880466 15.62806 
L 37.624931 15.608684 
L 37.80413 15.240107 
L 39.276403 15.773634 
L 37.816344 16.339732 
L 37.629002 15.975226 
L 35.884537 15.994602 
L 35.880466 15.62806 
" clip-path="url(#paf3d05ed27)"/>
    <path d="M 86.963479 19.289568 
L 88.601955 19.88868 
L 88.899974 19.60735 
L 90.088234 20.62729 
L 88.522324 20.640164 
L 88.476072 20.232951 
L 86.837595 19.633839 
L 86.963479 19.289568 
" clip-path="url(#paf3d05ed27)"/>
    <path d="M 42.376907 45.576464 
L 44.116379 45.443157 
L 44.271115 45.06366 
L 45.7751 45.499859 
L 44.355145 46.160137 
L 44.144389 45.80865 
L 42.404917 45.941956 
L 42.376907 45.576464 
" clip-path="url(#paf3d05ed27)"/>
    <path d="M 65.146137 18.477991 
L 66.888297 18.569748 
L 67.090605 18.213331 
L 68.525913 18.839534 
L 67.032767 19.311501 
L 66.869018 18.935804 
L 65.126858 18.844048 
L 65.146137 18.477991 
" clip-path="url(#paf3d05ed27)"/>
    <path d="M 57.939126 31.783822 
L 56.196762 31.871588 
L 56.032153 32.246909 
L 54.540092 31.771524 
L 55.97683 31.148609 
L 56.178321 31.505489 
L 57.920685 31.417722 
L 57.939126 31.783822 
" clip-path="url(#paf3d05ed27)"/>
    <path d="M 90.665521 21.553903 
L 92.322052 21.006691 
L 92.381106 20.601137 
L 93.945834 20.66332 
L 92.726042 21.645332 
L 92.437031 21.354756 
L 90.7805 21.901968 
L 90.665521 21.553903 
" clip-path="url(#paf3d05ed27)"/>
    <path d="M 90.973358 28.792638 
L 92.656739 29.25064 
L 92.929826 28.945051 
L 94.200301 29.860546 
L 92.641124 30.00617 
L 92.560505 29.604347 
L 90.877124 29.146345 
L 90.973358 28.792638 
" clip-path="url(#paf3d05ed27)"/>
    <path d="M 72.491188 81.637993 
L 74.166692 82.124029 
L 74.444842 81.82304 
L 75.69986 82.759614 
L 74.138469 82.879193 
L 74.064568 82.47608 
L 72.389064 81.990044 
L 72.491188 81.637993 
" clip-path="url(#paf3d05ed27)"/>
    <path d="M 64.885093 26.694428 
L 63.141465 26.636949 
L 62.946205 26.997275 
L 61.498861 26.399418 
L 62.982437 25.89818 
L 63.153543 26.270584 
L 64.89717 26.328063 
L 64.885093 26.694428 
" clip-path="url(#paf3d05ed27)"/>
    <path d="M 97.68832 25.145438 
L 99.432487 25.10784 
L 99.607827 24.737411 
L 101.085593 25.25553 
L 99.631526 25.836848 
L 99.440387 25.474319 
L 97.69622 25.511917 
L 97.68832 25.145438 
" clip-path="url(#paf3d05ed27)"/>
    <path d="M 73.489786 28.583597 
L 71.745233 28.591823 
L 71.563681 28.959247 
L 70.094848 28.416321 
L 71.558496 27.859567 
L 71.743505 28.225263 
L 73.488058 28.217037 
L 73.489786 28.583597 
" clip-path="url(#paf3d05ed27)"/>
    <path d="M 39.576877 58.76698 
L 41.321438 58.760087 
L 41.503271 58.392802 
L 42.971688 58.936851 
L 41.507616 59.492486 
L 41.322887 59.126649 
L 39.578326 59.133542 
L 39.576877 58.76698 
" clip-path="url(#paf3d05ed27)"/>
    <path d="M 99.529505 12.690764 
L 101.20932 12.219845 
L 101.28685 11.817414 
L 102.8471 11.951057 
L 101.583694 12.876284 
L 101.308268 12.572801 
L 99.628453 13.043721 
L 99.529505 12.690764 
" clip-path="url(#paf3d05ed27)"/>
    <path d="M 54.737126 41.789363 
L 53.145702 41.074584 
L 52.828323 41.333875 
L 51.716065 40.23155 
L 53.278884 40.330721 
L 53.295889 40.740199 
L 54.887313 41.454979 
L 54.737126 41.789363 
" clip-path="url(#paf3d05ed27)"/>
    <path d="M 64.645138 19.552667 
L 66.384753 19.421204 
L 66.539891 19.04187 
L 68.043413 19.479663 
L 66.622759 20.138436 
L 66.412375 19.786725 
L 64.672761 19.918189 
L 64.645138 19.552667 
" clip-path="url(#paf3d05ed27)"/>
    <path d="M 75.47833 19.348478 
L 77.105602 19.977392 
L 77.408705 19.701547 
L 78.578154 20.743002 
L 77.01227 20.727297 
L 76.973457 20.319308 
L 75.346185 19.690395 
L 75.47833 19.348478 
" clip-path="url(#paf3d05ed27)"/>
    <path d="M 69.894872 48.738655 
L 71.637514 48.656602 
L 71.803352 48.281823 
L 73.293847 48.762098 
L 71.855074 49.380299 
L 71.654754 49.022761 
L 69.912113 49.104814 
L 69.894872 48.738655 
" clip-path="url(#paf3d05ed27)"/>
    <path d="M 49.997788 60.960161 
L 51.726848 61.19229 
L 51.957275 60.853372 
L 53.337333 61.593426 
L 51.810952 61.943287 
L 51.678074 61.555595 
L 49.949014 61.323466 
L 49.997788 60.960161 
" clip-path="url(#paf3d05ed27)"/>
    <path d="M 56.280276 48.1425 
L 57.99739 48.450816 
L 58.242569 48.122412 
L 59.588573 48.922733 
L 58.048222 49.204795 
L 57.932607 48.81161 
L 56.215494 48.503294 
L 56.280276 48.1425 
" clip-path="url(#paf3d05ed27)"/>
    <path d="M 47.367232 42.309607 
L 49.106607 42.444192 
L 49.317621 42.092859 
L 50.73709 42.754181 
L 49.232786 43.189274 
L 49.078328 42.809663 
L 47.338954 42.675079 
L 47.367232 42.309607 
" clip-path="url(#paf3d05ed27)"/>
    <path d="M 91.369689 81.353027 
L 93.099642 81.127633 
L 93.234029 80.740462 
L 94.759035 81.096264 
L 93.376106 81.830938 
L 93.147001 81.491125 
L 91.417048 81.716519 
L 91.369689 81.353027 
" clip-path="url(#paf3d05ed27)"/>
    <path d="M 31.730392 25.291755 
L 33.455153 25.553922 
L 33.69144 25.219064 
L 35.058417 25.98301 
L 33.526182 26.306268 
L 33.400067 25.916324 
L 31.675306 25.654156 
L 31.730392 25.291755 
" clip-path="url(#paf3d05ed27)"/>
    <path d="M 80.109544 19.904095 
L 81.810702 19.517302 
L 81.908151 19.119225 
L 83.459823 19.3303 
L 82.151966 20.191548 
L 81.891974 19.874743 
L 80.190816 20.261536 
L 80.109544 19.904095 
" clip-path="url(#paf3d05ed27)"/>
    <path d="M 58.214695 61.661347 
L 59.951629 61.824445 
L 60.168378 61.476621 
L 61.576809 62.161137 
L 60.06557 62.571497 
L 59.91736 62.189404 
L 58.180425 62.026306 
L 58.214695 61.661347 
" clip-path="url(#paf3d05ed27)"/>
    <path d="M 29.309815 81.910196 
L 31.02241 82.242684 
L 31.272194 81.917769 
L 32.606784 82.736983 
L 31.06261 82.997305 
L 30.952549 82.602529 
L 29.239953 82.270041 
L 29.309815 81.910196 
" clip-path="url(#paf3d05ed27)"/>
    <path d="M 85.94993 52.349087 
L 87.627653 51.870783 
L 87.703412 51.468015 
L 89.264235 51.594793 
L 88.004912 52.525569 
L 87.728153 52.223301 
L 86.05043 52.701605 
L 85.94993 52.349087 
" clip-path="url(#paf3d05ed27)"/>
    <path d="M 58.086384 55.266616 
L 59.830515 55.227319 
L 60.005493 54.856719 
L 61.483764 55.373397 
L 60.030265 55.956132 
L 59.838772 55.59379 
L 58.094641 55.633088 
L 58.086384 55.266616 
" clip-path="url(#paf3d05ed27)"/>
    <path d="M 49.216746 46.361304 
L 47.482772 46.169286 
L 47.260257 46.51345 
L 45.863428 45.805561 
L 47.381295 45.420439 
L 47.523118 45.804949 
L 49.257092 45.996967 
L 49.216746 46.361304 
" clip-path="url(#paf3d05ed27)"/>
    <path d="M 37.730374 48.533749 
L 39.343192 47.868656 
L 39.372885 47.459902 
L 40.938028 47.409234 
L 39.792127 48.476544 
L 39.482939 48.207537 
L 37.870121 48.872629 
L 37.730374 48.533749 
" clip-path="url(#paf3d05ed27)"/>
    <path d="M 98.171916 67.028033 
L 99.908437 67.195455 
L 100.126052 66.848172 
L 101.532773 67.536193 
L 100.020517 67.942789 
L 99.873259 67.560327 
L 98.136738 67.392905 
L 98.171916 67.028033 
" clip-path="url(#paf3d05ed27)"/>
    <path d="M 96.663313 32.720847 
L 98.221277 33.505887 
L 98.549904 33.261008 
L 99.611896 34.411839 
L 98.055054 34.24307 
L 98.056327 33.833241 
L 96.498363 33.048202 
L 96.663313 32.720847 
" clip-path="url(#paf3d05ed27)"/>
    <path d="M 55.02841 63.652417 
L 53.303132 63.911174 
L 53.176247 64.300869 
L 51.644654 63.974581 
L 53.013139 63.21334 
L 53.248763 63.548665 
L 54.974041 63.289908 
L 55.02841 63.652417 
" clip-path="url(#paf3d05ed27)"/>
    <path d="M 33.196544 17.593524 
L 34.890469 18.01085 
L 35.156117 17.698772 
L 36.448273 18.583403 
L 34.893056 18.766537 
L 34.802782 18.366772 
L 33.108857 17.949445 
L 33.196544 17.593524 
" clip-path="url(#paf3d05ed27)"/>
    <path d="M 83.480167 81.215893 
L 85.194415 80.892011 
L 85.306458 80.497793 
L 86.849304 80.765869 
L 85.510617 81.578368 
L 85.262468 81.252203 
L 83.54822 81.576084 
L 83.480167 81.215893 
" clip-path="url(#paf3d05ed27)"/>
    <path d="M 41.431755 48.44148 
L 43.168858 48.280216 
L 43.317471 47.898279 
L 44.828276 48.310234 
L 43.419124 48.993263 
L 43.202742 48.645211 
L 41.465639 48.806475 
L 41.431755 48.44148 
" clip-path="url(#paf3d05ed27)"/>
    <path d="M 70.060925 49.65459 
L 71.763528 50.034963 
L 72.022323 49.717179 
L 73.33342 50.573487 
L 71.782555 50.790414 
L 71.683605 50.392708 
L 69.981003 50.012335 
L 70.060925 49.65459 
" clip-path="url(#paf3d05ed27)"/>
    <path d="M 52.879103 38.249183 
L 54.615479 38.080265 
L 54.762408 37.697677 
L 56.275014 38.10297 
L 54.868885 38.792203 
L 54.650971 38.445107 
L 52.914595 38.614025 
L 52.879103 38.249183 
" clip-path="url(#paf3d05ed27)"/>
    <path d="M 28.494644 29.658419 
L 30.220606 29.404261 
L 30.34853 29.014906 
L 31.879247 29.345274 
L 30.508738 30.102866 
L 30.274009 29.766914 
L 28.548047 30.021073 
L 28.494644 29.658419 
" clip-path="url(#paf3d05ed27)"/>
    <path d="M 61.785906 43.727526 
L 63.530025 43.767313 
L 63.72162 43.405024 
L 65.174955 43.988167 
L 63.69654 44.504431 
L 63.521665 44.133782 
L 61.777546 44.093995 
L 61.785906 43.727526 
" clip-path="url(#paf3d05ed27)"/>
    <path d="M 29.51095 16.248419 
L 31.198538 15.806173 
L 31.28291 15.40512 
L 32.840657 15.565313 
L 31.56168 16.468892 
L 31.291461 16.160763 
L 29.603873 16.603009 
L 29.51095 16.248419 
" clip-path="url(#paf3d05ed27)"/>
    <path d="M 83.312961 79.618357 
L 85.05596 79.692433 
L 85.254642 79.333981 
L 86.696229 79.94559 
L 85.207948 80.432682 
L 85.040396 80.058666 
L 83.297397 79.984591 
L 83.312961 79.618357 
" clip-path="url(#paf3d05ed27)"/>
    <path d="M 87.182937 81.388568 
L 88.758646 80.639785 
L 88.766855 80.230036 
L 90.327185 80.097333 
L 89.238851 81.223285 
L 88.915978 80.970868 
L 87.340269 81.719651 
L 87.182937 81.388568 
" clip-path="url(#paf3d05ed27)"/>
    <path d="M 72.921978 74.206089 
L 74.655219 74.007578 
L 74.7956 73.622539 
L 76.314899 74.001972 
L 74.920731 74.715089 
L 74.696929 74.371761 
L 72.963688 74.570272 
L 72.921978 74.206089 
" clip-path="url(#paf3d05ed27)"/>
    <path d="M 29.478283 49.303702 
L 31.222571 49.33534 
L 31.412471 48.97216 
L 32.868515 49.548506 
L 31.392528 50.071671 
L 31.215923 49.701844 
L 29.471635 49.670206 
L 29.478283 49.303702 
" clip-path="url(#paf3d05ed27)"/>
    <path d="M 100.326263 63.513208 
L 102.070719 63.533273 
L 102.258205 63.168841 
L 103.718041 63.735515 
L 102.245557 64.268461 
L 102.066503 63.899813 
L 100.322047 63.879748 
L 100.326263 63.513208 
" clip-path="url(#paf3d05ed27)"/>
    <path d="M 51.194719 54.801509 
L 49.528197 54.285523 
L 49.244698 54.581479 
L 48.006666 53.622564 
L 49.569949 53.530986 
L 49.636614 53.935359 
L 51.303136 54.451345 
L 51.194719 54.801509 
" clip-path="url(#paf3d05ed27)"/>
    <path d="M 55.364862 61.302445 
L 57.109436 61.302215 
L 57.29267 60.935627 
L 58.758999 61.48528 
L 57.292815 62.035319 
L 57.109484 61.668779 
L 55.364911 61.669009 
L 55.364862 61.302445 
" clip-path="url(#paf3d05ed27)"/>
    <path d="M 97.290312 34.554687 
L 98.953354 35.081774 
L 99.23882 34.787716 
L 100.470429 35.754866 
L 98.90657 35.836016 
L 98.842604 35.431208 
L 97.179562 34.90412 
L 97.290312 34.554687 
" clip-path="url(#paf3d05ed27)"/>
    <path d="M 36.571942 76.885603 
L 38.316003 76.927892 
L 38.508117 76.565878 
L 39.960614 77.151106 
L 38.48146 77.665248 
L 38.307118 77.294348 
L 36.563056 77.252059 
L 36.571942 76.885603 
" clip-path="url(#paf3d05ed27)"/>
    <path d="M 82.985138 26.523193 
L 84.636355 27.086238 
L 84.928135 26.798442 
L 86.138471 27.792085 
L 84.573219 27.839287 
L 84.51805 27.433186 
L 82.866833 26.870142 
L 82.985138 26.523193 
" clip-path="url(#paf3d05ed27)"/>
    <path d="M 46.509153 79.868454 
L 48.1215 79.202217 
L 48.150903 78.793442 
L 49.716009 78.741663 
L 48.570866 79.809786 
L 48.261487 79.540998 
L 46.649141 80.207235 
L 46.509153 79.868454 
" clip-path="url(#paf3d05ed27)"/>
    <path d="M 73.23825 22.587008 
L 74.920348 23.049699 
L 75.194286 22.744871 
L 76.462205 23.663903 
L 74.902629 23.805182 
L 74.823129 23.403136 
L 73.141031 22.940445 
L 73.23825 22.587008 
" clip-path="url(#paf3d05ed27)"/>
    <path d="M 61.487758 82.818254 
L 63.15189 83.341892 
L 63.436747 83.047242 
L 64.670358 84.011837 
L 63.106671 84.096229 
L 63.041865 83.691554 
L 61.377733 83.167916 
L 61.487758 82.818254 
" clip-path="url(#paf3d05ed27)"/>
    <path d="M 60.004031 16.511235 
L 61.743952 16.638582 
L 61.953503 16.286374 
L 63.375711 16.941785 
L 61.87323 17.383133 
L 61.717195 17.004168 
L 59.977274 16.876821 
L 60.004031 16.511235 
" clip-path="url(#paf3d05ed27)"/>
    <path d="M 40.70313 68.819239 
L 42.420875 68.514467 
L 42.537301 68.121521 
L 44.077067 68.406761 
L 42.729414 69.204303 
L 42.484913 68.875394 
L 40.767167 69.180166 
L 40.70313 68.819239 
" clip-path="url(#paf3d05ed27)"/>
    <path d="M 100.44136 46.519446 
L 102.185557 46.555609 
L 102.376398 46.192923 
L 103.830942 46.773045 
L 102.353603 47.292379 
L 102.177959 46.922095 
L 100.433762 46.885931 
L 100.44136 46.519446 
" clip-path="url(#paf3d05ed27)"/>
   </g>
  </g>
 </g>
 <defs>
  <clipPath id="paf3d05ed27">
   <rect x="7.2" y="7.2" width="86.4" height="86.4"/>
  </clipPath>
 </defs>
</svg>
