<?xml version="1.0" encoding="utf-8" standalone="no"?>
<!DOCTYPE svg PUBLIC "-//W3C//DTD SVG 1.1//EN"
  "http://www.w3.org/Graphics/SVG/1.1/DTD/svg11.dtd">
<svg xmlns:xlink="http://www.w3.org/1999/xlink" width="100.8pt" height="100.8pt" viewBox="0 0 100.8 100.8" xmlns="http://www.w3.org/2000/svg" version="1.1">
 <metadata>
  <rdf:RDF xmlns:dc="http://purl.org/dc/elements/1.1/" xmlns:cc="http://creativecommons.org/ns#" xmlns:rdf="http://www.w3.org/1999/02/22-rdf-syntax-ns#">
   <cc:Work>
    <dc:type rdf:resource="http://purl.org/dc/dcmitype/StillImage"/>
    <dc:date>2025-09-10T17:09:17.512674</dc:date>
    <dc:format>image/svg+xml</dc:format>
    <dc:creator>
     <cc:Agent>
      <dc:title>Matplotlib v3.10.5, https://matplotlib.org/</dc:title>
     </cc:Agent>
    </dc:creator>
   </cc:Work>
  </rdf:RDF>
 </metadata>
 <defs>
  <style type="text/css">*{stroke-linejoin: round; stroke-linecap: butt}</style>
 </defs>
 <g id="figure_1">
  <g id="patch_1">
   <path d="M 0 100.8 
L 100.8 100.8 
L 100.8 0 
L 0 0 
z
" style="fill: #ffffff"/>
  </g>
  <g id="axes_1">
   <g id="Quiver_1">
    <path d="M 33.984603 73.808511 
L 35.72774 73.879261 
L 35.925737 73.520431 
L 37.368489 74.129288 
L 35.88114 74.619219 
L 35.712874 74.245524 
L 33.969737 74.174774 
L 33.984603 73.808511 
" clip-path="url(#p2c12fd210c)"/>
    <path d="M 77.294321 85.380095 
L 79.021899 85.137186 
L 79.152356 84.748672 
L 80.680889 85.089005 
L 79.305474 85.837653 
L 79.072938 85.500179 
L 77.345361 85.743089 
L 77.294321 85.380095 
" clip-path="url(#p2c12fd210c)"/>
    <path d="M 53.778715 67.535044 
L 55.496876 67.837462 
L 55.740927 67.508219 
L 57.089671 68.303913 
L 55.550298 68.591263 
L 55.433333 68.198476 
L 53.715172 67.896059 
L 53.778715 67.535044 
" clip-path="url(#p2c12fd210c)"/>
    <path d="M 38.49357 61.001133 
L 40.221399 60.759991 
L 40.352254 60.371612 
L 41.880437 60.713509 
L 40.504257 61.460748 
L 40.272067 61.123037 
L 38.544238 61.364178 
L 38.49357 61.001133 
" clip-path="url(#p2c12fd210c)"/>
    <path d="M 70.31449 26.453272 
L 71.948389 27.064755 
L 72.248527 26.785687 
L 73.429041 27.814583 
L 71.863078 27.815616 
L 71.819907 27.408065 
L 70.186007 26.796582 
L 70.31449 26.453272 
" clip-path="url(#p2c12fd210c)"/>
    <path d="M 76.463239 63.153502 
L 78.206001 63.232994 
L 78.405795 62.875162 
L 79.845475 63.491248 
L 78.355687 63.973713 
L 78.189298 63.599178 
L 76.446536 63.519685 
L 76.463239 63.153502 
" clip-path="url(#p2c12fd210c)"/>
    <path d="M 39.386665 52.659071 
L 41.114408 52.900818 
L 41.346717 52.563188 
L 42.722635 53.31091 
L 41.194332 53.652271 
L 41.063613 53.263846 
L 39.33587 53.022099 
L 39.386665 52.659071 
" clip-path="url(#p2c12fd210c)"/>
    <path d="M 64.990535 33.081261 
L 66.712613 33.360515 
L 66.952208 33.028016 
L 68.311544 33.805477 
L 66.776179 34.113529 
L 66.653937 33.722353 
L 64.931859 33.443098 
L 64.990535 33.081261 
" clip-path="url(#p2c12fd210c)"/>
    <path d="M 84.450047 62.894626 
L 86.170167 63.185701 
L 86.41204 62.854855 
L 87.766004 63.641634 
L 86.22856 63.939133 
L 86.109007 63.547127 
L 84.388887 63.256052 
L 84.450047 62.894626 
" clip-path="url(#p2c12fd210c)"/>
    <path d="M 66.966996 60.584279 
L 68.606638 61.180191 
L 68.904107 60.89828 
L 70.094356 61.915899 
L 68.528474 61.931829 
L 68.481427 61.524707 
L 66.841784 60.928795 
L 66.966996 60.584279 
" clip-path="url(#p2c12fd210c)"/>
    <path d="M 21.760226 48.648572 
L 23.492893 48.445088 
L 23.632169 48.059648 
L 25.15255 48.43472 
L 23.760435 49.151835 
L 23.535648 48.80915 
L 21.802982 49.012634 
L 21.760226 48.648572 
" clip-path="url(#p2c12fd210c)"/>
    <path d="M 77.858686 42.049248 
L 76.183573 41.561867 
L 75.905182 41.862633 
L 74.650916 40.925053 
L 76.212402 40.806726 
L 76.28598 41.209898 
L 77.961093 41.697279 
L 77.858686 42.049248 
" clip-path="url(#p2c12fd210c)"/>
    <path d="M 50.058416 84.311351 
L 51.801759 84.245811 
L 51.971141 83.87262 
L 53.457019 84.366993 
L 52.012454 84.971536 
L 51.81553 84.612116 
L 50.072187 84.677656 
L 50.058416 84.311351 
" clip-path="url(#p2c12fd210c)"/>
    <path d="M 29.52229 56.332391 
L 31.240888 56.632328 
L 31.484463 56.302733 
L 32.834354 57.096479 
L 31.295398 57.386051 
L 31.177866 56.993434 
L 29.459268 56.693497 
L 29.52229 56.332391 
" clip-path="url(#p2c12fd210c)"/>
    <path d="M 64.381812 53.556039 
L 66.126003 53.519496 
L 66.301566 53.149173 
L 67.779019 53.668186 
L 66.324601 54.248624 
L 66.133681 53.88598 
L 64.38949 53.922523 
L 64.381812 53.556039 
" clip-path="url(#p2c12fd210c)"/>
    <path d="M 46.050564 48.261766 
L 47.753739 47.883963 
L 47.853289 47.486407 
L 49.403825 47.705674 
L 48.091437 48.560003 
L 47.833122 48.241829 
L 46.129947 48.619631 
L 46.050564 48.261766 
" clip-path="url(#p2c12fd210c)"/>
    <path d="M 76.327306 71.821374 
L 78.071875 71.8186 
L 78.254574 71.451745 
L 79.721703 71.99926 
L 78.256322 72.551436 
L 78.072458 72.185164 
L 76.327888 72.187937 
L 76.327306 71.821374 
" clip-path="url(#p2c12fd210c)"/>
    <path d="M 55.894025 59.291468 
L 57.532306 58.691828 
L 57.578426 58.2846 
L 59.14434 58.296967 
L 57.95641 59.317291 
L 57.6583 59.036058 
L 56.020019 59.635699 
L 55.894025 59.291468 
" clip-path="url(#p2c12fd210c)"/>
    <path d="M 79.651496 43.492596 
L 81.39053 43.631536 
L 81.602424 43.280733 
L 83.020233 43.945608 
L 81.514843 44.376933 
L 81.361337 43.996936 
L 79.622302 43.857996 
L 79.651496 43.492596 
" clip-path="url(#p2c12fd210c)"/>
    <path d="M 73.287112 36.92358 
L 75.01793 37.142224 
L 75.245707 36.80152 
L 76.631492 37.530794 
L 75.107885 37.892542 
L 74.971989 37.505898 
L 73.241171 37.287254 
L 73.287112 36.92358 
" clip-path="url(#p2c12fd210c)"/>
    <path d="M 36.585096 15.787793 
L 38.329648 15.796597 
L 38.514778 15.430963 
L 39.978241 15.988202 
L 38.509228 16.530641 
L 38.327798 16.163157 
L 36.583246 16.154352 
L 36.585096 15.787793 
" clip-path="url(#p2c12fd210c)"/>
    <path d="M 81.142198 37.342624 
L 82.764805 37.983469 
L 83.069926 37.709858 
L 84.231695 38.759873 
L 82.665969 38.732669 
L 82.630153 38.324406 
L 81.007546 37.683561 
L 81.142198 37.342624 
" clip-path="url(#p2c12fd210c)"/>
    <path d="M 30.883234 65.850167 
L 32.623751 65.969052 
L 32.831587 65.61583 
L 34.256965 66.264317 
L 32.756648 66.712966 
L 32.598771 66.334764 
L 30.858254 66.215879 
L 30.883234 65.850167 
" clip-path="url(#p2c12fd210c)"/>
    <path d="M 41.156852 30.473139 
L 42.877834 30.759079 
L 43.118718 30.427512 
L 44.475025 31.210246 
L 42.938476 31.512333 
L 42.817753 31.120686 
L 41.096771 30.834746 
L 41.156852 30.473139 
" clip-path="url(#p2c12fd210c)"/>
    <path d="M 44.347295 38.832913 
L 46.079499 38.625529 
L 46.217907 38.239777 
L 47.739129 38.611425 
L 46.348631 39.331672 
L 46.123074 38.989494 
L 44.39087 39.196878 
L 44.347295 38.832913 
" clip-path="url(#p2c12fd210c)"/>
    <path d="M 73.919796 27.558797 
L 75.626122 27.922092 
L 75.881721 27.601731 
L 77.201332 28.44486 
L 75.652718 28.677315 
L 75.549788 28.28062 
L 73.843461 27.917326 
L 73.919796 27.558797 
" clip-path="url(#p2c12fd210c)"/>
    <path d="M 42.561677 49.122521 
L 44.302193 49.241443 
L 44.510037 48.888226 
L 45.935401 49.536743 
L 44.435074 49.98536 
L 44.277206 49.607155 
L 42.53669 49.488233 
L 42.561677 49.122521 
" clip-path="url(#p2c12fd210c)"/>
    <path d="M 50.474734 45.851853 
L 52.217442 45.932499 
L 52.417474 45.574799 
L 53.856745 46.191838 
L 52.366639 46.673316 
L 52.200497 46.298671 
L 50.457789 46.218026 
L 50.474734 45.851853 
" clip-path="url(#p2c12fd210c)"/>
    <path d="M 25.969845 20.461781 
L 27.582968 21.126142 
L 27.892033 20.856995 
L 29.038419 21.923784 
L 27.473253 21.873826 
L 27.443375 21.465086 
L 25.830252 20.800725 
L 25.969845 20.461781 
" clip-path="url(#p2c12fd210c)"/>
    <path d="M 32.381195 47.157297 
L 34.11743 46.986925 
L 34.264038 46.604215 
L 35.776983 47.008241 
L 34.371432 47.69865 
L 34.153228 47.351737 
L 32.416993 47.522109 
L 32.381195 47.157297 
" clip-path="url(#p2c12fd210c)"/>
    <path d="M 84.213819 59.921136 
L 85.958113 59.889917 
L 86.134807 59.520132 
L 87.610668 60.043652 
L 86.154485 60.619648 
L 85.964673 60.256422 
L 84.220379 60.287641 
L 84.213819 59.921136 
" clip-path="url(#p2c12fd210c)"/>
    <path d="M 25.908341 56.333154 
L 27.620717 55.999537 
L 27.730518 55.604688 
L 29.274862 55.863992 
L 27.940814 56.684086 
L 27.690815 56.359336 
L 25.978439 56.692953 
L 25.908341 56.333154 
" clip-path="url(#p2c12fd210c)"/>
    <path d="M 52.6354 37.180546 
L 54.379329 37.133076 
L 54.552568 36.76166 
L 56.033244 37.271406 
L 54.582491 37.860946 
L 54.389303 37.499504 
L 52.645374 37.546975 
L 52.6354 37.180546 
" clip-path="url(#p2c12fd210c)"/>
    <path d="M 81.193247 29.689924 
L 82.936714 29.752125 
L 83.132949 29.392329 
L 84.578669 29.994104 
L 83.093741 30.491322 
L 82.923645 30.118456 
L 81.180178 30.056255 
L 81.193247 29.689924 
" clip-path="url(#p2c12fd210c)"/>
    <path d="M 32.047589 55.107196 
L 33.786314 54.964479 
L 33.938994 54.58415 
L 35.445317 55.012204 
L 34.028956 55.680156 
L 33.816301 55.329814 
L 32.077576 55.472531 
L 32.047589 55.107196 
" clip-path="url(#p2c12fd210c)"/>
    <path d="M 68.972598 63.835202 
L 70.71067 63.985694 
L 70.92489 63.636306 
L 72.33825 64.310586 
L 70.830028 64.7319 
L 70.67905 64.350892 
L 68.940977 64.2004 
L 68.972598 63.835202 
" clip-path="url(#p2c12fd210c)"/>
    <path d="M 90.992909 22.329082 
L 92.72411 22.544688 
L 92.95129 22.203585 
L 94.338352 22.930426 
L 92.815382 23.294847 
L 92.678808 22.908442 
L 90.947606 22.692836 
L 90.992909 22.329082 
" clip-path="url(#p2c12fd210c)"/>
    <path d="M 56.022848 52.513991 
L 57.75052 52.756249 
L 57.982929 52.418687 
L 59.358626 53.166816 
L 57.830222 53.507725 
L 57.699618 53.119261 
L 55.971946 52.877003 
L 56.022848 52.513991 
" clip-path="url(#p2c12fd210c)"/>
    <path d="M 62.303459 46.626876 
L 64.04703 46.567719 
L 64.217777 46.195151 
L 65.701835 46.694962 
L 64.255066 47.294211 
L 64.05946 46.934073 
L 62.315889 46.993229 
L 62.303459 46.626876 
" clip-path="url(#p2c12fd210c)"/>
    <path d="M 27.955378 16.37288 
L 29.699311 16.325629 
L 29.872598 15.954235 
L 31.353209 16.464167 
L 29.902382 17.053524 
L 29.709239 16.692059 
L 27.965306 16.739309 
L 27.955378 16.37288 
" clip-path="url(#p2c12fd210c)"/>
    <path d="M 75.705104 43.807649 
L 77.449435 43.778557 
L 77.626578 43.408987 
L 79.1018 43.934306 
L 77.644917 44.508527 
L 77.455547 44.14507 
L 75.711217 44.174162 
L 75.705104 43.807649 
" clip-path="url(#p2c12fd210c)"/>
    <path d="M 72.922254 75.749539 
L 74.666786 75.761498 
L 74.852576 75.396199 
L 76.315029 75.956084 
L 74.845038 76.495866 
L 74.664273 76.128054 
L 72.919741 76.116095 
L 72.922254 75.749539 
" clip-path="url(#p2c12fd210c)"/>
    <path d="M 28.672348 71.490935 
L 30.388394 71.80513 
L 30.634697 71.477569 
L 31.977952 72.282495 
L 30.436644 72.55928 
L 30.322377 72.165701 
L 28.60633 71.851506 
L 28.672348 71.490935 
" clip-path="url(#p2c12fd210c)"/>
    <path d="M 39.482225 81.513752 
L 41.168829 81.959744 
L 41.439731 81.652215 
L 42.7167 82.558631 
L 41.158601 82.715366 
L 41.075119 82.314127 
L 39.388515 81.868136 
L 39.482225 81.513752 
" clip-path="url(#p2c12fd210c)"/>
    <path d="M 41.326355 56.736173 
L 43.051948 56.99281 
L 43.28716 56.657196 
L 44.656579 57.416756 
L 43.125388 57.744924 
L 42.998024 57.355386 
L 41.272431 57.098749 
L 41.326355 56.736173 
" clip-path="url(#p2c12fd210c)"/>
    <path d="M 66.272827 56.283535 
L 67.960386 55.841185 
L 68.044733 55.440127 
L 69.602491 55.600223 
L 68.323569 56.503882 
L 68.053331 56.195769 
L 66.365772 56.63812 
L 66.272827 56.283535 
" clip-path="url(#p2c12fd210c)"/>
    <path d="M 53.82886 86.115046 
L 55.552854 86.382228 
L 55.790113 86.048058 
L 57.154863 86.815976 
L 55.621695 87.134777 
L 55.496714 86.744468 
L 53.772721 86.477285 
L 53.82886 86.115046 
" clip-path="url(#p2c12fd210c)"/>
    <path d="M 33.796152 15.595667 
L 35.507783 15.258241 
L 35.616706 14.863149 
L 37.161623 15.119017 
L 35.829402 15.942076 
L 35.578682 15.617883 
L 33.86705 15.955309 
L 33.796152 15.595667 
" clip-path="url(#p2c12fd210c)"/>
    <path d="M 64.732617 20.753216 
L 66.45742 20.491301 
L 66.583592 20.101375 
L 68.115779 20.424858 
L 66.74869 21.188604 
L 66.512452 20.85371 
L 64.78765 21.115626 
L 64.732617 20.753216 
" clip-path="url(#p2c12fd210c)"/>
    <path d="M 44.301632 72.353267 
L 46.007343 72.719455 
L 46.263484 72.399528 
L 47.581663 73.244893 
L 46.032658 73.474722 
L 45.930401 73.077853 
L 44.22469 72.711665 
L 44.301632 72.353267 
" clip-path="url(#p2c12fd210c)"/>
    <path d="M 65.672942 48.942643 
L 67.414812 49.039726 
L 67.618209 48.68393 
L 69.051595 49.314519 
L 67.557012 49.781918 
L 67.394413 49.405722 
L 65.652543 49.308639 
L 65.672942 48.942643 
" clip-path="url(#p2c12fd210c)"/>
    <path d="M 72.306554 45.166909 
L 70.70711 44.470265 
L 70.392698 44.733147 
L 69.267983 43.643535 
L 70.831828 43.724936 
L 70.853487 44.134195 
L 72.452931 44.830839 
L 72.306554 45.166909 
" clip-path="url(#p2c12fd210c)"/>
    <path d="M 66.518195 60.629046 
L 68.256157 60.4773 
L 68.40686 60.096183 
L 69.915386 60.516407 
L 68.502513 61.191707 
L 68.288042 60.842475 
L 66.550079 60.994221 
L 66.518195 60.629046 
" clip-path="url(#p2c12fd210c)"/>
    <path d="M 80.962197 69.964027 
L 82.706354 70.002099 
L 82.897592 69.639622 
L 84.3515 70.221335 
L 82.873594 70.739052 
L 82.698355 70.368576 
L 80.954197 70.330504 
L 80.962197 69.964027 
" clip-path="url(#p2c12fd210c)"/>
    <path d="M 91.021869 29.761679 
L 92.764675 29.840141 
L 92.964258 29.482191 
L 94.404301 30.097427 
L 92.914799 30.580771 
L 92.748188 30.206335 
L 91.005383 30.127872 
L 91.021869 29.761679 
" clip-path="url(#p2c12fd210c)"/>
    <path d="M 67.954393 18.537331 
L 69.633936 19.009205 
L 69.909536 18.705879 
L 71.172415 19.631825 
L 69.612089 19.764581 
L 69.534788 19.362106 
L 67.855244 18.890232 
L 67.954393 18.537331 
" clip-path="url(#p2c12fd210c)"/>
    <path d="M 76.610385 64.64938 
L 78.354781 64.674343 
L 78.54329 64.310439 
L 80.001528 64.881209 
L 78.527554 65.410019 
L 78.349536 65.040869 
L 76.60514 65.015906 
L 76.610385 64.64938 
" clip-path="url(#p2c12fd210c)"/>
    <path d="M 36.426974 33.669312 
L 38.138262 33.330142 
L 38.246782 32.934939 
L 39.791959 33.189233 
L 38.460577 34.013649 
L 38.209527 33.689712 
L 36.498239 34.028882 
L 36.426974 33.669312 
" clip-path="url(#p2c12fd210c)"/>
    <path d="M 78.473135 69.014115 
L 80.212783 69.145134 
L 80.423077 68.79337 
L 81.843899 69.45178 
L 80.340489 69.889957 
L 80.185254 69.510663 
L 78.445606 69.379644 
L 78.473135 69.014115 
" clip-path="url(#p2c12fd210c)"/>
    <path d="M 48.970725 75.140614 
L 50.714815 75.181708 
L 50.906681 74.819563 
L 52.359578 75.403796 
L 50.880777 75.918951 
L 50.70618 75.548171 
L 48.96209 75.507076 
L 48.970725 75.140614 
" clip-path="url(#p2c12fd210c)"/>
    <path d="M 78.924523 41.685721 
L 80.663368 41.826941 
L 80.875722 41.476416 
L 82.292657 42.143148 
L 80.786704 42.5725 
L 80.633696 42.192302 
L 78.89485 42.051083 
L 78.924523 41.685721 
" clip-path="url(#p2c12fd210c)"/>
    <path d="M 48.235075 45.233459 
L 49.979366 45.264831 
L 50.16921 44.901622 
L 51.625342 45.477746 
L 50.149435 46.001136 
L 49.972774 45.631336 
L 48.228484 45.599964 
L 48.235075 45.233459 
" clip-path="url(#p2c12fd210c)"/>
    <path d="M 49.016129 76.012669 
L 50.739681 76.282678 
L 50.977488 75.948897 
L 52.340977 76.719052 
L 50.807288 77.035339 
L 50.682948 76.644825 
L 48.959396 76.374816 
L 49.016129 76.012669 
" clip-path="url(#p2c12fd210c)"/>
    <path d="M 37.789987 59.636482 
L 39.496483 59.273986 
L 39.599599 58.877339 
L 41.148103 59.110519 
L 39.828098 59.953031 
L 39.57265 59.63255 
L 37.866153 59.995046 
L 37.789987 59.636482 
" clip-path="url(#p2c12fd210c)"/>
    <path d="M 45.434913 39.666874 
L 47.175851 39.779477 
L 47.382411 39.425507 
L 48.81012 40.068846 
L 47.311431 40.522907 
L 47.152191 40.145277 
L 45.411254 40.032674 
L 45.434913 39.666874 
" clip-path="url(#p2c12fd210c)"/>
    <path d="M 60.493451 17.91988 
L 62.237762 17.950167 
L 62.427381 17.58684 
L 63.883871 18.162058 
L 62.408289 18.686366 
L 62.231399 18.316676 
L 60.487088 18.286389 
L 60.493451 17.91988 
" clip-path="url(#p2c12fd210c)"/>
    <path d="M 75.570552 57.569318 
L 77.315123 57.570707 
L 77.498697 57.204289 
L 78.964515 57.755303 
L 77.497821 58.303981 
L 77.314831 57.937271 
L 75.57026 57.935882 
L 75.570552 57.569318 
" clip-path="url(#p2c12fd210c)"/>
    <path d="M 67.53109 52.272212 
L 65.805065 52.018479 
L 65.570418 52.354488 
L 64.199722 51.597235 
L 65.730358 51.266489 
L 65.858378 51.655812 
L 67.584404 51.909545 
L 67.53109 52.272212 
" clip-path="url(#p2c12fd210c)"/>
    <path d="M 48.140513 33.997617 
L 49.828206 34.439464 
L 50.098352 34.131271 
L 51.377543 35.034548 
L 49.819834 35.195109 
L 49.735367 34.794077 
L 48.047674 34.35223 
L 48.140513 33.997617 
" clip-path="url(#p2c12fd210c)"/>
    <path d="M 50.380945 56.273351 
L 52.11917 56.124658 
L 52.270542 55.743806 
L 53.778327 56.16668 
L 52.364271 56.839497 
L 52.150413 56.489888 
L 50.412188 56.638581 
L 50.380945 56.273351 
" clip-path="url(#p2c12fd210c)"/>
    <path d="M 40.493705 23.840129 
L 42.229201 24.017858 
L 42.448874 23.671873 
L 43.851486 24.368234 
L 42.336842 24.765844 
L 42.191857 24.382515 
L 40.456362 24.204786 
L 40.493705 23.840129 
" clip-path="url(#p2c12fd210c)"/>
    <path d="M 32.283191 14.600905 
L 34.016047 14.802762 
L 34.240511 14.459866 
L 35.633299 15.175673 
L 34.113271 15.552173 
L 33.973633 15.166864 
L 32.240778 14.965007 
L 32.283191 14.600905 
" clip-path="url(#p2c12fd210c)"/>
    <path d="M 69.541001 24.72963 
L 71.242064 25.116839 
L 71.502134 24.800097 
L 72.80978 25.661666 
L 71.258057 25.872361 
L 71.160705 25.47426 
L 69.459642 25.087051 
L 69.541001 24.72963 
" clip-path="url(#p2c12fd210c)"/>
    <path d="M 27.679583 67.405578 
L 29.423421 67.354952 
L 29.595988 66.983223 
L 31.077583 67.490288 
L 29.6279 68.082453 
L 29.434058 67.721362 
L 27.69022 67.771988 
L 27.679583 67.405578 
" clip-path="url(#p2c12fd210c)"/>
    <path d="M 40.071821 49.561647 
L 41.794538 49.836932 
L 42.033366 49.503881 
L 43.39449 50.278207 
L 41.85984 50.589797 
L 41.736696 50.198904 
L 40.013979 49.923619 
L 40.071821 49.561647 
" clip-path="url(#p2c12fd210c)"/>
    <path d="M 62.814622 66.443489 
L 64.539401 66.181426 
L 64.665539 65.79149 
L 66.197754 66.114841 
L 64.830731 66.878704 
L 64.594464 66.543831 
L 62.869686 66.805894 
L 62.814622 66.443489 
" clip-path="url(#p2c12fd210c)"/>
    <path d="M 42.567402 24.708431 
L 44.275998 24.355964 
L 44.381441 23.95993 
L 45.928549 24.202201 
L 44.603619 25.036945 
L 44.350057 24.714969 
L 42.641461 25.067436 
L 42.567402 24.708431 
" clip-path="url(#p2c12fd210c)"/>
    <path d="M 48.865523 80.151506 
L 50.604376 80.292654 
L 50.816715 79.94212 
L 52.233678 80.608794 
L 50.727742 81.038208 
L 50.574719 80.658016 
L 48.835865 80.516869 
L 48.865523 80.151506 
" clip-path="url(#p2c12fd210c)"/>
    <path d="M 29.447904 26.580502 
L 31.155972 26.935524 
L 31.410015 26.613928 
L 32.733695 27.450653 
L 31.186226 27.690609 
L 31.081376 27.294418 
L 29.373308 26.939396 
L 29.447904 26.580502 
" clip-path="url(#p2c12fd210c)"/>
    <path d="M 68.284178 34.230876 
L 70.015354 34.015077 
L 70.151885 33.628656 
L 71.674896 33.992908 
L 70.287914 34.719903 
L 70.060697 34.378826 
L 68.329521 34.594625 
L 68.284178 34.230876 
" clip-path="url(#p2c12fd210c)"/>
    <path d="M 70.825598 47.005612 
L 72.470513 46.424402 
L 72.521203 46.017718 
L 74.08688 46.047666 
L 72.887568 47.054588 
L 72.592635 46.770026 
L 70.94772 47.351236 
L 70.825598 47.005612 
" clip-path="url(#p2c12fd210c)"/>
    <path d="M 55.748631 66.25861 
L 57.377402 66.883623 
L 57.679844 66.607053 
L 58.851784 67.645704 
L 57.285867 67.63375 
L 57.246077 67.225855 
L 55.617305 66.600842 
L 55.748631 66.25861 
" clip-path="url(#p2c12fd210c)"/>
    <path d="M 80.387185 27.282006 
L 82.129507 27.370654 
L 82.331179 27.013877 
L 83.767602 27.637519 
L 82.275299 28.112149 
L 82.110881 27.736745 
L 80.368558 27.648097 
L 80.387185 27.282006 
" clip-path="url(#p2c12fd210c)"/>
    <path d="M 70.860249 53.955183 
L 72.603945 54.010586 
L 72.798776 53.650028 
L 74.246832 54.246161 
L 72.763853 54.749165 
L 72.592304 54.376966 
L 70.848608 54.321562 
L 70.860249 53.955183 
" clip-path="url(#p2c12fd210c)"/>
    <path d="M 92.122228 34.236268 
L 93.824304 34.618998 
L 94.083539 34.301573 
L 95.393449 35.159696 
L 93.842285 35.374476 
L 93.743886 34.976632 
L 92.04181 34.593902 
L 92.122228 34.236268 
" clip-path="url(#p2c12fd210c)"/>
    <path d="M 72.81179 42.382993 
L 74.480342 42.892364 
L 74.762665 42.595287 
L 76.004489 43.549285 
L 74.441582 43.647061 
L 74.373314 43.242956 
L 72.704763 42.733584 
L 72.81179 42.382993 
" clip-path="url(#p2c12fd210c)"/>
    <path d="M 54.471279 52.76655 
L 56.211004 52.636554 
L 56.366462 52.257352 
L 57.869614 52.696412 
L 56.448405 53.353987 
L 56.238318 53.002099 
L 54.498594 53.132095 
L 54.471279 52.76655 
" clip-path="url(#p2c12fd210c)"/>
    <path d="M 51.441655 24.895748 
L 53.163847 25.174307 
L 53.403307 24.841711 
L 54.762957 25.618622 
L 53.227717 25.927294 
L 53.105317 25.536168 
L 51.383125 25.257609 
L 51.441655 24.895748 
" clip-path="url(#p2c12fd210c)"/>
    <path d="M 81.491957 34.379267 
L 83.201233 34.728437 
L 83.454173 34.405973 
L 84.780712 35.238158 
L 83.234074 35.483414 
L 83.127867 35.087584 
L 81.41859 34.738415 
L 81.491957 34.379267 
" clip-path="url(#p2c12fd210c)"/>
    <path d="M 73.965248 42.044337 
L 72.391265 41.291933 
L 72.067812 41.543608 
L 70.982069 40.415157 
L 72.54209 40.551446 
L 72.549357 40.961213 
L 74.123341 41.713616 
L 73.965248 42.044337 
" clip-path="url(#p2c12fd210c)"/>
    <path d="M 77.993614 54.735332 
L 79.738133 54.721173 
L 79.918434 54.353134 
L 81.389104 54.891062 
L 79.927359 55.45279 
L 79.741108 55.087726 
L 77.996589 55.101884 
L 77.993614 54.735332 
" clip-path="url(#p2c12fd210c)"/>
    <path d="M 52.517931 69.265767 
L 54.260614 69.184593 
L 54.426641 68.809898 
L 55.916894 69.290924 
L 54.47781 69.908399 
L 54.27767 69.55076 
L 52.534987 69.631935 
L 52.517931 69.265767 
" clip-path="url(#p2c12fd210c)"/>
    <path d="M 46.815016 30.981559 
L 48.542534 30.738218 
L 48.672894 30.349672 
L 50.201512 30.689624 
L 48.826284 31.438615 
L 48.593664 31.101199 
L 46.866146 31.34454 
L 46.815016 30.981559 
" clip-path="url(#p2c12fd210c)"/>
    <path d="M 56.066147 71.639628 
L 57.807884 71.54018 
L 57.969972 71.163764 
L 59.465188 71.629134 
L 58.032659 72.261669 
L 57.82878 71.906148 
L 56.087042 72.005596 
L 56.066147 71.639628 
" clip-path="url(#p2c12fd210c)"/>
    <path d="M 65.626207 80.81432 
L 67.356222 81.039221 
L 67.58523 80.699343 
L 68.968369 81.433624 
L 67.443464 81.78986 
L 67.308966 81.402726 
L 65.578951 81.177825 
L 65.626207 80.81432 
" clip-path="url(#p2c12fd210c)"/>
    <path d="M 47.212097 41.070414 
L 48.929156 41.379038 
L 49.174394 41.050678 
L 50.520255 41.85124 
L 48.979854 42.133026 
L 48.864309 41.73982 
L 47.14725 41.431197 
L 47.212097 41.070414 
" clip-path="url(#p2c12fd210c)"/>
    <path d="M 61.484925 53.305315 
L 63.184563 53.698725 
L 63.445786 53.382934 
L 64.750282 54.249265 
L 63.1978 54.4543 
L 63.101901 54.055847 
L 61.402263 53.662437 
L 61.484925 53.305315 
" clip-path="url(#p2c12fd210c)"/>
    <path d="M 66.371223 40.307466 
L 68.050139 39.833352 
L 68.126904 39.430775 
L 69.687405 39.56145 
L 68.425762 40.489079 
L 68.149758 40.18612 
L 66.470842 40.660234 
L 66.371223 40.307466 
" clip-path="url(#p2c12fd210c)"/>
    <path d="M 60.648819 54.766371 
L 62.392919 54.807055 
L 62.5847 54.444865 
L 64.037735 55.028755 
L 62.559055 55.544258 
L 62.384371 55.173519 
L 60.640271 55.132836 
L 60.648819 54.766371 
" clip-path="url(#p2c12fd210c)"/>
    <path d="M 57.485508 88.032194 
L 59.228911 87.968268 
L 59.398638 87.595234 
L 60.884058 88.090983 
L 59.438934 88.694188 
L 59.242343 88.334586 
L 57.49894 88.398512 
L 57.485508 88.032194 
" clip-path="url(#p2c12fd210c)"/>
    <path d="M 42.405714 43.23323 
L 44.123103 43.540004 
L 44.367988 43.21138 
L 45.71471 44.010492 
L 44.174613 44.293937 
L 44.058645 43.900856 
L 42.341256 43.594083 
L 42.405714 43.23323 
" clip-path="url(#p2c12fd210c)"/>
    <path d="M 39.578339 61.818996 
L 41.321849 61.87987 
L 41.51781 61.519924 
L 42.963988 62.120598 
L 41.479438 62.618947 
L 41.309058 62.246211 
L 39.565548 62.185337 
L 39.578339 61.818996 
" clip-path="url(#p2c12fd210c)"/>
    <path d="M 38.770789 70.137631 
L 40.499728 70.370661 
L 40.730331 70.031864 
L 42.110003 70.772637 
L 40.58344 71.121702 
L 40.450764 70.73394 
L 38.721826 70.50091 
L 38.770789 70.137631 
" clip-path="url(#p2c12fd210c)"/>
    <path d="M 50.373509 32.670922 
L 52.089834 32.358242 
L 52.204449 31.964764 
L 53.745512 32.24291 
L 52.401547 33.046649 
L 52.155533 32.718871 
L 50.439208 33.03155 
L 50.373509 32.670922 
" clip-path="url(#p2c12fd210c)"/>
    <path d="M 61.907467 75.946426 
L 63.643001 75.769068 
L 63.788068 75.38577 
L 65.302627 75.783704 
L 63.899866 76.479765 
L 63.680267 76.133733 
L 61.944733 76.311091 
L 61.907467 75.946426 
" clip-path="url(#p2c12fd210c)"/>
    <path d="M 45.403729 11.474404 
L 47.098268 11.05959 
L 47.189134 10.659959 
L 48.744078 10.845398 
L 47.450612 11.728112 
L 47.185427 11.415641 
L 45.490888 11.830455 
L 45.403729 11.474404 
" clip-path="url(#p2c12fd210c)"/>
    <path d="M 81.995503 63.054145 
L 83.729105 63.249477 
L 83.952277 62.905738 
L 85.34775 63.616297 
L 83.82915 63.998516 
L 83.688062 63.613736 
L 81.95446 63.418404 
L 81.995503 63.054145 
" clip-path="url(#p2c12fd210c)"/>
    <path d="M 45.847093 15.469986 
L 47.578047 15.687552 
L 47.805612 15.346707 
L 49.191851 16.075117 
L 47.66847 16.437814 
L 47.532333 16.051254 
L 45.801378 15.833688 
L 45.847093 15.469986 
" clip-path="url(#p2c12fd210c)"/>
    <path d="M 25.728938 45.549527 
L 27.473312 45.575941 
L 27.662123 45.212194 
L 29.119887 45.784177 
L 27.645473 46.31176 
L 27.467762 45.942463 
L 25.723388 45.916049 
L 25.728938 45.549527 
" clip-path="url(#p2c12fd210c)"/>
    <path d="M 68.982797 34.125914 
L 70.695028 34.460289 
L 70.94517 34.13565 
L 72.278856 34.956333 
L 70.734397 35.214954 
L 70.624771 34.820057 
L 68.91254 34.485682 
L 68.982797 34.125914 
" clip-path="url(#p2c12fd210c)"/>
    <path d="M 57.716309 32.542522 
L 59.460575 32.509756 
L 59.63694 32.139815 
L 61.113265 32.662025 
L 59.657594 33.239313 
L 59.467459 32.876256 
L 57.723193 32.909022 
L 57.716309 32.542522 
" clip-path="url(#p2c12fd210c)"/>
    <path d="M 34.692999 51.778281 
L 36.362338 52.285083 
L 36.644204 51.987571 
L 37.887496 52.939654 
L 36.324741 53.039838 
L 36.255851 52.635839 
L 34.586512 52.129037 
L 34.692999 51.778281 
" clip-path="url(#p2c12fd210c)"/>
    <path d="M 59.038749 63.608797 
L 60.769799 63.392002 
L 60.906108 63.005503 
L 62.429328 63.368877 
L 61.042766 64.096671 
L 60.815352 63.755724 
L 59.084301 63.97252 
L 59.038749 63.608797 
" clip-path="url(#p2c12fd210c)"/>
    <path d="M 50.887043 23.492808 
L 52.624788 23.338611 
L 52.774954 22.957282 
L 54.284071 23.375378 
L 52.872152 24.05267 
L 52.657188 23.70374 
L 50.919442 23.857937 
L 50.887043 23.492808 
" clip-path="url(#p2c12fd210c)"/>
    <path d="M 23.205628 15.691541 
L 24.921264 15.375109 
L 25.035018 14.981381 
L 26.576685 15.256155 
L 25.234481 16.062832 
L 24.987752 15.735592 
L 23.272116 16.052025 
L 23.205628 15.691541 
" clip-path="url(#p2c12fd210c)"/>
    <path d="M 26.952115 18.251591 
L 28.682762 18.03161 
L 28.81836 17.644861 
L 30.342246 18.005431 
L 28.957025 18.735776 
L 28.728984 18.395248 
L 26.998337 18.61523 
L 26.952115 18.251591 
" clip-path="url(#p2c12fd210c)"/>
    <path d="M 61.552866 18.037704 
L 63.293299 17.917564 
L 63.450903 17.539248 
L 64.951544 17.986816 
L 63.526633 18.63633 
L 63.318543 18.283258 
L 61.578109 18.403398 
L 61.552866 18.037704 
" clip-path="url(#p2c12fd210c)"/>
    <path d="M 39.826176 65.641845 
L 41.566374 65.765326 
L 41.775142 65.412653 
L 43.198803 66.064902 
L 41.697306 66.509588 
L 41.540429 66.13097 
L 39.800231 66.00749 
L 39.826176 65.641845 
" clip-path="url(#p2c12fd210c)"/>
    <path d="M 92.162112 24.86507 
L 93.83854 24.382228 
L 93.913209 23.979257 
L 95.474369 24.101812 
L 94.217568 25.035992 
L 93.939993 24.734473 
L 92.263565 25.217315 
L 92.162112 24.86507 
" clip-path="url(#p2c12fd210c)"/>
    <path d="M 37.830818 30.171853 
L 39.57494 30.211607 
L 39.766527 29.849314 
L 41.219874 30.432429 
L 39.741469 30.948721 
L 39.566587 30.578076 
L 37.822465 30.538322 
L 37.830818 30.171853 
" clip-path="url(#p2c12fd210c)"/>
    <path d="M 75.442028 32.654171 
L 77.185772 32.708003 
L 77.380278 32.347269 
L 78.82887 32.942098 
L 77.346345 33.446438 
L 77.174461 33.074393 
L 75.430717 33.020561 
L 75.442028 32.654171 
" clip-path="url(#p2c12fd210c)"/>
    <path d="M 74.039994 62.346755 
L 75.781514 62.243597 
L 75.942801 61.866837 
L 77.439004 62.32902 
L 76.007826 62.964605 
L 75.80319 62.60952 
L 74.061669 62.712678 
L 74.039994 62.346755 
" clip-path="url(#p2c12fd210c)"/>
    <path d="M 40.973631 64.625792 
L 42.716668 64.55256 
L 42.884401 64.178626 
L 44.372446 64.666438 
L 42.930563 65.277349 
L 42.732055 64.918801 
L 40.989018 64.992033 
L 40.973631 64.625792 
" clip-path="url(#p2c12fd210c)"/>
    <path d="M 70.16584 40.330499 
L 68.432626 40.131753 
L 68.208777 40.475051 
L 66.814706 39.761746 
L 68.334056 39.382518 
L 68.474385 39.767576 
L 70.2076 39.966321 
L 70.16584 40.330499 
" clip-path="url(#p2c12fd210c)"/>
    <path d="M 85.722212 61.714698 
L 87.458504 61.884498 
L 87.676594 61.537513 
L 89.082373 62.227459 
L 87.569561 62.631984 
L 87.422827 62.249321 
L 85.686534 62.079522 
L 85.722212 61.714698 
" clip-path="url(#p2c12fd210c)"/>
    <path d="M 52.046359 20.912601 
L 53.736119 21.346479 
L 54.004807 21.037014 
L 55.288247 21.934244 
L 53.731312 22.102155 
L 53.644954 21.701525 
L 51.955194 21.267648 
L 52.046359 20.912601 
" clip-path="url(#p2c12fd210c)"/>
    <path d="M 61.610628 53.573816 
L 63.349918 53.438138 
L 63.504137 53.05843 
L 65.008715 53.492579 
L 63.589661 54.154792 
L 63.378426 53.803592 
L 61.639137 53.93927 
L 61.610628 53.573816 
" clip-path="url(#p2c12fd210c)"/>
    <path d="M 69.66566 47.282376 
L 67.954367 46.943233 
L 67.703322 47.267174 
L 66.371927 46.442779 
L 67.917101 46.188461 
L 68.025627 46.583662 
L 69.736919 46.922805 
L 69.66566 47.282376 
" clip-path="url(#p2c12fd210c)"/>
    <path d="M 81.518646 19.53477 
L 83.262339 19.590277 
L 83.457191 19.229729 
L 84.905211 19.825948 
L 83.422203 20.328865 
L 83.250676 19.956655 
L 81.506983 19.901149 
L 81.518646 19.53477 
" clip-path="url(#p2c12fd210c)"/>
    <path d="M 88.65575 18.90664 
L 90.376835 19.191957 
L 90.6176 18.860304 
L 91.974189 19.642546 
L 90.43775 19.94519 
L 90.316886 19.553586 
L 88.5958 19.268269 
L 88.65575 18.90664 
" clip-path="url(#p2c12fd210c)"/>
    <path d="M 57.284597 17.749801 
L 59.002861 18.051633 
L 59.2468 17.722307 
L 60.595815 18.517541 
L 59.05654 18.805415 
L 58.939442 18.412669 
L 57.221177 18.110837 
L 57.284597 17.749801 
" clip-path="url(#p2c12fd210c)"/>
    <path d="M 22.025113 33.958307 
L 23.751038 33.703902 
L 23.878906 33.314529 
L 25.409671 33.644679 
L 24.03927 34.402466 
L 23.804492 34.066548 
L 22.078568 34.320953 
L 22.025113 33.958307 
" clip-path="url(#p2c12fd210c)"/>
    <path d="M 31.455214 67.054571 
L 33.193637 67.200945 
L 33.407029 66.851051 
L 34.821982 67.521981 
L 33.314762 67.946866 
L 33.162882 67.566217 
L 31.424458 67.419843 
L 31.455214 67.054571 
" clip-path="url(#p2c12fd210c)"/>
    <path d="M 85.023588 69.003263 
L 86.756732 68.803882 
L 86.89692 68.418773 
L 88.41641 68.797443 
L 87.0226 69.51126 
L 86.798625 69.168044 
L 85.065481 69.367425 
L 85.023588 69.003263 
" clip-path="url(#p2c12fd210c)"/>
    <path d="M 34.129562 72.250521 
L 35.828179 71.852734 
L 35.923052 71.454035 
L 37.476057 71.65507 
L 36.173797 72.524759 
L 35.911761 72.209642 
L 34.213144 72.607429 
L 34.129562 72.250521 
" clip-path="url(#p2c12fd210c)"/>
    <path d="M 79.810405 54.705722 
L 81.518857 54.352567 
L 81.624141 53.95649 
L 83.171347 54.198137 
L 81.846752 55.033415 
L 81.593061 54.711542 
L 79.884609 55.064697 
L 79.810405 54.705722 
" clip-path="url(#p2c12fd210c)"/>
    <path d="M 43.265772 36.965362 
L 45.006466 36.849075 
L 45.164907 36.471109 
L 46.664553 36.921998 
L 45.238208 37.568356 
L 45.0309 37.214824 
L 43.290206 37.331111 
L 43.265772 36.965362 
" clip-path="url(#p2c12fd210c)"/>
    <path d="M 70.284364 68.177352 
L 71.985871 68.562605 
L 72.245577 68.245564 
L 73.554213 69.105628 
L 72.002733 69.318108 
L 71.904923 68.92012 
L 70.203416 68.534867 
L 70.284364 68.177352 
" clip-path="url(#p2c12fd210c)"/>
    <path d="M 67.513852 51.488299 
L 65.852896 50.954671 
L 65.566274 51.247604 
L 64.338481 50.275615 
L 65.902647 50.200619 
L 65.96502 50.605676 
L 67.625976 51.139304 
L 67.513852 51.488299 
" clip-path="url(#p2c12fd210c)"/>
    <path d="M 31.12674 41.451617 
L 32.865978 41.315285 
L 33.020054 40.935519 
L 34.524795 41.369102 
L 33.10599 42.031849 
L 32.894623 41.680729 
L 31.155386 41.81706 
L 31.12674 41.451617 
" clip-path="url(#p2c12fd210c)"/>
    <path d="M 47.142666 25.727836 
L 48.867368 25.465252 
L 48.993388 25.075277 
L 50.525701 25.398167 
L 49.158908 26.162442 
L 48.922541 25.82764 
L 47.19784 26.090224 
L 47.142666 25.727836 
" clip-path="url(#p2c12fd210c)"/>
    <path d="M 48.37851 56.402299 
L 50.062785 56.857009 
L 50.335274 56.550886 
L 51.607537 57.463895 
L 50.048648 57.612568 
L 49.967243 57.210903 
L 48.282968 56.756194 
L 48.37851 56.402299 
" clip-path="url(#p2c12fd210c)"/>
    <path d="M 73.239369 38.284659 
L 74.857671 38.936295 
L 75.164608 38.664722 
L 76.319359 39.72245 
L 74.753848 39.68482 
L 74.720752 39.276328 
L 73.102449 38.624692 
L 73.239369 38.284659 
" clip-path="url(#p2c12fd210c)"/>
    <path d="M 72.550266 54.211618 
L 70.806296 54.257518 
L 70.632722 54.628777 
L 69.152506 54.117699 
L 70.603789 53.529466 
L 70.796652 53.891081 
L 72.540622 53.845181 
L 72.550266 54.211618 
" clip-path="url(#p2c12fd210c)"/>
    <path d="M 28.68963 15.708152 
L 30.43304 15.771824 
L 30.629579 15.412193 
L 32.074791 16.015187 
L 30.589443 16.511153 
L 30.419662 16.138144 
L 28.676251 16.074472 
L 28.68963 15.708152 
" clip-path="url(#p2c12fd210c)"/>
    <path d="M 80.137671 16.80584 
L 81.882233 16.798663 
L 82.064005 16.431347 
L 83.532511 16.975157 
L 82.068529 17.531031 
L 81.883741 17.165224 
L 80.139179 17.172401 
L 80.137671 16.80584 
" clip-path="url(#p2c12fd210c)"/>
    <path d="M 35.214509 46.126114 
L 36.958915 46.150331 
L 37.147267 45.786347 
L 38.60575 46.356494 
L 37.132002 46.885933 
L 36.953826 46.51686 
L 35.20942 46.492642 
L 35.214509 46.126114 
" clip-path="url(#p2c12fd210c)"/>
    <path d="M 58.007221 18.109428 
L 59.653163 18.687706 
L 59.947589 18.402619 
L 61.148692 19.407403 
L 59.583071 19.44014 
L 59.531657 19.033547 
L 57.885715 18.455269 
L 58.007221 18.109428 
" clip-path="url(#p2c12fd210c)"/>
    <path d="M 65.092249 31.057506 
L 66.815545 30.785862 
L 66.939515 30.39523 
L 68.473503 30.710061 
L 67.110746 31.481509 
L 66.872622 31.147955 
L 65.149326 31.419599 
L 65.092249 31.057506 
" clip-path="url(#p2c12fd210c)"/>
    <path d="M 83.942895 23.811988 
L 85.602472 24.3499 
L 85.889849 24.057708 
L 87.11513 25.032862 
L 85.550776 25.103821 
L 85.489448 24.698605 
L 83.829871 24.160693 
L 83.942895 23.811988 
" clip-path="url(#p2c12fd210c)"/>
    <path d="M 83.994831 26.896778 
L 85.73185 27.058995 
L 85.948422 26.711061 
L 87.3572 27.394862 
L 85.846169 27.805989 
L 85.697765 27.423971 
L 83.960747 27.261754 
L 83.994831 26.896778 
" clip-path="url(#p2c12fd210c)"/>
    <path d="M 65.55231 79.626842 
L 67.277686 79.884947 
L 67.513183 79.549533 
L 68.881956 80.310257 
L 67.350487 80.637123 
L 67.223454 80.247477 
L 65.498078 79.989372 
L 65.55231 79.626842 
" clip-path="url(#p2c12fd210c)"/>
    <path d="M 72.163251 26.581701 
L 73.750625 27.305428 
L 74.069459 27.047928 
L 75.175494 28.156497 
L 73.613258 28.048529 
L 73.598558 27.638962 
L 72.011184 26.915235 
L 72.163251 26.581701 
" clip-path="url(#p2c12fd210c)"/>
    <path d="M 90.506949 25.301039 
L 92.247129 25.424819 
L 92.455957 25.072183 
L 93.879506 25.724677 
L 92.377932 26.169104 
L 92.22112 25.79046 
L 90.480941 25.666679 
L 90.506949 25.301039 
" clip-path="url(#p2c12fd210c)"/>
    <path d="M 80.690348 28.183094 
L 82.434861 28.197452 
L 82.621154 27.832409 
L 84.082836 28.394304 
L 82.612103 28.932064 
L 82.431844 28.564004 
L 80.687331 28.549645 
L 80.690348 28.183094 
" clip-path="url(#p2c12fd210c)"/>
    <path d="M 32.374589 58.795445 
L 34.118918 58.766243 
L 34.296038 58.396662 
L 35.771293 58.921888 
L 34.314446 59.496201 
L 34.125054 59.132756 
L 32.380724 59.161958 
L 32.374589 58.795445 
" clip-path="url(#p2c12fd210c)"/>
    <path d="M 92.629432 14.628242 
L 94.366645 14.468163 
L 94.515518 14.086327 
L 96.026042 14.499312 
L 94.616424 15.18138 
L 94.40028 14.83318 
L 92.663067 14.99326 
L 92.629432 14.628242 
" clip-path="url(#p2c12fd210c)"/>
    <path d="M 61.350532 44.391237 
L 63.072177 44.10933 
L 63.193817 43.717967 
L 64.729653 44.023653 
L 63.371517 44.803207 
L 63.13141 44.471077 
L 61.409765 44.752983 
L 61.350532 44.391237 
" clip-path="url(#p2c12fd210c)"/>
    <path d="M 57.500246 20.095892 
L 59.233525 20.294072 
L 59.457262 19.950701 
L 60.851566 20.663552 
L 59.332339 21.043275 
L 59.191884 20.658263 
L 57.458605 20.460083 
L 57.500246 20.095892 
" clip-path="url(#p2c12fd210c)"/>
    <path d="M 68.718292 16.741894 
L 70.450357 16.950425 
L 70.676141 16.608397 
L 72.066161 17.329566 
L 70.544693 17.700205 
L 70.406541 17.314361 
L 68.674476 17.10583 
L 68.718292 16.741894 
" clip-path="url(#p2c12fd210c)"/>
    <path d="M 62.691714 49.078145 
L 64.426135 48.890214 
L 64.568863 48.506039 
L 66.085819 48.894736 
L 64.687326 49.599333 
L 64.465623 49.254645 
L 62.731202 49.442576 
L 62.691714 49.078145 
" clip-path="url(#p2c12fd210c)"/>
    <path d="M 42.842858 60.000604 
L 44.586665 60.052332 
L 44.780735 59.691364 
L 46.230044 60.284444 
L 44.748129 60.790573 
L 44.575796 60.418735 
L 42.831989 60.367007 
L 42.842858 60.000604 
" clip-path="url(#p2c12fd210c)"/>
    <path d="M 49.224717 46.878533 
L 50.861212 47.483037 
L 51.160156 47.202691 
L 52.345051 48.226538 
L 50.779107 48.234255 
L 50.734196 47.826892 
L 49.097701 47.222388 
L 49.224717 46.878533 
" clip-path="url(#p2c12fd210c)"/>
    <path d="M 40.128581 41.759477 
L 41.817408 41.321979 
L 41.902907 40.921165 
L 43.460198 41.085739 
L 42.178684 41.985717 
L 41.909333 41.676829 
L 40.220507 42.114327 
L 40.128581 41.759477 
" clip-path="url(#p2c12fd210c)"/>
    <path d="M 84.245383 82.281893 
L 85.988152 82.202622 
L 86.154588 81.828108 
L 87.644315 82.310761 
L 86.204557 82.926665 
L 86.004808 82.568807 
L 84.262039 82.648078 
L 84.245383 82.281893 
" clip-path="url(#p2c12fd210c)"/>
    <path d="M 24.620491 24.21123 
L 26.331316 24.552723 
L 26.582805 24.229127 
L 27.913067 25.055349 
L 26.367546 25.307545 
L 26.259562 24.912196 
L 24.548738 24.570703 
L 24.620491 24.21123 
" clip-path="url(#p2c12fd210c)"/>
    <path d="M 73.148978 21.496899 
L 74.883535 21.683562 
L 75.104986 21.338713 
L 76.503994 22.042287 
L 74.987323 22.432093 
L 74.844314 22.048022 
L 73.109757 21.861359 
L 73.148978 21.496899 
" clip-path="url(#p2c12fd210c)"/>
    <path d="M 51.038471 60.987666 
L 52.780759 61.076948 
L 52.98256 60.720244 
L 54.418756 61.344408 
L 52.926281 61.818495 
L 52.761999 61.443032 
L 51.019711 61.35375 
L 51.038471 60.987666 
" clip-path="url(#p2c12fd210c)"/>
    <path d="M 22.226865 80.535726 
L 23.961014 80.726167 
L 24.183216 80.381801 
L 25.580688 81.088422 
L 24.063171 81.474922 
L 23.920999 81.090541 
L 22.18685 80.900099 
L 22.226865 80.535726 
" clip-path="url(#p2c12fd210c)"/>
    <path d="M 79.133922 54.325429 
L 80.789322 54.876053 
L 81.078931 54.586074 
L 82.296697 55.570597 
L 80.731844 55.629556 
L 80.673626 55.223881 
L 79.018226 54.673256 
L 79.133922 54.325429 
" clip-path="url(#p2c12fd210c)"/>
    <path d="M 50.899019 55.428877 
L 52.642432 55.492461 
L 52.838953 55.13282 
L 54.284195 55.735741 
L 52.798873 56.231782 
L 52.629072 55.858782 
L 50.885659 55.795198 
L 50.899019 55.428877 
" clip-path="url(#p2c12fd210c)"/>
    <path d="M 56.450821 46.797624 
L 58.106871 47.346289 
L 58.396137 47.055967 
L 59.615067 48.039048 
L 58.050286 48.099859 
L 57.991587 47.694253 
L 56.335537 47.145588 
L 56.450821 46.797624 
" clip-path="url(#p2c12fd210c)"/>
    <path d="M 31.10594 51.268796 
L 32.81248 50.906501 
L 32.915642 50.509866 
L 34.464119 50.743229 
L 33.144015 51.585585 
L 32.888604 51.265074 
L 31.182064 51.627368 
L 31.10594 51.268796 
" clip-path="url(#p2c12fd210c)"/>
    <path d="M 90.924657 66.347348 
L 92.563267 65.748599 
L 92.60961 65.341396 
L 94.175517 65.354617 
L 92.987031 66.374294 
L 92.689075 66.092898 
L 91.050465 66.691647 
L 90.924657 66.347348 
" clip-path="url(#p2c12fd210c)"/>
    <path d="M 90.166714 29.461996 
L 91.904851 29.611764 
L 92.118925 29.262288 
L 93.532565 29.935979 
L 92.024519 30.35792 
L 91.873382 29.976975 
L 90.135245 29.827207 
L 90.166714 29.461996 
" clip-path="url(#p2c12fd210c)"/>
    <path d="M 62.088342 62.223009 
L 63.803972 61.906553 
L 63.917721 61.512823 
L 65.459392 61.787577 
L 64.117199 62.594272 
L 63.870465 62.267036 
L 62.154835 62.583492 
L 62.088342 62.223009 
" clip-path="url(#p2c12fd210c)"/>
    <path d="M 26.161298 15.865876 
L 27.905867 15.861644 
L 28.08826 15.494636 
L 29.555846 16.040923 
L 28.090928 16.594325 
L 27.906757 16.228207 
L 26.162188 16.232439 
L 26.161298 15.865876 
" clip-path="url(#p2c12fd210c)"/>
    <path d="M 76.438767 82.5494 
L 78.18333 82.543803 
L 78.365436 82.176653 
L 79.833449 82.721792 
L 78.368964 83.27634 
L 78.184506 82.910366 
L 76.439943 82.915962 
L 76.438767 82.5494 
" clip-path="url(#p2c12fd210c)"/>
    <path d="M 34.304089 49.107901 
L 36.032928 49.341693 
L 36.26368 49.002997 
L 37.643025 49.744379 
L 36.116309 50.09277 
L 35.983804 49.704951 
L 34.254965 49.471158 
L 34.304089 49.107901 
" clip-path="url(#p2c12fd210c)"/>
    <path d="M 62.97209 48.08168 
L 64.703949 47.871438 
L 64.84172 47.485457 
L 66.363554 47.854595 
L 64.974246 48.577135 
L 64.748125 48.23533 
L 63.016265 48.445572 
L 62.97209 48.08168 
" clip-path="url(#p2c12fd210c)"/>
    <path d="M 45.715455 38.946092 
L 47.454004 38.801239 
L 47.606217 38.420723 
L 49.113065 38.846926 
L 47.697526 39.516618 
L 47.48444 39.166538 
L 45.745891 39.311391 
L 45.715455 38.946092 
" clip-path="url(#p2c12fd210c)"/>
    <path d="M 21.332409 30.717586 
L 22.960834 30.091665 
L 23.000397 29.683747 
L 24.566307 29.67092 
L 23.394946 30.710224 
L 23.09235 30.433823 
L 21.463926 31.059745 
L 21.332409 30.717586 
" clip-path="url(#p2c12fd210c)"/>
    <path d="M 54.609165 43.565053 
L 56.336675 43.808454 
L 56.569307 43.471046 
L 57.944509 44.220085 
L 56.415879 44.559983 
L 56.285532 44.171433 
L 54.558022 43.928032 
L 54.609165 43.565053 
" clip-path="url(#p2c12fd210c)"/>
    <path d="M 22.58895 18.067654 
L 24.333182 18.033035 
L 24.509154 17.662906 
L 25.986033 18.183547 
L 24.530976 18.762382 
L 24.340456 18.399527 
L 22.596224 18.434146 
L 22.58895 18.067654 
" clip-path="url(#p2c12fd210c)"/>
    <path d="M 76.133347 79.313756 
L 77.86568 79.520048 
L 78.091022 79.177728 
L 79.481973 79.897099 
L 77.960986 80.269706 
L 77.822335 79.88404 
L 76.090002 79.677748 
L 76.133347 79.313756 
" clip-path="url(#p2c12fd210c)"/>
    <path d="M 80.757875 84.461118 
L 82.502439 84.45497 
L 82.684429 84.087762 
L 84.152614 84.632438 
L 82.688304 85.187448 
L 82.503731 84.821532 
L 80.759166 84.827679 
L 80.757875 84.461118 
" clip-path="url(#p2c12fd210c)"/>
    <path d="M 65.732907 75.033149 
L 67.391945 74.493576 
L 67.452867 74.088299 
L 69.017292 74.157693 
L 67.792987 75.134072 
L 67.505318 74.842168 
L 65.84628 75.38174 
L 65.732907 75.033149 
" clip-path="url(#p2c12fd210c)"/>
    <path d="M 22.24403 49.175934 
L 23.961623 48.870295 
L 24.077851 48.47729 
L 25.61776 48.761754 
L 24.27051 49.559975 
L 24.025843 49.23119 
L 22.30825 49.536829 
L 22.24403 49.175934 
" clip-path="url(#p2c12fd210c)"/>
    <path d="M 93.092271 63.433264 
L 94.809451 63.125338 
L 94.925155 62.732179 
L 96.465442 63.014591 
L 95.119257 63.814606 
L 94.874152 63.486147 
L 93.156972 63.794073 
L 93.092271 63.433264 
" clip-path="url(#p2c12fd210c)"/>
    <path d="M 58.109393 56.573481 
L 59.846074 56.407716 
L 59.993697 56.025396 
L 61.505565 56.433434 
L 60.098187 57.120113 
L 59.880904 56.772622 
L 58.144223 56.938387 
L 58.109393 56.573481 
" clip-path="url(#p2c12fd210c)"/>
    <path d="M 48.164392 61.303393 
L 49.908959 61.298688 
L 50.091252 60.931631 
L 51.558986 61.477521 
L 50.094218 62.031319 
L 49.909948 61.665251 
L 48.165381 61.669956 
L 48.164392 61.303393 
" clip-path="url(#p2c12fd210c)"/>
    <path d="M 90.354577 32.371549 
L 92.091766 32.211223 
L 92.240585 31.829367 
L 93.751168 32.242137 
L 92.341647 32.924406 
L 92.125453 32.576236 
L 90.388264 32.736562 
L 90.354577 32.371549 
" clip-path="url(#p2c12fd210c)"/>
    <path d="M 29.402965 76.714077 
L 31.118414 77.031532 
L 31.365338 76.704439 
L 32.707061 77.511915 
L 31.165231 77.785772 
L 31.051711 77.391976 
L 29.336262 77.074521 
L 29.402965 76.714077 
" clip-path="url(#p2c12fd210c)"/>
    <path d="M 76.158473 24.195848 
L 77.844215 24.645096 
L 78.11571 24.338091 
L 79.390926 25.246971 
L 77.832527 25.400697 
L 77.749821 24.999298 
L 76.064079 24.55005 
L 76.158473 24.195848 
" clip-path="url(#p2c12fd210c)"/>
    <path d="M 39.916638 82.604364 
L 41.659457 82.526176 
L 41.826127 82.151766 
L 43.315553 82.635345 
L 41.875413 83.250353 
L 41.675886 82.892372 
L 39.933066 82.97056 
L 39.916638 82.604364 
" clip-path="url(#p2c12fd210c)"/>
    <path d="M 66.25285 20.670962 
L 67.996676 20.722113 
L 68.190627 20.36108 
L 69.640132 20.95368 
L 68.158385 21.4603 
L 67.985929 21.088519 
L 66.242102 21.037369 
L 66.25285 20.670962 
" clip-path="url(#p2c12fd210c)"/>
    <path d="M 54.54635 80.649633 
L 56.282134 80.474734 
L 56.427743 80.091642 
L 57.941737 80.491721 
L 56.537991 81.185794 
L 56.318883 80.839451 
L 54.583099 81.01435 
L 54.54635 80.649633 
" clip-path="url(#p2c12fd210c)"/>
    <path d="M 52.81815 15.985347 
L 54.56094 16.064209 
L 54.760605 15.706305 
L 56.200507 16.32187 
L 54.710894 16.804873 
L 54.54437 16.430398 
L 52.80158 16.351536 
L 52.81815 15.985347 
" clip-path="url(#p2c12fd210c)"/>
    <path d="M 33.665393 70.075289 
L 35.400034 70.261185 
L 35.621333 69.916238 
L 37.020652 70.619193 
L 35.504153 71.009669 
L 35.360975 70.625662 
L 33.626333 70.439766 
L 33.665393 70.075289 
" clip-path="url(#p2c12fd210c)"/>
    <path d="M 93.173647 46.382243 
L 94.803185 45.759233 
L 94.843477 45.351387 
L 96.409407 45.341358 
L 95.236191 46.378567 
L 94.93409 46.101626 
L 93.304552 46.724636 
L 93.173647 46.382243 
" clip-path="url(#p2c12fd210c)"/>
   </g>
  </g>
 </g>
 <defs>
  <clipPath id="p2c12fd210c">
   <rect x="7.2" y="7.2" width="86.4" height="86.4"/>
  </clipPath>
 </defs>
</svg>
